<?xml version="1.0" encoding="utf-8"?>
<!-- Generator: Adobe Illustrator 22.0.1, SVG Export Plug-In . SVG Version: 6.00 Build 0)  -->
<svg version="1.1" id="Calque_2_1_" xmlns="http://www.w3.org/2000/svg" xmlns:xlink="http://www.w3.org/1999/xlink" x="0px"
	 y="0px" viewBox="0 0 768 505.5" style="enable-background:new 0 0 768 505.5;" xml:space="preserve">
<style type="text/css">
	.st0{fill:#491370;}
	.st1{fill:#1B59E2;}
	.st2{fill:#6A24A8;}
	.st3{fill:#A214ED;}
	.st4{fill:#ECCDF9;stroke:#A756D6;stroke-width:10;stroke-miterlimit:10;}
	.st5{fill:none;stroke:#F917FF;stroke-width:4;stroke-linecap:round;stroke-miterlimit:10;}
	.st6{opacity:0.14;fill:#6E00B5;enable-background:new    ;}
	.st7{opacity:0.14;fill:#B414EF;enable-background:new    ;}
	.st8{fill:none;stroke:#F917FF;stroke-width:6;stroke-linecap:round;stroke-miterlimit:10;stroke-dasharray:19,19.4954,0,0;}
</style>
<rect x="-1.7" y="0.9" class="st0" width="770.3" height="506.5"/>
<g>
	<path class="st1" d="M532.9,137.1c-1-0.5-2-0.8-3-1.1c-0.6-0.6-1.2-1.1-1.8-1.6L532.9,137.1z"/>
	<path class="st1" d="M534.5,137.9L534.5,137.9c-0.1,0-0.2-0.1-0.3-0.2L534.5,137.9z"/>
	<path class="st1" d="M492,209.5L492,209.5l-6.2-3.6c1,0.5,2,0.9,3.1,1.1C489.8,208,490.9,208.8,492,209.5z"/>
	<path class="st2" d="M512.3,226.2l2.3,9.3l-5.4-3.3l-28.1-30c-3-3.6-4.7-8.9-4.7-15.6c0-18.7,13.3-41.7,29.5-51
		c8.8-5.1,16.8-5.1,22.2-1.1c0.7,0.5,1.3,1,1.8,1.6c-2.8-0.7-5.9-0.6-9.2,0.3c-2.5,0.6-5.1,1.7-7.8,3.3c-16.2,9.3-29.5,32.3-29.5,51
		c0,3.5,0.5,6.6,1.3,9.3l54.2-35L512.3,226.2z"/>
	<path class="st3" d="M542.4,156.5c0,2.8-0.3,5.6-0.8,8.5c-0.1,0.4-0.2,0.9-0.3,1.3c-1.3,6.1-26.6,69.2-26.6,69.2L488.9,207
		c-1.8-1.8-3.2-4.2-4.1-7.1c-0.9-2.7-1.4-5.9-1.4-9.5c0-18.7,13.3-41.7,29.5-51c2.7-1.6,5.3-2.6,7.8-3.3c3.3-0.9,6.5-0.9,9.2-0.3
		c1.1,0.3,2.1,0.6,3,1.1l1.3,0.7c0.1,0,0.2,0.1,0.3,0.2C539.4,141.2,542.4,147.6,542.4,156.5z"/>
	<ellipse class="st4" cx="270.1" cy="204.5" rx="28" ry="28"/>
	<line class="st5" x1="472.1" y1="132.4" x2="532.9" y2="97.3"/>
	<line class="st5" x1="535.1" y1="301.4" x2="595.9" y2="266.3"/>
	<line class="st5" x1="554.1" y1="205.4" x2="614.9" y2="170.3"/>
	<line class="st5" x1="387.1" y1="227.4" x2="447.9" y2="192.3"/>
	<line class="st5" x1="352.4" y1="149.4" x2="413.2" y2="114.3"/>
	<line class="st5" x1="198.1" y1="372.4" x2="258.9" y2="337.3"/>
	<line class="st5" x1="220.1" y1="146.4" x2="280.9" y2="111.3"/>
	<line class="st5" x1="153.1" y1="270.4" x2="213.9" y2="235.3"/>
	<circle class="st6" cx="271.1" cy="204.5" r="65"/>
	<circle class="st7" cx="271.1" cy="203.5" r="50"/>
</g>
<polyline class="st8" points="270.1,280 271.1,372.4 336.1,416 387.1,392 336.1,354.8 423,306 476.4,348 512.9,329 512.9,254.1 "/>
</svg>
