<?xml version="1.0" encoding="utf-8"?>
<!-- Generator: Adobe Illustrator 22.0.1, SVG Export Plug-In . SVG Version: 6.00 Build 0)  -->
<svg version="1.1" id="Calque_1" xmlns="http://www.w3.org/2000/svg" xmlns:xlink="http://www.w3.org/1999/xlink" x="0px" y="0px"
	 viewBox="0 0 984.6 1155" style="enable-background:new 0 0 984.6 1155;" xml:space="preserve">
<style type="text/css">
	.st0{fill:#93003C;}
	.st1{fill:#FF0D6A;}
	.st2{fill:#EA0C67;}
	.st3{fill:#D60F6A;}
	.st4{fill:#C11169;}
	.st5{fill:none;}
	.st6{fill:#F80000;}
	.st7{fill:#014185;}
	.st8{fill:#FFFFFF;}
	.st9{fill:#00755C;}
	.st10{fill:#189DD9;}
	.st11{fill:#043A4C;}
	.st12{fill:none;stroke:#FF0D6A;stroke-width:6;stroke-linecap:round;stroke-miterlimit:10;}
	.st13{fill:#FFFFFF;stroke:#FF0D6A;stroke-width:6;stroke-linecap:round;stroke-miterlimit:10;}
	.st14{fill:#003299;}
	.st15{fill:#FFF315;}
</style>
<g>
	<rect x="208.4" y="721.6" class="st0" width="204.7" height="161.5"/>
</g>
<g>
	<rect x="207" y="733.8" class="st1" width="15.5" height="137.2"/>
</g>
<g>
	<rect x="239.5" y="733.8" class="st1" width="15.5" height="137.2"/>
</g>
<g>
	<rect x="270.7" y="733.8" class="st1" width="15.5" height="137.2"/>
</g>
<g>
	<rect x="303.7" y="733.8" class="st1" width="15.5" height="137.2"/>
</g>
<g>
	<rect x="335.7" y="733.8" class="st1" width="15.5" height="137.2"/>
</g>
<g>
	<rect x="367.8" y="733.8" class="st1" width="15.5" height="137.2"/>
</g>
<g>
	<rect x="399.9" y="733.8" class="st1" width="15.5" height="137.2"/>
</g>
<g>
	<path class="st2" d="M223.6,734.3h-17.8c-1.4,0-2.6-1.2-2.6-2.6v-6.8h23v6.8C226.2,733.2,225.1,734.3,223.6,734.3z"/>
</g>
<g>
	<path class="st2" d="M256.1,734.3h-17.8c-1.4,0-2.6-1.2-2.6-2.6v-6.8h23v6.8C258.7,733.2,257.6,734.3,256.1,734.3z"/>
</g>
<g>
	<path class="st2" d="M287.4,734.3h-17.8c-1.4,0-2.6-1.2-2.6-2.6v-6.8h23v6.8C290,733.2,288.8,734.3,287.4,734.3z"/>
</g>
<g>
	<path class="st2" d="M320.3,734.3h-17.8c-1.4,0-2.6-1.2-2.6-2.6v-6.8h23v6.8C322.9,733.2,321.7,734.3,320.3,734.3z"/>
</g>
<g>
	<path class="st2" d="M352.4,734.3h-17.8c-1.4,0-2.6-1.2-2.6-2.6v-6.8h23v6.8C355,733.2,353.8,734.3,352.4,734.3z"/>
</g>
<g>
	<path class="st2" d="M384.5,734.3h-17.8c-1.4,0-2.6-1.2-2.6-2.6v-6.8h23v6.8C387.1,733.2,385.9,734.3,384.5,734.3z"/>
</g>
<g>
	<path class="st2" d="M416.6,734.3h-17.8c-1.4,0-2.6-1.2-2.6-2.6v-6.8h23v6.8C419.2,733.2,418,734.3,416.6,734.3z"/>
</g>
<g>
	<path class="st2" d="M397.7,866.6h17.8c1.4,0,2.6,1.2,2.6,2.6v6.8h-23v-6.8C395.1,867.7,396.2,866.6,397.7,866.6z"/>
</g>
<g>
	<path class="st2" d="M365.2,866.6H383c1.4,0,2.6,1.2,2.6,2.6v6.8h-23v-6.8C362.6,867.7,363.7,866.6,365.2,866.6z"/>
</g>
<g>
	<path class="st2" d="M333.9,866.6h17.8c1.4,0,2.6,1.2,2.6,2.6v6.8h-23v-6.8C331.3,867.7,332.5,866.6,333.9,866.6z"/>
</g>
<g>
	<path class="st2" d="M301,866.6h17.8c1.4,0,2.6,1.2,2.6,2.6v6.8h-23v-6.8C298.4,867.7,299.5,866.6,301,866.6z"/>
</g>
<g>
	<path class="st2" d="M268.9,866.6h17.8c1.4,0,2.6,1.2,2.6,2.6v6.8h-23v-6.8C266.3,867.7,267.5,866.6,268.9,866.6z"/>
</g>
<g>
	<path class="st2" d="M236.8,866.6h17.8c1.4,0,2.6,1.2,2.6,2.6v6.8h-23v-6.8C234.2,867.7,235.4,866.6,236.8,866.6z"/>
</g>
<g>
	<path class="st2" d="M204.7,866.6h17.8c1.4,0,2.6,1.2,2.6,2.6v6.8h-23v-6.8C202.1,867.7,203.3,866.6,204.7,866.6z"/>
</g>
<g>
	<path class="st3" d="M196.6,873.7h226c1.4,0,2.6,1.2,2.6,2.6v6.8H194v-6.8C194,874.9,195.2,873.7,196.6,873.7z"/>
</g>
<g>
	<path class="st4" d="M190.4,882.6h240.5c1.4,0,2.6,1.2,2.6,2.6v6.8H187.8v-6.8C187.8,883.8,189,882.6,190.4,882.6z"/>
</g>
<g>
	<path class="st3" d="M424.3,725.5h-226c-1.4,0-2.6-1.2-2.6-2.6v-6.8h231.2v6.8C426.8,724.3,425.7,725.5,424.3,725.5z"/>
</g>
<g>
	<path class="st0" d="M307.2,645.5L203,703.9c-4.5,2.5-2.7,9.4,2.5,9.4h211.2c5.2,0,7-6.9,2.4-9.4l-107-58.4
		C310.5,644.6,308.7,644.7,307.2,645.5z"/>
	<path class="st1" d="M425.4,718.8H196.9c-3.8,0-7.1-2.5-8-6.2s0.6-7.5,4-9.3l112.8-63.2c2.5-1.4,5.5-1.4,8,0l115.8,63.2
		c3.4,1.8,5,5.6,4.1,9.3C432.5,716.3,429.3,718.8,425.4,718.8z M207.4,707.8h207.2l-105-57.3L207.4,707.8z M311,649.7L311,649.7
		L311,649.7z"/>
</g>
<g>
	<line class="st5" x1="270.9" y1="692.3" x2="351.1" y2="692.3"/>
	<path class="st1" d="M351.1,697.8h-80.2c-3.1,0-5.5-2.5-5.5-5.5c0-3.1,2.5-5.5,5.5-5.5h80.2c3.1,0,5.5,2.5,5.5,5.5
		C356.6,695.3,354.2,697.8,351.1,697.8z"/>
</g>
<g id="layer1" transform="translate(-702.6538,-712.5837)">
	<g id="g16337">
		<path id="path16197" class="st6" d="M1436.1,1322.8h25l-13.2-21.3l-24.3,38.4h-11l29.5-46.2c1.3-1.9,3.4-3,5.8-3
			c2.3,0,4.4,1.1,5.7,2.9l29.6,46.2h-11l-5.2-8.6h-25.3L1436.1,1322.8z M1550.8,1331.4v-40.1h-9.4v44c0,1.2,0.5,2.4,1.4,3.3
			s2.1,1.4,3.4,1.4h42.7l5.5-8.6L1550.8,1331.4L1550.8,1331.4z M1395.8,1324.2c9.1,0,16.5-7.3,16.5-16.4s-7.4-16.5-16.5-16.5h-41
			v48.7h9.4v-40.1h31c4.4,0,7.9,3.5,7.9,7.9s-3.5,7.9-7.9,7.9h-26.4l28,24.4h13.6l-18.8-15.8L1395.8,1324.2L1395.8,1324.2z
			 M1297.2,1340c-13.4,0-24.4-10.9-24.4-24.3s10.9-24.4,24.4-24.4h28.3c13.4,0,24.3,10.9,24.3,24.4s-10.9,24.3-24.3,24.3H1297.2z
			 M1324.9,1331.4c8.7,0,15.8-7,15.8-15.7s-7.1-15.8-15.8-15.8h-27c-8.7,0-15.8,7.1-15.8,15.8c0,8.7,7.1,15.7,15.8,15.7H1324.9z
			 M1502.7,1340c-13.4,0-24.4-10.9-24.4-24.3s10.9-24.4,24.4-24.4h33.6l-5.5,8.6h-27.5c-8.7,0-15.8,7.1-15.8,15.8
			c0,8.7,7.1,15.7,15.8,15.7h33.8l-5.5,8.6L1502.7,1340L1502.7,1340z M1617.3,1331.4c-7.2,0-13.3-4.8-15.2-11.5h40l5.5-8.6h-45.5
			c1.9-6.6,8-11.5,15.2-11.5h27.5l5.6-8.6h-33.7c-13.4,0-24.4,10.9-24.4,24.4s10.9,24.3,24.4,24.3h28.9l5.5-8.6L1617.3,1331.4"/>
		<path id="path16199" class="st6" d="M1655.3,1296.5c0-2.4,1.9-4.3,4.3-4.3s4.3,1.9,4.3,4.3s-1.9,4.3-4.3,4.3
			C1657.2,1300.8,1655.3,1298.9,1655.3,1296.5z M1659.6,1302c3,0,5.5-2.4,5.5-5.5s-2.4-5.5-5.5-5.5c-3,0-5.4,2.4-5.4,5.5
			S1656.6,1302,1659.6,1302z M1659.1,1293.2c0.9,0,1.2,0,1.6,0.2c1.1,0.3,1.2,1.3,1.2,1.7c0,0.1,0,0.3-0.1,0.5c0,0.2-0.2,0.7-0.7,1
			c-0.1,0-0.1,0.1-0.3,0.2l1.4,2.5h-1.4l-1.2-2.3h-0.9v2.3h-1.2v-6.1L1659.1,1293.2L1659.1,1293.2z M1659.5,1296c0.4,0,0.8,0,1-0.4
			c0.1-0.2,0.2-0.3,0.2-0.5c0-0.3-0.2-0.6-0.5-0.7s-0.5-0.1-1.1-0.1h-0.3v1.8h0.7"/>
	</g>
</g>
<g id="layer1_1_" transform="translate(-446.7987,535.9143)">
	<path id="path25030" class="st7" d="M1012.4,6.1h114.3L1238.8-106h-226.4V6.1"/>
	<path id="path25032" class="st8" d="M1146.7-84.9h-22.2v53l-19.5-53h-19l-16.8,44.3c-1.8-11.2-13.3-15-22.6-17.9
		c-5.8-1.9-12.4-4.8-12-7.9c0-2.6,3.1-5,9.7-4.6c4.4,0.2,8.4,0.6,16.4,4.4l8-13.5c-7.5-3.7-17.3-6-25.3-6l0,0
		c-9.7,0-17.7,3.1-22.6,8.1c-3.1,3.5-5.3,8-5.3,13c0,6.8,2.7,11.7,7.5,15.6c4.9,3.3,10.2,5.4,15.5,6.9c6.2,1.9,11.1,3.6,11.1,7.1
		c0,1.3-0.4,2.5-1.3,3.5c-1.8,1.6-4,2.2-7.5,2.3c-6.2,0.1-10.6-0.9-18.2-5.3l-7.1,13.7c7.5,4.2,16.4,6.7,25.3,6.7h1.3
		c7.5-0.1,14.2-2.4,19.1-6.4c0.4-0.2,0.4-0.5,0.9-0.7l-2.2,6h20.4l3.1-10.3c3.5,1.2,7.5,1.9,12,1.9s8-0.7,11.5-1.8l3.5,10.2h32.8
		V-37h7.5c17.3,0,27.5-8.9,27.5-23.7C1178.1-77.3,1168.4-84.9,1146.7-84.9z M1095.3-39.6c-2.7,0-4.9-0.5-7.1-1.3l7.1-22.3l0,0
		l7.1,22.4C1100.1-40,1097.9-39.6,1095.3-39.6z M1148-52.4h-4.9v-18h4.9c6.6,0,12,2.2,12,8.9C1160-54.6,1154.6-52.4,1148-52.4"/>
	<path id="path25034" class="st7" d="M1154.6-1.1c0-3.4,2.7-6,5.8-6c3.1,0,5.8,2.6,5.8,6c0,3.6-2.7,6.1-5.8,6.1
		C1157.3,5,1154.6,2.5,1154.6-1.1z M1160.4,6.2c4,0,7.5-3.1,7.5-7.3s-3.5-7.2-7.5-7.2s-7.5,3.1-7.5,7.2
		C1152.9,3.1,1156.4,6.2,1160.4,6.2z M1159.1-0.5h1.3l2.2,3.6h1.3l-2.2-3.7c0.9-0.2,2.2-0.8,2.2-2.3c0-1.7-1.3-2.4-3.1-2.4h-3.1v8.4
		h1.3L1159.1-0.5L1159.1-0.5z M1159.1-1.6v-2.6h1.8c0.4,0,1.8,0.2,1.8,1.3c0,1.3-1.3,1.4-2.2,1.4L1159.1-1.6"/>
</g>
<g>
	<g id="XMLID_1_">
		<g>
			<path class="st9" d="M785.2,345.5c0,3.3-0.4,9.1-0.4,9.1h-46.5c0,10.6,7.2,14.5,17.6,14.5c5.8,0,13.1-2.6,17.6-6.6l10.2,7.4
				c-7.4,7.4-17.4,11.4-27.4,11.4c-8.3,0-17.2-1.9-23.7-7.8v5.5c0,19.5-15.5,28.5-32.7,28.5c-9.7,0-19.5-4.3-26.2-10.8l11.7-8
				c3.7,3.2,8.9,5.9,14.7,5.9c10.1,0,17.3-5,17.3-14V374c-4.8,4.5-11.7,7.5-19.5,7.5c-8.5,0-14.6-3.2-18.4-6.4v6.6h-15.2v-6.6H664
				c-3.1,4.5-8.3,6.5-18.6,6.5c-9.6,0-16.9-2.8-21.4-7.3c-5.6,4.7-14.6,7.2-25,7.2c-12.2,0-23.5-3.8-33.2-11.6l10.6-8.9
				c6.5,5.5,13.7,8.3,23.8,8.3c8.6,0,14.9-2.8,14.9-8.3c0-4.6-4-6-9.2-6.4l-13.4-1c-12.5-0.9-21.7-7.3-21.7-18.4
				c0-13.1,12.2-19.9,28.1-19.9c11.5,0,19.7,2.6,26.6,6.8c5.6-5,12.8-6.7,22.7-6.7c13.1,0,23.3,2.7,28.2,9.8c0.5-0.6,1-1.3,1.6-1.9
				c3.4-3.7,10.1-7.9,19.9-7.9c7.7,0,13.8,2.5,19.5,7.7v-6.9h15.2v7.1c6-5.7,14.1-7.9,21.7-7.9C770.8,315,785.1,326.4,785.2,345.5z
				 M738.4,343.2h35.1c0-11.2-8.3-16.8-17.6-16.8C746.6,326.4,738.4,331.9,738.4,343.2z M717.4,348.1c0-10.6-0.3-12.4-3.1-15.3
				c-2.1-2.3-6.1-5-12.3-5c-6.3,0-10.9,2.7-13.1,5c-2.8,3-3.2,4.7-3.1,15.3c0.1,10.6,0.3,12.2,3.1,15.2c2.1,2.3,6.8,5,13.1,5
				c6.1,0,10.1-2.7,12.3-5C717.1,360.4,717.4,358.6,717.4,348.1z M664.4,358.4v-4.7h-18.1c-8.9,0-13.1,3.1-13.1,7.8
				c0,4.3,4,8.2,14.3,8.2C660.1,369.7,664.4,368.5,664.4,358.4z M664.4,342.2v-6.6c0-6.1-4.6-8.3-15.5-8.3c-7.9,0-13,2.3-17,6
				l-6.4-6.5l-6.4,6.5c-6-3.6-12-6-20.2-6c-9.7,0-12.9,3.3-12.9,7.8c0,2.8,2.4,5.6,10,6.1l12.5,0.8c7.7,0.4,13.1,2.7,16.7,6
				c4.1-3.5,10.2-5.7,18.3-5.7L664.4,342.2L664.4,342.2z"/>
		</g>
	</g>
</g>
<g>
	<g>
		<g>
			<g id="XMLID_6_">
				<g>
					<g>
						<polygon class="st10" points="361.8,390.1 353.9,390.1 360.2,396.3 351.6,432 263.6,337.5 308.7,377 380.2,314.1 						"/>
					</g>
					<g>
						<path class="st10" d="M305.9,390.1l-3.8,4L305.9,390.1z"/>
					</g>
				</g>
			</g>
		</g>
		<g>
			<g>
				<g id="XMLID_2_">
					<g>
						<path class="st11" d="M369.8,469.7c0.3,0.7,0.6,1.6,0.6,2.6s-0.2,2-0.6,2.8s-1,1.5-1.7,2s-1.6,0.9-2.6,1.1s-2.1,0.3-3.3,0.3
							c-1.1,0-2.1-0.1-3.1-0.3s-1.9-0.5-2.6-0.9l-0.3-0.2v-3.9l0.7,0.3c0.9,0.4,1.7,0.7,2.6,0.8c1.3,0.3,2.7,0.3,4.1,0.1
							c0.4-0.1,0.9-0.2,1.2-0.4c0.3-0.2,0.6-0.4,0.8-0.7c0.2-0.3,0.3-0.6,0.3-1.1c0-0.3-0.1-0.6-0.2-0.8c-0.2-0.2-0.4-0.4-0.8-0.6
							c-0.3-0.2-0.8-0.3-1.2-0.4c-0.5-0.1-1-0.2-1.6-0.3c-0.7-0.2-1.5-0.3-2.1-0.6c-0.7-0.2-1.3-0.6-1.9-1s-1-0.9-1.3-1.6
							s-0.5-1.5-0.5-2.5c0-1.1,0.2-2,0.6-2.7c0.4-0.8,0.9-1.5,1.5-2s1.4-0.9,2.2-1.2c1.6-0.5,3.8-0.4,5.9-0.1c1,0.2,2,0.4,2.7,0.8
							l0.3,0.1v4l-0.7-0.3c-0.9-0.3-1.8-0.6-2.7-0.8c-2-0.4-3.8-0.3-4.7,0.3c-0.4,0.3-0.7,0.8-0.7,1.4c0,0.4,0.1,0.7,0.2,0.9
							c0.2,0.2,0.3,0.4,0.6,0.6s0.7,0.3,1.1,0.4s0.9,0.2,1.4,0.3c0.8,0.2,1.6,0.3,2.3,0.6c0.8,0.2,1.5,0.6,2.1,1
							C369,468.4,369.4,469,369.8,469.7z"/>
						<path class="st11" d="M344.6,458.7v19.5h-4.3l-6.2-8.7c-0.8-1.1-1.6-2.3-2.4-3.6c0.1,1.4,0.1,2.6,0.1,3.5v8.9h-4.4v-19.5h4.3
							l6.2,8.8c0.9,1.2,1.7,2.4,2.3,3.5c-0.1-1.5-0.1-2.6-0.1-3.5v-8.9L344.6,458.7L344.6,458.7z"/>
						<path class="st11" d="M309.6,458.7h-3.8l-7.7,19.5h4.7l1.8-4.7h6.2l1.8,4.7h4.6L309.6,458.7z M306.1,469.7l0.4-0.9
							c0.4-1,0.8-2.2,1.3-3.6c0.4,1.3,0.9,2.6,1.3,3.6l0.4,0.9H306.1z"/>
						<path class="st11" d="M289.9,461.2c-0.7-0.9-1.8-1.6-3.2-2c-0.6-0.2-1.2-0.3-1.9-0.4c-0.7-0.1-1.5-0.1-2.4-0.1h-5.8v19.5h4.4
							v-7.1c0.1,0,0.2,0,0.3,0c0.3,0,0.6,0,0.9,0c1.3,0,2.6-0.2,3.6-0.4s2-0.7,2.7-1.2c0.8-0.6,1.4-1.2,1.8-2s0.6-1.7,0.6-2.6
							C291,463.4,290.6,462.2,289.9,461.2z M286.3,465.8c-0.1,0.3-0.3,0.5-0.7,0.7s-0.8,0.4-1.3,0.6s-1.3,0.2-2.2,0.2
							c-0.3,0-0.6,0-0.9,0c-0.1,0-0.2,0-0.3,0v-4.6h1.4c0.7,0,1.2,0,1.7,0.1s0.8,0.1,1.1,0.2c0.5,0.2,0.8,0.4,1.1,0.7
							c0.2,0.3,0.3,0.7,0.3,1.2C286.5,465.1,286.4,465.4,286.3,465.8z"/>
						<path class="st11" d="M259.8,468.3l7.1,9.9h-5.1l-3-4.4c-0.6-0.8-1.1-1.6-1.6-2.3c-0.5,0.7-1,1.5-1.6,2.3l-3,4.4h-5.1l7.1-9.9
							l-6.8-9.6h5.1l2.8,4c0.6,0.9,1.1,1.7,1.5,2.2c0.4-0.7,0.9-1.4,1.5-2.2l2.8-4h5.1L259.8,468.3z"/>
					</g>
				</g>
			</g>
		</g>
	</g>
</g>
<g>
	<path class="st10" d="M308.7,377"/>
</g>
<g>
	<path class="st11" d="M305.9,390.1l-3.8,4L305.9,390.1z"/>
</g>
<polygon class="st11" points="305.9,390.1 265.9,432.1 257.2,396.4 263.5,390.1 255.7,390.1 237.2,314 "/>
<path class="st10" d="M263.6,337.5"/>
<g>
	<g>
		<line class="st12" x1="515.5" y1="423.7" x2="417.3" y2="369.2"/>
		<g>
			<polygon class="st1" points="518.3,411.5 530.6,432 506.7,432.4 			"/>
		</g>
	</g>
</g>
<g>
	<g>
		<line class="st12" x1="400.7" y1="434.4" x2="522.6" y2="502"/>
		<g>
			<polygon class="st1" points="398,446.6 385.7,426 409.6,425.6 			"/>
		</g>
	</g>
</g>
<circle class="st13" cx="461.6" cy="394.5" r="18"/>
<circle class="st13" cx="448.3" cy="461.5" r="18"/>
<g>
	<g>
		<line class="st12" x1="342.1" y1="607.8" x2="342.1" y2="504"/>
		<g>
			<polygon class="st1" points="354.1,604.3 342.1,625 330.1,604.3 			"/>
		</g>
	</g>
</g>
<g>
	<g>
		<line class="st12" x1="277.1" y1="521.2" x2="277.1" y2="625"/>
		<g>
			<polygon class="st1" points="265.1,524.7 277.1,504 289.1,524.7 			"/>
		</g>
	</g>
</g>
<circle class="st13" cx="341.6" cy="555" r="18"/>
<circle class="st13" cx="276.6" cy="572" r="18"/>
<g id="Eurosystem">
	<g id="FR_2_">
		<g id="FR_3_">
			<g>
				<path class="st14" d="M36.5,122.8c4.1,0,5.7,2.4,5.7,4.3c0,1.4-0.8,2.7-2.4,3.5c2.4,0.6,3.8,2.4,3.8,4.6c0,1.9-1.1,5.1-6.2,5.1
					h-8.7v-17.6L36.5,122.8L36.5,122.8z M33.3,129.5h2.4c1.6,0,2.2-1.1,2.2-1.9s-0.6-1.9-2.2-1.9h-2.2v3.8L33.3,129.5L33.3,129.5z
					 M33.3,136.9h2.4c2.4,0,3.2-0.6,3.2-2.2c0-1.4-1.1-1.9-2.7-1.9h-3L33.3,136.9L33.3,136.9z"/>
				<path class="st14" d="M68.5,140.1h-4.6l-1.4-3.5h-7.9l-1.4,3.5h-4.6l7.1-17.6h5.1L68.5,140.1z M58.2,126.8l-2.4,6.7h5.4
					L58.2,126.8z"/>
				<path class="st14" d="M92.2,140.1h-3.8L78.7,129v11.1h-4.3v-17.6h4.1l9.5,10.9v-10.9h4.3L92.2,140.1L92.2,140.1z"/>
				<path class="st14" d="M119.5,141.2l-3.5,3c-3.2-0.2-6.7-1.9-9.7-4.1c-3.2-0.6-7.3-3.8-7.3-8.7c0-4.6,3.8-9.2,10-9.2
					c6.5,0,10,4.9,10,8.9c0,3.8-2.7,7.3-6.5,8.7c1.9,1.1,4.6,1.6,6.5,1.1L119.5,141.2z M109.3,136.9c3,0,5.4-1.9,5.4-5.4
					c0-3.6-2.4-5.4-5.4-5.4c-3.2,0-5.7,2.2-5.7,5.4C103.9,134.7,106.1,136.9,109.3,136.9z"/>
				<path class="st14" d="M143.6,122.8v10c0,5.7-4.1,7.9-8.7,7.9c-5.1,0-8.7-2.4-8.7-7.9v-10h4.1v10c0,2.4,1.9,4.1,4.3,4.1
					s4.3-1.1,4.3-4.3v-9.7h4.7V122.8z"/>
				<path class="st14" d="M164.4,140.1h-13v-17.6h12.7v3.2h-8.4v3.8h8.1v3.2h-8.1v4.3h8.7V140.1L164.4,140.1z"/>
				<path class="st14" d="M197.5,138.8c-2.4,1.4-4.3,1.6-6.7,1.6c-6.7,0-10.3-4.3-10.3-8.9c0-4.6,3.8-8.9,10.5-8.9
					c2.4,0,4.6,0.6,6.2,1.6v3.8c-1.9-1.1-3.8-1.9-5.9-1.9c-3.8,0-6.2,2.2-6.2,5.4s2.7,5.4,6.2,5.4c2.2,0,3.8-0.8,6.2-1.9V138.8
					L197.5,138.8z"/>
				<path class="st14" d="M218,140.1h-13v-17.6h12.7v3.2h-8.4v3.8h8.1v3.2h-8.1v4.3h8.6L218,140.1L218,140.1z"/>
				<path class="st14" d="M243.3,140.1h-3.8l-9.7-11.1v11.1h-4.4v-17.6h4.1l9.5,10.9v-10.9h4.3V140.1L243.3,140.1z"/>
				<path class="st14" d="M266.8,125.8h-6.5v14.4H256v-14.4h-6.2v-3.2h17V125.8z"/>
				<path class="st14" d="M280.9,122.8c3.5,0,5.7,2.4,5.7,5.1c0,1.9-1.1,3.2-3,4.3c1.9,0.8,2.4,3,4.9,8.1h-4.9
					c-1.9-3.8-2.4-7.1-4.9-7.1h-1.4v7.1H273v-17.6L280.9,122.8L280.9,122.8z M277.3,129.8h2.4c1.1,0,2.4-0.6,2.4-1.9
					c0-1.3-0.8-1.9-2.4-1.9h-2.2v3.8L277.3,129.8L277.3,129.8z"/>
				<path class="st14" d="M313.1,140.1h-4.6l-1.4-3.5h-7.9l-1.4,3.5h-4.6l7.1-17.6h5.1L313.1,140.1z M303,126.8l-2.4,6.7h5.4
					L303,126.8z"/>
				<path class="st14" d="M332.5,140.1h-13.3v-17.6h4.3v14.4h8.9L332.5,140.1L332.5,140.1z"/>
				<path class="st14" d="M351.5,140.1h-12.7v-17.6h12.7v3.2h-8.4v3.8h8.1v3.2h-8.1v4.3h8.7v3h-0.3V140.1z"/>
				<path class="st14" d="M382.1,140.1h-13v-17.6h12.7v3.2h-8.4v3.8h8.1v3.2h-8.1v4.3h8.7L382.1,140.1L382.1,140.1z"/>
				<path class="st14" d="M406.7,122.8v10c0,5.7-4.1,7.9-8.7,7.9c-5.1,0-8.7-2.4-8.7-7.9v-10h4.3v10c0,2.4,1.9,4.1,4.3,4.1
					s4.3-1.1,4.3-4.3v-9.7h4.5V122.8z"/>
				<path class="st14" d="M422.4,122.8c3.5,0,5.7,2.4,5.7,5.1c0,1.9-1.1,3.2-3,4.3c1.9,0.8,2.4,3,4.9,8.1h-5
					c-1.9-3.8-2.4-7.1-4.9-7.1h-1.4v7.1h-4.3v-17.6L422.4,122.8L422.4,122.8z M418.9,129.8h2.4c1.1,0,2.4-0.6,2.4-1.9
					c0-1.3-0.8-1.9-2.4-1.9h-2.2v3.8L418.9,129.8L418.9,129.8z"/>
				<path class="st14" d="M444.8,140.4c-6.5,0-10-4.6-10-8.9c0-4.3,3.5-8.9,10-8.9s10,4.9,10,8.9
					C454.9,136.1,451.1,140.4,444.8,140.4z M444.8,126c-3.2,0-5.4,2.2-5.4,5.4s2.2,5.4,5.4,5.4c3.2,0,5.4-2.2,5.4-5.4
					S448.1,126,444.8,126z"/>
				<path class="st14" d="M469.7,122.8c4.1,0,5.7,2.7,5.7,5.1s-1.6,5.4-5.7,5.4h-3.5v7.1h-4.3v-17.6H469.7z M466.5,129.8h2.2
					c1.9,0,2.7-0.8,2.7-2.2s-0.8-1.9-3.2-1.9h-1.6v4.1H466.5z"/>
				<path class="st14" d="M495.2,140.1h-13v-17.6h12.7v3.2h-8.4v3.8h8.1v3.2h-8.1v4.3h8.7L495.2,140.1L495.2,140.1z M488.7,121.2
					h-1.9l1.9-4.1h4.3L488.7,121.2z"/>
				<path class="st14" d="M515.8,140.1h-13v-17.6h12.7v3.2h-8.4v3.8h8.1v3.2h-8.1v4.3h8.7V140.1L515.8,140.1z"/>
				<path class="st14" d="M540.9,140.1h-3.8l-9.7-11.1v11.1h-4.3v-17.6h4.1l9.5,10.9v-10.9h4.3L540.9,140.1L540.9,140.1z"/>
				<path class="st14" d="M566.6,140.1h-3.8l-9.7-11.1v11.1h-4.3v-17.6h4.1l9.5,10.9v-10.9h4.3L566.6,140.1L566.6,140.1z"/>
				<path class="st14" d="M587.7,140.1h-13v-17.6h12.7v3.2H579v3.8h8.1v3.2H579v4.3h8.7V140.1L587.7,140.1z"/>
			</g>
			<g>
				<path class="st14" d="M218.9,179.4h-7.3v5.4h7.1v2.2h-7.1v5.4h7.5v2.2h-10.3v-17.7h10.1V179.4z"/>
				<path class="st14" d="M240,187.7c0,4.3-2.4,7.1-7.9,7.1c-3.8,0-7.3-2.2-7.3-6.7v-10.9h2.4v10.3c0,1.9,0.2,2.7,1.1,3.5
					c1.1,1.1,2.2,1.6,3.8,1.6c1.9,0,3.2-0.6,4.1-1.4c0.8-0.8,1.1-2.2,1.1-3.8v-10.3h2.4v10.5L240,187.7L240,187.7z"/>
				<path class="st14" d="M251.6,177.2c3.5,0,5.7,1.9,5.7,4.9c0,2.2-1.1,3.5-3,4.3c1.6,1.1,2.4,2.7,3.8,4.9c0.8,1.1,1.1,1.9,2.4,3.5
					h-3l-2.4-3.5c-2.4-3.5-3.2-4.1-4.6-4.1h-1.1v7.5H247v-17.6L251.6,177.2L251.6,177.2z M249.7,184.7h1.6c2.7,0,3.5-1.4,3.5-3
					s-1.1-2.7-3.5-2.7h-1.6V184.7z"/>
				<path class="st14" d="M274.1,176.9c5.7,0,9.5,4.1,9.5,8.9c0,4.6-3.5,8.9-9.5,8.9c-5.7,0-9.5-4.3-9.5-8.9
					C264.6,181,268.4,176.9,274.1,176.9z M274.1,192.6c4.1,0,6.7-3,6.7-6.7s-3-6.7-6.7-6.7s-6.7,2.7-6.7,6.7
					C267.3,189.6,270.3,192.6,274.1,192.6z"/>
				<path class="st14" d="M298.5,181c-1.6-1.4-3-1.9-4.1-1.9c-1.6,0-2.7,0.8-2.7,2.2c0,3.2,7.5,3.2,7.5,8.9c0,2.7-2.2,4.9-4.9,4.9
					c-1.9,0-3.5-0.6-4.9-1.6v-3.2c1.4,1.6,3,2.4,4.6,2.4c1.9,0,3-1.4,3-2.2c0-3.5-7.5-4.1-7.5-8.9c0-3,2.2-4.6,5.4-4.6
					c1.4,0,2.7,0.6,3.8,1.4v2.7L298.5,181L298.5,181z"/>
				<path class="st14" d="M315.7,177.2h3l-6.5,8.4v9.2h-2.4v-9.2l-6.5-8.1h3l4.6,5.9L315.7,177.2z"/>
				<path class="st14" d="M332.3,181c-1.6-1.4-3-1.9-4.1-1.9c-1.6,0-2.7,0.8-2.7,2.2c0,3.2,7.5,3.2,7.5,8.9c0,2.7-2.2,4.9-4.9,4.9
					c-1.9,0-3.5-0.6-4.9-1.6v-3.2c1.4,1.6,3,2.4,4.6,2.4c1.9,0,3-1.4,3-2.2c0-3.5-7.5-4.1-7.5-8.9c0-3,2.2-4.6,5.4-4.6
					c1.4,0,2.7,0.6,3.8,1.4v2.7L332.3,181L332.3,181z"/>
				<path class="st14" d="M352.3,179.4h-5.9v15.2H344v-15.2h-6v-2.2h14.6v2.2H352.3z"/>
				<path class="st14" d="M368,179.4h-7.3v5.4h7.1v2.2h-7.1v5.4h7.5v2.2h-10.3v-17.7h10L368,179.4L368,179.4z M365,176.1h-1.4
					l-3-3.8h2.4L365,176.1z"/>
				<path class="st14" d="M390.7,194.8h-2.4v-13.5l0,0l-5.4,6.7h-0.6l-5.4-6.7l0,0v13.5h-2.4v-17.6h2.4l5.7,7.3l5.9-7.3h2.4v17.6
					H390.7z"/>
				<path class="st14" d="M407.8,179.4h-7.3v5.4h7.1v2.2h-7.1v5.4h7.5v2.2h-10.3v-17.7h10.1L407.8,179.4L407.8,179.4z"/>
			</g>
		</g>
	</g>
</g>
<g id="Elements">
	<g>
		<path class="st14" d="M255.2,38.4h14.6c0,0.6,0,1.1,0,1.9c0,22.2,17.8,40.1,40.1,40.1S350,62.6,350,40.3c0-0.6,0-1.1,0-1.9h14.6
			v56.3H255.2V38.4L255.2,38.4z"/>
		<path class="st14" d="M273.3,40.2c0-20,16.2-36.2,36.2-36.2s36.2,16.2,36.2,36.2s-16.2,36.2-36.2,36.2
			C289.8,76.5,273.3,60.3,273.3,40.2L273.3,40.2z"/>
		<polygon class="st15" points="313.3,9.9 311.1,11.5 311.9,14 309.8,12.7 307.6,14 308.4,11.5 306.3,9.9 309,9.9 309.8,7.5 
			310.6,9.9 		"/>
		<polygon class="st15" points="313.3,68.1 311.1,69.8 311.9,72.2 309.8,70.8 307.6,72.2 308.4,69.8 306.3,68.1 309,68.1 
			309.8,65.7 310.6,68.1 		"/>
		<polygon class="st15" points="327.7,14 325.5,15.6 326.3,18 324.4,16.4 322.2,18 323,15.6 320.9,14 323.4,14 324.4,11.3 325.2,14 
					"/>
		<polygon class="st15" points="338.4,24.5 336.3,26.2 337.1,28.6 335,27 332.8,28.6 333.6,26.2 331.5,24.5 334.1,24.5 335,22.1 
			335.8,24.5 		"/>
		<polygon class="st15" points="342.3,39.2 340.1,40.8 341,43.2 338.8,41.6 336.6,43.2 337.4,40.8 335.2,39.2 338,39.2 338.8,36.8 
			339.6,39.2 		"/>
		<polygon class="st15" points="338.4,53.8 336.3,55.2 337.1,57.8 335,56.2 332.8,57.8 333.6,55.2 331.5,53.8 334.1,53.8 335,51.1 
			335.8,53.8 		"/>
		<polygon class="st15" points="327.7,64.3 325.5,65.9 326.3,68.4 324.4,66.8 322.2,68.4 323,65.9 320.9,64.3 323.4,64.3 
			324.4,61.9 325.2,64.3 		"/>
		<polygon class="st15" points="298.7,64.3 296.5,65.9 297.3,68.4 295.1,66.8 293,68.4 293.8,65.9 291.7,64.3 294.3,64.3 
			295.1,61.9 296,64.3 		"/>
		<polygon class="st15" points="284.1,39.2 281.9,40.8 282.7,43.2 280.6,41.6 278.4,43.2 279.3,40.8 277.3,39.2 279.7,39.2 
			280.6,36.8 281.4,39.2 		"/>
		<polygon class="st15" points="298.7,14 296.5,15.6 297.3,18 295.1,16.4 293,18 293.8,15.6 291.7,14 294.3,14 295.1,11.3 296,14 		
			"/>
		<polygon class="st15" points="287.8,24.5 286,26.2 286.8,28.6 284.6,27 282.5,28.6 283.3,26.2 281.1,24.5 283.8,24.5 284.6,22.1 
			285.4,24.5 		"/>
		<polygon class="st15" points="287.8,53.8 286,55.2 286.8,57.8 284.6,56.2 282.5,57.8 283.3,55.2 281.1,53.8 283.8,53.8 
			284.6,51.1 285.4,53.8 		"/>
		<path class="st15" d="M287.8,35.4h4.3c2.2-8.7,10-14.9,19.5-14.9c5.4,0,10.5,2.2,14.1,5.9l-1.4,3.5c-3-3.5-7.5-5.9-12.7-5.9
			c-7.5,0-13.8,4.9-16,11.7h26.3l-1.4,3.2h-25.7c0,0.6,0,1.1,0,1.6c0,0.6,0,1.1,0,1.6h24.1l-1.4,3.2h-22.2c2.2,6.7,8.4,11.7,16,11.7
			c5.1,0,9.7-2.4,12.7-5.9v4.6c-3.5,3-7.9,4.6-12.7,4.6c-9.2,0-17-6.5-19.5-14.9h-5.7l1.4-3.2h3.8c0-0.6,0-1.1,0-1.6
			c0-0.6,0-1.1,0-1.6h-5.1L287.8,35.4L287.8,35.4z"/>
		<rect x="246.2" y="156.6" class="st14" width="127.2" height="1.9"/>
	</g>
</g>
<g>
	<g>
		<line class="st12" x1="310.1" y1="323.8" x2="310.1" y2="220"/>
		<g>
			<polygon class="st1" points="322.1,320.3 310.1,341 298.1,320.3 			"/>
		</g>
	</g>
</g>
<circle class="st13" cx="310.6" cy="273" r="18"/>
<path class="st1" d="M317.6,279h-3.1l-1.2-3.2h-5.6l-1.1,3.2h-3l5.4-13.9h3L317.6,279z M312.4,273.5l-1.9-5.2l-1.9,5.2H312.4z"/>
<path class="st1" d="M455.7,387.1h5.6c1.1,0,1.9,0,2.5,0.1c0.5,0.1,1,0.3,1.5,0.6s0.8,0.7,1.1,1.2c0.3,0.5,0.4,1,0.4,1.6
	c0,0.7-0.2,1.2-0.5,1.8c-0.4,0.5-0.8,1-1.4,1.2c0.8,0.2,1.5,0.7,2,1.3c0.5,0.6,0.7,1.3,0.7,2.1c0,0.6-0.1,1.2-0.4,1.8
	s-0.7,1.1-1.2,1.4s-1.1,0.6-1.9,0.7c-0.5,0.1-1.6,0.1-3.4,0.1H456v-13.9H455.7z M458.5,389.4v3.2h1.8c1.1,0,1.8,0,2,0
	c0.5-0.1,0.9-0.2,1.1-0.5c0.3-0.3,0.4-0.6,0.4-1.1c0-0.4-0.1-0.8-0.4-1c-0.2-0.3-0.6-0.4-1.1-0.5c-0.3,0-1.1,0-2.4,0h-1.4V389.4z
	 M458.5,394.9v3.7h2.6c1,0,1.7,0,1.9-0.1c0.4-0.1,0.8-0.3,1-0.6c0.3-0.3,0.4-0.7,0.4-1.2c0-0.4-0.1-0.8-0.3-1.1
	c-0.2-0.3-0.5-0.5-0.9-0.6s-1.2-0.2-2.5-0.2h-2.2V394.9z"/>
<path class="st1" d="M452.1,462.9l2.7,0.9c-0.4,1.5-1.1,2.6-2.1,3.4c-1,0.7-2.2,1.1-3.7,1.1c-1.8,0-3.4-0.6-4.6-1.9s-1.8-3-1.8-5.2
	c0-2.3,0.6-4.1,1.8-5.4c1.2-1.3,2.8-1.9,4.7-1.9c1.7,0,3.1,0.5,4.1,1.5c0.6,0.6,1.1,1.4,1.4,2.6l-2.8,0.7c-0.2-0.7-0.5-1.3-1-1.7
	s-1.2-0.6-1.9-0.6c-1,0-1.9,0.4-2.5,1.1s-1,1.9-1,3.6c0,1.8,0.3,3,0.9,3.8c0.6,0.7,1.5,1.1,2.5,1.1c0.7,0,1.4-0.2,1.9-0.7
	S451.8,463.9,452.1,462.9z"/>
<path class="st1" d="M271.6,579v-13.9h10.3v2.4h-7.5v3.1h7v2.3h-7v3.8h7.8v2.3L271.6,579L271.6,579z"/>
<path class="st1" d="M336.9,547.1h5.1c1.2,0,2,0.1,2.6,0.3c0.8,0.2,1.5,0.7,2.1,1.3s1,1.4,1.3,2.3s0.5,2,0.5,3.3
	c0,1.1-0.1,2.1-0.4,3c-0.3,1-0.8,1.8-1.5,2.5c-0.5,0.5-1.1,0.8-2,1.1c-0.6,0.2-1.4,0.3-2.5,0.3h-5.3L336.9,547.1L336.9,547.1z
	 M339.7,549.4v9.2h2.1c0.8,0,1.4,0,1.7-0.1c0.5-0.1,0.8-0.3,1.1-0.6c0.3-0.3,0.5-0.7,0.7-1.3s0.3-1.5,0.3-2.5s-0.1-1.9-0.3-2.5
	c-0.2-0.6-0.5-1-0.8-1.3s-0.8-0.5-1.3-0.7c-0.4-0.1-1.2-0.1-2.3-0.1h-1.2V549.4z"/>
</svg>
