<?xml version="1.0" encoding="utf-8"?>
<!-- Generator: Adobe Illustrator 22.0.1, SVG Export Plug-In . SVG Version: 6.00 Build 0)  -->
<svg version="1.1" id="Calque_3" xmlns="http://www.w3.org/2000/svg" xmlns:xlink="http://www.w3.org/1999/xlink" x="0px" y="0px"
	 viewBox="0 0 913.9 424.7" style="enable-background:new 0 0 913.9 424.7;" xml:space="preserve">
<style type="text/css">
	.st0{fill:#491370;}
	.st1{opacity:0.24;}
</style>
<path class="st0" d="M956.1-0.1V392H664c-0.3,0-0.6,0-0.9,0c-98-0.5-177.3-88.2-177.3-196.1S565,0.4,663.1-0.1c0.3,0,0.6,0,0.9,0
	H956.1z"/>
<g class="st1">
	<g>
		<path class="st0" d="M189.9,131.4v20.3h-81.6v-3.4c0-7.5,2.3-14.8,7-21.6c4.5-6.6,12.4-14.4,24.1-23.9c11.1-9,18.8-16.1,22.8-21.4
			c3.8-4.9,5.6-10.3,5.6-16.5c0-5.3-1.4-9.3-4.4-12.3s-7.1-4.3-12.7-4.3c-4.8,0-8.8,1.4-12.2,4.5s-5.2,7.5-5.6,13.5l-0.2,3.2h-22
			l0.3-3.7c0.9-10.7,5-19.5,12.1-26s16.5-9.8,28-9.8c12.1,0,21.7,3.4,28.4,10s10.2,15.1,10.2,25.2c0,8.9-2.5,16.9-7.5,23.8
			c-4.7,6.6-13.7,15.4-27.5,26.8c-9.5,7.9-14.4,12.8-16.8,15.6L189.9,131.4L189.9,131.4z"/>
	</g>
</g>
</svg>
