<?xml version="1.0" encoding="utf-8"?>
<!-- Generator: Adobe Illustrator 22.0.1, SVG Export Plug-In . SVG Version: 6.00 Build 0)  -->
<svg version="1.1" id="Calque_1" xmlns="http://www.w3.org/2000/svg" xmlns:xlink="http://www.w3.org/1999/xlink" x="0px" y="0px"
	 viewBox="0 0 768 505.3" style="enable-background:new 0 0 768 505.3;" xml:space="preserve">
<style type="text/css">
	.st0{fill:url(#SVGID_1_);}
	.st1{fill:#491370;}
	.st2{fill:#F917FF;}
	.st3{fill:#9C1CA3;}
	.st4{fill:#921FE5;}
	.st5{fill:#4F88FC;}
	.st6{fill:url(#SVGID_2_);}
	.st7{fill:url(#SVGID_3_);}
	.st8{fill:url(#SVGID_4_);}
	.st9{fill:url(#SVGID_5_);}
	.st10{fill:url(#SVGID_6_);}
	.st11{opacity:0.67;fill:#FFA6FD;enable-background:new    ;}
	.st12{opacity:0.99;fill:#F4F4F4;enable-background:new    ;}
	.st13{opacity:0.97;fill:#ECCDF9;stroke:#A756D6;stroke-width:4;stroke-miterlimit:10;enable-background:new    ;}
	.st14{opacity:0.97;fill:none;stroke:#A756D6;stroke-width:4;stroke-miterlimit:10;enable-background:new    ;}
	.st15{fill:none;stroke:#F917FF;stroke-width:4;stroke-linecap:round;stroke-miterlimit:10;}
</style>
<g id="Calque_2_1_">
	
		<linearGradient id="SVGID_1_" gradientUnits="userSpaceOnUse" x1="362.4" y1="972.4102" x2="362.4" y2="972.4102" gradientTransform="matrix(1 0 0 1 0 -518.1102)">
		<stop  offset="0" style="stop-color:#FFFFFF;stop-opacity:0"/>
		<stop  offset="1" style="stop-color:#15DBFF"/>
	</linearGradient>
	<path class="st0" d="M362.4,454.3L362.4,454.3z"/>
	<rect x="-1.4" y="1.5" class="st1" width="770.3" height="506.5"/>
	<g>
		<path class="st2" d="M403.9,70.1c0-11,7.8-15.5,17.3-10l83.9,48.4c9.5,5.5,17.3,19,17.3,30v233.7c0,11-7.8,15.5-17.3,10
			l-83.9-48.4c-9.5-5.5-17.3-19-17.3-30V70.1z"/>
	</g>
	<g>
		<path class="st3" d="M399.1,72.4c0-11,7.8-15.5,17.3-10l83.9,48.4c9.5,5.5,17.3,19,17.3,30v233.7c0,11-7.8,15.5-17.3,10L416.4,336
			c-9.5-5.5-17.3-19-17.3-30V72.4z"/>
	</g>
	<path class="st4" d="M335.9,97.4c0-11,7.8-15.5,17.3-10l83.9,48.4c9.5,5.5,17.3,19,17.3,30v233.7c0,11-7.8,15.5-17.3,10L353.2,361
		c-9.5-5.5-17.3-19-17.3-30L335.9,97.4z"/>
	<path class="st5" d="M331.1,99.6c0-11,7.8-15.5,17.3-10l83.9,48.4c9.5,5.5,17.3,19,17.3,30v233.7c0,11-7.8,15.5-17.3,10l-83.9-48.4
		c-9.5-5.5-17.3-19-17.3-30V99.6z"/>
	
		<linearGradient id="SVGID_2_" gradientUnits="userSpaceOnUse" x1="325.1" y1="748.1102" x2="440.1" y2="748.1102" gradientTransform="matrix(1 0 0 1 0 -518.1102)">
		<stop  offset="0" style="stop-color:#FFFFFF;stop-opacity:0"/>
		<stop  offset="1" style="stop-color:#15DBFF"/>
	</linearGradient>
	<polygon class="st6" points="440.1,259.6 440.1,266.8 325.1,199.5 325.1,193.2 	"/>
	
		<linearGradient id="SVGID_3_" gradientUnits="userSpaceOnUse" x1="325.1" y1="758.7602" x2="440.1" y2="758.7602" gradientTransform="matrix(1 0 0 1 0 -518.1102)">
		<stop  offset="0" style="stop-color:#FFFFFF;stop-opacity:0"/>
		<stop  offset="1" style="stop-color:#15DBFF"/>
	</linearGradient>
	<polygon class="st7" points="440.1,270.2 440.1,277.4 325.1,210.1 325.1,203.9 	"/>
	<g>
		
			<linearGradient id="SVGID_4_" gradientUnits="userSpaceOnUse" x1="379.6" y1="717.4102" x2="438.8864" y2="717.4102" gradientTransform="matrix(1 0 0 1 0 -518.1102)">
			<stop  offset="0" style="stop-color:#FFFFFF;stop-opacity:0"/>
			<stop  offset="1" style="stop-color:#15DBFF"/>
		</linearGradient>
		<path class="st8" d="M379.6,182.2c0-18.8,13.3-26.5,29.6-17.1c16.3,9.4,29.6,32.5,29.6,51.3s-13.3,26.5-29.6,17.1
			C393,224.2,379.6,201.1,379.6,182.2z"/>
	</g>
	
		<linearGradient id="SVGID_5_" gradientUnits="userSpaceOnUse" x1="333.3" y1="812.8602" x2="447.4" y2="812.8602" gradientTransform="matrix(1 0 0 1 0 -518.1102)">
		<stop  offset="0" style="stop-color:#FFFFFF;stop-opacity:0"/>
		<stop  offset="1" style="stop-color:#15DBFF"/>
	</linearGradient>
	<polygon class="st9" points="447.4,356.9 427.7,299.8 417.7,305.6 408,265.7 392.8,320 368.5,232.6 348.7,259.9 344.5,254.3 
		333.3,291 	"/>
	
		<linearGradient id="SVGID_6_" gradientUnits="userSpaceOnUse" x1="395.15" y1="891.3334" x2="395.15" y2="587.4043" gradientTransform="matrix(1 0 0 1 0 -518.1102)">
		<stop  offset="0" style="stop-color:#FFFFFF;stop-opacity:0"/>
		<stop  offset="1" style="stop-color:#F917FF"/>
	</linearGradient>
	<path class="st10" d="M335.9,97.4c0-11,7.8-15.5,17.3-10l83.9,48.4c9.5,5.5,17.3,19,17.3,30v233.7c0,11-7.8,15.5-17.3,10L353.2,361
		c-9.5-5.5-17.3-19-17.3-30L335.9,97.4z"/>
	<path class="st11" d="M331.1,99.6c0-11,7.8-15.5,17.3-10l83.9,48.4c9.5,5.5,17.3,19,17.3,30v233.7c0,11-7.8,15.5-17.3,10
		l-83.9-48.4c-9.5-5.5-17.3-19-17.3-30V99.6z"/>
	<path class="st12" d="M261.1,113.6c0-11,7.8-15.5,17.3-10l83.9,48.4c9.5,5.5,17.3,19,17.3,30v233.7c0,11-7.8,15.5-17.3,10
		l-83.9-48.4c-9.5-5.5-17.3-19-17.3-30V113.6z"/>
	<polygon class="st13" points="234.8,199.3 284.4,228 296.8,249.5 296.8,321.1 234.8,285.3 	"/>
	<polyline class="st14" points="284.4,228 284.4,243 296.8,249.5 	"/>
	<line class="st15" x1="184.4" y1="199.3" x2="245.2" y2="164.2"/>
	<line class="st15" x1="147.6" y1="247.5" x2="208.3" y2="212.4"/>
	<line class="st15" x1="419.2" y1="216.9" x2="480" y2="181.8"/>
	<line class="st15" x1="348.5" y1="356.9" x2="409.3" y2="321.7"/>
	<line class="st15" x1="487.2" y1="356.9" x2="548" y2="321.7"/>
	<line class="st15" x1="266.4" y1="368.9" x2="327.2" y2="333.7"/>
	<line class="st15" x1="200.3" y1="356.9" x2="261.1" y2="321.7"/>
</g>
</svg>
