<?xml version="1.0" encoding="utf-8"?>
<!-- Generator: Adobe Illustrator 22.0.1, SVG Export Plug-In . SVG Version: 6.00 Build 0)  -->
<svg version="1.1" id="xphone" xmlns="http://www.w3.org/2000/svg" xmlns:xlink="http://www.w3.org/1999/xlink" x="0px" y="0px"
	 viewBox="0 0 277.2 580.2" style="enable-background:new 0 0 277.2 580.2;" xml:space="preserve">
<style type="text/css">
	.st0{fill:#F8F8F8;}
	.st1{fill:#F7F7F7;}
	.st2{fill:#F6F6F6;}
	.st3{fill:#F5F5F5;}
	.st4{fill:#F4F4F4;}
	.st5{fill:#FFFFFF;stroke:#EAEAEA;stroke-miterlimit:10;}
	.st6{fill:#DBDBDB;}
	.st7{opacity:0.56;fill:#EFEFEF;enable-background:new    ;}
	.st8{fill:url(#SVGID_1_);}
	.st9{fill:#FFFFFF;}
	.st10{fill:none;stroke:url(#SVGID_2_);stroke-miterlimit:10;}
	.st11{opacity:0.75;fill:none;stroke:url(#SVGID_3_);stroke-miterlimit:10;}
	.st12{opacity:0.5;fill:none;stroke:url(#SVGID_4_);stroke-miterlimit:10;}
	.st13{opacity:0.25;fill:none;stroke:url(#SVGID_5_);stroke-miterlimit:10;}
	.st14{opacity:0;fill:none;stroke:url(#SVGID_6_);stroke-miterlimit:10;}
</style>
<g id="Calque_2_1_">
</g>
<g>
	<path class="st0" d="M212.3,508.8H64.9c-15,0-27.4-12.3-27.4-27.4V96.6c0-15,12.3-27.4,27.4-27.4h147.5c15,0,27.4,12.3,27.4,27.4
		v384.8C239.7,496.5,227.4,508.8,212.3,508.8z"/>
	<path class="st1" d="M211.1,504.9h-145c-15,0-27.4-12.3-27.4-27.4V98.2c0.1-15,12.4-27.3,27.4-27.3h145c15,0,27.4,12.3,27.4,27.4
		v379.3C238.4,492.6,226.1,504.9,211.1,504.9z"/>
	<path class="st1" d="M209.8,501.1H67.4c-15,0-27.4-12.3-27.4-27.4V99.9c0-15,12.3-27.4,27.4-27.4h142.4c15,0,27.4,12.3,27.4,27.4
		v373.9C237.2,488.8,224.9,501.1,209.8,501.1z"/>
	<path class="st2" d="M208.6,497.3h-140c-15,0-27.4-12.3-27.4-27.4V101.5c0-15,12.3-27.4,27.4-27.4h139.9c15,0,27.4,12.3,27.4,27.4
		v368.4C235.9,485,223.6,497.3,208.6,497.3z"/>
	<path class="st3" d="M207.3,493.5H69.9c-15,0-27.4-12.3-27.4-27.4V103.2c0-15,12.3-27.4,27.4-27.4h137.4c15,0,27.4,12.3,27.4,27.4
		v362.9C234.7,481.1,222.4,493.5,207.3,493.5z"/>
	<path class="st4" d="M206,489.6H71.2c-15,0-27.4-12.3-27.4-27.4V104.8c0-15,12.3-27.4,27.4-27.4H206c15,0,27.4,12.3,27.4,27.4
		v357.5C233.4,477.3,221.1,489.6,206,489.6z"/>
</g>
<g>
	<g id="XMLID_1_">
		<g>
			<path class="st5" d="M43.9,98.3c0-11.5,9-20.9,20.2-20.9h22l1,8.4c0.7,4.6,3.2,8.5,7.2,8.5h88.8c3.9,0,6.5-3.9,7.2-8.5l1-8.4h22
				c11.1,0,20.2,9.3,20.2,20.9v376.5c0,11.5-9.1,20.9-20.2,20.9H64.1c-11.1,0-20.2-9.3-20.2-20.9C43.9,474.7,43.9,98.3,43.9,98.3z"
				/>
		</g>
	</g>
</g>
<path class="st6" d="M154,80.1c2,0,3.5,1.6,3.5,3.5c0,2-1.6,3.5-3.5,3.5c-2,0-3.5-1.6-3.5-3.5S152.1,80.1,154,80.1z"/>
<path class="st6" d="M142.2,81.5c1.2,0,2.2,1,2.2,2.2c0,0.6-0.3,1.2-0.8,1.6c-0.4,0.4-1,0.7-1.6,0.7h-20c-1.2,0-2.2-1-2.2-2.2
	c0-0.6,0.3-1.2,0.7-1.6c0.4-0.4,1-0.7,1.6-0.7H142.2z"/>
<path class="st7" d="M153.9,81.1c2,0,3.5,1.4,3.5,3.1c0,1.8-1.6,3.1-3.5,3.1c-2,0-3.5-1.4-3.5-3.1S152,81.1,153.9,81.1z"/>
<path class="st7" d="M142.1,82.3c1.2,0,2.2,0.9,2.2,1.9c0,0.5-0.3,1.1-0.8,1.4c-0.4,0.4-1,0.6-1.6,0.6h-20c-1.2,0-2.2-0.9-2.2-1.9
	c0-0.5,0.3-1.1,0.7-1.4c0.4-0.4,1-0.6,1.6-0.6H142.1z"/>
<linearGradient id="SVGID_1_" gradientUnits="userSpaceOnUse" x1="78.4049" y1="286.2349" x2="198.7035" y2="286.2349">
	<stop  offset="0" style="stop-color:#FF1F1C"/>
	<stop  offset="1" style="stop-color:#FF1F1C"/>
</linearGradient>
<circle class="st8" cx="138.6" cy="286.2" r="60.1"/>
<g>
	<g>
		<path class="st9" d="M157.6,271.4h-38.1c-3.9,0-7,3.1-7,7v27.7c0,3.9,3.1,7,7,7h38.1c3.8,0,7-3.1,7-7v-27.7
			C164.6,274.5,161.5,271.4,157.6,271.4z M141.3,293.7l0.9,9.4c0.1,0.6-0.4,1.1-1,1.1h-5.3c-0.6,0-1.1-0.5-1.1-1.1l0.9-9.5
			c-1.5-1-2.6-2.7-2.6-4.7c0-3,2.5-5.5,5.5-5.5c3,0,5.5,2.5,5.5,5.5C144.1,291,143,292.8,141.3,293.7z"/>
	</g>
	<g>
		<path class="st9" d="M155,279.6h-6.4v-15.4c0-5.5-4.5-10-10-10s-10,4.5-10,10v15.4h-6.4v-15.4c0-9.1,7.4-16.5,16.5-16.5
			c9.1,0,16.5,7.4,16.5,16.5v15.4H155z"/>
	</g>
</g>
<g>
	<linearGradient id="SVGID_2_" gradientUnits="userSpaceOnUse" x1="64.85" y1="286.6099" x2="211.95" y2="286.6099">
		<stop  offset="0" style="stop-color:#FF1F1C"/>
		<stop  offset="1" style="stop-color:#FF1F1C"/>
	</linearGradient>
	<circle class="st10" cx="138.4" cy="286.6" r="73.1"/>
	<linearGradient id="SVGID_3_" gradientUnits="userSpaceOnUse" x1="45.2563" y1="286.6099" x2="231.5438" y2="286.6099">
		<stop  offset="0" style="stop-color:#FF1F1C"/>
		<stop  offset="1" style="stop-color:#FF1F1C"/>
	</linearGradient>
	<circle class="st11" cx="138.4" cy="286.6" r="92.6"/>
	<linearGradient id="SVGID_4_" gradientUnits="userSpaceOnUse" x1="25.6625" y1="286.6099" x2="251.1375" y2="286.6099">
		<stop  offset="0" style="stop-color:#FF1F1C"/>
		<stop  offset="1" style="stop-color:#FF1F1C"/>
	</linearGradient>
	<circle class="st12" cx="138.4" cy="286.6" r="112.2"/>
	<linearGradient id="SVGID_5_" gradientUnits="userSpaceOnUse" x1="6.0688" y1="286.6099" x2="270.7313" y2="286.6099">
		<stop  offset="0" style="stop-color:#FF1F1C"/>
		<stop  offset="1" style="stop-color:#FF1F1C"/>
	</linearGradient>
	<circle class="st13" cx="138.4" cy="286.6" r="131.8"/>
	<linearGradient id="SVGID_6_" gradientUnits="userSpaceOnUse" x1="-13.525" y1="286.6099" x2="290.325" y2="286.6099">
		<stop  offset="0" style="stop-color:#FF1F1C"/>
		<stop  offset="1" style="stop-color:#FF1F1C"/>
	</linearGradient>
	<circle class="st14" cx="138.4" cy="286.6" r="151.4"/>
</g>
</svg>
