<?xml version="1.0" encoding="utf-8"?>
<!-- Generator: Adobe Illustrator 22.0.1, SVG Export Plug-In . SVG Version: 6.00 Build 0)  -->
<svg version="1.1" id="vaguett" xmlns="http://www.w3.org/2000/svg" xmlns:xlink="http://www.w3.org/1999/xlink" x="0px" y="0px"
	 viewBox="0 0 595.3 311.1" style="enable-background:new 0 0 595.3 311.1;" xml:space="preserve">
<style type="text/css">
	.st0{opacity:0.21;fill:url(#SVGID_1_);enable-background:new    ;}
	.st1{opacity:0.54;fill:url(#SVGID_2_);enable-background:new    ;}
	.st2{opacity:0.75;fill:url(#SVGID_3_);enable-background:new    ;}
	.st3{fill:#FFFFFF;}
</style>
<g id="XMLID_1_">
	<g>
		
			<radialGradient id="SVGID_1_" cx="314.6" cy="-906.4866" r="299.0663" fx="104.7386" fy="-693.4166" gradientTransform="matrix(1 0 0 -1 0 -746)" gradientUnits="userSpaceOnUse">
			<stop  offset="0" style="stop-color:#FF0684;stop-opacity:0.6"/>
			<stop  offset="1" style="stop-color:#FF06FF"/>
		</radialGradient>
		<path class="st0" d="M718.8,45.9V285c-38.2-5.7-82-15-132-28.5c-45.8-10.6-86.1-17.4-122-21.3c-218.5-23.6-275.3,0.5-445.9,2
			c-44.8,0.4-79.7-5.5-108.5-13.8V46.1c41.5,5.5,89.9,15.3,146.3,30.5c45.8,10.6,86.1,17.4,122,21.3C397.2,121.7,454,37.6,624.7,36
			C662.2,35.6,692.9,39.7,718.8,45.9z"/>
		
			<linearGradient id="SVGID_2_" gradientUnits="userSpaceOnUse" x1="261.7605" y1="-1170.4635" x2="496.7589" y2="-440.787" gradientTransform="matrix(1 0 0 -1 0 -746)">
			<stop  offset="0" style="stop-color:#FF06FF;stop-opacity:0.6"/>
			<stop  offset="1" style="stop-color:#FF06FF"/>
		</linearGradient>
		<path class="st1" d="M718.8,56.5l51.6,316.4C302.2-54.3,121,508.9-147,165.9l57.3-154c3.7,0.6,7.3,1.3,11,2c0.1,0,0.1,0,0.2,0
			C5.1,30.1,83.7,68.4,178.6,93.8c50.3,13.4,105.1,23.3,167.7,24.3C449.7,119.7,570,42.7,718.8,56.5z"/>
		
			<linearGradient id="SVGID_3_" gradientUnits="userSpaceOnUse" x1="253.5386" y1="-572.0105" x2="389.9959" y2="-148.3061" gradientTransform="matrix(1 0 0 -1 0 -216)">
			<stop  offset="0" style="stop-color:#FF06FF;stop-opacity:0.6"/>
			<stop  offset="1" style="stop-color:#FF06FF"/>
		</linearGradient>
		<path class="st2" d="M721.9,311.2c-1-0.2-2-0.4-3.1-0.6c-34.4,23.8-80.1-19.2-127.7-34.6c-351.2-122.6-419.7,17.9-680.7-30.5V12
			c3.6,0.6,7.3,1.2,11,1.9c0.1,0,0.1,0,0.2,0C-40,21,3.7,32.6,52.4,49C407.4,168.8,400.7,0.9,704,36.2c4.9,0.6,9.8,1.2,14.8,2v272.4
			C719.9,310.8,720.9,311,721.9,311.2z"/>
	</g>
</g>
<path class="st3" d="M18,261.9"/>
</svg>
