<?xml version="1.0" encoding="utf-8"?>
<!-- Generator: Adobe Illustrator 22.0.1, SVG Export Plug-In . SVG Version: 6.00 Build 0)  -->
<svg version="1.1" id="Calque_1" xmlns="http://www.w3.org/2000/svg" xmlns:xlink="http://www.w3.org/1999/xlink" x="0px" y="0px"
	 viewBox="0 0 952.8 1059" style="enable-background:new 0 0 952.8 1059;" xml:space="preserve">
<style type="text/css">
	.st0{fill:url(#SVGID_1_);}
	.st1{opacity:0.82;fill:#2A2AF2;enable-background:new    ;}
	.st2{fill:#1F5FFF;}
	.st3{fill:#14357F;}
	.st4{fill:#4A4AFF;}
	.st5{fill:#2BB7E2;}
	.st6{fill:#14F4F4;}
	.st7{fill:none;stroke:#14F4F4;stroke-width:7;stroke-miterlimit:10;}
	.st8{fill:none;stroke:url(#SVGID_2_);stroke-width:18;stroke-linecap:round;stroke-miterlimit:10;}
	.st9{fill:none;stroke:url(#SVGID_3_);stroke-width:18;stroke-linecap:round;stroke-miterlimit:10;}
	.st10{fill:none;stroke:url(#SVGID_4_);stroke-width:18;stroke-linecap:round;stroke-miterlimit:10;}
	.st11{fill:none;stroke:url(#SVGID_5_);stroke-width:18;stroke-linecap:round;stroke-miterlimit:10;}
	.st12{fill:none;stroke:url(#SVGID_6_);stroke-width:18;stroke-linecap:round;stroke-miterlimit:10;}
	.st13{fill:none;stroke:url(#SVGID_7_);stroke-width:18;stroke-linecap:round;stroke-miterlimit:10;}
	.st14{fill:none;stroke:url(#SVGID_8_);stroke-width:18;stroke-linecap:round;stroke-miterlimit:10;}
	.st15{fill:none;stroke:url(#SVGID_9_);stroke-width:18;stroke-linecap:round;stroke-miterlimit:10;}
</style>
<linearGradient id="SVGID_1_" gradientUnits="userSpaceOnUse" x1="-157.8674" y1="-17.85" x2="938.8326" y2="1078.85" gradientTransform="matrix(1 0 0 -1 0 1060)">
	<stop  offset="0" style="stop-color:#00A2E9"/>
	<stop  offset="1" style="stop-color:#1100AA"/>
</linearGradient>
<rect x="-176.2" y="-0.5" class="st0" width="1133.4" height="1060"/>
<polygon class="st1" points="330.3,753.9 488.5,845.2 647.6,753.9 488.5,662.5 "/>
<polygon class="st2" points="488.5,845.2 488.5,881.2 646.7,789.9 647.6,753.9 "/>
<polygon class="st3" points="330.3,753.9 330.3,790.4 488.5,881.2 488.5,845.2 "/>
<g>
	<g>
		<path class="st4" d="M585.3,748.4c-0.5-0.2-1-0.4-1.6-0.7l1.8,1L585.3,748.4z M590.9,570.4L590.9,570.4c0.3,0.6,0.7,1.1,1,1.7
			L590.9,570.4z"/>
	</g>
</g>
<g>
	<path class="st5" d="M458,521.1L356.3,323c-1.7,1.4-4,1.9-4,5.2l-0.5,191c0,7.7,5.4,17.3,12.1,21.2l229.1,133
		c6.7,3.9,12.2,0.7,12.2-7l0.5-191.7c0-4-1.5-8.6-3.9-12.5L458,521.1z"/>
	<path class="st6" d="M610.6,465.5c-0.8-2.3-1.9-4.6-3.2-6.8l-2.9-4.8l-0.4,0.2l-6.4,2.6l-6.8,2.8l-130,53.3l-93.6-182.2l-4.7-9.1
		L362,320l-2.6-5c-2.9,0.3-5.5,1.3-7.5,3.1l-0.1,0.1c-0.1,0.1-0.3,0.2-0.5,0.3c-1.7,1.1-5.6,3.7-5.6,9.7l-0.5,191
		c0,10,6.7,21.8,15.4,26.8l229.1,133c2.9,1.7,5.9,2.5,8.7,2.5c2.3,0,4.4-0.5,6.4-1.7c4.4-2.5,6.9-7.4,6.9-13.5l0.5-191.7
		C612.3,471.7,611.7,468.6,610.6,465.5z M598.7,666.3c0,1.2-0.2,1.9-0.4,2.2c-0.3,0-1-0.2-2.1-0.8l-10.6-6.1L367.1,534.8
		c-4.7-2.7-8.9-10.1-8.9-15.5v-6.7v-15l0.4-155.6l61.5,119.8l5.9,11.6l28.8,56.1l37.5-15.4l12.2-5l93.9-38.5
		c0.4,1.5,0.7,2.9,0.7,4.1L598.6,658L598.7,666.3z"/>
</g>
<g>
	<path class="st5" d="M601.9,462.1c-2.2-3.6-5.1-6.8-8.3-8.6L367.3,323c-3.9-2.2-8.8-2-11,0L458,521.1L601.9,462.1z"/>
	<path class="st6" d="M607.5,458.7c-1-1.6-2.1-3.2-3.3-4.6c-2.2-2.6-4.7-4.8-7.3-6.3L370.5,317.4c-3.4-2-7.4-2.7-11-2.3
		c-2.9,0.3-5.5,1.3-7.5,3.1l-0.1,0.1l-3.7,3.3l4.1,7.9l6.5,12.6l61.5,119.8l5.9,11.6l28.8,56.1l37.5-15.4l12.2-5l99.9-41l6-2.5
		l0.7-0.3L607.5,458.7z M367.5,330.6L590.4,459c0.2,0.1,0.4,0.3,0.7,0.4l-130,53.3L367.5,330.6z"/>
</g>
<g>
	
		<rect x="345.6" y="480.1" transform="matrix(0.8658 -0.5004 0.5004 0.8658 -191.1527 260.5228)" class="st6" width="89.1" height="13"/>
</g>
<path class="st7" d="M417.3,630.3"/>
<g>
	
		<rect x="541.7" y="490.6" transform="matrix(0.8455 -0.534 0.534 0.8455 -230.4512 383.9077)" class="st6" width="13" height="199.2"/>
</g>
<linearGradient id="SVGID_2_" gradientUnits="userSpaceOnUse" x1="289.4826" y1="417.4" x2="427.4826" y2="417.4" gradientTransform="matrix(1 0 0 -1 0 1060)">
	<stop  offset="0" style="stop-color:#FFFFFF;stop-opacity:0"/>
	<stop  offset="1" style="stop-color:#1579FF"/>
</linearGradient>
<line class="st8" x1="298.5" y1="607.7" x2="418.5" y2="677.5"/>
<linearGradient id="SVGID_3_" gradientUnits="userSpaceOnUse" x1="400.4826" y1="285.4" x2="538.4826" y2="285.4" gradientTransform="matrix(1 0 0 -1 0 1060)">
	<stop  offset="0" style="stop-color:#FFFFFF;stop-opacity:0"/>
	<stop  offset="1" style="stop-color:#1579FF"/>
</linearGradient>
<line class="st9" x1="409.5" y1="739.7" x2="529.5" y2="809.5"/>
<linearGradient id="SVGID_4_" gradientUnits="userSpaceOnUse" x1="186.4826" y1="547.4" x2="324.4826" y2="547.4" gradientTransform="matrix(1 0 0 -1 0 1060)">
	<stop  offset="0" style="stop-color:#FFFFFF;stop-opacity:0"/>
	<stop  offset="1" style="stop-color:#1579FF"/>
</linearGradient>
<line class="st10" x1="195.5" y1="477.7" x2="315.5" y2="547.5"/>
<linearGradient id="SVGID_5_" gradientUnits="userSpaceOnUse" x1="567.4826" y1="519.4" x2="705.4826" y2="519.4" gradientTransform="matrix(1 0 0 -1 0 1060)">
	<stop  offset="0" style="stop-color:#FFFFFF;stop-opacity:0"/>
	<stop  offset="1" style="stop-color:#1579FF"/>
</linearGradient>
<line class="st11" x1="576.5" y1="505.7" x2="696.5" y2="575.5"/>
<linearGradient id="SVGID_6_" gradientUnits="userSpaceOnUse" x1="246.4826" y1="710.4" x2="384.4826" y2="710.4" gradientTransform="matrix(1 0 0 -1 0 1060)">
	<stop  offset="0" style="stop-color:#FFFFFF;stop-opacity:0"/>
	<stop  offset="1" style="stop-color:#1579FF"/>
</linearGradient>
<line class="st12" x1="255.5" y1="314.7" x2="375.5" y2="384.5"/>
<linearGradient id="SVGID_7_" gradientUnits="userSpaceOnUse" x1="578.4826" y1="391.4" x2="716.4826" y2="391.4" gradientTransform="matrix(1 0 0 -1 0 1060)">
	<stop  offset="0" style="stop-color:#FFFFFF;stop-opacity:0"/>
	<stop  offset="1" style="stop-color:#1579FF"/>
</linearGradient>
<line class="st13" x1="587.5" y1="633.7" x2="707.5" y2="703.5"/>
<linearGradient id="SVGID_8_" gradientUnits="userSpaceOnUse" x1="647.4826" y1="592.4" x2="785.4826" y2="592.4" gradientTransform="matrix(1 0 0 -1 0 1060)">
	<stop  offset="0" style="stop-color:#FFFFFF;stop-opacity:0"/>
	<stop  offset="1" style="stop-color:#1579FF"/>
</linearGradient>
<line class="st14" x1="656.5" y1="432.7" x2="776.5" y2="502.5"/>
<linearGradient id="SVGID_9_" gradientUnits="userSpaceOnUse" x1="91.4826" y1="495.4" x2="229.4826" y2="495.4" gradientTransform="matrix(1 0 0 -1 0 1060)">
	<stop  offset="0" style="stop-color:#FFFFFF;stop-opacity:0"/>
	<stop  offset="1" style="stop-color:#1579FF"/>
</linearGradient>
<line class="st15" x1="100.5" y1="529.7" x2="220.5" y2="599.5"/>
</svg>
