<?xml version="1.0" encoding="utf-8"?>
<!-- Generator: Adobe Illustrator 22.0.1, SVG Export Plug-In . SVG Version: 6.00 Build 0)  -->
<svg version="1.1" id="Calque_1" xmlns="http://www.w3.org/2000/svg" xmlns:xlink="http://www.w3.org/1999/xlink" x="0px" y="0px"
	 viewBox="0 0 836.3 478.7" style="enable-background:new 0 0 836.3 478.7;" xml:space="preserve">
<style type="text/css">
	.st0{opacity:0.75;fill:url(#SVGID_1_);enable-background:new    ;}
	.st1{fill:url(#SVGID_2_);}
	.st2{opacity:0.75;fill:url(#SVGID_3_);enable-background:new    ;}
	.st3{fill:#FFFFFF;}
</style>
<g id="XMLID_2_">
	<g>
		
			<radialGradient id="SVGID_1_" cx="506.6" cy="227.85" r="316.1078" fx="295.6048" fy="241.3424" gradientTransform="matrix(1 0 0 -1 0 480)" gradientUnits="userSpaceOnUse">
			<stop  offset="0" style="stop-color:#00CCFF;stop-opacity:0.6"/>
			<stop  offset="1" style="stop-color:#006EE9"/>
		</radialGradient>
		<path class="st0" d="M153.1-18.9h500.6C723.2,0.2,793.5-2.5,862.1,5.5v517.7c-6-13.7-14-27.2-23.7-40.5
			c-49.4-67.8-144-131-255.4-187.8C482.4,243.6,393.7,200.2,321.9,155c-29.6-18.6-56.3-37.5-79.7-57.4
			c-35.5-30.1-63.5-62.3-82.7-99.1c-0.8-1.6-1.7-3.2-2.5-4.8c-2.1-4.1-4-8.3-5.9-12.6"/>
		
			<linearGradient id="SVGID_2_" gradientUnits="userSpaceOnUse" x1="482.7082" y1="671.3741" x2="728.9226" y2="-93.129" gradientTransform="matrix(1 0 0 -1 0 480)">
			<stop  offset="0" style="stop-color:#00CCFF;stop-opacity:0.6"/>
			<stop  offset="1" style="stop-color:#47A6DD"/>
		</linearGradient>
		<path class="st1" d="M925.5-12.9H862v239.1c-122.8-37.1-271.4-30.6-401.9-44c-49.5-5.1-96.3-13-138.2-27.2
			C245.7,129.1,185.9,82.3,157-6.3c-1.3-4.1-2.6-8.3-3.8-12.6h752.2C912.1-16.9,918.8-14.9,925.5-12.9z"/>
		
			<linearGradient id="SVGID_3_" gradientUnits="userSpaceOnUse" x1="478.1802" y1="603.0793" x2="709.2482" y2="-114.3948" gradientTransform="matrix(1 0 0 -1 0 480)">
			<stop  offset="0" style="stop-color:#00CCFF;stop-opacity:0.6"/>
			<stop  offset="1" style="stop-color:#006EE9"/>
		</linearGradient>
		<path class="st2" d="M871.5-12.9H862v558.1c-7.1-22.3-15-43.1-23.7-62.6c-83.5-187.4-237.2-253.1-378.2-300.4
			c-82.5-27.6-160.6-49-217.9-84.6c-39-24.3-68.3-55.1-82.7-99.1c-1.8-5.6-3.4-11.4-4.8-17.4h659.9
			C833.5-17.5,852.4-15.8,871.5-12.9z"/>
	</g>
</g>
<path class="st3" d="M153.2-18.9h-2"/>
</svg>
