<?xml version="1.0" encoding="utf-8"?>
<!-- Generator: Adobe Illustrator 22.0.1, SVG Export Plug-In . SVG Version: 6.00 Build 0)  -->
<svg version="1.1" id="Calque_1" xmlns="http://www.w3.org/2000/svg" xmlns:xlink="http://www.w3.org/1999/xlink" x="0px" y="0px"
	 viewBox="0 0 393 397" style="enable-background:new 0 0 393 397;" xml:space="preserve">
<style type="text/css">
	.st0{fill:#FF1962;}
	.st1{fill:#FFFFFF;}
	.st2{fill:none;stroke:#FFFFFF;stroke-width:7;stroke-miterlimit:10;}
	.st3{fill:none;stroke:#FFFFFF;stroke-width:2;stroke-miterlimit:10;}
	.st4{fill:#FFFFFF;stroke:#FF1962;stroke-width:2;stroke-miterlimit:10;}
</style>
<circle class="st0" cx="41.1" cy="148" r="36.5"/>
<circle class="st0" cx="93.6" cy="307.5" r="59"/>
<circle class="st0" cx="191.6" cy="200.5" r="28"/>
<circle class="st0" cx="331.6" cy="145.5" r="53"/>
<circle class="st0" cx="279.6" cy="295.5" r="32"/>
<circle class="st0" cx="157.1" cy="118" r="23.5"/>
<g>
	<path class="st1" d="M323.1,161.1v-28.6h9.3c3.5,0,5.8,0.1,6.9,0.4c1.6,0.4,3,1.4,4.1,2.8c1.1,1.4,1.7,3.3,1.7,5.6
		c0,1.8-0.3,3.2-1,4.4c-0.6,1.2-1.4,2.1-2.4,2.8c-1,0.7-2,1.1-3,1.4c-1.4,0.3-3.4,0.4-6,0.4h-3.8v10.8H323.1z M328.9,137.3v8.1h3.2
		c2.3,0,3.8-0.1,4.6-0.4c0.8-0.3,1.4-0.8,1.8-1.4c0.4-0.6,0.7-1.4,0.7-2.2c0-1-0.3-1.9-0.9-2.6c-0.6-0.7-1.4-1.1-2.3-1.3
		c-0.7-0.1-2.1-0.2-4.2-0.2H328.9z"/>
</g>
<circle class="st2" cx="332.1" cy="145" r="32.5"/>
<path class="st1" d="M175.1,214L175.1,214c-1.7,0-3-1.4-3-3v-7c0-1.6,1.3-3,3-3l0,4c1.6,0,3-2.6,3-1v7
	C178.1,212.6,176.7,214,175.1,214z"/>
<path class="st1" d="M209.1,214L209.1,214c-1.7,0-3-1.4-3-3v-6c0-1.6,1.3,0,3,0l0-3c1.6,0,3,1.4,3,3v6
	C212.1,212.6,210.7,214,209.1,214z"/>
<g>
	<path class="st1" d="M208.1,194h-1.4l-1.4-5.3c-0.3-2.3-3-4.2-5-4.2H197c0-0.2,0-0.3,0-0.5c0-1.7-1.3-3-3-3h-4c-1.7,0-3,1.3-3,3
		c0,0.2,0,0.3,0,0.5h-3.2c-2,0-4.6,1.9-5,4.2l-1.4,5.3h-1.3c-1.6,0-3,1.3-3,3v11c0,1.6,1.4,3,3,3h31.8c1.7,0,3-1.4,3-3v-11
		C211.1,195.3,209.7,194,208.1,194z M181.9,189.4l0-0.2c0.1-0.7,1.3-1.7,2-1.7h16.3c0.7,0,1.9,1,2,1.7l1.3,4.8h-22.9L181.9,189.4z
		 M183.4,202.8c-0.3,1-1.3,1.7-2.4,1.7c-1.4,0-2.5-1.1-2.5-2.5v-0.1c0-1.1,0.8-2.1,1.9-2.4c0.2,0,0.4-0.1,0.6-0.1
		c0.4,0,0.8,0.1,1.2,0.3c0.8,0.4,1.3,1.3,1.3,2.2C183.6,202.3,183.5,202.5,183.4,202.8z M204.5,202.5c-0.2,1.1-1.2,2-2.4,2
		c-1.1,0-2-0.7-2.4-1.7c-0.1-0.3-0.1-0.5-0.1-0.8c0-1,0.5-1.8,1.3-2.2c0.3-0.2,0.8-0.3,1.2-0.3c0.4,0,0.8,0.1,1.2,0.3
		c0.8,0.4,1.3,1.3,1.3,2.2C204.6,202.2,204.6,202.4,204.5,202.5z"/>
</g>
<g>
	<path class="st1" d="M49.8,133.3l6.2-2.7l-0.2-1.6l-6.9,0.6c-2.6,0.6-4.9,2.2-6.4,4.4l-2.3,3.4l-3.5-1.8c-3.9-2-8.7-0.4-10.7,3.5
		l-8.1,16c-0.4,0.8-0.1,1.8,0.7,2.2l3.1,1.6c3.3,1.6,6.9,2,10.2,1.1c0.3,1.9,1,3.7,1.9,5.4c0.4,0.7,1.1,1.2,1.8,1.4
		c0.3,0.1,0.5,0.1,0.8,0.1c0.5,0,1-0.1,1.5-0.4l5.8-3.4c4.5-2.6,6-8.3,3.4-12.8l-2.5-4.4l1.8-3.6c0.4-0.8,0.1-1.8-0.7-2.2l-2.2-1.1
		l2-3C46.7,134.7,48.1,133.7,49.8,133.3z M44.9,151.8c0.9,1.5,1.1,3.3,0.7,5c-0.5,1.7-1.5,3.1-3.1,4l-5.8,3.4c-0.1,0-0.2,0-0.2,0
		c0,0-0.1,0-0.2-0.1c-0.9-1.6-1.5-3.3-1.7-4.9c2.9-1.3,5.3-3.6,6.9-6.7l1.8-3.5L44.9,151.8z"/>
</g>
<g>
	<path class="st1" d="M62.6,133.7c0.1,0.2,0.1,0.4,0,0.7c-0.2,0.5-0.7,0.9-1.3,1c-1.6,0.1-2.5-2.4-2.7-3.6c0,0,0.5,0.1,0.6,0.1
		c0.5,0.1,0.9,0.2,1.3,0.3C61.2,132.3,62.3,132.9,62.6,133.7z"/>
</g>
<path class="st1" d="M164.5,130h-15.7c-0.8,0-1.5-0.7-1.5-1.5l0,0c0-0.8,0.7-1.5,1.5-1.5h15.7c0.8,0,1.5,0.7,1.5,1.5l0,0
	C166,129.3,165.4,130,164.5,130z"/>
<path class="st1" d="M162.7,129.5h-12c-1.7,0-3-1.4-3-3v-18h18v18C165.7,128.1,164.3,129.5,162.7,129.5z"/>
<path class="st3" d="M167.1,124h-1c-1.7,0-3-1.3-3-3v-6c0-1.7,1.3-3,3-3h1c1.6,0,3,1.3,3,3v6C170.1,122.7,168.7,124,167.1,124z"/>
<rect x="67.1" y="275.9" class="st1" width="53" height="61.2"/>
<path class="st4" d="M68.1,338h-3c-1.6,0-3-1.4-3-3v-58c0-1.6,1.3-3,3-3h3c1.7,0,3,1.4,3,3v58C71.1,336.6,69.7,338,68.1,338z"/>
<polygon class="st1" points="109.1,351 105.1,346.5 101.1,351 101.1,339 109.1,339 "/>
<path class="st1" d="M272.7,278.2c3,3,5.3,5.3,5.3,5.3s1.3,2-0.2,5.5c-0.1,0.2-0.2,0.4-0.3,0.6c-1.2,2.8-1.2,2.8-1.2,2.8l-1.4,1.4
	c0,0,0,0-2.8,1.2c-0.2,0.1-0.4,0.2-0.6,0.3c-3.5,1.5-5.5,0.2-5.5,0.2s-2.3-2.3-5.3-5.3s0.6-7.2,0.6-7.2l5.8,5.8
	c0.5,0.5,1.2,0.8,1.9,0.8l0,0c1.7,0,3.1-1.4,3.1-3.1l0,0c0-0.7-0.3-1.4-0.8-1.9l-5.8-5.8C265.5,278.8,269.8,275.2,272.7,278.2z"/>
<path class="st1" d="M290.2,313.7l-18.6-18.6c-1.2-1.2-1.2-3.1,0-4.2l1.9-1.9c1.2-1.2,3.1-1.2,4.2,0l18.6,18.6
	c1.2,1.2,1.2,3.1,0,4.2l-1.9,1.9C293.3,314.9,291.4,314.9,290.2,313.7z"/>
</svg>
