<?xml version="1.0" encoding="utf-8"?>
<!-- Generator: Adobe Illustrator 22.0.1, SVG Export Plug-In . SVG Version: 6.00 Build 0)  -->
<svg version="1.1" id="Calque_1" xmlns="http://www.w3.org/2000/svg" xmlns:xlink="http://www.w3.org/1999/xlink" x="0px" y="0px"
	 viewBox="0 0 2395.6 896.9" style="enable-background:new 0 0 2395.6 896.9;" xml:space="preserve">
<style type="text/css">
	.st0{fill:#FFFFFF;stroke:#E2E2E2;stroke-width:15;stroke-miterlimit:10;}
	.st1{fill:#E5E5E5;}
	.st2{fill:#FF9A15;}
	.st3{enable-background:new    ;}
	.st4{fill:#A1A1A1;}
	.st5{fill:#FFFFFF;}
</style>
<g>
	<path class="st0" d="M2233.4,806.8L506.1,807c-32.8,0-59.6-26.8-59.6-59.6v-599c0-32.8,26.8-59.6,59.6-59.6l1727.3-0.2
		c32.8,0,59.6,26.8,59.6,59.6v599.2C2292.9,780,2266.1,806.8,2233.4,806.8z"/>
</g>
<g>
	<g>
		<path class="st1" d="M1582.5,353.6H824.6c-10.3,0-18.7-8.4-18.7-18.7v-39.1c0-10.3,8.4-18.7,18.7-18.7h757.8
			c10.3,0,18.7,8.4,18.7,18.7V335C1601.1,345.2,1592.7,353.6,1582.5,353.6z M824.6,282.5c-7.3,0-13.3,5.9-13.3,13.3V335
			c0,7.3,5.9,13.3,13.3,13.3h757.8c7.3,0,13.3-5.9,13.3-13.3v-39.1c0-7.3-5.9-13.3-13.3-13.3H824.6V282.5z"/>
	</g>
	<g>
		<path class="st1" d="M1103,592H873.9c-10.3,0-18.7-8.4-18.7-18.7v-39.1c0-10.3,8.4-18.7,18.7-18.7H1103c10.3,0,18.7,8.4,18.7,18.7
			v39.1C1121.6,583.7,1113.3,592,1103,592z M873.9,520.9c-7.3,0-13.3,5.9-13.3,13.3v39.1c0,7.3,5.9,13.3,13.3,13.3H1103
			c7.3,0,13.3-5.9,13.3-13.3v-39.1c0-7.3-5.9-13.3-13.3-13.3H873.9z"/>
	</g>
	<path class="st2" d="M2109.9,611.8H1677c-8.8,0-16-7.2-16-16V517c0-8.8,7.2-16,16-16h432.9c8.8,0,16,7.2,16,16v78.8
		C2125.9,604.6,2118.7,611.8,2109.9,611.8z"/>
	<g class="st3">
		<path class="st4" d="M566,329.3v-28.7h9.9c2.3,0,4,0.1,5.1,0.4c1.7,0.4,3.1,1.1,4.1,2.1c1.5,1.3,2.7,2.9,3.4,4.8
			c0.7,2,1.1,4.2,1.1,6.8c0,2.2-0.3,4.1-0.8,5.7c-0.5,1.7-1.2,3.1-2,4.1s-1.7,2-2.6,2.6c-1,0.6-2.1,1.1-3.5,1.5
			c-1.3,0.3-2.9,0.5-4.6,0.5L566,329.3L566,329.3z M569.7,326h6.1c1.9,0,3.4-0.2,4.4-0.5c1.1-0.3,2-0.9,2.6-1.5
			c0.9-0.9,1.6-2.1,2.1-3.7c0.5-1.5,0.8-3.4,0.8-5.5c0-3-0.5-5.3-1.5-6.9s-2.2-2.7-3.6-3.3c-1-0.4-2.7-0.6-4.9-0.6h-6L569.7,326
			L569.7,326z"/>
		<path class="st4" d="M608.6,322.7l3.7,0.5c-0.6,2.1-1.7,3.8-3.2,4.9c-1.6,1.2-3.6,1.8-5.9,1.8c-3.1,0-5.4-0.9-7.2-2.8
			s-2.7-4.4-2.7-7.8c0-3.5,0.9-6.2,2.7-8.1s4.1-2.9,7-2.9c2.8,0,5,1,6.8,2.9s2.7,4.5,2.7,8c0,0.2,0,0.5,0,0.9H597
			c0.1,2.3,0.8,4.1,2,5.2c1.2,1.2,2.6,1.8,4.3,1.8c1.3,0,2.4-0.3,3.3-1C607.3,325.3,608.1,324.2,608.6,322.7z M597,317h11.6
			c-0.2-1.8-0.6-3.1-1.3-4c-1.1-1.4-2.6-2.1-4.3-2.1c-1.6,0-3,0.5-4.1,1.6C597.8,313.7,597.2,315.2,597,317z"/>
		<path class="st4" d="M622.4,329.3l-7.9-20.7h3.8l4.4,12.4c0.5,1.4,0.9,2.8,1.3,4.1c0.3-1.1,0.8-2.4,1.3-4l4.6-12.6h3.7l-7.8,20.7
			L622.4,329.3L622.4,329.3z"/>
		<path class="st4" d="M648.2,329.3v-28.7H659c1.9,0,3.4,0.1,4.3,0.3c1.4,0.2,2.6,0.7,3.6,1.4c1,0.7,1.7,1.6,2.3,2.8
			c0.6,1.2,0.9,2.5,0.9,3.9c0,2.5-0.8,4.4-2.4,6.2c-1.6,1.7-4.3,2.6-8.4,2.6H652v11.7L648.2,329.3L648.2,329.3z M651.9,314.4h7.4
			c2.5,0,4.1-0.5,5.2-1.4c1-0.9,1.6-2.2,1.6-3.9c0-1.2-0.3-2.2-0.9-3.1s-1.4-1.4-2.4-1.7c-0.6-0.2-1.8-0.3-3.6-0.3H652L651.9,314.4
			L651.9,314.4z"/>
		<path class="st4" d="M687.9,321.8l3.5,0.5c-0.4,2.4-1.4,4.2-2.9,5.6c-1.6,1.4-3.5,2-5.7,2c-2.9,0-5.1-0.9-6.8-2.8s-2.6-4.5-2.6-8
			c0-2.3,0.4-4.1,1.1-5.8c0.8-1.7,1.9-3,3.4-3.8c1.5-0.9,3.2-1.3,4.9-1.3c2.3,0,4.1,0.6,5.5,1.7c1.4,1.2,2.4,2.8,2.8,4.8l-3.5,0.5
			c-0.3-1.4-0.9-2.5-1.7-3.2s-1.8-1.1-3-1.1c-1.8,0-3.2,0.6-4.3,1.9s-1.7,3.3-1.7,6c0,2.8,0.5,4.8,1.6,6c1.1,1.3,2.5,1.9,4.1,1.9
			c1.4,0,2.6-0.4,3.5-1.3C687,324.9,687.6,323.5,687.9,321.8z"/>
		<path class="st4" d="M708.5,322.7l3.7,0.5c-0.6,2.1-1.7,3.8-3.2,4.9c-1.6,1.2-3.6,1.8-5.9,1.8c-3.1,0-5.4-0.9-7.2-2.8
			s-2.7-4.4-2.7-7.8c0-3.5,0.9-6.2,2.7-8.1s4.1-2.9,7-2.9c2.8,0,5,1,6.8,2.9s2.7,4.5,2.7,8c0,0.2,0,0.5,0,0.9H697
			c0.1,2.3,0.8,4.1,2,5.2c1.2,1.2,2.6,1.8,4.3,1.8c1.3,0,2.4-0.3,3.3-1C707.3,325.3,707.9,324.2,708.5,322.7z M697,317h11.6
			c-0.2-1.8-0.6-3.1-1.3-4c-1.1-1.4-2.6-2.1-4.3-2.1c-1.6,0-3,0.5-4.1,1.6C697.7,313.7,697.1,315.2,697,317z"/>
	</g>
	<g class="st3">
		<path class="st4" d="M853.5,300.8h5.7v15.5c0,2.5,0.1,4.1,0.2,4.7c0.3,1.2,0.8,2.1,1.8,2.9c0.9,0.7,2.2,1.1,3.9,1.1s2.9-0.3,3.8-1
			c0.8-0.7,1.3-1.5,1.5-2.5s0.3-2.6,0.3-4.8v-15.8h5.7v15c0,3.5-0.2,5.8-0.5,7.3c-0.3,1.4-0.9,2.6-1.7,3.6s-2,1.8-3.4,2.4
			s-3.3,0.9-5.5,0.9c-2.8,0-4.8-0.3-6.2-1c-1.4-0.6-2.6-1.5-3.4-2.5c-0.8-1-1.4-2.1-1.6-3.2c-0.4-1.7-0.6-4.1-0.6-7.2V300.8z"/>
		<path class="st4" d="M880.9,320.1l5.6-0.6c0.3,1.9,1,3.3,2.1,4.1c1,0.9,2.5,1.3,4.1,1.3c1.9,0,3.3-0.4,4.2-1.2
			c1-0.8,1.4-1.7,1.4-2.8c0-0.7-0.2-1.3-0.6-1.7c-0.4-0.5-1.1-0.9-2.1-1.3c-0.7-0.2-2.2-0.7-4.6-1.3c-3.1-0.8-5.2-1.7-6.5-2.9
			c-1.8-1.6-2.7-3.5-2.7-5.7c0-1.5,0.4-2.9,1.3-4.1c0.8-1.3,2-2.3,3.6-2.9c1.6-0.7,3.5-1,5.6-1c3.6,0,6.3,0.8,8.1,2.4
			s2.8,3.7,2.9,6.3l-5.7,0.3c-0.3-1.5-0.8-2.6-1.6-3.2c-0.8-0.7-2.1-1-3.7-1c-1.7,0-3,0.3-4,1c-0.6,0.4-0.9,1-0.9,1.8
			c0,0.7,0.3,1.3,0.9,1.8c0.7,0.6,2.5,1.3,5.3,1.9c2.8,0.7,4.8,1.4,6.2,2.1s2.4,1.7,3.2,2.9c0.8,1.2,1.2,2.8,1.2,4.5
			s-0.5,3.2-1.4,4.6s-2.2,2.5-3.9,3.2s-3.8,1.1-6.2,1.1c-3.7,0-6.4-0.8-8.3-2.5C882.4,325.7,881.2,323.3,880.9,320.1z"/>
		<path class="st4" d="M909,300.8h10.6c2.4,0,4.1,0.2,5.4,0.6c1.7,0.5,3.2,1.4,4.3,2.7c1.2,1.3,2.1,2.8,2.8,4.6
			c0.6,1.8,0.9,4.1,0.9,6.7c0,2.4-0.3,4.3-0.9,6.1c-0.7,2.1-1.8,3.8-3.1,5c-1,1-2.4,1.8-4.1,2.3c-1.3,0.4-3,0.6-5.1,0.6H909V300.8
			L909,300.8z M914.7,305.6v19h4.3c1.6,0,2.8-0.1,3.5-0.3c0.9-0.2,1.7-0.6,2.4-1.2c0.6-0.6,1.1-1.5,1.5-2.8s0.6-3.1,0.6-5.2
			c0-2.2-0.2-4-0.6-5.1c-0.4-1.2-0.9-2.1-1.7-2.8c-0.7-0.7-1.6-1.1-2.7-1.4c-0.8-0.2-2.4-0.3-4.7-0.3L914.7,305.6L914.7,305.6z"/>
		<path class="st4" d="M950,314.1v-5.4h5.4v5.4H950z M950,329.3v-5.4h5.4v5.4H950z"/>
		<path class="st4" d="M973.3,300.8h10.6c2.4,0,4.1,0.2,5.4,0.6c1.7,0.5,3.2,1.4,4.3,2.7c1.2,1.3,2.1,2.8,2.8,4.6
			c0.6,1.8,0.9,4.1,0.9,6.7c0,2.4-0.3,4.3-0.9,6.1c-0.7,2.1-1.8,3.8-3.1,5c-1,1-2.4,1.8-4.1,2.3c-1.3,0.4-3,0.6-5.1,0.6h-10.9
			L973.3,300.8L973.3,300.8z M979.1,305.6v19h4.3c1.6,0,2.8-0.1,3.5-0.3c0.9-0.2,1.7-0.6,2.4-1.2s1.1-1.5,1.5-2.8s0.6-3.1,0.6-5.2
			c0-2.2-0.2-4-0.6-5.1c-0.4-1.2-0.9-2.1-1.7-2.8c-0.7-0.7-1.6-1.1-2.7-1.4c-0.8-0.2-2.4-0.3-4.7-0.3L979.1,305.6L979.1,305.6z"/>
		<path class="st4" d="M1001,318.8c0-1.8,0.5-3.6,1.4-5.3c0.9-1.7,2.2-3,3.9-3.9s3.5-1.4,5.5-1.4c3.2,0,5.7,1,7.7,3.1s3,4.6,3,7.7
			c0,3.2-1,5.7-3.1,7.8c-2,2.1-4.5,3.1-7.6,3.1c-1.9,0-3.8-0.4-5.4-1.3s-3.1-2.1-4-3.8C1001.4,323.1,1001,321.1,1001,318.8z
			 M1006.5,319.1c0,2.1,0.5,3.7,1.5,4.7c1,1.1,2.2,1.7,3.7,1.7c1.4,0,2.7-0.6,3.6-1.7c1-1.1,1.5-2.7,1.5-4.7c0-2.1-0.5-3.6-1.5-4.6
			c-1-1.1-2.2-1.7-3.6-1.7c-1.4,0-2.7,0.6-3.7,1.7C1007,315.4,1006.5,317,1006.5,319.1z"/>
		<path class="st4" d="M1026.6,329.3v-28.7h5.4v28.7H1026.6z"/>
		<path class="st4" d="M1037.7,329.3v-28.7h5.4v28.7H1037.7z"/>
		<path class="st4" d="M1052.9,315l-4.9-0.9c0.6-2,1.5-3.5,2.9-4.4c1.4-1,3.4-1.5,6.1-1.5c2.5,0,4.2,0.3,5.4,0.9
			c1.2,0.6,2.1,1.3,2.6,2.2c0.5,0.9,0.7,2.6,0.7,4.9l-0.1,6.4c0,1.8,0.1,3.2,0.3,4.1c0.2,0.9,0.5,1.8,1,2.8h-5.4
			c-0.1-0.4-0.3-0.9-0.5-1.6c-0.1-0.3-0.2-0.5-0.2-0.7c-0.9,0.9-2,1.6-3,2.1c-1.1,0.5-2.2,0.7-3.5,0.7c-2.2,0-3.9-0.6-5-1.8
			c-1.2-1.2-1.9-2.7-1.9-4.3c0-1.2,0.3-2.2,0.8-3.2c0.6-0.9,1.4-1.6,2.4-2.1s2.5-0.9,4.3-1.3c2.6-0.5,4.3-0.9,5.3-1.4v-0.6
			c0-1.1-0.3-1.8-0.8-2.3s-1.5-0.7-3-0.7c-1,0-1.8,0.2-2.3,0.6C1053.7,313.3,1053.2,314,1052.9,315z M1060.2,319.5
			c-0.7,0.2-1.8,0.5-3.4,0.8c-1.5,0.3-2.5,0.7-3,1c-0.7,0.5-1.1,1.2-1.1,2s0.3,1.4,0.9,2s1.3,0.8,2.2,0.8c1,0,2-0.3,2.9-1
			c0.7-0.5,1.1-1.1,1.3-1.8c0.1-0.5,0.2-1.4,0.2-2.7V319.5L1060.2,319.5z"/>
		<path class="st4" d="M1076.3,329.3h-5.4v-20.7h5.1v3c0.9-1.4,1.7-2.3,2.4-2.8c0.7-0.4,1.5-0.7,2.4-0.7c1.3,0,2.5,0.3,3.7,1
			l-1.7,4.7c-0.9-0.6-1.8-0.9-2.6-0.9s-1.4,0.2-2,0.6c-0.5,0.4-1,1.2-1.3,2.3c-0.3,1.1-0.5,3.5-0.5,6.9L1076.3,329.3L1076.3,329.3z"
			/>
		<path class="st4" d="M1122,329.3h-6.3l-2.5-6.5h-11.5l-2.4,6.5h-6.1l11.2-28.7h6.1L1122,329.3z M1111.4,318.1l-4-10.6l-3.9,10.6
			H1111.4z"/>
		<path class="st4" d="M1124.7,308.7h5v2.9c1.8-2.2,4-3.3,6.4-3.3c1.3,0,2.5,0.3,3.5,0.8c1,0.6,1.8,1.4,2.4,2.5c0.9-1.1,1.9-2,3-2.5
			c1.1-0.6,2.2-0.8,3.4-0.8c1.5,0,2.8,0.3,3.9,0.9s1.9,1.5,2.4,2.8c0.4,0.9,0.6,2.3,0.6,4.2v13.2h-5.4v-11.9c0-2.1-0.2-3.4-0.6-4
			c-0.5-0.8-1.3-1.2-2.4-1.2c-0.8,0-1.5,0.2-2.2,0.7s-1.2,1.2-1.5,2.1s-0.5,2.4-0.5,4.2v10h-5.4v-11.4c0-2-0.1-3.4-0.3-3.9
			c-0.2-0.6-0.5-1-0.9-1.3s-1-0.4-1.7-0.4c-0.9,0-1.6,0.2-2.3,0.7c-0.7,0.5-1.2,1.1-1.5,2s-0.4,2.3-0.4,4.2v10.1h-5.4L1124.7,308.7
			L1124.7,308.7z"/>
		<path class="st4" d="M1172.6,322.8l5.4,0.9c-0.7,2-1.8,3.6-3.4,4.5c-1.5,1.1-3.5,1.6-5.7,1.6c-3.6,0-6.2-1.2-8-3.6
			c-1.4-1.9-2.1-4.2-2.1-7.1c0-3.5,0.9-6.1,2.7-8.1c1.8-2,4.1-3,6.8-3c3.1,0,5.5,1,7.3,3.1s2.7,5.1,2.6,9.4h-13.7
			c0,1.6,0.5,2.9,1.3,3.8c0.9,0.9,1.9,1.4,3.2,1.4c0.9,0,1.6-0.2,2.2-0.7C1171.7,324.5,1172.3,323.8,1172.6,322.8z M1172.9,317.3
			c0-1.6-0.5-2.8-1.2-3.7c-0.8-0.8-1.8-1.3-2.9-1.3c-1.2,0-2.2,0.4-3,1.3s-1.2,2.1-1.2,3.6L1172.9,317.3L1172.9,317.3z
			 M1165.9,306.1l2.7-5.8h6.1l-5.3,5.8H1165.9z"/>
		<path class="st4" d="M1188.1,329.3h-5.4v-20.7h5.1v3c0.9-1.4,1.7-2.3,2.4-2.8c0.7-0.4,1.5-0.7,2.4-0.7c1.3,0,2.5,0.3,3.7,1
			l-1.7,4.7c-0.9-0.6-1.8-0.9-2.6-0.9c-0.8,0-1.4,0.2-2,0.6c-0.5,0.4-1,1.2-1.3,2.3c-0.3,1.1-0.5,3.5-0.5,6.9L1188.1,329.3
			L1188.1,329.3z"/>
		<path class="st4" d="M1198.4,305.8v-5h5.4v5H1198.4z M1198.4,329.3v-20.7h5.4v20.7H1198.4z"/>
		<path class="st4" d="M1227.5,314.8l-5.4,1c-0.2-1.1-0.6-1.9-1.3-2.5c-0.7-0.6-1.5-0.8-2.5-0.8c-1.4,0-2.5,0.5-3.3,1.4
			c-0.8,1-1.2,2.6-1.2,4.7c0,2.5,0.4,4.1,1.3,5.2c0.8,1,2,1.5,3.4,1.5c1.1,0,1.9-0.3,2.6-0.9s1.1-1.6,1.4-3.1l5.4,0.9
			c-0.6,2.5-1.7,4.3-3.3,5.6s-3.8,1.9-6.4,1.9c-3.1,0-5.4-1-7.2-2.9c-1.8-1.9-2.7-4.5-2.7-7.9c0-3.5,0.9-6.1,2.7-8
			c1.8-1.9,4.2-2.9,7.3-2.9c2.6,0,4.5,0.6,6,1.6C1225.8,310.9,1226.9,312.5,1227.5,314.8z"/>
		<path class="st4" d="M1235.8,315l-4.9-0.9c0.6-2,1.5-3.5,2.9-4.4c1.4-1,3.4-1.5,6.1-1.5c2.5,0,4.2,0.3,5.4,0.9s2.1,1.3,2.6,2.2
			c0.5,0.9,0.7,2.6,0.7,4.9l-0.1,6.4c0,1.8,0.1,3.2,0.3,4.1c0.2,0.9,0.5,1.8,1,2.8h-5.4c-0.1-0.4-0.3-0.9-0.5-1.6
			c-0.1-0.3-0.2-0.5-0.2-0.7c-0.9,0.9-2,1.6-3,2.1c-1.1,0.5-2.2,0.7-3.5,0.7c-2.2,0-3.9-0.6-5-1.8c-1.2-1.2-1.9-2.7-1.9-4.3
			c0-1.2,0.3-2.2,0.8-3.2c0.6-0.9,1.4-1.6,2.4-2.1s2.5-0.9,4.3-1.3c2.6-0.5,4.3-0.9,5.3-1.4v-0.6c0-1.1-0.3-1.8-0.8-2.3
			s-1.5-0.7-3-0.7c-1,0-1.8,0.2-2.3,0.6C1236.6,313.3,1236.1,314,1235.8,315z M1243.1,319.5c-0.7,0.2-1.8,0.5-3.4,0.8
			c-1.5,0.3-2.5,0.7-3,1c-0.7,0.5-1.1,1.2-1.1,2s0.3,1.4,0.9,2s1.3,0.8,2.2,0.8c1,0,2-0.3,2.9-1c0.7-0.5,1.1-1.1,1.3-1.8
			c0.1-0.5,0.2-1.4,0.2-2.7V319.5L1243.1,319.5z"/>
		<path class="st4" d="M1253.9,305.8v-5h5.4v5H1253.9z M1253.9,329.3v-20.7h5.4v20.7H1253.9z"/>
		<path class="st4" d="M1283.8,329.3h-5.4v-10.6c0-2.3-0.1-3.7-0.4-4.3c-0.2-0.7-0.6-1.2-1.2-1.5c-0.5-0.4-1.2-0.6-1.9-0.6
			c-1,0-1.8,0.3-2.6,0.8c-0.8,0.5-1.3,1.2-1.6,2.1c-0.3,0.9-0.4,2.5-0.4,4.7v9.4h-5.4v-20.7h5.1v3.1c1.8-2.4,4.1-3.6,6.8-3.6
			c1.2,0,2.3,0.2,3.4,0.7c1,0.4,1.8,1,2.3,1.7s0.9,1.5,1.1,2.3c0.2,0.9,0.3,2.1,0.3,3.7L1283.8,329.3L1283.8,329.3z"/>
		<path class="st4" d="M1309.6,337.8h-3.8c-2-3-3.5-6.1-4.5-9.4c-1.1-3.3-1.6-6.4-1.6-9.4c0-3.8,0.7-7.3,2-10.7
			c1.1-2.9,2.6-5.6,4.2-8.1h3.8c-1.8,4-3,7.3-3.7,10.1c-0.7,2.8-1,5.7-1,8.8c0,2.2,0.2,4.3,0.6,6.5c0.4,2.3,1,4.3,1.6,6.4
			C1307.6,333.4,1308.4,335.3,1309.6,337.8z"/>
		<path class="st4" d="M1313.8,300.8h5.7v15.5c0,2.5,0.1,4.1,0.2,4.7c0.3,1.2,0.8,2.1,1.8,2.9c0.9,0.7,2.2,1.1,3.9,1.1
			c1.7,0,2.9-0.3,3.8-1c0.8-0.7,1.3-1.5,1.5-2.5s0.3-2.6,0.3-4.8v-15.8h5.7v15c0,3.5-0.2,5.8-0.5,7.3c-0.3,1.4-0.9,2.6-1.7,3.6
			c-0.8,1-2,1.8-3.4,2.4s-3.3,0.9-5.5,0.9c-2.8,0-4.8-0.3-6.2-1c-1.4-0.6-2.6-1.5-3.4-2.5s-1.4-2.1-1.6-3.2
			c-0.4-1.7-0.6-4.1-0.6-7.2L1313.8,300.8L1313.8,300.8z"/>
		<path class="st4" d="M1341.2,320.1l5.6-0.6c0.3,1.9,1,3.3,2.1,4.1c1,0.9,2.5,1.3,4.1,1.3c1.9,0,3.3-0.4,4.2-1.2
			c1-0.8,1.4-1.7,1.4-2.8c0-0.7-0.2-1.3-0.6-1.7c-0.4-0.5-1.1-0.9-2.1-1.3c-0.7-0.2-2.2-0.7-4.6-1.3c-3.1-0.8-5.2-1.7-6.5-2.9
			c-1.8-1.6-2.7-3.5-2.7-5.7c0-1.5,0.4-2.9,1.3-4.1c0.8-1.3,2-2.3,3.6-2.9c1.6-0.7,3.5-1,5.6-1c3.6,0,6.3,0.8,8.1,2.4
			s2.8,3.7,2.9,6.3l-5.7,0.3c-0.3-1.5-0.8-2.6-1.6-3.2c-0.8-0.7-2.1-1-3.7-1c-1.7,0-3,0.3-4,1c-0.6,0.4-0.9,1-0.9,1.8
			c0,0.7,0.3,1.3,0.9,1.8c0.7,0.6,2.5,1.3,5.3,1.9c2.8,0.7,4.8,1.4,6.2,2.1c1.4,0.7,2.4,1.7,3.2,2.9c0.8,1.2,1.2,2.8,1.2,4.5
			s-0.5,3.2-1.4,4.6s-2.2,2.5-3.9,3.2c-1.7,0.7-3.8,1.1-6.2,1.1c-3.7,0-6.4-0.8-8.3-2.5C1342.8,325.7,1341.6,323.3,1341.2,320.1z"/>
		<path class="st4" d="M1369.4,300.8h10.6c2.4,0,4.1,0.2,5.4,0.6c1.7,0.5,3.2,1.4,4.3,2.7c1.2,1.3,2.1,2.8,2.8,4.6
			c0.6,1.8,0.9,4.1,0.9,6.7c0,2.4-0.3,4.3-0.9,6.1c-0.7,2.1-1.8,3.8-3.1,5c-1,1-2.4,1.8-4.1,2.3c-1.3,0.4-3,0.6-5.1,0.6h-10.9
			L1369.4,300.8L1369.4,300.8z M1375.1,305.6v19h4.3c1.6,0,2.8-0.1,3.5-0.3c0.9-0.2,1.7-0.6,2.4-1.2c0.6-0.6,1.1-1.5,1.5-2.8
			s0.6-3.1,0.6-5.2c0-2.2-0.2-4-0.6-5.1c-0.4-1.2-0.9-2.1-1.7-2.8c-0.7-0.7-1.6-1.1-2.7-1.4c-0.8-0.2-2.4-0.3-4.7-0.3L1375.1,305.6
			L1375.1,305.6z"/>
		<path class="st4" d="M1396.6,337.8c1.1-2.3,1.9-4.1,2.3-5.3c0.4-1.3,0.9-2.7,1.2-4.2c0.4-1.6,0.7-3.2,0.8-4.6
			c0.2-1.5,0.3-3,0.3-4.4c0-3.1-0.3-6-1-8.8s-1.9-6.1-3.7-10.1h3.8c2,2.8,3.5,5.7,4.5,8.9s1.6,6.3,1.6,9.6c0,2.8-0.4,5.6-1.3,8.7
			c-1,3.5-2.6,6.9-4.8,10.3L1396.6,337.8L1396.6,337.8z"/>
		<path class="st4" d="M1429.2,325.2V317c-2.6-0.7-4.4-1.9-5.6-3.3c-1.2-1.5-1.8-3.3-1.8-5.3c0-2.2,0.7-4,2-5.3
			c1.4-1.5,3.2-2.3,5.3-2.5v-2h2.9v2c2.1,0.3,3.8,1,4.9,2.1c1.2,1.2,2,2.8,2.4,4.6l-4.9,0.7c-0.3-1.6-1.1-2.6-2.4-3.2v7.6
			c3.2,0.9,5.2,2,6.4,3.3c1.1,1.4,1.7,3.1,1.7,5.1c0,2.4-0.7,4.3-2.2,5.9c-1.4,1.6-3.4,2.6-5.9,3v3.7h-2.9v-3.6
			c-2.3-0.3-4.1-1.1-5.4-2.5c-1.4-1.4-2.3-3.4-2.7-5.9l5.1-0.6c0.2,1.1,0.6,2,1.2,2.7C1428,324.3,1428.5,324.8,1429.2,325.2z
			 M1429.2,304.6c-0.8,0.3-1.4,0.7-1.9,1.3c-0.5,0.6-0.7,1.3-0.7,2.1c0,0.7,0.2,1.3,0.6,1.9s1.1,1.1,1.9,1.5L1429.2,304.6
			L1429.2,304.6z M1432.1,325.4c1-0.2,1.8-0.6,2.4-1.4c0.6-0.7,0.9-1.6,0.9-2.6c0-0.9-0.3-1.6-0.8-2.3c-0.5-0.6-1.4-1.1-2.6-1.5
			L1432.1,325.4L1432.1,325.4z"/>
	</g>
	<g class="st3">
		<path class="st4" d="M1716.7,329.3v-28.7h9.9c2.3,0,4,0.1,5.1,0.4c1.7,0.4,3.1,1.1,4.1,2.1c1.5,1.3,2.7,2.9,3.4,4.8
			c0.8,2,1.1,4.2,1.1,6.8c0,2.2-0.3,4.1-0.8,5.7c-0.5,1.7-1.2,3.1-2,4.1s-1.7,2-2.6,2.6c-1,0.6-2.1,1.1-3.5,1.5
			c-1.4,0.3-2.9,0.5-4.6,0.5L1716.7,329.3L1716.7,329.3z M1720.6,326h6.1c1.9,0,3.4-0.2,4.4-0.5c1.1-0.4,2-0.9,2.6-1.5
			c0.9-0.9,1.6-2.1,2.1-3.7c0.5-1.5,0.8-3.4,0.8-5.5c0-3-0.5-5.3-1.5-6.9s-2.2-2.7-3.6-3.3c-1-0.4-2.7-0.6-4.9-0.6h-6V326z"/>
		<path class="st4" d="M1759.4,322.7l3.7,0.5c-0.6,2.1-1.7,3.8-3.2,4.9s-3.6,1.8-5.9,1.8c-3.1,0-5.4-0.9-7.2-2.8
			c-1.8-1.9-2.7-4.4-2.7-7.8c0-3.5,0.9-6.2,2.7-8.1c1.8-1.9,4.1-2.9,7-2.9c2.8,0,5,1,6.8,2.9s2.7,4.5,2.7,8c0,0.2,0,0.5,0,0.9h-15.4
			c0.1,2.3,0.8,4.1,2,5.2c1.2,1.2,2.6,1.8,4.3,1.8c1.3,0,2.4-0.3,3.3-1C1758.3,325.5,1758.8,324.2,1759.4,322.7z M1747.8,317h11.6
			c-0.2-1.8-0.6-3.1-1.3-4c-1.1-1.4-2.6-2.1-4.3-2.1c-1.6,0-3,0.5-4.1,1.6C1748.5,313.7,1747.9,315.2,1747.8,317z"/>
		<path class="st4" d="M1773.1,329.3l-7.9-20.7h3.8l4.4,12.4c0.5,1.4,0.9,2.8,1.3,4.1c0.3-1.1,0.8-2.4,1.3-4l4.6-12.6h3.7l-7.8,20.7
			L1773.1,329.3L1773.1,329.3z"/>
		<path class="st4" d="M1787.4,304.8v-4.1h3.6v4.1H1787.4z M1787.4,329.3v-20.7h3.6v20.7H1787.4z"/>
		<path class="st4" d="M1794.9,323.2l3.5-0.6c0.2,1.4,0.7,2.5,1.6,3.2c0.9,0.8,2.2,1.1,3.8,1.1c1.6,0,2.8-0.3,3.6-1
			c0.8-0.7,1.2-1.4,1.2-2.3c0-0.8-0.3-1.4-1-1.9c-0.5-0.3-1.7-0.7-3.6-1.2c-2.6-0.7-4.3-1.2-5.3-1.7s-1.8-1.1-2.3-2
			s-0.8-1.8-0.8-2.8c0-0.9,0.2-1.8,0.6-2.6c0.4-0.8,1-1.5,1.7-2c0.6-0.4,1.3-0.8,2.3-1c1-0.3,2-0.4,3.1-0.4c1.6,0,3.1,0.2,4.2,0.7
			s2.2,1.1,2.8,1.9s1,1.9,1.2,3.2l-3.5,0.5c-0.2-1.1-0.6-1.9-1.4-2.5s-1.8-0.9-3.2-0.9c-1.6,0-2.8,0.3-3.5,0.8s-1,1.2-1,1.9
			c0,0.5,0.1,0.9,0.4,1.2c0.3,0.4,0.7,0.7,1.4,0.9c0.4,0.1,1.4,0.4,3.1,0.9c2.5,0.7,4.2,1.2,5.2,1.6s1.8,1.1,2.3,1.9
			c0.6,0.8,0.8,1.8,0.8,3s-0.3,2.3-1,3.3s-1.7,1.9-3,2.4c-1.3,0.6-2.8,0.9-4.3,0.9c-2.7,0-4.7-0.6-6.1-1.7
			C1796.2,327.1,1795.3,325.4,1794.9,323.2z"/>
		<path class="st4" d="M1830.4,322.7l3.7,0.5c-0.6,2.1-1.7,3.8-3.2,4.9s-3.6,1.8-5.9,1.8c-3.1,0-5.4-0.9-7.2-2.8
			c-1.8-1.9-2.7-4.4-2.7-7.8c0-3.5,0.9-6.2,2.7-8.1c1.8-1.9,4.1-2.9,7-2.9c2.8,0,5,1,6.8,2.9s2.7,4.5,2.7,8c0,0.2,0,0.5,0,0.9h-15.4
			c0.1,2.3,0.8,4.1,2,5.2c1.2,1.2,2.6,1.8,4.3,1.8c1.3,0,2.4-0.3,3.3-1C1829.4,325.5,1829.8,324.2,1830.4,322.7z M1818.9,317h11.6
			c-0.2-1.8-0.6-3.1-1.3-4c-1.1-1.4-2.6-2.1-4.3-2.1c-1.6,0-3,0.5-4.1,1.6C1819.6,313.7,1819,315.2,1818.9,317z"/>
		<path class="st4" d="M1856.2,337.8c-2-2.5-3.6-5.3-4.9-8.6c-1.4-3.3-2-6.7-2-10.2c0-3.1,0.5-6,1.5-8.9c1.2-3.3,3-6.5,5.4-9.9h2.5
			c-1.6,2.7-2.6,4.6-3.2,5.8c-0.8,1.8-1.4,3.7-1.9,5.6c-0.6,2.5-0.8,4.8-0.8,7.3c0,6.2,2,12.5,5.8,18.8h-2.4V337.8z"/>
		<path class="st4" d="M1883.7,319.4l3.8,1c-0.8,3.1-2.2,5.4-4.2,7.1s-4.5,2.5-7.6,2.5s-5.6-0.6-7.5-1.9c-2-1.3-3.4-3.1-4.4-5.4
			c-1-2.4-1.5-4.9-1.5-7.7c0-3,0.6-5.5,1.7-7.8c1.2-2.2,2.8-3.9,4.8-5c2.1-1.2,4.4-1.7,6.9-1.7c2.9,0,5.2,0.7,7.2,2.2
			s3.4,3.5,4.1,6.1l-3.8,0.9c-0.7-2.1-1.6-3.6-2.9-4.5c-1.3-1-2.9-1.4-4.7-1.4c-2.2,0-4.1,0.5-5.5,1.6c-1.5,1.1-2.5,2.5-3.2,4.2
			c-0.6,1.8-0.9,3.7-0.9,5.5c0,2.5,0.4,4.5,1.1,6.3s1.8,3.2,3.3,4.1s3.2,1.4,4.8,1.4c2.1,0,4-0.6,5.4-1.9
			C1882.2,323.6,1883.2,321.7,1883.7,319.4z"/>
		<path class="st4" d="M1890.4,319.1c0-3.9,1.1-6.7,3.2-8.5c1.8-1.6,4-2.3,6.5-2.3c2.9,0,5.1,0.9,7,2.8c1.8,1.9,2.7,4.4,2.7,7.7
			c0,2.7-0.4,4.7-1.2,6.3c-0.8,1.5-2,2.7-3.5,3.6s-3.2,1.3-5,1.3c-2.9,0-5.2-0.9-7-2.8C1891.3,325.2,1890.4,322.5,1890.4,319.1z
			 M1894.1,319.1c0,2.7,0.6,4.6,1.8,5.9c1.2,1.3,2.6,2,4.3,2s3.2-0.7,4.3-2s1.8-3.4,1.8-6s-0.6-4.5-1.8-5.8c-1.2-1.3-2.6-2-4.3-2
			s-3.3,0.7-4.3,2C1894.6,314.4,1894.1,316.4,1894.1,319.1z"/>
		<path class="st4" d="M1913.8,329.3v-28.7h3.6v28.7H1913.8z"/>
		<path class="st4" d="M1922.7,329.3v-28.7h3.6v28.7H1922.7z"/>
		<path class="st4" d="M1945.9,322.7l3.7,0.5c-0.6,2.1-1.7,3.8-3.2,4.9c-1.5,1.2-3.6,1.8-5.9,1.8c-3.1,0-5.4-0.9-7.2-2.8
			s-2.7-4.4-2.7-7.8c0-3.5,0.9-6.2,2.7-8.1c1.8-1.9,4.1-2.9,7-2.9c2.8,0,5,1,6.8,2.9s2.7,4.5,2.7,8c0,0.2,0,0.5,0,0.9h-15.4
			c0.1,2.3,0.8,4.1,2,5.2c1.2,1.2,2.6,1.8,4.3,1.8c1.3,0,2.4-0.3,3.3-1C1944.8,325.5,1945.3,324.2,1945.9,322.7z M1934.4,317h11.6
			c-0.2-1.8-0.6-3.1-1.3-4c-1.1-1.4-2.6-2.1-4.3-2.1c-1.6,0-3,0.5-4.1,1.6C1935.1,313.7,1934.5,315.2,1934.4,317z"/>
		<path class="st4" d="M1967.5,321.8l3.5,0.5c-0.4,2.4-1.4,4.2-2.9,5.6c-1.6,1.4-3.5,2-5.7,2c-2.9,0-5.1-0.9-6.8-2.8
			c-1.7-1.9-2.6-4.5-2.6-8c0-2.3,0.4-4.1,1.1-5.8c0.8-1.7,1.9-3,3.4-3.8c1.5-0.9,3.2-1.3,4.9-1.3c2.3,0,4.1,0.6,5.5,1.7
			c1.4,1.2,2.4,2.8,2.8,4.8l-3.5,0.5c-0.3-1.4-0.9-2.5-1.7-3.2c-0.8-0.7-1.8-1.1-3-1.1c-1.8,0-3.2,0.6-4.3,1.9
			c-1.1,1.3-1.7,3.3-1.7,6c0,2.8,0.5,4.8,1.6,6s2.5,1.9,4.1,1.9c1.4,0,2.6-0.4,3.5-1.3C1966.6,324.9,1967.2,323.5,1967.5,321.8z"/>
		<path class="st4" d="M1981.6,326.3l0.5,3.1c-1,0.2-1.9,0.3-2.7,0.3c-1.3,0-2.3-0.2-3-0.6s-1.2-0.9-1.5-1.6s-0.4-2.1-0.4-4.1v-12
			h-2.6v-2.8h2.6v-5.1l3.5-2.1v7.2h3.6v2.8h-3.6v12.2c0,1,0.1,1.7,0.2,2s0.3,0.5,0.6,0.7c0.3,0.2,0.7,0.3,1.2,0.3
			C1980.4,326.4,1980.9,326.4,1981.6,326.3z"/>
		<path class="st4" d="M1999.2,322.7l3.7,0.5c-0.6,2.1-1.7,3.8-3.2,4.9c-1.5,1.2-3.6,1.8-5.9,1.8c-3.1,0-5.4-0.9-7.2-2.8
			s-2.7-4.4-2.7-7.8c0-3.5,0.9-6.2,2.7-8.1c1.8-1.9,4.1-2.9,7-2.9c2.8,0,5,1,6.8,2.9s2.7,4.5,2.7,8c0,0.2,0,0.5,0,0.9h-15.4
			c0.1,2.3,0.8,4.1,2,5.2c1.2,1.2,2.6,1.8,4.3,1.8c1.3,0,2.4-0.3,3.3-1C1998.1,325.5,1998.7,324.2,1999.2,322.7z M1987.6,317h11.6
			c-0.2-1.8-0.6-3.1-1.3-4c-1.1-1.4-2.6-2.1-4.3-2.1c-1.6,0-3,0.5-4.1,1.6C1988.4,313.7,1987.8,315.2,1987.6,317z"/>
		<path class="st4" d="M2020.8,329.3v-3.1c-1.6,2.4-3.9,3.6-6.6,3.6c-1.2,0-2.4-0.2-3.5-0.7s-1.9-1.1-2.4-1.8s-0.9-1.6-1.1-2.6
			c-0.1-0.7-0.2-1.8-0.2-3.3v-12.8h3.6v11.5c0,1.9,0.1,3.1,0.2,3.8c0.2,0.9,0.7,1.7,1.4,2.2c0.7,0.5,1.6,0.8,2.7,0.8s2.1-0.3,3-0.8
			s1.6-1.3,2-2.2c0.4-0.9,0.6-2.3,0.6-4.1v-11.1h3.6v20.7h-3.2L2020.8,329.3L2020.8,329.3z"/>
		<path class="st4" d="M2029.4,329.3v-20.7h3.2v3.2c0.8-1.5,1.6-2.5,2.3-2.9c0.7-0.5,1.5-0.7,2.3-0.7c1.2,0,2.4,0.4,3.7,1.1
			l-1.2,3.3c-0.9-0.5-1.7-0.8-2.6-0.8c-0.8,0-1.5,0.2-2.1,0.7s-1.1,1.1-1.3,1.9c-0.4,1.3-0.6,2.6-0.6,4.1v10.9L2029.4,329.3
			L2029.4,329.3z"/>
		<path class="st4" d="M2045,337.8h-2.5c3.9-6.2,5.8-12.4,5.8-18.8c0-2.5-0.3-4.8-0.8-7.3c-0.4-2-1.1-3.9-1.9-5.6
			c-0.5-1.2-1.6-3.2-3.2-5.8h2.5c2.5,3.3,4.2,6.5,5.4,9.9c1,2.9,1.5,5.8,1.5,8.9c0,3.6-0.7,6.9-2,10.2
			C2048.6,332.5,2047,335.4,2045,337.8z"/>
		<path class="st4" d="M2068.1,312.6v-4h4v4H2068.1z M2068.1,329.3v-4h4v4H2068.1z"/>
		<path class="st4" d="M2089.9,329.3v-28.7h20.6v3.4h-16.9v8.8h15.8v3.4h-15.8v9.8h17.6v3.4L2089.9,329.3L2089.9,329.3z"/>
		<path class="st4" d="M2135.2,300.8h3.8v16.5c0,2.9-0.3,5.1-1,6.8c-0.7,1.7-1.8,3.1-3.6,4.1c-1.7,1.1-4,1.6-6.7,1.6
			s-4.8-0.5-6.6-1.4c-1.7-0.9-3-2.3-3.7-4.1c-0.7-1.8-1.1-4.1-1.1-7.2v-16.5h3.8v16.5c0,2.5,0.2,4.3,0.7,5.5s1.3,2.1,2.4,2.8
			c1.1,0.6,2.5,1,4.1,1c2.8,0,4.7-0.6,5.9-1.9s1.8-3.7,1.8-7.3v-16.5h0.2V300.8z"/>
		<path class="st4" d="M2145.4,329.3v-28.7h12.6c2.6,0,4.4,0.3,5.8,0.8c1.3,0.5,2.4,1.4,3.2,2.8s1.2,2.8,1.2,4.3
			c0,2.1-0.7,3.8-2,5.1c-1.3,1.4-3.4,2.3-6.1,2.7c1,0.5,1.8,1,2.3,1.4c1.1,1,2.2,2.3,3.2,3.9l4.9,7.8h-4.7l-3.8-5.9
			c-1.1-1.7-2-3.1-2.8-4s-1.4-1.6-1.9-1.9c-0.6-0.4-1.2-0.6-1.7-0.8c-0.4-0.1-1.1-0.1-2.1-0.1h-4.3v12.7h-3.9v-0.1H2145.4z
			 M2149.1,313.4h8.1c1.8,0,3.1-0.2,4.1-0.5c1-0.4,1.7-0.9,2.3-1.7c0.5-0.8,0.8-1.7,0.8-2.6c0-1.4-0.5-2.5-1.5-3.4s-2.6-1.3-4.6-1.3
			h-9.1L2149.1,313.4L2149.1,313.4z"/>
	</g>
	<g class="st3">
		<path class="st4" d="M1708.7,377.4v-25.2h-9.4v-3.5h22.6v3.4h-9.5v25.3L1708.7,377.4L1708.7,377.4z"/>
		<path class="st4" d="M1734.4,374.8c-1.3,1.1-2.6,1.9-3.8,2.4c-1.2,0.5-2.5,0.7-3.9,0.7c-2.3,0-4.1-0.6-5.2-1.7s-1.9-2.6-1.9-4.2
			c0-1,0.2-2,0.7-2.8s1.1-1.5,1.8-2c0.8-0.5,1.6-0.9,2.6-1.2c0.7-0.2,1.8-0.4,3.2-0.5c2.9-0.3,4.9-0.8,6.2-1.2c0-0.5,0-0.8,0-0.9
			c0-1.4-0.3-2.5-1-3.1c-0.9-0.8-2.3-1.2-4-1.2s-2.9,0.3-3.7,0.9c-0.8,0.6-1.4,1.6-1.8,3.1l-3.5-0.5c0.3-1.5,0.8-2.7,1.6-3.6
			c0.8-0.9,1.8-1.6,3.1-2.1c1.4-0.5,3-0.7,4.7-0.7s3.2,0.2,4.3,0.6c1.1,0.4,1.9,1,2.5,1.6s0.9,1.4,1.1,2.4c0.1,0.6,0.2,1.7,0.2,3.3
			v4.6c0,3.3,0.1,5.3,0.2,6.2c0.2,0.9,0.5,1.7,0.9,2.5h-3.7C1734.8,376.6,1734.5,375.8,1734.4,374.8z M1734.1,366.9
			c-1.3,0.5-3.2,1-5.7,1.3c-1.5,0.2-2.5,0.4-3.1,0.7c-0.6,0.3-1.1,0.6-1.4,1.2c-0.3,0.5-0.5,1.1-0.5,1.7c0,0.9,0.4,1.7,1.1,2.4
			c0.7,0.6,1.8,0.9,3.1,0.9c1.4,0,2.6-0.3,3.7-0.9s1.8-1.4,2.4-2.5c0.4-0.8,0.6-2,0.6-3.6L1734.1,366.9L1734.1,366.9z"/>
		<path class="st4" d="M1756.7,377.4v-3.1c-1.6,2.4-3.9,3.6-6.6,3.6c-1.2,0-2.4-0.2-3.5-0.7s-1.9-1.1-2.4-1.8
			c-0.5-0.7-0.9-1.6-1.1-2.6c-0.1-0.7-0.2-1.8-0.2-3.3v-12.8h3.6v11.5c0,1.9,0.1,3.1,0.2,3.8c0.2,0.9,0.7,1.7,1.4,2.2
			c0.7,0.5,1.6,0.8,2.7,0.8s2.1-0.3,3-0.8s1.6-1.3,2-2.2c0.4-0.9,0.6-2.3,0.6-4.1v-11.3h3.6v20.7L1756.7,377.4L1756.7,377.4z"/>
		<path class="st4" d="M1763.1,377.4l7.6-10.8l-7-10h4.3l3.2,4.8c0.6,0.9,1.1,1.7,1.5,2.4c0.6-0.9,1.1-1.6,1.6-2.3l3.5-4.9h4.1
			l-7.1,9.8l7.7,11h-4.3l-4.2-6.4l-1.1-1.8l-5.4,8.2L1763.1,377.4L1763.1,377.4z"/>
		<path class="st4" d="M1809.9,377.4v-2.6c-1.3,2.1-3.3,3.1-5.8,3.1c-1.7,0-3.2-0.5-4.5-1.4c-1.4-0.9-2.5-2.2-3.3-3.9
			c-0.8-1.7-1.2-3.6-1.2-5.6s0.3-4,1-5.6s1.7-3,3.1-3.9s3-1.4,4.6-1.4c1.3,0,2.4,0.3,3.4,0.8s1.8,1.2,2.4,2.1v-10.3h3.5v28.7
			L1809.9,377.4L1809.9,377.4z M1798.8,367c0,2.7,0.6,4.6,1.7,5.9s2.5,2,4,2c1.6,0,2.9-0.6,4-1.9s1.6-3.2,1.6-5.7
			c0-2.9-0.6-4.9-1.7-6.2c-1.1-1.3-2.5-2-4.1-2s-2.9,0.6-4,1.9C1799.3,362.2,1798.8,364.2,1798.8,367z"/>
		<path class="st4" d="M1832.9,370.6l3.7,0.5c-0.6,2.1-1.7,3.8-3.2,4.9c-1.6,1.2-3.6,1.8-5.9,1.8c-3.1,0-5.4-0.9-7.2-2.8
			c-1.8-1.9-2.7-4.4-2.7-7.8c0-3.5,0.9-6.2,2.7-8.1c1.8-1.9,4.1-2.9,7-2.9c2.8,0,5,1,6.8,2.9s2.7,4.5,2.7,8c0,0.2,0,0.5,0,0.9h-15.4
			c0.1,2.3,0.8,4.1,2,5.2c1.2,1.2,2.6,1.8,4.3,1.8c1.3,0,2.4-0.3,3.3-1C1831.6,373.2,1832.3,372.1,1832.9,370.6z M1821.4,365h11.6
			c-0.2-1.8-0.6-3.1-1.3-4c-1.1-1.4-2.6-2.1-4.3-2.1c-1.6,0-3,0.5-4.1,1.6C1822,361.7,1821.4,363.1,1821.4,365z"/>
		<path class="st4" d="M1876.7,369.7l3.5,0.5c-0.4,2.4-1.4,4.2-2.9,5.6c-1.6,1.4-3.5,2-5.7,2c-2.9,0-5.1-0.9-6.8-2.8
			c-1.7-1.9-2.6-4.5-2.6-8c0-2.3,0.4-4.1,1.1-5.8c0.8-1.7,1.9-3,3.4-3.8c1.5-0.9,3.2-1.3,4.9-1.3c2.3,0,4.1,0.6,5.5,1.7
			c1.4,1.2,2.4,2.8,2.8,4.8l-3.5,0.5c-0.3-1.4-0.9-2.5-1.7-3.2c-0.8-0.7-1.8-1.1-3-1.1c-1.8,0-3.2,0.6-4.3,1.9
			c-1.1,1.3-1.7,3.3-1.7,6c0,2.8,0.5,4.8,1.6,6s2.5,1.9,4.1,1.9c1.4,0,2.6-0.4,3.5-1.3C1875.8,372.8,1876.4,371.5,1876.7,369.7z"/>
		<path class="st4" d="M1883.1,377.4v-28.7h3.6V359c1.7-1.9,3.8-2.9,6.2-2.9c1.6,0,2.9,0.3,4,0.9s2,1.5,2.5,2.5
			c0.5,1.1,0.7,2.6,0.7,4.6v13.2h-3.6v-13.1c0-1.8-0.4-3.1-1.2-3.9c-0.8-0.8-1.9-1.2-3.3-1.2c-1.1,0-2,0.3-3,0.8
			c-0.9,0.5-1.6,1.3-2,2.2c-0.4,0.9-0.6,2.2-0.6,3.9v11.4H1883.1z"/>
		<path class="st4" d="M1918.9,374.8c-1.3,1.1-2.6,1.9-3.8,2.4s-2.5,0.7-3.9,0.7c-2.3,0-4.1-0.6-5.2-1.7s-1.9-2.6-1.9-4.2
			c0-1,0.2-2,0.7-2.8s1.1-1.5,1.8-2c0.8-0.5,1.6-0.9,2.6-1.2c0.7-0.2,1.8-0.4,3.2-0.5c2.9-0.3,4.9-0.8,6.2-1.2c0-0.5,0-0.8,0-0.9
			c0-1.4-0.3-2.5-1-3.1c-0.9-0.8-2.3-1.2-4-1.2s-2.9,0.3-3.7,0.9c-0.8,0.6-1.4,1.6-1.8,3.1l-3.5-0.5c0.3-1.5,0.8-2.7,1.6-3.6
			c0.7-0.9,1.8-1.6,3.1-2.1c1.4-0.5,3-0.7,4.7-0.7c1.8,0,3.2,0.2,4.3,0.6c1.1,0.4,1.9,1,2.5,1.6s0.9,1.4,1.1,2.4
			c0.1,0.6,0.2,1.7,0.2,3.3v4.6c0,3.3,0.1,5.3,0.2,6.2c0.2,0.9,0.5,1.7,0.9,2.5h-3.7C1919.2,376.6,1919,375.8,1918.9,374.8z
			 M1918.6,366.9c-1.3,0.5-3.2,1-5.7,1.3c-1.5,0.2-2.5,0.4-3.1,0.7c-0.6,0.3-1.1,0.6-1.4,1.2c-0.3,0.5-0.5,1.1-0.5,1.7
			c0,0.9,0.4,1.7,1.1,2.4c0.7,0.6,1.8,0.9,3.1,0.9c1.4,0,2.6-0.3,3.7-0.9s1.8-1.4,2.4-2.5c0.4-0.8,0.6-2,0.6-3.6L1918.6,366.9
			L1918.6,366.9z"/>
		<path class="st4" d="M1927.6,377.4v-20.7h3.2v3c1.5-2.3,3.8-3.5,6.6-3.5c1.3,0,2.4,0.2,3.5,0.7s1.9,1,2.4,1.8
			c0.5,0.7,0.9,1.6,1.1,2.6c0.1,0.7,0.2,1.8,0.2,3.5v12.7h-3.6v-12.6c0-1.4-0.1-2.5-0.4-3.2s-0.8-1.3-1.5-1.7
			c-0.7-0.4-1.5-0.6-2.5-0.6c-1.5,0-2.8,0.5-3.9,1.4c-1.1,1-1.6,2.8-1.6,5.4v11.3L1927.6,377.4L1927.6,377.4z"/>
		<path class="st4" d="M1949.1,379l3.5,0.5c0.1,1.1,0.5,1.8,1.2,2.3c0.9,0.7,2.1,1,3.6,1c1.6,0,2.9-0.3,3.8-1s1.5-1.6,1.8-2.8
			c0.2-0.7,0.3-2.2,0.3-4.5c-1.6,1.8-3.5,2.7-5.7,2.7c-2.9,0-5-1-6.6-3.1s-2.4-4.5-2.4-7.4c0-2,0.4-3.8,1.1-5.4s1.8-3,3.2-3.9
			c1.4-0.9,3-1.4,4.7-1.4c2.5,0,4.4,1,6,3v-2.4h3.3v17.9c0,3.3-0.3,5.5-1,6.8c-0.7,1.4-1.7,2.4-3.2,3.2c-1.4,0.8-3.2,1.2-5.2,1.2
			c-2.5,0-4.4-0.6-6-1.7C1949.8,383,1949.1,381.3,1949.1,379z M1952.1,366.6c0,2.8,0.5,4.7,1.6,5.9c1.1,1.3,2.5,1.9,4.1,1.9
			s3-0.6,4.1-1.9s1.7-3.2,1.7-5.8c0-2.6-0.6-4.4-1.7-5.7s-2.5-2-4.1-2s-2.9,0.6-4,1.9C1952.5,362.2,1952.1,364.1,1952.1,366.6z"/>
		<path class="st4" d="M1986.1,370.6l3.7,0.5c-0.6,2.1-1.7,3.8-3.2,4.9c-1.6,1.2-3.6,1.8-5.9,1.8c-3.1,0-5.4-0.9-7.2-2.8
			s-2.7-4.4-2.7-7.8c0-3.5,0.9-6.2,2.7-8.1c1.8-1.9,4.1-2.9,7-2.9c2.8,0,5,1,6.8,2.9s2.7,4.5,2.7,8c0,0.2,0,0.5,0,0.9h-15.4
			c0.1,2.3,0.8,4.1,2,5.2c1.2,1.2,2.6,1.8,4.3,1.8c1.3,0,2.4-0.3,3.3-1C1985,373.2,1985.6,372.1,1986.1,370.6z M1974.6,365h11.6
			c-0.2-1.8-0.6-3.1-1.3-4c-1.1-1.4-2.6-2.1-4.3-2.1c-1.6,0-3,0.5-4.1,1.6C1975.4,361.7,1974.8,363.1,1974.6,365z"/>
		<path class="st4" d="M2006.3,360.6v-4h4v4H2006.3z M2006.3,377.4v-4h4v4H2006.3z"/>
		<path class="st4" d="M2039.8,377.4h-3.6V355c-0.9,0.8-2,1.6-3.4,2.4s-2.6,1.4-3.7,1.8v-3.4c2-0.9,3.7-2.1,5.1-3.4
			c1.5-1.3,2.5-2.6,3.2-3.9h2.3L2039.8,377.4L2039.8,377.4z"/>
		<path class="st4" d="M2050.7,377.4v-4h4v4H2050.7z"/>
		<path class="st4" d="M2059.8,363.2c0-3.4,0.4-6.1,1.1-8.2c0.7-2.1,1.8-3.7,3.1-4.7c1.4-1.1,3.1-1.7,5.1-1.7c1.6,0,2.9,0.3,4.1,0.9
			s2.1,1.5,2.9,2.7c0.8,1.2,1.4,2.6,1.8,4.2c0.4,1.7,0.7,4,0.7,6.7c0,3.4-0.3,6-1,8.1s-1.7,3.7-3.1,4.7c-1.4,1.1-3.1,1.7-5.2,1.7
			c-2.8,0-4.9-1-6.5-3C2060.8,372.5,2059.8,368.6,2059.8,363.2z M2063.5,363.2c0,4.7,0.6,7.8,1.7,9.4c1.1,1.6,2.5,2.4,4.1,2.4
			s3-0.8,4.1-2.4s1.7-4.6,1.7-9.4s-0.6-7.8-1.7-9.4c-1.1-1.6-2.5-2.4-4.1-2.4s-2.9,0.7-3.9,2.1
			C2064.1,355.3,2063.5,358.5,2063.5,363.2z"/>
		<path class="st4" d="M2082.6,370.7l3.4-0.3c0.3,1.6,0.8,2.8,1.7,3.5s1.9,1.1,3.1,1.1c1.1,0,2.1-0.3,2.9-0.8c0.8-0.5,1.5-1.2,2-2
			s1-2,1.3-3.4s0.5-2.9,0.5-4.2c0-0.2,0-0.4,0-0.7c-0.7,1.1-1.7,2.1-2.9,2.8c-1.2,0.7-2.6,1.1-4,1.1c-2.4,0-4.3-0.9-6-2.6
			s-2.5-4-2.5-6.8c0-2.9,0.9-5.2,2.6-7s3.9-2.7,6.4-2.7c1.9,0,3.6,0.5,5.1,1.5c1.6,1,2.7,2.5,3.6,4.2c0.8,1.9,1.2,4.5,1.2,8
			c0,3.7-0.4,6.5-1.2,8.7s-2,3.9-3.6,4.9c-1.6,1.1-3.4,1.7-5.5,1.7c-2.3,0-4.1-0.6-5.4-1.9C2083.7,374.7,2082.9,373,2082.6,370.7z
			 M2097,358.1c0-2-0.5-3.7-1.6-4.8c-1.1-1.2-2.4-1.8-3.9-1.8c-1.6,0-3,0.6-4.1,1.9c-1.2,1.3-1.8,3-1.8,4.9c0,1.8,0.6,3.3,1.7,4.4
			c1.1,1.2,2.5,1.7,4.1,1.7s3-0.6,4.1-1.7C2096.5,361.6,2097,360.1,2097,358.1z"/>
		<path class="st4" d="M2104.3,369.7l3.6-0.5c0.4,2,1.1,3.5,2.1,4.3s2.2,1.3,3.6,1.3c1.7,0,3.1-0.6,4.1-1.7c1.2-1.2,1.7-2.6,1.7-4.2
			s-0.5-3-1.6-4c-1.1-1.1-2.4-1.6-4.1-1.6c-0.7,0-1.5,0.1-2.5,0.4l0.4-3.1c0.2,0,0.4,0,0.6,0c1.5,0,2.9-0.4,4.1-1.2
			c1.2-0.8,1.8-2,1.8-3.7c0-1.3-0.4-2.4-1.3-3.2c-0.9-0.9-2-1.3-3.4-1.3s-2.5,0.4-3.5,1.3s-1.5,2.2-1.8,3.9l-3.6-0.6
			c0.4-2.4,1.4-4.1,3-5.4c1.5-1.3,3.5-2,5.6-2c1.6,0,3,0.3,4.3,1s2.3,1.6,3.1,2.8c0.7,1.2,1.1,2.4,1.1,3.7c0,1.3-0.3,2.4-1,3.4
			s-1.7,1.8-3,2.4c1.7,0.4,3,1.2,4,2.5c0.9,1.2,1.4,2.8,1.4,4.6c0,2.5-0.9,4.6-2.8,6.3c-1.8,1.8-4.1,2.6-6.9,2.6
			c-2.5,0-4.6-0.8-6.2-2.3C2105.5,374.1,2104.6,372.1,2104.3,369.7z"/>
	</g>
	<g class="st3">
		<path class="st4" d="M861,473.2V448h-9.4v-3.4h22.6v3.4h-9.5v25.2H861z"/>
		<path class="st4" d="M885.4,473.2V448H876v-3.4h22.6v3.4h-9.5v25.2H885.4z"/>
		<path class="st4" d="M922.9,463.2l3.8,1c-0.8,3.1-2.2,5.4-4.2,7.1s-4.5,2.5-7.6,2.5s-5.6-0.6-7.5-1.9s-3.4-3.1-4.4-5.4
			c-1-2.4-1.5-4.9-1.5-7.7c0-3,0.6-5.5,1.7-7.8c1.2-2.2,2.8-3.9,4.8-5c2.1-1.2,4.4-1.7,6.9-1.7c2.9,0,5.2,0.7,7.2,2.2
			s3.4,3.5,4.1,6.1l-3.8,0.9c-0.7-2.1-1.6-3.6-2.9-4.5c-1.3-1-2.9-1.4-4.7-1.4c-2.2,0-4.1,0.5-5.5,1.6c-1.5,1.1-2.5,2.5-3.1,4.2
			c-0.6,1.8-0.9,3.7-0.9,5.5c0,2.5,0.4,4.5,1.1,6.3c0.7,1.8,1.8,3.2,3.3,4.1s3.2,1.4,4.8,1.4c2.1,0,4-0.6,5.4-1.9
			C921.3,467.5,922.4,465.6,922.9,463.2z"/>
		<path class="st4" d="M959.8,481.7c-2-2.5-3.6-5.3-4.9-8.6c-1.4-3.3-2-6.7-2-10.2c0-3.1,0.5-6,1.5-8.9c1.2-3.3,3-6.5,5.4-9.9h2.5
			c-1.6,2.7-2.6,4.6-3.2,5.8c-0.8,1.8-1.4,3.7-1.9,5.6c-0.6,2.5-0.8,4.8-0.8,7.3c0,6.2,2,12.5,5.8,18.8h-2.4V481.7z"/>
		<path class="st4" d="M966.9,473.2v-28.7h10.8c1.9,0,3.4,0.1,4.3,0.3c1.4,0.2,2.6,0.7,3.6,1.4c1,0.7,1.7,1.6,2.3,2.8
			c0.6,1.2,0.9,2.5,0.9,3.9c0,2.5-0.8,4.4-2.4,6.2c-1.6,1.7-4.3,2.6-8.4,2.6h-7.3v11.6L966.9,473.2L966.9,473.2z M970.6,458.3h7.4
			c2.5,0,4.1-0.5,5.2-1.4c1-0.9,1.6-2.2,1.6-3.9c0-1.2-0.3-2.2-0.9-3.1c-0.6-0.9-1.4-1.4-2.4-1.7c-0.6-0.2-1.8-0.3-3.6-0.3h-7.3
			V458.3L970.6,458.3z"/>
		<path class="st4" d="M993.1,448.7v-4.1h3.6v4.1H993.1z M993.1,473.2v-20.7h3.6v20.7H993.1z"/>
		<path class="st4" d="M1016.1,466.6l3.7,0.5c-0.6,2.1-1.7,3.8-3.2,4.9c-1.6,1.2-3.6,1.8-5.9,1.8c-3.1,0-5.4-0.9-7.2-2.8
			s-2.7-4.4-2.7-7.8c0-3.5,0.9-6.2,2.7-8.1s4.1-2.9,7-2.9c2.8,0,5,1,6.8,2.9s2.7,4.5,2.7,8c0,0.2,0,0.5,0,0.9h-15.4
			c0.1,2.3,0.8,4.1,2,5.2s2.6,1.8,4.3,1.8c1.3,0,2.4-0.3,3.3-1C1014.9,469.1,1015.6,468,1016.1,466.6z M1004.6,460.8h11.6
			c-0.2-1.8-0.6-3.1-1.3-4c-1.1-1.4-2.6-2.1-4.3-2.1c-1.6,0-3,0.5-4.1,1.6C1005.3,457.7,1004.7,459.1,1004.6,460.8z M1012.7,450
			h-2.9l-4.5-5.4h4.7L1012.7,450z"/>
		<path class="st4" d="M1037.7,465.7l3.5,0.5c-0.4,2.4-1.4,4.2-2.9,5.6c-1.6,1.4-3.5,2-5.7,2c-2.9,0-5.1-0.9-6.8-2.8
			c-1.7-1.9-2.6-4.5-2.6-8c0-2.3,0.4-4.1,1.1-5.8c0.8-1.7,1.9-3,3.4-3.8c1.5-0.9,3.2-1.3,4.9-1.3c2.3,0,4.1,0.6,5.5,1.7
			c1.4,1.2,2.4,2.8,2.8,4.8l-3.5,0.5c-0.3-1.4-0.9-2.5-1.7-3.2c-0.8-0.7-1.8-1.1-3-1.1c-1.8,0-3.2,0.6-4.3,1.9
			c-1.1,1.3-1.7,3.3-1.7,6c0,2.8,0.5,4.8,1.6,6c1.1,1.3,2.5,1.9,4.1,1.9c1.4,0,2.6-0.4,3.5-1.3
			C1036.8,468.7,1037.4,467.4,1037.7,465.7z"/>
		<path class="st4" d="M1058.4,466.6l3.7,0.5c-0.6,2.1-1.7,3.8-3.2,4.9c-1.6,1.2-3.6,1.8-5.9,1.8c-3.1,0-5.4-0.9-7.2-2.8
			c-1.8-1.9-2.7-4.4-2.7-7.8c0-3.5,0.9-6.2,2.7-8.1c1.8-1.9,4.1-2.9,7-2.9c2.8,0,5,1,6.8,2.9s2.7,4.5,2.7,8c0,0.2,0,0.5,0,0.9h-15.4
			c0.1,2.3,0.8,4.1,2,5.2s2.6,1.8,4.3,1.8c1.3,0,2.4-0.3,3.3-1C1057.1,469.1,1057.8,468,1058.4,466.6z M1046.8,460.8h11.6
			c-0.2-1.8-0.6-3.1-1.3-4c-1.1-1.4-2.6-2.1-4.3-2.1c-1.6,0-3,0.5-4.1,1.6S1046.9,459.1,1046.8,460.8z"/>
		<path class="st4" d="M1068.6,481.7h-2.5c3.9-6.2,5.8-12.4,5.8-18.8c0-2.5-0.3-4.8-0.8-7.3c-0.4-2-1.1-3.9-1.9-5.6
			c-0.5-1.2-1.6-3.2-3.2-5.8h2.5c2.5,3.3,4.2,6.5,5.4,9.9c1,2.9,1.5,5.8,1.5,8.9c0,3.6-0.7,6.9-2,10.2
			C1072.2,476.3,1070.6,479.2,1068.6,481.7z"/>
	</g>
	<g class="st3">
		<path class="st4" d="M961.4,569.1h-3.6v-22.4c-0.9,0.8-2,1.6-3.4,2.4c-1.4,0.8-2.6,1.4-3.7,1.8v-3.4c2-0.9,3.7-2.1,5.1-3.4
			c1.5-1.3,2.5-2.6,3.2-3.9h2.3v28.9H961.4z"/>
		<path class="st4" d="M970.3,555c0-3.4,0.4-6.1,1.1-8.2c0.7-2.1,1.8-3.7,3.1-4.7c1.4-1.1,3.1-1.7,5.1-1.7c1.6,0,2.9,0.3,4.1,0.9
			c1.2,0.6,2.1,1.5,2.9,2.7c0.8,1.2,1.4,2.6,1.8,4.2c0.4,1.7,0.7,4,0.7,6.7c0,3.4-0.3,6-1,8.1s-1.7,3.7-3.1,4.7
			c-1.4,1.1-3.1,1.7-5.2,1.7c-2.8,0-4.9-1-6.5-3C971.3,564.3,970.3,560.4,970.3,555z M974,555c0,4.7,0.6,7.8,1.7,9.4
			c1.1,1.6,2.5,2.4,4.1,2.4s3-0.8,4.1-2.4c1.1-1.6,1.7-4.6,1.7-9.4c0-4.7-0.6-7.8-1.7-9.4c-1.1-1.6-2.5-2.4-4.1-2.4
			s-2.9,0.7-3.9,2.1C974.6,547.1,974,550.3,974,555z"/>
		<path class="st4" d="M1011,565.8v3.4h-18.9c0-0.9,0.1-1.7,0.4-2.5c0.5-1.3,1.3-2.6,2.3-3.9c1.1-1.3,2.6-2.7,4.6-4.3
			c3.1-2.6,5.2-4.5,6.3-6s1.7-2.9,1.7-4.2s-0.5-2.6-1.5-3.6s-2.3-1.5-3.9-1.5c-1.7,0-3.1,0.5-4.1,1.5s-1.5,2.4-1.6,4.2l-3.7-0.4
			c0.3-2.7,1.2-4.7,2.8-6.1c1.6-1.4,3.8-2.1,6.5-2.1c2.8,0,4.9,0.8,6.5,2.3s2.4,3.4,2.4,5.6c0,1.2-0.2,2.3-0.7,3.4s-1.3,2.3-2.4,3.5
			c-1.1,1.2-2.9,2.9-5.4,5c-2.1,1.8-3.5,3-4.1,3.6s-1.1,1.3-1.5,1.9h14v0.2H1011z"/>
	</g>
	<g class="st3">
		<path class="st5" d="M1814.3,565l7.1-0.8c0.1,1.4,0.7,2.5,1.3,3.1c0.8,0.7,1.7,1,2.9,1c1.4,0,2.7-0.7,3.8-2.1c1-1.4,1.7-4.2,2-8.6
			c-1.8,2.1-4.1,3.1-6.8,3.1c-3,0-5.5-1.2-7.7-3.4c-2.2-2.4-3.3-5.2-3.3-9s1.2-6.9,3.4-9.3c2.2-2.4,5.2-3.5,8.8-3.5
			c3.8,0,6.9,1.4,9.4,4.5c2.5,3,3.7,7.9,3.7,14.7c0,6.9-1.3,11.9-3.8,15.1c-2.6,3-5.9,4.6-10.1,4.6c-3,0-5.4-0.8-7.2-2.4
			C1816,570.5,1814.8,568.1,1814.3,565z M1830.8,549.1c0-2.4-0.5-4.2-1.6-5.5s-2.4-2-3.8-2c-1.3,0-2.5,0.5-3.4,1.6
			c-0.9,1-1.3,2.7-1.3,5.2s0.5,4.2,1.4,5.4s2.2,1.7,3.7,1.7c1.4,0,2.6-0.5,3.5-1.7C1830.3,552.9,1830.8,551.2,1830.8,549.1z"/>
		<path class="st5" d="M1843.4,563.7l7.1-0.9c0.3,1.8,0.8,3.1,1.8,4.1c1,0.9,2.2,1.4,3.5,1.4c1.4,0,2.7-0.5,3.8-1.7
			c1-1.2,1.6-2.6,1.6-4.6c0-1.8-0.5-3.3-1.4-4.3c-1-1-2.2-1.6-3.5-1.6c-0.9,0-2.1,0.1-3.3,0.5l0.8-5.9c2,0,3.4-0.4,4.5-1.3
			c1-0.9,1.6-2.1,1.6-3.7c0-1.3-0.4-2.4-1.2-3c-0.8-0.8-1.7-1.2-3-1.2c-1.2,0-2.4,0.4-3.1,1.3c-0.9,0.9-1.4,2.1-1.6,3.8l-6.7-1.2
			c0.5-2.4,1.2-4.2,2.1-5.5s2.2-2.5,3.9-3.3s3.5-1.2,5.6-1.2c3.5,0,6.4,1.2,8.6,3.4c1.8,1.8,2.6,3.9,2.6,6.3c0,3.3-1.8,6-5.5,8
			c2.2,0.5,3.9,1.6,5.2,3.1c1.3,1.6,2,3.5,2,5.9c0,3.3-1.2,6.2-3.7,8.5c-2.5,2.4-5.5,3.5-9,3.5c-3.4,0-6.3-1-8.5-3
			C1845.3,569.3,1843.8,566.9,1843.4,563.7z"/>
		<path class="st5" d="M1874.7,573.7v-7.2h7.2v7.2H1874.7z"/>
		<path class="st5" d="M1887.5,563.7l7.1-0.9c0.3,1.8,0.8,3.1,1.8,4.1c1,0.9,2.2,1.4,3.5,1.4c1.4,0,2.7-0.5,3.8-1.7
			c1-1.2,1.6-2.6,1.6-4.6c0-1.8-0.5-3.3-1.4-4.3c-1-1-2.2-1.6-3.5-1.6c-0.9,0-2.1,0.1-3.3,0.5l0.8-5.9c2,0,3.4-0.4,4.5-1.3
			c1-0.9,1.6-2.1,1.6-3.7c0-1.3-0.4-2.4-1.2-3c-0.8-0.8-1.7-1.2-3-1.2c-1.2,0-2.4,0.4-3.1,1.3c-0.9,0.9-1.4,2.1-1.6,3.8l-6.7-1.2
			c0.5-2.4,1.2-4.2,2.1-5.5s2.2-2.5,3.9-3.3c1.7-0.8,3.5-1.2,5.6-1.2c3.5,0,6.4,1.2,8.6,3.4c1.8,1.8,2.6,3.9,2.6,6.3
			c0,3.3-1.8,6-5.5,8c2.2,0.5,3.9,1.6,5.2,3.1c1.3,1.6,2,3.5,2,5.9c0,3.3-1.2,6.2-3.7,8.5c-2.5,2.4-5.5,3.5-9,3.5
			c-3.4,0-6.3-1-8.5-3S1887.9,566.9,1887.5,563.7z"/>
		<path class="st5" d="M1941.7,567.1v6.8h-25.5c0.3-2.5,1-5,2.5-7.2c1.4-2.2,4.1-5.4,8.1-9c3.3-3,5.2-5.1,6-6.2c1-1.4,1.4-3,1.4-4.5
			c0-1.6-0.4-2.9-1.3-3.8s-2.1-1.3-3.7-1.3s-2.7,0.4-3.7,1.3c-0.9,0.9-1.4,2.5-1.6,4.6l-7.2-0.8c0.4-4.1,1.8-6.8,4.1-8.6
			c2.2-1.8,5.1-2.6,8.5-2.6c3.8,0,6.7,1,8.8,3s3.1,4.6,3.1,7.5c0,1.7-0.3,3.3-0.9,4.8c-0.7,1.6-1.6,3.1-2.9,4.8
			c-0.9,1.2-2.5,2.7-4.7,4.8s-3.8,3.5-4.3,4.2c-0.7,0.7-1,1.3-1.4,2h14.7V567.1z"/>
		<path class="st5" d="M1972.2,536.8l-1.6,7.2c-1.4-1.4-3.7-2.2-6.4-2.2s-5.1,1-6.8,3c-1,1.2-1.7,2.6-2.1,4.3h14.3l-0.8,4.1h-13.9
			c0,0.4,0,0.9,0,1.6c0,0.7,0,1.2,0,1.8h13.2l-0.8,4.1h-11.8c0.4,1.8,1,3.3,2,4.3c1.7,2.1,3.9,3,6.7,3c3.3,0,5.9-1,7.9-3v7.9
			c-2.2,1.2-4.8,1.7-7.9,1.7c-5,0-9.2-1.7-12.4-5.1c-2.2-2.4-3.7-5.2-4.3-8.8h-3.8l0.8-4.1h2.5c0-0.4,0-0.9,0-1.3c0-0.8,0-1.4,0-2.1
			h-3.4l0.8-4.1h3.1c0.8-3.4,2.2-6.3,4.3-8.6c3.3-3.5,7.6-5.2,12.8-5.2C1967.6,535.2,1970.1,535.8,1972.2,536.8z"/>
	</g>
</g>
</svg>
