<?xml version="1.0" encoding="utf-8"?>
<!-- Generator: Adobe Illustrator 22.0.1, SVG Export Plug-In . SVG Version: 6.00 Build 0)  -->
<svg version="1.1" id="Calque_1" xmlns="http://www.w3.org/2000/svg" xmlns:xlink="http://www.w3.org/1999/xlink" x="0px" y="0px"
	 viewBox="0 0 595.3 248.9" style="enable-background:new 0 0 595.3 248.9;" xml:space="preserve">
<style type="text/css">
	.st0{fill:#189DD9;}
	.st1{fill:#043A4C;} 
</style>
<g>
	<g>
		<g>
			<g id="XMLID_6_">
				<g>
					<g>
						<polygon class="st0" points="260.9,154.8 246.8,154.8 258.1,166 242.6,230 85,60.5 165.8,131.3 294,18.6 						"/>
					</g>
					<g>
						<path class="st0" d="M160.7,154.8l-6.8,7.1L160.7,154.8z"/>
					</g>
				</g>
			</g>
		</g>
		<g>
			<g>
				<g id="XMLID_2_">
					<g>
						<path class="st0" d="M576.5,141.5c0.6,1.2,1,2.8,1,4.7s-0.4,3.6-1.1,5c-0.7,1.4-1.8,2.6-3.1,3.5s-2.9,1.6-4.7,2
							s-3.8,0.6-5.9,0.6c-1.9,0-3.7-0.2-5.5-0.6c-1.8-0.4-3.4-0.9-4.6-1.6l-0.5-0.3v-7l1.3,0.6c1.6,0.7,3.1,1.2,4.6,1.5
							c2.3,0.5,4.9,0.6,7.3,0.2c0.8-0.1,1.6-0.4,2.2-0.7c0.6-0.3,1.1-0.7,1.4-1.3c0.3-0.5,0.5-1.1,0.5-1.9c0-0.6-0.1-1.1-0.4-1.5
							c-0.3-0.4-0.8-0.8-1.4-1c-0.6-0.3-1.4-0.6-2.2-0.7c-0.9-0.2-1.8-0.4-2.8-0.6c-1.3-0.3-2.6-0.6-3.8-1c-1.3-0.4-2.4-1-3.4-1.8
							s-1.8-1.7-2.4-2.9c-0.6-1.2-0.9-2.6-0.9-4.4c0-1.9,0.3-3.5,1-4.9c0.7-1.4,1.6-2.6,2.7-3.5c1.1-0.9,2.5-1.6,4-2.1
							c2.9-0.9,6.8-0.8,10.5-0.1c1.8,0.4,3.5,0.8,4.8,1.4l0.6,0.2v7.1l-1.2-0.5c-1.6-0.6-3.2-1.1-4.8-1.4c-3.6-0.7-6.8-0.6-8.4,0.5
							c-0.8,0.6-1.2,1.4-1.2,2.5c0,0.7,0.1,1.2,0.4,1.6c0.3,0.4,0.6,0.8,1.1,1.1s1.2,0.6,1.9,0.8c0.8,0.2,1.6,0.4,2.5,0.6
							c1.4,0.3,2.8,0.6,4.1,1c1.4,0.4,2.6,1,3.7,1.8C575,139.3,575.8,140.3,576.5,141.5z"/>
						<path class="st0" d="M531.3,121.9v34.9h-7.7l-11.1-15.6c-1.4-1.9-2.8-4.1-4.3-6.4c0.1,2.5,0.1,4.6,0.1,6.2v15.9h-7.8V122h7.7
							l11.1,15.8c1.6,2.2,3,4.3,4.2,6.3c-0.1-2.7-0.2-4.7-0.2-6.2V122L531.3,121.9L531.3,121.9z"/>
						<path class="st0" d="M468.5,121.9h-6.8l-13.8,34.9h8.4l3.2-8.4h11.2l3.2,8.4h8.3L468.5,121.9z M462.2,141.5l0.7-1.7
							c0.7-1.8,1.5-3.9,2.3-6.4c0.8,2.4,1.6,4.6,2.3,6.4l0.7,1.7H462.2z"/>
						<path class="st0" d="M433.2,126.4c-1.3-1.6-3.2-2.9-5.7-3.6c-1-0.3-2.1-0.5-3.4-0.7c-1.2-0.1-2.7-0.2-4.3-0.2h-10.4v34.9h7.8
							V144c0.2,0,0.4,0,0.6,0c0.5,0,1.1,0,1.6,0c2.4,0,4.6-0.3,6.5-0.8s3.6-1.2,4.9-2.2c1.4-1,2.5-2.2,3.2-3.6
							c0.7-1.4,1.1-3,1.1-4.7C435.2,130.2,434.5,128.1,433.2,126.4z M426.8,134.5c-0.2,0.5-0.6,0.9-1.2,1.3c-0.6,0.4-1.4,0.7-2.4,1
							s-2.3,0.4-3.9,0.4c-0.6,0-1.1,0-1.6,0c-0.2,0-0.3,0-0.5,0v-8.3h2.5c1.2,0,2.2,0,3,0.1s1.4,0.2,1.9,0.4
							c0.9,0.3,1.5,0.8,1.9,1.3c0.4,0.6,0.5,1.2,0.5,2.1C427.1,133.3,427,133.9,426.8,134.5z"/>
						<path class="st0" d="M379.2,139.1l12.7,17.7h-9.1l-5.4-7.8c-1-1.4-1.9-2.8-2.8-4.1c-0.9,1.3-1.8,2.7-2.8,4.1l-5.4,7.8h-9.1
							l12.7-17.7l-12.2-17.2h9.2l5,7.2c1.1,1.6,2,3,2.7,4c0.8-1.2,1.6-2.5,2.7-3.9l5-7.2h9.2L379.2,139.1z"/>
					</g>
				</g>
			</g>
		</g>
	</g>
</g>
<g>
	<path class="st0" d="M165.8,131.4"/>
</g>
<g>
	<path class="st1" d="M160.7,154.8l-6.8,7.1L160.7,154.8z"/>
</g>
<polygon class="st1" points="160.7,154.8 89.1,230.1 73.5,166.1 84.8,154.8 70.8,154.8 37.6,18.4 "/>
<path class="st0" d="M85,60.6"/>
</svg>
