<?xml version="1.0" encoding="utf-8"?>
<!-- Generator: Adobe Illustrator 22.0.1, SVG Export Plug-In . SVG Version: 6.00 Build 0)  -->
<svg version="1.1" id="Calque_3" xmlns="http://www.w3.org/2000/svg" xmlns:xlink="http://www.w3.org/1999/xlink" x="0px" y="0px"
	 viewBox="0 0 1280 1024" style="enable-background:new 0 0 1280 1024;" xml:space="preserve">
<style type="text/css">
	.st0{fill:url(#SVGID_1_);}
	.st1{fill:#D3D3D3;stroke:#999999;stroke-width:0.5;stroke-miterlimit:10;}
	.st2{fill:#E5E5E5;stroke:#8E8E8E;stroke-miterlimit:10;}
	.st3{fill:#D3D3D3;}
	.st4{fill:#F4F4F4;}
	.st5{fill:#F7F7F7;}
	.st6{fill:#DDDDDD;}
	.st7{display:none;}
	.st8{display:inline;}
	.st9{fill:none;stroke:#000000;stroke-miterlimit:10;}
</style>
<linearGradient id="SVGID_1_" gradientUnits="userSpaceOnUse" x1="678.4194" y1="543.3465" x2="1731.8103" y2="543.3465">
	<stop  offset="0" style="stop-color:#FF1962"/>
	<stop  offset="1" style="stop-color:#FF1F1C"/>
</linearGradient>
<path class="st0" d="M1437.8,983.2L759.6,765.1c-61.5-19.8-95.3-85.7-75.6-147.2L825.2,179c19.8-61.5,85.7-95.3,147.2-75.6
	l678.2,218.1c61.5,19.8,95.3,85.7,75.6,147.2L1585,907.7C1565.2,969.2,1499.3,1003,1437.8,983.2z"/>
<path class="st1" d="M1171.2,137.4v352.9c0,10.4-8.2,21.2-18.2,24.1L911,583.6c-2.4,0.7-4.8,0.8-6.9,0.5c-5.4-0.8-7.5-4.6-8.5-10.5
	c-0.1-0.8-0.2-1.7-0.2-2.6c0-0.3,0-0.6,0-1l12.1-273.5c0.1-1.1,0-2.1,0.3-3.2c1-3.9,1.5-7.5,5-9.7l242.5-155.1
	c0.1-0.1,0.3-0.2,0.4-0.3c1.7-1,3.3-1.7,4.9-2.1C1166.7,125,1171.2,129.2,1171.2,137.4z"/>
<path class="st2" d="M1169.9,136.1V489c0,10.4-9.2,21.2-19.2,24.1l-242.1,69.2c-0.9,0.3-1.7,0.5-2.6,0.5c-5.4-0.8-9.3-4.8-10.3-10.7
	l-0.2-2.6c0-0.3,0-0.6,0-1c0,0,12.1-275.7,12.4-276.6v-0.5c0.1-3,1.7-5.7,4.2-7.4l240.8-154.7C1163.7,122.6,1169.9,130,1169.9,136.1
	z"/>
<path class="st3" d="M1168.8,138v340.6l-272.6,90.2L907.9,292v-0.5c0.1-3,1.7-5.7,4.2-7.4l240.7-154.8c1.6-1,3.2-1.7,4.7-2.2
	C1164.1,125.4,1168.8,129.5,1168.8,138z"/>
<g>
	<path class="st3" d="M1156.7,507c-2.3,2.1-7.1,6.2-13.7,9.7L846.7,671.8c-9.2,4.9-25,10.8-35.1,13.1L621,728
		c-10.6,2.3-21.9,3.3-22.5,2.7l-1.5-2.3l17.5-3.7l0.2,0.2c0.6-0.3,1.2-0.7,1.9-1l262.3-132.8c9.3-4.8,25-11.1,34.9-14.1l238.5-83.5
		l4.8,10.4C1157.7,504.9,1157.6,506.2,1156.7,507z"/>
	<path class="st4" d="M902.2,573.7c-9.9,3.2-25.6,9.7-34.8,14.5L599.7,726.3c-9.3,4.8,6.2,1.5,16.3-0.8L809.5,681
		c10.2-2.3,25.9-8.4,34.9-13.5L1146,498.7c9.1-5.1,8.4-6.6-1.5-3.5L902.2,573.7z"/>
</g>
<polygon class="st5" points="901,555.8 1153.9,469.3 1155.7,150.6 912.3,301.4 "/>
<g>
	<g>
		<g>
			<polygon class="st6" points="1033.9,540.6 1006.5,555.5 1006.5,555.5 988.6,561 1016,546.2 1016,546.2 			"/>
			<polygon class="st6" points="992.1,553.8 1010.7,548 983.4,562.6 983.4,562.6 964.9,568.4 			"/>
			<polygon class="st6" points="986.6,555.6 959.5,570 959.5,570 940.2,576 967.3,561.7 			"/>
			<polygon class="st6" points="1001.8,558.1 976.8,571.6 976.8,571.6 958.9,577 983.8,563.6 983.8,563.6 			"/>
			<polygon class="st6" points="954.6,572.6 930.1,585.8 930.1,585.8 910.8,591.7 935.2,578.7 935.2,578.7 			"/>
			<path class="st6" d="M776.7,644.3L776.7,644.3l-17.2,8.9l21.2-6.1l0,0l0,0l17.4-9.1L776.7,644.3z M754.8,655.6l-13.1,6.8
				l20.8-5.9h0.1l13.4-7L754.8,655.6z M800.7,631.8l-19.1,9.9l21.4-6.2l0,0l19.3-10.1L800.7,631.8z M827.6,623.8l-19.4,10.2l20.7-6
				l19.7-10.4L827.6,623.8z M800.7,631.8l-19.1,9.9l21.4-6.2l0,0l19.3-10.1L800.7,631.8z M781.2,648L781.2,648l-13.7,7.1l20.2-5.7
				l14.1-7.4L781.2,648z M878.9,620L878.9,620l-15.5,8.4l17.6-5l15.8-8.5L878.9,620z M902,607.6l-18.7,10l17.8-5.1l0,0l18.8-10.2
				L902,607.6z M855.6,626.7L855.6,626.7l-15.1,8l18.3-5.1l0,0l15.4-8.2L855.6,626.7z M831.6,633.6L831.6,633.6l-14.7,7.8l18.9-5.3
				h0.1l15-8L831.6,633.6z M854.2,621.6L854.2,621.6l-18.1,9.7l19.2-5.5l0,0l18.3-9.8L854.2,621.6z M853.7,616.1L853.7,616.1
				L853.7,616.1l-19.8,10.4l19.9-5.9l0,0l19.9-10.6L853.7,616.1z M878.5,614.5L878.5,614.5L878.5,614.5l-18.4,9.8l18.5-5.3l0,0
				l18.5-10L878.5,614.5z M878.9,608.5L878.9,608.5l-20.1,10.7l19.2-5.6l0,0l20.2-10.8L878.9,608.5z M903.4,601.3L903.4,601.3
				L883,612.1l18.5-5.4l20.5-11L903.4,601.3z M954.2,579.5L954.2,579.5l-22.6,12.2l17.9-5.3l22.7-12.3L954.2,579.5z M930.4,586.8
				l-22.4,12l18.5-5.5l0,0l0,0l22.5-12.1L930.4,586.8z M927,594.2L927,594.2l-20.6,11.1l17.9-5.2l0,0l20.7-11.2L927,594.2z
				 M959.9,571L959.9,571l-24.7,13.2l18.6-5.7l0,0l24.8-13.3L959.9,571z M829.2,628.9l-17.9,9.4l19.9-5.7l0,0l0,0l18-9.6
				L829.2,628.9z M806.8,640.7L806.8,640.7l-14.2,7.5l19.6-5.5l0,0l14.5-7.7L806.8,640.7z M803.4,636.5L803.4,636.5l-17.5,9.1
				l20.5-5.9l0,0l17.7-9.3L803.4,636.5z M854.2,609.9L854.2,609.9l-21.6,11.3l20.7-6.2l0,0l21.7-11.5L854.2,609.9z M727.6,663.4
				L727.6,663.4l-12.5,6.4l21.6-6l0,0l13-6.8L727.6,663.4z M749.1,652.3l-16.7,8.6l22.1-6.3l0,0l17.1-8.8L749.1,652.3z M772.8,640.2
				l-18.7,9.7l22.3-6.5l19-9.8L772.8,640.2z M798.7,626.8L798.7,626.8l-20.8,10.7l22.4-6.7l0,0l21.1-10.9L798.7,626.8z M827.2,612.1
				L827.2,612.1l-23.3,12l22.5-6.9l0,0l23.5-12.2L827.2,612.1z M858.6,596L858.6,596l-26,13.4l22.6-6.9l0.1-0.1l26.1-13.5L858.6,596
				z M855.7,603.3L855.7,603.3l-23.6,12.3l21.7-6.6l0,0l23.8-12.4L855.7,603.3z M887.4,586.9l-0.1,0.1L861,600.6l21.7-6.8l0,0
				l26.4-13.8L887.4,586.9z M909.7,586.6L909.7,586.6l-24.3,12.8l20.1-6.1l0,0l24.3-12.9L909.7,586.6z M883.2,594.8L883.2,594.8
				l-23.9,12.5L880,601l0,0l24.1-12.7L883.2,594.8z M880.4,602L880.4,602l-21.9,11.5l20-6l0,0l0,0l22-11.7L880.4,602z M914.9,578.2
				l-26.6,13.9l20.8-6.5l0,0l26.7-14L914.9,578.2z M941.5,569.8L941.5,569.8l-26.8,14.2l20.1-6.2l26.9-14.3L941.5,569.8z
				 M800.7,631.8l-19.1,9.9l21.4-6.2l0,0l19.3-10.1L800.7,631.8z M776.7,644.3L776.7,644.3l-17.2,8.9l21.2-6.1l0,0l0,0l17.4-9.1
				L776.7,644.3z M826.9,618.2L826.9,618.2l-21.2,11l21.6-6.4l21.4-11.2L826.9,618.2z M754.8,655.6l-13.1,6.8l20.8-5.9h0.1l13.4-7
				L754.8,655.6z M905.8,594.2L883.7,606l19.3-5.7l0,0l0,0l22.3-11.9L905.8,594.2z M853.7,616.1L853.7,616.1L853.7,616.1l-19.8,10.4
				l19.9-5.9l0,0l19.9-10.6L853.7,616.1z M800.7,631.8l-19.1,9.9l21.4-6.2l0,0l19.3-10.1L800.7,631.8z M776.7,644.3L776.7,644.3
				l-17.2,8.9l21.2-6.1l0,0l0,0l17.4-9.1L776.7,644.3z M754.8,655.6l-13.1,6.8l20.8-5.9h0.1l13.4-7L754.8,655.6z M800.7,631.8
				l-19.1,9.9l21.4-6.2l0,0l19.3-10.1L800.7,631.8z M827.6,623.8l-19.4,10.2l20.7-6l19.7-10.4L827.6,623.8z M800.7,631.8l-19.1,9.9
				l21.4-6.2l0,0l19.3-10.1L800.7,631.8z"/>
			<polygon class="st6" points="918.8,608.7 902.7,617.4 885.7,622.2 901.5,613.6 901.5,613.5 901.5,613.5 			"/>
			<polygon class="st6" points="907.2,616.1 923.5,607.3 940.1,602.5 923.8,611.5 923.8,611.5 			"/>
			<polygon class="st6" points="960.8,596.6 944.2,605.8 944.2,605.8 928.2,610.3 944.7,601.2 944.8,601.2 			"/>
			<polygon class="st6" points="942,595.9 923.1,606.3 923.1,606.3 905.8,611.2 924.7,601 924.7,601 			"/>
			<polygon class="st6" points="1056.3,533.6 1028.8,548.6 1011.7,553.9 1039.1,539 			"/>
			<polygon class="st6" points="971.6,579.8 954.4,584.9 977.2,572.6 977.2,572.6 977.2,572.6 994.5,567.3 971.6,579.8 971.6,579.8 
							"/>
			<polygon class="st6" points="946.8,594.6 963.5,589.7 944.3,600.2 944.3,600.2 927.7,605 946.7,594.6 			"/>
			<polygon class="st6" points="946.3,593.6 929.1,598.6 949.8,587.4 949.9,587.4 967.2,582.2 946.4,593.6 946.4,593.6 			"/>
			<polygon class="st6" points="984.3,583.6 965,594.3 965,594.3 948.9,598.9 968.1,588.3 968.2,588.3 			"/>
			<polygon class="st6" points="951.1,592.2 972,580.7 972,580.7 988.8,575.8 967.7,587.4 			"/>
			<polygon class="st6" points="972.4,585.9 993.5,574.4 993.5,574.4 1009.7,569.5 988.5,581.2 988.5,581.2 			"/>
			<polygon class="st6" points="1021,559.2 1037.1,554.3 1013.9,567.2 1013.9,567.2 997.9,572 			"/>
			<polygon class="st6" points="999.4,565.8 1016.1,560.7 993.1,573.4 993.1,573.4 976.5,578.3 			"/>
			<polygon class="st6" points="999.1,564.8 981.8,570 1006.9,556.5 1024.2,551.1 			"/>
			<polygon class="st6" points="1045.7,544.4 1020.6,558.3 1020.6,558.3 1004,563.3 1029.2,549.6 1029.2,549.5 			"/>
			<polygon class="st6" points="1077.9,526.7 1050.4,541.9 1050.3,541.9 1033.9,547 1061.5,531.9 			"/>
			<polygon class="st6" points="1050.8,542.8 1066.8,537.9 1041.5,551.9 1041.5,551.9 1025.5,556.8 			"/>
			<polygon class="st6" points="1083.1,525.1 1098.9,520.1 1071.3,535.4 1055.4,540.3 1083.1,525.1 			"/>
		</g>
	</g>
</g>
<g id="Calque_2_1_" class="st7">
	<g class="st8">
		<line class="st9" x1="-41.9" y1="803.7" x2="1745.6" y2="-345.6"/>
		<line class="st9" x1="-41.5" y1="805.4" x2="1753.5" y2="-327.8"/>
		<line class="st9" x1="-41.2" y1="807.1" x2="1761.4" y2="-310"/>
		<line class="st9" x1="-40.9" y1="808.8" x2="1769.3" y2="-292.2"/>
		<line class="st9" x1="-40.5" y1="810.5" x2="1777.2" y2="-274.4"/>
		<line class="st9" x1="-40.2" y1="812.2" x2="1785" y2="-256.6"/>
		<line class="st9" x1="-39.8" y1="813.9" x2="1792.9" y2="-238.8"/>
		<line class="st9" x1="-39.5" y1="815.6" x2="1800.8" y2="-221"/>
		<line class="st9" x1="-39.2" y1="817.4" x2="1808.7" y2="-203.1"/>
		<line class="st9" x1="-38.8" y1="819.1" x2="1816.6" y2="-185.3"/>
		<line class="st9" x1="-38.5" y1="820.8" x2="1824.5" y2="-167.5"/>
		<line class="st9" x1="-38.2" y1="822.5" x2="1832.4" y2="-149.7"/>
		<line class="st9" x1="-37.8" y1="824.2" x2="1840.3" y2="-131.9"/>
		<line class="st9" x1="-37.5" y1="825.9" x2="1848.2" y2="-114.1"/>
		<line class="st9" x1="-37.2" y1="827.6" x2="1856" y2="-96.3"/>
		<line class="st9" x1="-36.8" y1="829.3" x2="1863.9" y2="-78.5"/>
		<line class="st9" x1="-36.5" y1="831.1" x2="1871.8" y2="-60.7"/>
		<line class="st9" x1="-36.1" y1="832.8" x2="1879.7" y2="-42.9"/>
		<line class="st9" x1="-35.8" y1="834.5" x2="1887.6" y2="-25.1"/>
		<line class="st9" x1="-35.5" y1="836.2" x2="1895.5" y2="-7.3"/>
		<line class="st9" x1="-35.1" y1="837.9" x2="1903.4" y2="10.6"/>
		<line class="st9" x1="-34.8" y1="839.6" x2="1911.3" y2="28.4"/>
		<line class="st9" x1="-34.5" y1="841.3" x2="1919.1" y2="46.2"/>
		<line class="st9" x1="-34.1" y1="843" x2="1927" y2="64"/>
		<line class="st9" x1="-33.8" y1="844.8" x2="1934.9" y2="81.8"/>
		<line class="st9" x1="-33.5" y1="846.5" x2="1942.8" y2="99.6"/>
		<line class="st9" x1="-33.1" y1="848.2" x2="1950.7" y2="117.4"/>
		<line class="st9" x1="-32.8" y1="849.9" x2="1958.6" y2="135.2"/>
		<line class="st9" x1="-32.4" y1="851.6" x2="1966.5" y2="153"/>
		<line class="st9" x1="-32.1" y1="853.3" x2="1974.4" y2="170.8"/>
		<line class="st9" x1="-31.8" y1="855" x2="1982.3" y2="188.6"/>
		<line class="st9" x1="-31.4" y1="856.8" x2="1990.1" y2="206.5"/>
	</g>
</g>
</svg>
