<?xml version="1.0" encoding="utf-8"?>
<!-- Generator: Adobe Illustrator 22.0.1, SVG Export Plug-In . SVG Version: 6.00 Build 0)  -->
<svg version="1.1" id="Calque_1" xmlns="http://www.w3.org/2000/svg" xmlns:xlink="http://www.w3.org/1999/xlink" x="0px" y="0px"
	 viewBox="0 0 768 670.5" style="enable-background:new 0 0 768 670.5;" xml:space="preserve">
<style type="text/css">
	.st0{opacity:0.39;filter:url(#AI_FlouGaussien_4);}
	.st1{fill:#3D3D3D;}
	.st2{fill:#6B6B6B;}
	.st3{fill:#14A5A1;}
	.st4{fill:#28D1D1;}
	.st5{fill:#C6C6C6;}
	.st6{fill:#0A0A0A;}
	.st7{fill:#CCCCCC;}
	.st8{fill:#E2E2E2;}
	.st9{fill:url(#SVGID_1_);}
	.st10{fill:#111111;}
	.st11{fill:none;}
	.st12{fill:none;stroke:#FFFFFF;stroke-width:2;stroke-miterlimit:10;}
	.st13{fill:#FFFFFF;}
	.st14{fill:none;stroke:#CECECE;stroke-miterlimit:10;}
	.st15{fill:#7F7F7F;}
	.st16{fill:#1E1E1E;}
	.st17{fill:#38546D;}
	.st18{fill:url(#SVGID_2_);}
	.st19{fill:none;stroke:#18EADA;stroke-width:6;stroke-linecap:round;stroke-miterlimit:10;}
	.st20{fill:none;stroke:#18EADA;stroke-width:6;stroke-linecap:round;stroke-miterlimit:10;stroke-dasharray:10.2343,11.94;}
	.st21{fill:none;stroke:#18EADA;stroke-width:6;stroke-linecap:round;stroke-miterlimit:10;stroke-dasharray:10.4783,12.2246;}
	.st22{fill:#18EADA;}
	.st23{fill:none;stroke:#18EADA;stroke-miterlimit:10;}
	.st24{opacity:0.8333;fill:none;stroke:#18EADA;stroke-miterlimit:10;enable-background:new    ;}
	.st25{opacity:0.6667;fill:none;stroke:#18EADA;stroke-miterlimit:10;enable-background:new    ;}
	.st26{opacity:0.5;fill:none;stroke:#18EADA;stroke-miterlimit:10;enable-background:new    ;}
	.st27{opacity:0.3333;fill:none;stroke:#18EADA;stroke-miterlimit:10;enable-background:new    ;}
	.st28{opacity:0.1667;fill:none;stroke:#18EADA;stroke-miterlimit:10;enable-background:new    ;}
	.st29{fill:none;stroke:#18EADA;stroke-miterlimit:10;stroke-opacity:0;}
</style>
<filter  id="AI_FlouGaussien_4">
	<feGaussianBlur  stdDeviation="4"></feGaussianBlur>
</filter>
<g id="Calque_2_1_">
	<g class="st0">
		<path class="st1" d="M485,501.9L227,652.3c-4.2,1.5-9.5,1.6-13.8,0.3L29.6,542.9c-3.4-2-3.4-7.1,0.1-9l54.2-32.1l2.9,1.5l161.7-96
			v-3l41.3-24.5c3.9-2.3,8.7-2.3,12.6,0.1L487,491.8l0,0C490.3,494.8,489.7,499.1,485,501.9z"/>
	</g>
	<path class="st2" d="M91.9,388.8"/>
	<path class="st3" d="M248.2,193.5c-0.4,0.2-0.8,0.4-1.2,0.7l0.8-0.4c0,0,0,0,0.1-0.1C248,193.6,248.1,193.6,248.2,193.5z"/>
	<path d="M39.6,259.2l-3.1,1.7C37.4,260.4,38.5,259.8,39.6,259.2z"/>
	<path d="M78.2,236.9c1.6-0.9,3.4-1.9,5.1-3L78.2,236.9z"/>
	<path d="M272.8,126.2l-188.5,109C145.6,199.7,236.9,146.9,272.8,126.2z"/>
	<path class="st4" d="M19.5,267.3l-2.6,1.4c0.4-0.3,0.8-0.6,1.2-0.8C18.7,267.7,19.1,267.5,19.5,267.3z"/>
	<path class="st5" d="M287.9,328.3v0.8c-0.2,5.5-3.8,12.1-8.3,15.6l-3.3,1.9l-258,149.1l0,0c-1.1,0.5-2.1,0.7-3.2,0.7
		c0.7,0.9,1.2,1.2,1.3,1.3l-3.4-1.6l-0.7-0.4c-1.7-1-2.8-3.3-2.8-6.3l0,0V279.2c0-4,2.6-8.9,5.8-11.5l2.6-1.4
		c0.1-0.1,262.9-151.8,263.2-151.9c0.5-0.3,1-0.6,1.5-0.7c0.3-0.1,0.5-0.1,0.8-0.2c1-0.1,1.9,0.2,2.8,0.8l0,0
		c0.2,0.2,0.4,0.3,0.6,0.6c0.4,0.4,0.6,1,0.8,1.5c0.2,0.6,0.3,1.3,0.3,2C288,123.7,288,283.5,287.9,328.3z"/>
	<path class="st6" d="M291.3,330v0.8c-0.2,5.5-3.8,12.1-8.3,15.6l-3.3,1.9l-187,111.6L79,464.1l-57.3,33.1l0,0c-2.4,1-4.4,0.9-5.9,0
		c-1.7-1-2.8-3.3-2.9-6.3l0,0V280.8c0-4,2.6-8.9,5.8-11.5l2.6-1.4c0.1-0.1,248.1-143.3,248.1-143.3l4.6-2.7l2.7-1.5l1.1-0.6
		c1.4-0.8,2.7-1.5,3.6-2c0.5-0.3,0.9-0.5,1.2-0.7c0.1-0.1,0.2-0.1,0.3-0.2c0.8-0.4,1.3-0.7,1.5-0.8c0.5-0.3,1-0.6,1.6-0.7
		c0.3-0.1,0.5-0.1,0.8-0.2c1.2-0.2,2.6,0.4,3.3,1.3c0.8,1,1.1,2.3,1.1,3.6C291.3,125.4,291.3,285.1,291.3,330z"/>
	<path class="st7" d="M481.2,463.2L224,613.6c-4.2,1.5-9.5,1.6-13.8,0.3L26.8,506.7c-1.7-1-2.6-2.7-2.6-4.4v-7.2l2.3,2.8
		c0.1-0.1,0.2-0.1,0.3-0.2l259.9-152c3.9-2.3,8.6-2.3,12.4,0l183.8,107.4l0,0C486.6,456.3,485.9,460.5,481.2,463.2z"/>
	<path class="st8" d="M482.3,461.2l-258,150.4c-4.2,1.5-9.5,1.6-13.8,0.3L26.8,502.2c-3.4-2-3.4-7.1,0.1-9l54.2-32.1l2.9,1.5
		l161.6-96v-3l41.3-24.5c3.9-2.3,8.7-2.3,12.6,0.1L484,451l0,0C487.5,454.2,487,458.5,482.3,461.2z"/>
	
		<linearGradient id="SVGID_1_" gradientUnits="userSpaceOnUse" x1="20.4" y1="660.6053" x2="283.7" y2="660.6053" gradientTransform="matrix(1 0 0 1 0 -355.1053)">
		<stop  offset="0" style="stop-color:#55C3FF"/>
		<stop  offset="0.99" style="stop-color:#03FFAA"/>
	</linearGradient>
	<polygon class="st9" points="20.5,281.8 20.4,481.8 283.7,329.1 283.7,129.2 	"/>
	<g>
		<g>
			<g>
				<g>
					<g>
						<g>
							<g>
								<g>
									<g>
										<g>
											<path class="st10" d="M81.7,495.6c0.5-0.3,1.3-0.3,1.7,0l6.1,3.6c0.5,0.3,0.5,0.7,0,1l-26.1,15.3c-0.5,0.3-1.3,0.3-1.7,0
												l-6.1-3.5c-0.5-0.3-0.5-0.7,0-1L81.7,495.6z"/>
										</g>
									</g>
								</g>
							</g>
						</g>
					</g>
				</g>
				<g>
					<g>
						<g>
							<g>
								<g>
									<g>
										<g>
											<path class="st10" d="M106.9,489c0.5,0.3,0.5,0.7,0,1l-13.4,8c-0.5,0.3-1.3,0.3-1.7,0l-6.1-3.6c-0.5-0.3-0.5-0.7,0-1
												l13.4-8c0.5-0.3,1.3-0.3,1.7,0L106.9,489z"/>
										</g>
									</g>
								</g>
							</g>
						</g>
					</g>
				</g>
				<g>
					<g>
						<g>
							<g>
								<g>
									<g>
										<g>
											<path class="st10" d="M124.4,478.8c0.5,0.3,0.5,0.7,0,1l-13.6,8.1c-0.5,0.3-1.3,0.3-1.7,0l-6.1-3.6c-0.5-0.3-0.5-0.7,0-1
												l13.6-8.1c0.5-0.3,1.3-0.3,1.7,0L124.4,478.8z"/>
										</g>
									</g>
								</g>
							</g>
						</g>
					</g>
				</g>
				<g>
					<g>
						<g>
							<g>
								<g>
									<g>
										<g>
											<path class="st10" d="M138.7,470.3c0.5,0.3,0.5,0.7,0,1l-10.5,6.2c-0.5,0.3-1.3,0.3-1.7,0l-6.2-3.6c-0.5-0.3-0.5-0.7,0-1
												l10.5-6.2c0.5-0.3,1.3-0.3,1.7,0L138.7,470.3z"/>
										</g>
									</g>
								</g>
							</g>
						</g>
					</g>
				</g>
				<g>
					<g>
						<g>
							<g>
								<g>
									<g>
										<g>
											<path class="st10" d="M156.3,460.9l-5.9,3.6l-0.5,0.3l-7.4,4.3c-0.5,0.3-1.3,0.3-1.7,0l-6.2-3.6c-0.5-0.3-0.5-0.7,0-1
												l13.8-8.2c0.5-0.3,1.3-0.3,1.7,0l6.2,3.6C156.8,460.1,156.8,460.6,156.3,460.9z"/>
										</g>
									</g>
								</g>
							</g>
						</g>
					</g>
				</g>
				<g>
					<g>
						<g>
							<g>
								<g>
									<g>
										<g>
											<path class="st10" d="M174.1,449.4c0.5,0.3,0.5,0.7,0,1l-13.9,8.2c-0.5,0.3-1.3,0.3-1.7,0l-6.2-3.6c-0.5-0.3-0.5-0.7,0-1
												l13.9-8.2c0.5-0.3,1.3-0.3,1.7,0L174.1,449.4z"/>
										</g>
									</g>
								</g>
							</g>
						</g>
					</g>
				</g>
				<g>
					<g>
						<g>
							<g>
								<g>
									<g>
										<g>
											<path class="st10" d="M191.7,439c0.5,0.3,0.5,0.7,0,1l-13.8,8.2c-0.5,0.3-1.3,0.3-1.7,0l-6.3-3.6c-0.5-0.3-0.5-0.7,0-1
												l13.8-8.2c0.5-0.3,1.3-0.3,1.7,0L191.7,439z"/>
										</g>
									</g>
								</g>
							</g>
						</g>
					</g>
				</g>
				<g>
					<g>
						<g>
							<g>
								<g>
									<g>
										<g>
											<path class="st10" d="M209.2,428.6c0.5,0.3,0.5,0.7,0,1l-13.7,8.1c-0.5,0.3-1.3,0.3-1.7,0l-6.3-3.6c-0.5-0.3-0.5-0.7,0-1
												l13.7-8.2c0.5-0.3,1.3-0.3,1.7,0L209.2,428.6z"/>
										</g>
									</g>
								</g>
							</g>
						</g>
					</g>
				</g>
				<g>
					<g>
						<g>
							<g>
								<g>
									<g>
										<g>
											<path class="st10" d="M226.8,418.3c0.5,0.3,0.5,0.7,0,1l-13.8,8.2c-0.5,0.3-1.3,0.3-1.7,0l-6.3-3.7c-0.5-0.3-0.5-0.7,0-1
												l13.8-8.2c0.5-0.3,1.3-0.3,1.7,0L226.8,418.3z"/>
										</g>
									</g>
								</g>
							</g>
						</g>
					</g>
				</g>
				<g>
					<g>
						<g>
							<g>
								<g>
									<g>
										<g>
											<path class="st10" d="M236.2,404.3c0.5-0.3,1.2-0.3,1.7,0l6.2,3.8c0.5,0.3,0.5,0.7,0,1l-13.6,8.1c-0.5,0.3-1.3,0.3-1.7,0
												l-6.3-3.7c-0.5-0.3-0.5-0.7,0-1L236.2,404.3z"/>
										</g>
									</g>
								</g>
							</g>
						</g>
					</g>
				</g>
				<g>
					<g>
						<g>
							<g>
								<g>
									<g>
										<g>
											<path class="st10" d="M256.2,392.5c0.5-0.3,1.2-0.3,1.7,0l6.3,3.8c0.5,0.3,0.5,0.7,0,1l-16.2,9.5c-0.5,0.3-1.2,0.3-1.7,0
												l-6.2-3.8c-0.5-0.3-0.5-0.7,0-1L256.2,392.5z"/>
										</g>
									</g>
								</g>
							</g>
						</g>
					</g>
				</g>
				<g>
					<g>
						<g>
							<g>
								<g>
									<g>
										<g>
											<path class="st10" d="M284.2,384.4c0.5,0.3,0.5,0.7,0,1l-16.3,9.6c-0.5,0.3-1.2,0.3-1.7,0l-6.2-3.8c-0.5-0.3-0.5-0.7,0-1
												l16.3-9.6c0.5-0.3,1.2-0.3,1.7,0L284.2,384.4z"/>
										</g>
									</g>
								</g>
							</g>
						</g>
					</g>
				</g>
				<g>
					<g>
						<g>
							<g>
								<g>
									<g>
										<g>
											<path class="st10" d="M304.2,372.7c0.5,0.3,0.5,0.7,0,1l-16.3,9.6c-0.5,0.3-1.2,0.3-1.7,0l-6.3-3.8c-0.5-0.3-0.5-0.7,0-1
												L296,369c0.5-0.3,1.3-0.3,1.7,0L304.2,372.7z"/>
										</g>
									</g>
								</g>
							</g>
						</g>
					</g>
				</g>
				<g>
					<g>
						<g>
							<g>
								<g>
									<g>
										<g>
											<path class="st10" d="M325,360.4c0.5,0.3,0.5,0.7,0,1l-16.9,10c-0.5,0.3-1.3,0.3-1.7,0l-6.4-3.8c-0.5-0.3-0.5-0.7,0-1
												l17.1-10.1c0.5-0.3,1.2-0.3,1.7,0L325,360.4z"/>
										</g>
									</g>
								</g>
							</g>
						</g>
					</g>
				</g>
			</g>
			<g>
				<g>
					<g>
						<g>
							<g>
								<g>
									<g>
										<path class="st10" d="M79.4,508.6c0.5-0.3,1.2-0.3,1.7,0l11.2,6.5c0.5,0.3,0.5,0.7,0,1l-13.7,8.1c-0.5,0.3-1.3,0.3-1.7,0
											l-11.3-6.4c-0.5-0.3-0.5-0.7,0-1L79.4,508.6z"/>
									</g>
								</g>
							</g>
						</g>
					</g>
				</g>
				<g>
					<g>
						<g>
							<g>
								<g>
									<g>
										<path class="st10" d="M109.8,504.9c0.5,0.3,0.5,0.7,0,1L96.1,514c-0.5,0.3-1.2,0.3-1.7,0l-11.2-6.5c-0.5-0.3-0.5-0.7,0-1
											l13.7-8.1c0.5-0.3,1.3-0.3,1.7,0L109.8,504.9z"/>
									</g>
								</g>
							</g>
						</g>
					</g>
				</g>
				<g>
					<g>
						<g>
							<g>
								<g>
									<g>
										<path class="st10" d="M127.4,494.5c0.5,0.3,0.5,0.7,0,1l-13.7,8.1c-0.5,0.3-1.2,0.3-1.7,0l-11.2-6.5c-0.5-0.3-0.5-0.7,0-1
											l13.8-8.1c0.5-0.3,1.3-0.3,1.7,0L127.4,494.5z"/>
									</g>
								</g>
							</g>
						</g>
					</g>
				</g>
				<g>
					<g>
						<g>
							<g>
								<g>
									<g>
										<path class="st10" d="M144.9,484.2c0.5,0.3,0.5,0.7,0,1l-13.7,8.1c-0.5,0.3-1.3,0.3-1.7,0l-11.2-6.5c-0.5-0.3-0.5-0.7,0-1
											l13.6-8.2c0.5-0.3,1.2-0.3,1.7,0L144.9,484.2z"/>
									</g>
								</g>
							</g>
						</g>
					</g>
				</g>
				<g>
					<g>
						<g>
							<g>
								<g>
									<g>
										<path class="st10" d="M149.5,467.3c0.5-0.3,1.2-0.3,1.7,0l11.2,6.5c0.5,0.3,0.5,0.7,0,1l-13.7,8.1c-0.5,0.3-1.2,0.3-1.7,0
											l-11.2-6.5c-0.5-0.3-0.5-0.7,0-1L149.5,467.3z"/>
									</g>
								</g>
							</g>
						</g>
					</g>
				</g>
				<g>
					<g>
						<g>
							<g>
								<g>
									<g>
										<path class="st10" d="M179.9,463.5c0.5,0.3,0.5,0.7,0,1l-13.8,8.1c-0.5,0.3-1.2,0.3-1.7,0l-11.2-6.5c-0.5-0.3-0.5-0.7,0-1
											L167,457c0.5-0.3,1.2-0.3,1.7,0L179.9,463.5z"/>
									</g>
								</g>
							</g>
						</g>
					</g>
				</g>
				<g>
					<g>
						<g>
							<g>
								<g>
									<g>
										<path class="st10" d="M197.4,453.2c0.5,0.3,0.5,0.7,0,1l-13.7,8.1c-0.5,0.3-1.3,0.3-1.7,0l-11.2-6.5c-0.5-0.3-0.5-0.7,0-1
											l13.7-8.1c0.5-0.3,1.2-0.3,1.7,0L197.4,453.2z"/>
									</g>
								</g>
							</g>
						</g>
					</g>
				</g>
				<g>
					<g>
						<g>
							<g>
								<g>
									<g>
										<path class="st10" d="M214.9,442.9c0.5,0.3,0.5,0.7,0,1l-13.7,8.1c-0.5,0.3-1.3,0.3-1.7,0l-11.2-6.5c-0.5-0.3-0.5-0.7,0-1
											l13.7-8.1c0.5-0.3,1.3-0.3,1.7,0L214.9,442.9z"/>
									</g>
								</g>
							</g>
						</g>
					</g>
				</g>
				<g>
					<g>
						<g>
							<g>
								<g>
									<g>
										<path class="st10" d="M232.5,432.5c0.5,0.3,0.5,0.7,0,1l-13.7,8.1c-0.5,0.3-1.2,0.3-1.7,0l-11.2-6.5c-0.5-0.3-0.5-0.7,0-1
											l13.7-8.1c0.5-0.3,1.2-0.3,1.7,0L232.5,432.5z"/>
									</g>
								</g>
							</g>
						</g>
					</g>
				</g>
				<g>
					<g>
						<g>
							<g>
								<g>
									<g>
										<path class="st10" d="M250.1,422.1c0.5,0.3,0.5,0.7,0,1l-13.8,8.2c-0.5,0.3-1.2,0.3-1.7,0l-11.2-6.5c-0.5-0.3-0.5-0.7,0-1
											l13.8-8.2c0.5-0.3,1.2-0.3,1.7,0L250.1,422.1z"/>
									</g>
								</g>
							</g>
						</g>
					</g>
				</g>
				<g>
					<g>
						<g>
							<g>
								<g>
									<g>
										<path class="st10" d="M267.6,411.9c0.5,0.3,0.5,0.7,0,1l-13.7,8.1c-0.5,0.3-1.3,0.3-1.7,0l-11.2-6.4c-0.5-0.3-0.5-0.7,0-1
											l14-8c0.5-0.3,1.3-0.3,1.7,0L267.6,411.9z"/>
									</g>
								</g>
							</g>
						</g>
					</g>
				</g>
				<g>
					<g>
						<g>
							<g>
								<g>
									<g>
										<path class="st10" d="M285.1,401.5c0.5,0.3,0.5,0.7,0,1l-13.7,8.1c-0.5,0.3-1.3,0.3-1.7,0l-11.2-6.4c-0.5-0.3-0.5-0.7,0-1
											l13.7-8.1c0.5-0.3,1.3-0.3,1.7,0L285.1,401.5z"/>
									</g>
								</g>
							</g>
						</g>
					</g>
				</g>
				<g>
					<g>
						<g>
							<g>
								<g>
									<g>
										<path class="st10" d="M302.6,391.2c0.5,0.3,0.5,0.7,0,1l-13.7,8.1c-0.5,0.3-1.3,0.3-1.7,0l-11.2-6.4c-0.5-0.3-0.5-0.7,0-1
											l13.8-8.1c0.5-0.3,1.3-0.3,1.7,0L302.6,391.2z"/>
									</g>
								</g>
							</g>
						</g>
					</g>
				</g>
				<g>
					<g>
						<g>
							<g>
								<g>
									<g>
										<path class="st10" d="M320.2,380.9c0.5,0.3,0.5,0.7,0,1l-13.7,8.1c-0.5,0.3-1.3,0.3-1.7,0l-11.2-6.4c-0.5-0.3-0.5-0.7,0-1
											l13.7-8.1c0.5-0.3,1.3-0.3,1.7,0L320.2,380.9z"/>
									</g>
								</g>
							</g>
						</g>
					</g>
				</g>
				<g>
					<g>
						<g>
							<g>
								<g>
									<g>
										<path class="st10" d="M339.6,369.3c0.5,0.3,0.5,0.7,0,1l-15.7,9.2c-0.5,0.3-1.3,0.3-1.7,0l-11.3-6.4c-0.5-0.3-0.5-0.7,0-1
											l16-9.4c0.5-0.3,1.2-0.3,1.7,0L339.6,369.3z"/>
									</g>
								</g>
							</g>
						</g>
					</g>
				</g>
			</g>
			<g>
				<g>
					<g>
						<g>
							<g>
								<g>
									<g>
										<g>
											<path class="st10" d="M121,517c0.5,0.3,0.5,0.7,0,1l-26.3,15.6c-0.5,0.3-1.3,0.3-1.7,0l-12.4-7.2c-0.5-0.3-0.5-0.7,0-1
												l26.3-15.6c0.5-0.3,1.3-0.3,1.7,0L121,517z"/>
										</g>
									</g>
								</g>
							</g>
						</g>
						<g>
							<g>
								<g>
									<g>
										<g>
											<path class="st10" d="M124,499.9c0.5-0.3,1.3-0.3,1.7,0l12.4,7.2c0.5,0.3,0.5,0.7,0,1l-13.2,7.8c-0.5,0.3-1.3,0.3-1.7,0
												l-12.4-7.2c-0.5-0.3-0.5-0.7,0-1L124,499.9z"/>
										</g>
									</g>
								</g>
							</g>
						</g>
						<g>
							<g>
								<g>
									<g>
										<g>
											<path class="st10" d="M141,489.9c0.5-0.3,1.3-0.3,1.7,0l12.3,7.2c0.5,0.3,0.5,0.7,0,1l-13.2,7.8c-0.5,0.3-1.3,0.3-1.7,0
												l-12.4-7.2c-0.5-0.3-0.5-0.7,0-1L141,489.9z"/>
										</g>
									</g>
								</g>
							</g>
						</g>
						<g>
							<g>
								<g>
									<g>
										<g>
											<path class="st10" d="M170.1,488.1c0.5,0.3,0.5,0.7,0,1l-11.3,6.6c-0.5,0.3-1.3,0.3-1.7,0l-12.4-7.2
												c-0.5-0.3-0.5-0.7,0-1l11.3-6.6c0.5-0.3,1.3-0.3,1.7,0L170.1,488.1z"/>
										</g>
									</g>
								</g>
							</g>
						</g>
						<g>
							<g>
								<g>
									<g>
										<g>
											<path class="st10" d="M173.8,470.6c0.5-0.3,1.3-0.3,1.7,0l12.5,7.1c0.5,0.3,0.5,0.7,0,1l-14.1,8.4
												c-0.5,0.3-1.3,0.3-1.7,0l-12.4-7.2c-0.5-0.3-0.5-0.7,0-1l4.6-2.7c0.5-0.3,0.9-0.5,1-0.6s0.5-0.3,1-0.6L173.8,470.6z"/>
										</g>
									</g>
								</g>
							</g>
						</g>
						<g>
							<g>
								<g>
									<g>
										<g>
											<path class="st10" d="M205.6,467.2c0.5,0.3,0.5,0.7,0,1l-13.8,8.1c-0.5,0.3-1.3,0.3-1.7,0l-12.5-7.1
												c-0.5-0.3-0.5-0.7,0-1l13.8-8.1c0.5-0.3,1.3-0.3,1.7,0L205.6,467.2z"/>
										</g>
									</g>
								</g>
							</g>
						</g>
						<g>
							<g>
								<g>
									<g>
										<g>
											<path class="st10" d="M209.3,449.6c0.5-0.3,1.3-0.3,1.7,0l12.5,7.1c0.5,0.3,0.5,0.7,0,1l-14.2,8.4
												c-0.5,0.3-1.3,0.3-1.7,0l-12.5-7.1c-0.5-0.3-0.5-0.7,0-1L209.3,449.6z"/>
										</g>
									</g>
								</g>
							</g>
						</g>
						<g>
							<g>
								<g>
									<g>
										<g>
											<path class="st10" d="M240.8,446.4c0.5,0.3,0.5,0.7,0,1l-13.4,7.9c-0.5,0.3-1.3,0.3-1.7,0l-12.5-7.1
												c-0.5-0.3-0.5-0.7,0-1l13.4-7.9c0.5-0.3,1.3-0.3,1.7,0L240.8,446.4z"/>
										</g>
									</g>
								</g>
							</g>
						</g>
						<g>
							<g>
								<g>
									<g>
										<g>
											<path class="st10" d="M244.4,428.8c0.5-0.3,1.3-0.3,1.7,0l12.5,7.1c0.5,0.3,0.5,0.7,0,1l-14.1,8.3
												c-0.5,0.3-1.3,0.3-1.7,0l-12.5-7.1c-0.5-0.3-0.5-0.7,0-1l4.2-2.5c0.5-0.3,0.9-0.5,1-0.4s0.2,0,0.2-0.1
												c0.1-0.1,0.5-0.4,1-0.7L244.4,428.8z"/>
										</g>
									</g>
								</g>
							</g>
						</g>
						<g>
							<g>
								<g>
									<g>
										<g>
											<path class="st10" d="M261.4,418.9c0.5-0.3,1.3-0.3,1.7,0l12.5,7.1c0.5,0.3,0.5,0.7,0,1l-13.2,7.8
												c-0.5,0.3-1.3,0.3-1.7,0l-12.5-7.1c-0.5-0.3-0.5-0.7,0-1L261.4,418.9z"/>
										</g>
									</g>
								</g>
							</g>
						</g>
						<g>
							<g>
								<g>
									<g>
										<g>
											<path class="st10" d="M281.4,407.1c0.5-0.3,1.3-0.3,1.7,0l12.6,7.1c0.5,0.3,0.5,0.7,0,1l-16.3,9.6
												c-0.5,0.3-1.3,0.3-1.7,0l-12.5-7.1c-0.5-0.3-0.5-0.7,0-1L281.4,407.1z"/>
										</g>
									</g>
								</g>
							</g>
						</g>
						<g>
							<g>
								<g>
									<g>
										<g>
											<path class="st10" d="M301.3,395.4c0.5-0.3,1.3-0.3,1.7,0l12.4,7.1c0.5,0.3,0.5,0.7,0,1l-16.3,9.6
												c-0.5,0.3-0.8,0.4-0.8,0.3s-0.3-0.4-0.8-0.7l-12.4-7c-0.5-0.3-0.5-0.7,0-1L301.3,395.4z"/>
										</g>
									</g>
								</g>
							</g>
						</g>
						<g>
							<g>
								<g>
									<g>
										<g>
											<path class="st10" d="M335.8,390.5c0.5,0.3,0.5,0.7,0,1l-16.5,9.7c-0.5,0.3-1.3,0.3-1.7,0l-12.4-7.1
												c-0.5-0.3-0.6-0.7-0.2-0.9s0.8-0.5,0.9-0.6s0.6-0.4,1.1-0.6l14.6-8.6c0.5-0.3,1.3-0.3,1.7,0L335.8,390.5z"/>
										</g>
									</g>
								</g>
							</g>
						</g>
						<g>
							<g>
								<g>
									<g>
										<g>
											<path class="st10" d="M355.5,378.8c0.5,0.3,0.5,0.7,0,1l-16,9.4c-0.5,0.3-1.3,0.3-1.7,0l-12.4-7.1c-0.5-0.3-0.5-0.7,0-1
												l16.4-9.6c0.5-0.3,1.2-0.3,1.7,0L355.5,378.8z"/>
										</g>
									</g>
								</g>
							</g>
						</g>
					</g>
					<g>
						<g>
							<g>
								<g>
									<g>
										<polygon class="st10" points="235.8,434 235.6,434.4 235.4,434.2 										"/>
									</g>
								</g>
							</g>
						</g>
					</g>
				</g>
			</g>
			<g>
				<g>
					<g>
						<g>
							<g>
								<path class="st10" d="M132.1,514c0.5-0.3,1.3-0.3,1.7,0l12.3,7.2c0.5,0.3,0.5,0.7,0,1L110.9,543c-0.5,0.3-1.3,0.3-1.7,0
									l-12.4-7.2c-0.5-0.3-0.5-0.7,0-1L132.1,514z"/>
							</g>
						</g>
					</g>
				</g>
				<g>
					<g>
						<g>
							<g>
								<path class="st10" d="M171.3,506.3c0.5,0.3,0.5,0.7,0,1l-21.4,12.6c-0.5,0.3-1.3,0.3-1.7,0l-12.3-7.2c-0.5-0.3-0.5-0.7,0-1
									l21.4-12.6c0.5-0.3,1.3-0.3,1.7,0L171.3,506.3z"/>
							</g>
						</g>
					</g>
				</g>
				<g>
					<g>
						<g>
							<g>
								<path class="st10" d="M182.3,484.3c0.5-0.3,1.3-0.3,1.7,0l12.3,7.2c0.5,0.3,0.5,0.7,0,1L174.7,505c-0.5,0.3-1.3,0.3-1.7,0
									l-12.1-7c-0.5-0.3-0.5-0.7,0-1L182.3,484.3z"/>
							</g>
						</g>
					</g>
				</g>
				<g>
					<g>
						<g>
							<g>
								<path class="st10" d="M207.5,469.6c0.5-0.3,1.3-0.3,1.7,0l12.3,7.2c0.5,0.3,0.5,0.7,0,1l-21.4,12.6c-0.5,0.3-1.3,0.3-1.7,0
									l-12.3-7.2c-0.5-0.3-0.5-0.7,0-1L207.5,469.6z"/>
							</g>
						</g>
					</g>
				</g>
				<g>
					<g>
						<g>
							<g>
								<path class="st10" d="M232.6,454.7c0.5-0.3,1.3-0.3,1.7,0l12.3,7.2c0.5,0.3,0.5,0.7,0,1l-21.3,12.6c-0.5,0.3-1.3,0.3-1.7,0
									l-12.3-7.2c-0.5-0.3-0.5-0.7,0-1L232.6,454.7z"/>
							</g>
						</g>
					</g>
				</g>
				<g>
					<g>
						<g>
							<g>
								<path class="st10" d="M257.7,439.9c0.5-0.3,1.3-0.3,1.7,0l12.3,7.2c0.5,0.3,0.5,0.7,0,1l-21.4,12.6c-0.5,0.3-1.3,0.3-1.7,0
									l-12.3-7.2c-0.5-0.3-0.5-0.7,0-1L257.7,439.9z"/>
							</g>
						</g>
					</g>
				</g>
				<g>
					<g>
						<g>
							<g>
								<path class="st10" d="M282.9,425.1c0.5-0.3,1.3-0.3,1.7,0l12.3,7.2c0.5,0.3,0.5,0.7,0,1l-21.3,12.6c-0.5,0.3-1.3,0.3-1.7,0
									l-12.3-7.2c-0.5-0.3-0.5-0.7,0-1L282.9,425.1z"/>
							</g>
						</g>
					</g>
				</g>
				<g>
					<g>
						<g>
							<g>
								<path class="st10" d="M307.7,410.4c0.5-0.3,1.2-0.3,1.7,0l12,7.3c0.5,0.3,0.5,0.7,0,1l-20.7,12.2c-0.5,0.3-1.3,0.3-1.7,0
									l-12.3-7.2c-0.5-0.3-0.5-0.7,0-1L307.7,410.4z"/>
							</g>
						</g>
					</g>
				</g>
				<g>
					<g>
						<g>
							<g>
								<path class="st10" d="M332.8,395.7c0.5-0.3,1.2-0.3,1.7,0l12,7.4c0.5,0.3,0.5,0.8,0,1l-21.2,12.5c-0.5,0.3-1.2,0.3-1.7,0
									l-12-7.3c-0.5-0.3-0.5-0.7,0-1L332.8,395.7z"/>
							</g>
						</g>
					</g>
				</g>
				<g>
					<g>
						<g>
							<g>
								<path class="st10" d="M371.3,388.4c0.5,0.3,0.5,0.7,0,1l-21.1,12.4c-0.5,0.3-1.2,0.3-1.7,0l-12-7.4c-0.5-0.3-0.5-0.8,0-1
									l21-12.4c0.5-0.3,1.2-0.3,1.7,0L371.3,388.4z"/>
							</g>
						</g>
					</g>
				</g>
			</g>
			<g>
				<g>
					<g>
						<g>
							<path class="st10" d="M171.6,525c0.5,0.3,0.5,0.7,0,1l-44.4,26.2c-0.5,0.3-1.3,0.3-1.7,0l-12.4-7.2c-0.5-0.3-0.5-0.7,0-1
								l44.7-26.4c0.5-0.3,1.2-0.3,1.7,0L171.6,525z"/>
						</g>
					</g>
				</g>
				<g>
					<g>
						<g>
							<path class="st10" d="M183,502.8c0.5-0.3,1.2-0.3,1.7,0l12.1,7.3c0.5,0.3,0.5,0.7,0,1l-21.5,12.7c-0.5,0.3-1.2,0.3-1.7,0
								l-12.1-7.3c-0.5-0.3-0.5-0.7,0-1L183,502.8z"/>
						</g>
					</g>
				</g>
				<g>
					<g>
						<g>
							<path class="st10" d="M206.1,489.1c0.5-0.3,1.3-0.3,1.7,0l12.4,7.2c0.5,0.3,0.5,0.7,0,1l-19.6,11.6c-0.5,0.3-1.2,0.3-1.7,0
								l-12.1-7.3c-0.5-0.3-0.5-0.7,0-1L206.1,489.1z"/>
						</g>
					</g>
				</g>
				<g>
					<g>
						<g>
							<path class="st10" d="M243.7,482.4c0.5,0.3,0.5,0.7,0,1L224,495c-0.5,0.3-1.3,0.3-1.7,0l-12.4-7.2c-0.5-0.3-0.5-0.7,0-1
								l19.6-11.6c0.5-0.3,1.3-0.3,1.7,0L243.7,482.4z"/>
						</g>
					</g>
				</g>
				<g>
					<g>
						<g>
							<path class="st10" d="M253,461.5c0.5-0.3,1.3-0.3,1.7,0l12.3,7.2c0.5,0.3,0.5,0.7,0,1l-19.6,11.6c-0.5,0.3-1.3,0.3-1.7,0
								l-12.4-7.2c-0.5-0.3-0.5-0.7,0-1L253,461.5z"/>
						</g>
					</g>
				</g>
				<g>
					<g>
						<g>
							<path class="st10" d="M276.4,447.7c0.5-0.3,1.3-0.3,1.7,0l12.3,7.2c0.5,0.3,0.5,0.7,0,1l-19.6,11.6c-0.5,0.3-1.3,0.3-1.7,0
								l-12.3-7.2c-0.5-0.3-0.5-0.7,0-1l17.1-10c0.5-0.3,0.9-0.5,0.9-0.5s0.5-0.3,0.9-0.5L276.4,447.7z"/>
						</g>
					</g>
				</g>
				<g>
					<g>
						<g>
							<path class="st10" d="M299.8,433.9c0.5-0.3,1.3-0.3,1.7,0l12.3,7.2c0.5,0.3,0.5,0.7,0,1l-19.6,11.6c-0.5,0.3-1.3,0.3-1.7,0
								l-12.3-7.2c-0.5-0.3-0.5-0.7,0-1L299.8,433.9z"/>
						</g>
					</g>
				</g>
				<g>
					<g>
						<g>
							<path class="st10" d="M323.3,420c0.5-0.3,1.3-0.3,1.7,0l12.3,7.2c0.5,0.3,0.5,0.7,0,1l-19.6,11.6c-0.5,0.3-1.3,0.3-1.7,0
								l-12.3-7.2c-0.5-0.3-0.5-0.7,0-1L323.3,420z"/>
						</g>
					</g>
				</g>
				<g>
					<g>
						<g>
							<path class="st10" d="M346.8,406.2c0.5-0.3,1.3-0.3,1.7,0l12.3,7.2c0.5,0.3,0.5,0.7,0,1L341.2,426c-0.5,0.3-1.3,0.3-1.7,0
								l-12.3-7.2c-0.5-0.3-0.5-0.7,0-1L346.8,406.2z"/>
						</g>
					</g>
				</g>
				<g>
					<g>
						<g>
							<path class="st10" d="M387,397.9c0.5,0.3,0.5,0.7,0,1l-22.4,13.2c-0.5,0.3-1.3,0.3-1.7,0l-12.3-7.2c-0.5-0.3-0.5-0.7,0-1
								l22.7-13.4c0.5-0.3,1.2-0.3,1.7,0L387,397.9z"/>
						</g>
					</g>
				</g>
			</g>
			<g>
				<g>
					<g>
						<path class="st10" d="M143,545.3c0.5-0.3,1.3-0.3,1.7,0l12.4,7.2c0.5,0.3,0.5,0.7,0,1l-13.8,8.2c-0.5,0.3-1.3,0.3-1.7,0
							l-12.4-7.2c-0.5-0.3-0.5-0.7,0-1L143,545.3z"/>
					</g>
				</g>
				<g>
					<g>
						<path class="st10" d="M162.9,533.5c0.5-0.3,1.3-0.3,1.7,0l12.3,7.2c0.5,0.3,0.5,0.7,0,1l-16.1,9.5c-0.5,0.3-1.3,0.3-1.7,0
							l-12.3-7.2c-0.5-0.3-0.5-0.7,0-1L162.9,533.5z"/>
					</g>
				</g>
				<g>
					<g>
						<path class="st10" d="M182.7,521.8c0.5-0.3,1.3-0.3,1.7,0l12.4,7.2c0.5,0.3,0.5,0.7,0,1l-16.1,9.5c-0.5,0.3-1.3,0.3-1.7,0
							l-12.4-7.2c-0.5-0.3-0.5-0.7,0-1L182.7,521.8z"/>
					</g>
				</g>
				<g>
					<g>
						<path class="st10" d="M202.6,510.1c0.5-0.3,1.3-0.3,1.7,0l12.4,7.2c0.5,0.3,0.5,0.7,0,1l-16.1,9.4c-0.5,0.3-1.3,0.3-1.7,0
							l-12.4-7.2c-0.5-0.3-0.5-0.7,0-1L202.6,510.1z"/>
					</g>
				</g>
				<g>
					<g>
						<path class="st10" d="M292,457.4c0.5-0.3,1.3-0.3,1.7,0l12.4,7.2c0.5,0.3,0.5,0.7,0,1L220.5,516c-0.5,0.3-1.3,0.3-1.7,0
							l-12.4-7.2c-0.5-0.3-0.5-0.7,0-1L292,457.4z"/>
					</g>
				</g>
				<g>
					<g>
						<path class="st10" d="M311.8,445.7c0.5-0.3,1.3-0.3,1.7,0l12.4,7.2c0.5,0.3,0.5,0.7,0,1l-16.1,9.5c-0.5,0.3-1.3,0.3-1.7,0
							l-12.4-7.2c-0.5-0.3-0.5-0.7,0-1L311.8,445.7z"/>
					</g>
				</g>
				<g>
					<g>
						<path class="st10" d="M331.2,434.3c0.5-0.3,1.3-0.3,1.7,0l12.4,7.2c0.5,0.3,0.5,0.7,0,1l-15.6,9.1c-0.5,0.3-1.3,0.3-1.7,0
							l-12.4-7.2c-0.5-0.3-0.5-0.7,0-1L331.2,434.3z"/>
					</g>
				</g>
				<g>
					<g>
						<path class="st10" d="M350.4,422.9c0.5-0.3,1.3-0.3,1.7,0l12.4,7.2c0.5,0.3,0.5,0.7,0,1l-15.6,9.1c-0.5,0.3-1.3,0.3-1.7,0
							l-12.4-7.2c-0.5-0.3-0.5-0.7,0-1L350.4,422.9z"/>
					</g>
				</g>
				<g>
					<g>
						<path class="st10" d="M376.4,414.3l-17.2,10.2l-4.9-2.9c-0.5-0.3-0.5-0.7,0-1l15.6-9.1c0.5-0.3,1.3-0.3,1.7,0L376.4,414.3z"/>
						<path class="st10" d="M383.8,419.7l-15.6,9.1c-0.5,0.3-0.9,0.5-0.9,0.5s-0.4-0.2-0.9-0.5l-5.4-3.1l17.2-10.2l5.5,3.2
							C384.4,418.9,384.4,419.4,383.8,419.7z"/>
					</g>
				</g>
				<g>
					<g>
						<path class="st10" d="M402.8,407.5c0.5,0.3,0.5,0.7,0,1l-15.1,8.9c-0.5,0.3-1.3,0.3-1.7,0l-12.4-7.2c-0.5-0.3-0.5-0.7,0-1
							l15.4-9.1c0.5-0.3,1.2-0.3,1.7,0L402.8,407.5z"/>
					</g>
				</g>
			</g>
		</g>
		<g>
			<g>
				<g>
					<g>
						<line class="st11" x1="159" y1="479.3" x2="156.9" y2="480.5"/>
					</g>
				</g>
			</g>
		</g>
		<g>
			<g>
				<g>
					<g>
						<line class="st11" x1="176.7" y1="468.8" x2="174.6" y2="470"/>
					</g>
				</g>
			</g>
		</g>
		<g>
			<g>
				<g>
					<g>
						<line class="st11" x1="212.3" y1="447.9" x2="210.2" y2="449.1"/>
					</g>
				</g>
			</g>
			<g>
				<g>
					<g>
						<line class="st11" x1="226.6" y1="455.8" x2="224.6" y2="457.1"/>
					</g>
				</g>
			</g>
		</g>
		<g>
			<g>
				<g>
					<g>
						<path class="st12" d="M322.9,382"/>
					</g>
				</g>
			</g>
		</g>
		<g>
			<g>
				<g>
					<g>
						<path class="st12" d="M298.2,368"/>
					</g>
				</g>
			</g>
		</g>
		<g>
			<g>
				<g>
					<polygon class="st13" points="274.9,448.6 274.8,448.8 274.7,448.7 					"/>
				</g>
			</g>
		</g>
		<g>
			<g>
				<path class="st12" d="M377.3,394.3"/>
			</g>
		</g>
		<g>
			<g>
				<path class="st12" d="M356.4,382.2"/>
			</g>
		</g>
		<g>
			<line class="st11" x1="185.6" y1="520.1" x2="183.5" y2="521.3"/>
		</g>
	</g>
	<g>
		<path class="st14" d="M329.6,462.3c-0.5-0.3-1.3-0.3-1.7,0l-86.1,50.2c-0.5,0.3-0.5,0.7,0,1l62.7,36.3c0.5,0.3,1.3,0.3,1.7,0
			l86.3-50.1c0.5-0.3,0.5-0.7,0-1L329.6,462.3z"/>
	</g>
	<polygon class="st15" points="245.5,363.7 248.1,365.2 245.6,366.6 	"/>
	<polygon class="st16" points="35.1,507.9 35.1,510.9 27.9,506.9 27.9,503.8 	"/>
	<path class="st17" d="M588.1,331.8c0,2.2-1.1,4.2-2.9,5.3c-0.3,0.3-0.6,0.5-1,0.8l-37,21.4c-3,1.6-7.7,1.6-10.6,0l-95.7-54.9
		c-0.2-0.1-0.5-0.3-0.6-0.4c-1.8-1.1-3-3.1-3-5.4c0-2.2,1.2-4.2,2.9-5.3c0.3-0.3,0.6-0.5,1-0.8l37-21.4c3-1.6,7.7-1.6,10.6,0
		l95.7,54.9c0.2,0.1,0.5,0.3,0.6,0.4C586.9,327.5,588.1,329.5,588.1,331.8z"/>
	
		<linearGradient id="SVGID_2_" gradientUnits="userSpaceOnUse" x1="8.325" y1="341.9678" x2="153.4877" y2="341.9678" gradientTransform="matrix(1 0 0 1 431 -29.1053)">
		<stop  offset="0" style="stop-color:#55C3FF"/>
		<stop  offset="0.99" style="stop-color:#03FFAA"/>
	</linearGradient>
	<path class="st18" d="M582.4,332.4l-36.4,21c-2.9,1.6-7.5,1.6-10.5,0l-94-54c-2.9-1.7-2.9-4.3,0-6l7.6-4.4l1.4,0.8
		c1.5,0.9,3.9,0.8,5.4,0l19-11c1.5-0.9,1.5-2.3,0-3.1l-1.4-0.8l4.4-2.5c2.9-1.7,7.5-1.7,10.5,0l93.9,54.1
		C585.2,328,585.2,330.7,582.4,332.4z"/>
	<path class="st17" d="M475,278.8l-19,11c-1.5,0.9-3.9,0.9-5.4,0l-1.4-0.8l24.4-14.1l1.4,0.8C476.5,276.5,476.5,277.9,475,278.8z"/>
	<g class="st0">
		<path class="st1" d="M488,349.1c-3-1.6-7.7-1.6-10.6,0l-39.3,22.6c-3,1.6-3,4.4,0,6.1l100.4,57.6c3,1.6,7.7,1.6,10.6,0l39.2-22.6
			c3-1.6,3-4.4,0-6.1L488,349.1z"/>
	</g>
	<g>
		<g>
			<line class="st19" x1="395.3" y1="384.4" x2="400.7" y2="381.4"/>
			<line class="st20" x1="411.3" y1="375.3" x2="465.2" y2="344.7"/>
			<line class="st19" x1="470.5" y1="341.8" x2="475.8" y2="338.7"/>
		</g>
	</g>
	<g>
		<g>
			<line class="st19" x1="552.8" y1="293.4" x2="558.3" y2="290.3"/>
			<line class="st20" x1="568.8" y1="284.3" x2="622.7" y2="253.7"/>
			<polyline class="st19" points="628,250.7 633.4,247.7 633.4,241.5 			"/>
			<line class="st21" x1="633.4" y1="229" x2="633.4" y2="165.6"/>
			<line class="st19" x1="633.4" y1="159.4" x2="633.4" y2="153.2"/>
		</g>
	</g>
	<circle class="st22" cx="631.8" cy="125.2" r="7.7"/>
	<g>
		<circle class="st23" cx="631.8" cy="125.2" r="23.5"/>
		<path class="st24" d="M591.3,132.2c-0.7-4-0.9-8.1-0.4-12.2c2.3-20.4,19.6-36.2,40.7-36.2c22.9,0,41.4,18.5,41.4,41.4
			s-18.5,41.4-41.4,41.4C611.2,166.6,594.2,151.6,591.3,132.2"/>
		<path class="st25" d="M574.5,139c-1.4-5.8-2-11.9-1.7-18c1.8-30.7,27.4-55.1,58.7-55.1c32.7,0,59.2,26.5,59.2,59.2
			s-26.5,59.2-59.2,59.2C603.7,184.4,580.4,165,574.5,139"/>
		<path class="st26" d="M557.9,146c-2.1-7.6-3.3-15.7-3-23.9C556.2,81,590.1,48,631.6,48c42.6,0,77.1,34.6,77.1,77.1
			s-34.5,77.2-77.1,77.2C596.3,202.3,566.6,178.4,557.9,146"/>
		<path class="st27" d="M541.2,152.9c-3-9.4-4.4-19.4-4.2-29.8c0.9-51.5,43-92.9,94.7-92.9c52.5,0,95,42.6,95,95s-42.6,95-95,95
			C588.9,220.2,552.7,191.8,541.2,152.9"/>
		<path class="st28" d="M524.5,159.9c-3.7-11.3-5.6-23.2-5.5-35.7c0.4-61.9,50.7-111.8,112.7-111.8c62.3,0,112.8,50.5,112.8,112.8
			S694,238,631.7,238C581.5,238,538.9,205.2,524.5,159.9"/>
		<path class="st29" d="M507.8,166.7c-4.4-13.1-6.8-27-6.8-41.5C501.1,53,559.6-5.5,631.8-5.5S762.6,53,762.6,125.2
			s-58.5,130.7-130.7,130.7C574.1,255.9,525.2,218.6,507.8,166.7"/>
	</g>
</g>
</svg>
