<?xml version="1.0" encoding="utf-8"?>
<!-- Generator: Adobe Illustrator 22.0.1, SVG Export Plug-In . SVG Version: 6.00 Build 0)  -->
<svg version="1.1" id="Calque_1" xmlns="http://www.w3.org/2000/svg" xmlns:xlink="http://www.w3.org/1999/xlink" x="0px" y="0px"
	 viewBox="0 0 1280 1024" style="enable-background:new 0 0 1280 1024;" xml:space="preserve">
<style type="text/css">
	.st0{fill:none;stroke:url(#SVGID_1_);stroke-width:90;stroke-linecap:round;stroke-miterlimit:10;}
	.st1{fill:none;stroke:url(#SVGID_2_);stroke-width:90;stroke-linecap:round;stroke-miterlimit:10;}
	.st2{fill:url(#SVGID_3_);stroke:url(#SVGID_4_);stroke-miterlimit:10;}
	.st3{fill:url(#SVGID_5_);stroke:url(#SVGID_6_);stroke-miterlimit:10;}
	.st4{fill:url(#SVGID_7_);stroke:url(#SVGID_8_);stroke-miterlimit:10;}
</style>
<linearGradient id="SVGID_1_" gradientUnits="userSpaceOnUse" x1="167.8155" y1="508.7627" x2="1127.8156" y2="508.7627">
	<stop  offset="0" style="stop-color:#FF1563"/>
	<stop  offset="1" style="stop-color:#FF0900"/>
</linearGradient>
<path class="st0" d="M1082.3,488.2c5.6,118.1-36.8,238-126.9,328.2c-169.9,169.9-445.3,169.9-615.2,0s-169.9-445.3,0-615.2
	C488.5,52.9,717.1,34,885.9,144.6"/>
<linearGradient id="SVGID_2_" gradientUnits="userSpaceOnUse" x1="391.823" y1="759.7552" x2="883.3335" y2="268.2448" gradientTransform="matrix(0.7071 0.7071 -0.7071 0.7071 550.1952 -300.2888)">
	<stop  offset="0" style="stop-color:#FF1563"/>
	<stop  offset="1" style="stop-color:#FF0900"/>
</linearGradient>
<path class="st1" d="M867,719.7c-55.9,61.5-136.6,100-226.2,100C471.9,819.8,335,682.9,335,514s136.9-305.8,305.8-305.8
	c147.4,0,270.4,104.3,299.3,243.1"/>
<g>
	<linearGradient id="SVGID_3_" gradientUnits="userSpaceOnUse" x1="528.7769" y1="508.1479" x2="595.7007" y2="508.1479">
		<stop  offset="0" style="stop-color:#FF1563"/>
		<stop  offset="1" style="stop-color:#FF0900"/>
	</linearGradient>
	<linearGradient id="SVGID_4_" gradientUnits="userSpaceOnUse" x1="528.2769" y1="508.1479" x2="596.2007" y2="508.1479">
		<stop  offset="0" style="stop-color:#FF1563"/>
		<stop  offset="1" style="stop-color:#FF0900"/>
	</linearGradient>
	<path class="st2" d="M530.7,534.4l18.6-2.1c0.5,3.8,1.6,6.6,3.6,8.4c1.9,1.8,4.4,2.7,7.6,2.7c4,0,7.3-1.8,10.1-5.5
		c2.8-3.6,4.6-11.2,5.3-22.7c-4.8,5.6-10.9,8.4-18.1,8.4c-7.9,0-14.7-3-20.4-9.1c-5.7-6.1-8.6-14-8.6-23.8c0-10.2,3-18.4,9.1-24.6
		c6-6.2,13.7-9.3,23.1-9.3c10.2,0,18.5,3.9,25,11.8c6.5,7.9,9.8,20.8,9.8,38.8c0,18.3-3.4,31.5-10.2,39.6
		c-6.8,8.1-15.6,12.2-26.5,12.2c-7.8,0-14.2-2.1-19-6.3C535.2,548.9,532.1,542.7,530.7,534.4z M574.2,492.4c0-6.2-1.4-11-4.3-14.4
		c-2.8-3.4-6.1-5.1-9.9-5.1c-3.6,0-6.5,1.4-8.9,4.2c-2.3,2.8-3.5,7.4-3.5,13.8c0,6.5,1.3,11.2,3.8,14.3c2.6,3,5.7,4.5,9.6,4.5
		c3.7,0,6.8-1.5,9.3-4.4C572.9,502.4,574.2,498.1,574.2,492.4z"/>
	<linearGradient id="SVGID_5_" gradientUnits="userSpaceOnUse" x1="607.8687" y1="508.1479" x2="673.7671" y2="508.1479">
		<stop  offset="0" style="stop-color:#FF1563"/>
		<stop  offset="1" style="stop-color:#FF0900"/>
	</linearGradient>
	<linearGradient id="SVGID_6_" gradientUnits="userSpaceOnUse" x1="607.3687" y1="508.1479" x2="674.2671" y2="508.1479">
		<stop  offset="0" style="stop-color:#FF1563"/>
		<stop  offset="1" style="stop-color:#FF0900"/>
	</linearGradient>
	<path class="st3" d="M624.6,503.5c-5-2.1-8.6-5-10.8-8.6c-2.3-3.7-3.4-7.7-3.4-12.1c0-7.5,2.6-13.6,7.8-18.5
		c5.2-4.9,12.6-7.3,22.3-7.3c9.5,0,16.9,2.4,22.2,7.3c5.3,4.9,7.9,11.1,7.9,18.5c0,4.6-1.2,8.8-3.6,12.4c-2.4,3.6-5.8,6.4-10.2,8.3
		c5.6,2.2,9.8,5.5,12.7,9.8c2.9,4.3,4.3,9.2,4.3,14.8c0,9.3-3,16.8-8.9,22.6c-5.9,5.8-13.8,8.7-23.5,8.7c-9.1,0-16.7-2.4-22.8-7.2
		c-7.2-5.7-10.7-13.4-10.7-23.2c0-5.4,1.3-10.4,4-14.9C614.6,509.5,618.8,506,624.6,503.5z M626.8,527.1c0,5.3,1.4,9.4,4.1,12.4
		c2.7,3,6.1,4.4,10.2,4.4c4,0,7.2-1.4,9.8-4.3c2.6-2.8,3.9-7,3.9-12.3c0-4.7-1.3-8.5-4-11.3c-2.6-2.8-6-4.3-10-4.3
		c-4.7,0-8.2,1.6-10.5,4.9C628,519.8,626.8,523.3,626.8,527.1z M628.6,484.2c0,3.8,1.1,6.8,3.2,9c2.2,2.1,5,3.2,8.6,3.2
		c3.6,0,6.6-1.1,8.8-3.2c2.2-2.2,3.3-5.2,3.3-9c0-3.6-1.1-6.5-3.2-8.6c-2.2-2.2-5-3.2-8.6-3.2c-3.7,0-6.6,1.1-8.8,3.3
		S628.6,480.6,628.6,484.2z"/>
	<linearGradient id="SVGID_7_" gradientUnits="userSpaceOnUse" x1="686.1401" y1="508.6265" x2="797.9761" y2="508.6265">
		<stop  offset="0" style="stop-color:#FF1563"/>
		<stop  offset="1" style="stop-color:#FF0900"/>
	</linearGradient>
	<linearGradient id="SVGID_8_" gradientUnits="userSpaceOnUse" x1="685.6401" y1="508.6265" x2="798.4761" y2="508.6265">
		<stop  offset="0" style="stop-color:#FF1563"/>
		<stop  offset="1" style="stop-color:#FF0900"/>
	</linearGradient>
	<path class="st4" d="M686.1,482.1c0-9,2-15.6,5.9-20c3.9-4.3,9.3-6.5,16-6.5c7,0,12.4,2.2,16.4,6.5c3.9,4.3,5.9,11,5.9,20
		c0,9-2,15.6-5.9,20c-3.9,4.3-9.3,6.5-16,6.5c-7,0-12.4-2.2-16.4-6.5C688.1,497.8,686.1,491.1,686.1,482.1z M701.1,482
		c0,6.5,0.8,10.9,2.3,13.1c1.1,1.6,2.7,2.5,4.7,2.5c2.1,0,3.6-0.8,4.8-2.5c1.5-2.2,2.2-6.6,2.2-13.1c0-6.5-0.7-10.9-2.2-13.1
		c-1.1-1.7-2.7-2.5-4.8-2.5c-2,0-3.6,0.8-4.7,2.5C701.9,471.1,701.1,475.4,701.1,482z M722.7,561.4h-14.2l53.4-105.8h13.8
		L722.7,561.4z M753.7,535.1c0-9,2-15.6,5.9-20c3.9-4.3,9.3-6.5,16.2-6.5c6.9,0,12.3,2.2,16.2,6.5c3.9,4.3,5.9,11,5.9,20
		c0,9-2,15.7-5.9,20c-3.9,4.3-9.3,6.5-16,6.5c-7,0-12.4-2.2-16.4-6.5C755.7,550.8,753.7,544.1,753.7,535.1z M768.7,535
		c0,6.5,0.8,10.9,2.3,13.1c1.1,1.7,2.7,2.5,4.7,2.5c2.1,0,3.6-0.8,4.7-2.5c1.5-2.2,2.3-6.6,2.3-13.1c0-6.5-0.7-10.9-2.2-13.1
		c-1.1-1.6-2.7-2.5-4.8-2.5s-3.6,0.8-4.7,2.5C769.5,524.1,768.7,528.5,768.7,535z"/>
</g>
</svg>
