<?xml version="1.0" encoding="utf-8"?>
<!-- Generator: Adobe Illustrator 22.0.1, SVG Export Plug-In . SVG Version: 6.00 Build 0)  -->
<svg version="1.1" id="Calque_1" xmlns="http://www.w3.org/2000/svg" xmlns:xlink="http://www.w3.org/1999/xlink" x="0px" y="0px"
	 viewBox="0 0 468 445" style="enable-background:new 0 0 468 445;" xml:space="preserve">
<style type="text/css">
	.st0{opacity:0.28;filter:url(#AI_FlouGaussien_4);}
	.st1{fill:#23263D;}
	.st2{fill:#8E8E8E;}
	.st3{fill:#F4F4F4;stroke:#C9C9C9;stroke-width:2;stroke-miterlimit:10;}
	.st4{fill:#491370;stroke:#1F2133;stroke-width:2;stroke-miterlimit:10;}
	.st5{fill:none;stroke:#B2B2B2;stroke-width:2;stroke-miterlimit:10;}
	.st6{fill:#17181E;}
	.st7{fill:none;stroke:url(#SVGID_1_);stroke-width:10;stroke-linecap:round;stroke-miterlimit:10;}
	.st8{fill:#F711F7;}
	.st9{fill:url(#SVGID_2_);}
	.st10{fill:url(#SVGID_3_);}
	.st11{fill:url(#SVGID_4_);}
	.st12{fill:url(#SVGID_5_);}
	.st13{fill:url(#SVGID_6_);}
	.st14{fill:url(#SVGID_7_);}
	.st15{fill:url(#SVGID_8_);}
	.st16{fill:url(#SVGID_9_);}
	.st17{fill:none;stroke:url(#SVGID_10_);stroke-width:10;stroke-linecap:round;stroke-miterlimit:10;}
	.st18{fill:none;stroke:url(#SVGID_11_);stroke-width:10;stroke-linecap:round;stroke-miterlimit:10;}
	.st19{fill:none;stroke:url(#SVGID_12_);stroke-width:10;stroke-linecap:round;stroke-miterlimit:10;}
	.st20{fill:none;stroke:url(#SVGID_13_);stroke-width:10;stroke-linecap:round;stroke-miterlimit:10;}
	.st21{fill:none;stroke:url(#SVGID_14_);stroke-width:10;stroke-linecap:round;stroke-miterlimit:10;}
	.st22{fill:none;stroke:#9210F9;stroke-width:2;stroke-miterlimit:10;}
</style>
<filter  id="AI_FlouGaussien_4">
	<feGaussianBlur  stdDeviation="4"></feGaussianBlur>
</filter>
<g>
	<g class="st0">
		<path class="st1" d="M287.5,175.3c-7.1-4.1-18.7-4.1-25.8,0L18.9,315.5c-7.1,4.1-7.1,10.8,0,15l167.2,97.4
			c7.1,4.1,18.7,4.2,25.8,0.1l243.7-140.3c7.1-4.1,7.1-10.8,0-14.9L287.5,175.3z"/>
	</g>
	<path class="st2" d="M282.5,114.6c-7.1-4.1-18.7-4.1-25.8,0L13,251.4c-7.1,4.1-7,13.9,7,21.9l161.2,94c7.1,4.1,18.7,4.2,25.8,0.1
		l237.8-136.8c13.9-8,14.1-17.8,7-21.9L282.5,114.6z"/>
	<path class="st3" d="M282.5,110.6c-7.1-4.1-18.7-4.1-25.8,0L14,250.9c-7.1,4.1-7.1,10.8,0,15l167.2,97.4c7.1,4.1,18.7,4.2,25.8,0.1
		L450.7,223c7.1-4.1,7.1-10.8,0-14.9L282.5,110.6z"/>
	<polygon class="st4" points="257.7,118.1 37.8,244.4 215.9,346.9 435.8,220.5 	"/>
	<ellipse class="st5" cx="106.5" cy="301.1" rx="12.3" ry="7"/>
</g>
<ellipse class="st6" cx="355.4" cy="164.3" rx="2.8" ry="1.7"/>
<linearGradient id="SVGID_1_" gradientUnits="userSpaceOnUse" x1="171.5" y1="-265.9" x2="171.5" y2="-149.9" gradientTransform="matrix(1 0 0 -1 0 -132)">
	<stop  offset="0" style="stop-color:#FFFFFF"/>
	<stop  offset="1" style="stop-color:#491370"/>
</linearGradient>
<line class="st7" x1="171.5" y1="22.9" x2="171.5" y2="128.9"/>
<polygon class="st8" points="226,19.9 248.1,32.4 270,19.9 248,7 "/>
<polygon class="st8" points="259.4,54.8 281.5,67.3 303.5,54.8 281.4,41.9 "/>
<g>
	<g id="XMLID_1_">
		<g>
			
				<linearGradient id="SVGID_2_" gradientUnits="userSpaceOnUse" x1="326.7794" y1="656.5919" x2="206.1128" y2="869.9252" gradientTransform="matrix(1 0 0 1 0 -578)">
				<stop  offset="1.077354e-02" style="stop-color:#9C1CA3;stop-opacity:0.99"/>
				<stop  offset="1" style="stop-color:#FFFFFF;stop-opacity:0"/>
			</linearGradient>
			<polygon class="st9" points="303.5,54.8 303.1,211.8 281.5,224.3 281.5,67.3 			"/>
		</g>
	</g>
</g>
<linearGradient id="SVGID_3_" gradientUnits="userSpaceOnUse" x1="279.4727" y1="1391.4984" x2="246.8459" y2="1050.2133" gradientTransform="matrix(1 0 0 1 0 -1156)">
	<stop  offset="1.077354e-02" style="stop-color:#491370;stop-opacity:0.99"/>
	<stop  offset="1" style="stop-color:#FFFFFF;stop-opacity:0"/>
</linearGradient>
<polygon class="st10" points="259.4,54.8 281.5,67.3 281.5,224.3 259.1,211.8 "/>
<linearGradient id="SVGID_4_" gradientUnits="userSpaceOnUse" x1="259.05" y1="1159.1025" x2="259.05" y2="1611.0005" gradientTransform="matrix(1 0 0 1 0 -1156)">
	<stop  offset="1.077354e-02" style="stop-color:#9C1CA3;stop-opacity:0.99"/>
	<stop  offset="1" style="stop-color:#FFFFFF;stop-opacity:0"/>
</linearGradient>
<polygon class="st11" points="248.1,32.4 248.1,244 269.7,231.5 270,19.9 "/>
<linearGradient id="SVGID_5_" gradientUnits="userSpaceOnUse" x1="238.7429" y1="1389.4775" x2="232.352" y2="1046.6962" gradientTransform="matrix(1 0 0 1 0 -1156)">
	<stop  offset="1.077354e-02" style="stop-color:#491370;stop-opacity:0.99"/>
	<stop  offset="1" style="stop-color:#FFFFFF;stop-opacity:0"/>
</linearGradient>
<polygon class="st12" points="226,19.9 248.1,32.4 248.1,244 225.6,231.5 "/>
<polygon class="st8" points="193.9,71.5 216,84 237.9,71.5 215.9,58.6 "/>
<linearGradient id="SVGID_6_" gradientUnits="userSpaceOnUse" x1="226.95" y1="1227.5" x2="226.95" y2="1528.0117" gradientTransform="matrix(1 0 0 1 0 -1156)">
	<stop  offset="1.077354e-02" style="stop-color:#9C1CA3;stop-opacity:0.99"/>
	<stop  offset="1" style="stop-color:#FFFFFF;stop-opacity:0"/>
</linearGradient>
<polygon class="st13" points="216,84 216,263 237.6,250.5 237.9,71.5 "/>
<linearGradient id="SVGID_7_" gradientUnits="userSpaceOnUse" x1="204.9906" y1="1390.3591" x2="203.7613" y2="1047.5203" gradientTransform="matrix(1 0 0 1 0 -1156)">
	<stop  offset="1.077354e-02" style="stop-color:#491370;stop-opacity:0.99"/>
	<stop  offset="1" style="stop-color:#FFFFFF;stop-opacity:0"/>
</linearGradient>
<polygon class="st14" points="193.9,71.5 216,84 216,263 193.5,250.5 "/>
<polygon class="st8" points="160.7,112.2 182.7,124.7 204.7,112.2 182.6,99.3 "/>
<linearGradient id="SVGID_8_" gradientUnits="userSpaceOnUse" x1="193.5" y1="1268" x2="193.5" y2="1489.1138" gradientTransform="matrix(1 0 0 1 0 -1156)">
	<stop  offset="1.077354e-02" style="stop-color:#9C1CA3;stop-opacity:0.99"/>
	<stop  offset="1" style="stop-color:#FFFFFF;stop-opacity:0"/>
</linearGradient>
<polygon class="st15" points="182.5,124.5 182.5,281.5 204.1,269 204.5,112 "/>
<linearGradient id="SVGID_9_" gradientUnits="userSpaceOnUse" x1="171.5" y1="1190.2" x2="171.5" y2="1454.8613" gradientTransform="matrix(1 0 0 1 0 -1156)">
	<stop  offset="1.077354e-02" style="stop-color:#491370;stop-opacity:0.99"/>
	<stop  offset="1" style="stop-color:#FFFFFF;stop-opacity:0"/>
</linearGradient>
<polygon class="st16" points="160.7,112.2 182.7,124.7 182.7,281.7 160.3,269.2 "/>
<linearGradient id="SVGID_10_" gradientUnits="userSpaceOnUse" x1="94.2" y1="-301.6" x2="94.2" y2="-185.5" gradientTransform="matrix(1 0 0 -1 0 -132)">
	<stop  offset="0" style="stop-color:#FFFFFF"/>
	<stop  offset="1" style="stop-color:#491370"/>
</linearGradient>
<line class="st17" x1="94.2" y1="58.5" x2="94.2" y2="164.6"/>
<linearGradient id="SVGID_11_" gradientUnits="userSpaceOnUse" x1="133" y1="-367.8" x2="133" y2="-251.7" gradientTransform="matrix(1 0 0 -1 0 -132)">
	<stop  offset="0" style="stop-color:#FFFFFF"/>
	<stop  offset="1" style="stop-color:#491370"/>
</linearGradient>
<line class="st18" x1="133" y1="124.7" x2="133" y2="230.8"/>
<linearGradient id="SVGID_12_" gradientUnits="userSpaceOnUse" x1="367" y1="-274.1" x2="367" y2="-158" gradientTransform="matrix(1 0 0 -1 0 -132)">
	<stop  offset="0" style="stop-color:#FFFFFF"/>
	<stop  offset="1" style="stop-color:#491370"/>
</linearGradient>
<line class="st19" x1="367" y1="31" x2="367" y2="137.1"/>
<linearGradient id="SVGID_13_" gradientUnits="userSpaceOnUse" x1="259" y1="-412.5" x2="259" y2="-296.4" gradientTransform="matrix(1 0 0 -1 0 -132)">
	<stop  offset="0" style="stop-color:#FFFFFF"/>
	<stop  offset="1" style="stop-color:#491370"/>
</linearGradient>
<line class="st20" x1="259" y1="169.4" x2="259" y2="275.5"/>
<linearGradient id="SVGID_14_" gradientUnits="userSpaceOnUse" x1="339" y1="-356.1" x2="339" y2="-239.9" gradientTransform="matrix(1 0 0 -1 0 -132)">
	<stop  offset="0" style="stop-color:#FFFFFF"/>
	<stop  offset="1" style="stop-color:#491370"/>
</linearGradient>
<line class="st21" x1="339" y1="112.9" x2="339" y2="219.1"/>
<circle class="st22" cx="56.4" cy="94.3" r="5"/>
<circle class="st22" cx="46.3" cy="157.6" r="5"/>
<circle class="st22" cx="198.9" cy="25.9" r="5"/>
<circle class="st22" cx="400.4" cy="19.7" r="5"/>
<circle class="st22" cx="335.3" cy="71.5" r="5"/>
<circle class="st22" cx="369.3" cy="219.1" r="5"/>
<circle class="st22" cx="118.8" cy="246.2" r="5"/>
<circle class="st22" cx="41.3" cy="210.7" r="5"/>
<circle class="st22" cx="144.3" cy="97.2" r="5"/>
</svg>
