<?xml version="1.0" encoding="utf-8"?>
<!-- Generator: Adobe Illustrator 22.0.1, SVG Export Plug-In . SVG Version: 6.00 Build 0)  -->
<svg version="1.1" id="Calque_1" xmlns="http://www.w3.org/2000/svg" xmlns:xlink="http://www.w3.org/1999/xlink" x="0px" y="0px"
	 viewBox="0 0 1195.4 996" style="enable-background:new 0 0 1195.4 996;" xml:space="preserve">
<style type="text/css">
	.st0{opacity:0.43;}
	.st1{fill:#1E1E1E;}
	.st2{fill:#CECECE;}
	.st3{fill:#D2D2D2;}
	.st4{fill:#D7D7D7;}
	.st5{fill:#DBDBDB;}
	.st6{fill:#E0E0E0;}
	.st7{fill:#E4E4E4;}
	.st8{fill:#E9E9E9;}
	.st9{fill:#EDEDED;}
	.st10{fill:#F2F2F2;}
	.st11{fill:#F6F6F6;}
	.st12{fill:#FBFBFB;}
	.st13{fill:#FFFFFF;}
	.st14{fill:#F917FF;stroke:#595959;stroke-width:0.5;stroke-miterlimit:10;}
	.st15{fill:url(#SVGID_1_);}
	.st16{fill:url(#SVGID_2_);}
	.st17{fill:url(#SVGID_3_);}
	.st18{fill:url(#SVGID_4_);}
	.st19{fill:url(#SVGID_5_);}
	.st20{fill:url(#SVGID_6_);}
	.st21{fill:url(#SVGID_7_);}
	.st22{fill:url(#SVGID_8_);}
	.st23{fill:url(#SVGID_9_);}
	.st24{fill:url(#SVGID_10_);}
	.st25{fill:url(#SVGID_11_);}
	.st26{fill:url(#SVGID_12_);}
	.st27{fill:url(#SVGID_13_);}
	.st28{fill:url(#SVGID_14_);}
	.st29{fill:url(#SVGID_15_);}
	.st30{fill:url(#SVGID_16_);}
	.st31{fill:url(#SVGID_17_);}
	.st32{fill:url(#SVGID_18_);}
	.st33{fill:url(#SVGID_19_);}
	.st34{fill:url(#SVGID_20_);}
	.st35{fill:url(#SVGID_21_);}
	.st36{fill:url(#SVGID_22_);}
	.st37{fill:url(#SVGID_23_);}
	.st38{fill:url(#SVGID_24_);}
	.st39{fill:url(#SVGID_25_);}
	.st40{fill:url(#SVGID_26_);}
	.st41{fill:url(#SVGID_27_);}
	.st42{fill:url(#SVGID_28_);}
	.st43{fill:url(#SVGID_29_);}
	.st44{fill:url(#SVGID_30_);}
	.st45{fill:url(#SVGID_31_);}
	.st46{fill:url(#SVGID_32_);}
	.st47{fill:url(#SVGID_33_);}
	.st48{fill:url(#SVGID_34_);}
	.st49{fill:url(#SVGID_35_);}
	.st50{fill:url(#SVGID_36_);}
</style>
<g id="leftTopIphone">
	<g class="st0">
		<path class="st1" d="M1048,280.8c0,0.6,0,1,0,1.4s0,0.8,0,1.2c-0.2,1.7-0.4,3.5-1,5.2c0,0.4-0.2,0.6-0.2,1c0,0.2-0.2,0.4-0.2,0.6
			c-0.6,1.7-1.4,3.5-2.1,5.2c-0.2,0.4-0.4,1-0.8,1.4c-0.6,1-1.2,1.7-1.8,2.7c-0.2,0.2-0.4,0.6-0.6,0.8c-0.4,0.4-0.6,0.8-1,1.2
			c-0.4,0.4-0.6,0.8-1,1.2c-0.2,0.2-0.2,0.2-0.4,0.4c-0.8,0.8-1.6,1.6-2.5,2.3c-0.4,0.4-1,0.8-1.4,1l0,0c-0.8,0.8-1.6,1.6-2.5,2.1
			L700.9,577.3c-11.1,8.9-29.4,12.1-40.6,7l-174.6-77.6c-2.5-1.2-4.5-2.7-5.8-4.5c-0.6-0.4-1.4-1-1.9-1.6c-0.2-0.2-0.6-0.6-0.8-0.8
			c-0.8-1-1.6-1.9-2.3-2.9c-0.4-0.8-0.8-1.4-1.2-2.1c-0.2-0.4-0.4-0.8-0.6-1.2c-0.2-0.4-0.2-0.8-0.4-1.2c-0.2-0.6-0.4-1-0.4-1.6
			c-0.2-0.4-0.2-0.8-0.4-1.2c-0.2-0.4-0.2-0.8-0.2-1.4l0,0c0-0.2,0-0.6-0.2-0.8c0-0.2,0-0.6-0.2-0.8c0-0.4,0-0.8-0.2-1.4
			c0-0.4,0-0.8,0-1.4s0-1,0-1.6c0-0.4,0-0.8,0-1.2c0.2-1.7,0.4-3.5,1-5.2c0-0.4,0.2-0.6,0.2-1c0-0.2,0.2-0.4,0.2-0.6
			c0.6-1.7,1.4-3.5,2.1-5.2c0.2-0.4,0.4-1,0.8-1.4c0.6-1,1.2-1.7,1.7-2.7c0.2-0.2,0.4-0.6,0.6-0.8c0.4-0.4,0.6-0.8,1-1.2
			c0.4-0.4,0.6-0.8,1-1.2c0.2-0.2,0.2-0.2,0.4-0.4c0.8-0.8,1.6-1.6,2.5-2.3c0.4-0.4,1-0.8,1.4-1l0,0c0.8-0.8,1.6-1.6,2.5-2.1
			l332.1-268.5c11.1-8.9,29.4-12.1,40.6-7l174.6,77.6c2.5,1.2,4.5,2.7,5.8,4.5c0.6,0.6,1.4,1,1.9,1.6c0.2,0.2,0.6,0.6,0.8,0.8
			c0.8,1,1.6,1.9,2.3,2.9c0.4,0.8,0.8,1.4,1.2,2.1c0.2,0.4,0.4,0.8,0.6,1.2c0.2,0.4,0.2,0.8,0.4,1.2c0.2,0.6,0.4,1,0.4,1.6
			c0.2,0.4,0.2,0.8,0.4,1.2c0.2,0.4,0.2,0.8,0.2,1.4l0,0c0,0.2,0,0.6,0.2,0.8c0,0.2,0,0.6,0.2,0.8c0,0.4,0,0.8,0.2,1.4
			C1048.6,280.2,1048,280.4,1048,280.8z"/>
	</g>
	<g>
		<path class="st2" d="M1055.4,135.4c0,0.6,0,1,0,1.4s0,0.8,0,1.2c-0.2,1.7-0.4,3.5-1,5.2c0,0.4-0.2,0.6-0.2,1
			c0,0.2-0.2,0.4-0.2,0.6c-0.6,1.7-1.4,3.5-2.1,5.2c-0.2,0.4-0.4,1-0.8,1.4c-0.6,1-1.2,1.7-1.7,2.7c-0.2,0.2-0.4,0.6-0.6,0.8
			c-0.4,0.4-0.6,0.8-1,1.2s-0.6,0.8-1,1.2c-0.2,0.2-0.2,0.2-0.4,0.4c-0.8,0.8-1.6,1.6-2.5,2.3c-0.4,0.4-1,0.8-1.4,1l0,0
			c-0.8,0.8-1.6,1.6-2.5,2.1L708.1,431.7c-11.1,8.9-29.4,12.1-40.6,7l-174.6-77.6c-2.5-1.2-4.5-2.7-5.8-4.5c-0.6-0.4-1.4-1-1.9-1.6
			c-0.2-0.2-0.6-0.6-0.8-0.8c-0.8-1-1.6-1.9-2.3-2.9c-0.4-0.8-0.8-1.4-1.2-2.1c-0.2-0.4-0.4-0.8-0.6-1.2c-0.2-0.4-0.2-0.8-0.4-1.2
			c-0.2-0.6-0.4-1-0.4-1.6c-0.2-0.4-0.2-0.8-0.4-1.2c-0.2-0.4-0.2-0.8-0.2-1.4l0,0c0-0.2,0-0.6-0.2-0.8c0-0.2,0-0.6-0.2-0.8
			c0-0.4,0-0.8-0.2-1.4c0-0.4,0-0.8,0-1.4s0-1,0-1.6c0-0.4,0-0.8,0-1.2c0.2-1.7,0.4-3.5,1-5.2c0-0.4,0.2-0.6,0.2-1
			c0-0.2,0.2-0.4,0.2-0.6c0.6-1.7,1.4-3.5,2.1-5.2c0.2-0.4,0.4-1,0.8-1.4c0.6-1,1.2-1.7,1.7-2.7c0.2-0.2,0.4-0.6,0.6-0.8
			c0.4-0.4,0.6-0.8,1-1.2c0.4-0.4,0.6-0.8,1-1.2c0.2-0.2,0.2-0.2,0.4-0.4c0.8-0.8,1.6-1.6,2.5-2.3c0.4-0.4,1-0.8,1.4-1l0,0
			c0.8-0.8,1.6-1.6,2.5-2.1L825.8,42.4c11.1-8.9,29.4-12.1,40.6-7L1041,113c3.5,1.7,7.2,5.4,7.8,6c0.2,0.2,0.6,0.6,0.8,0.8
			c0.8,1,1.6,1.9,2.3,2.9c0.4,0.8,0.8,1.4,1.2,2.1c0.2,0.4,0.4,0.8,0.6,1.2c0.2,0.4,0.2,0.8,0.4,1.2c0.2,0.6,0.4,1,0.4,1.6
			c0.2,0.4,0.2,0.8,0.4,1.2c0.2,0.4,0.2,0.8,0.2,1.4l0,0c0,0.2,0,0.6,0.2,0.8c0,0.2,0,0.6,0.2,0.8c0,0.4,0,0.8,0.2,1.4
			C1055.8,134.8,1055.4,134.8,1055.4,135.4z"/>
		<path class="st3" d="M825,42.6c11.1-8.9,29.4-12.1,40.4-7L1040,113c3.5,1.6,7,5.2,7.8,6c0.2,0.2,0.6,0.6,0.8,0.8
			c0.8,1,1.6,1.9,2.1,2.9c0.4,0.8,0.8,1.4,1.2,2.1c0.2,0.4,0.4,0.8,0.4,1.2c0.2,0.4,0.2,0.8,0.4,1c0.2,0.6,0.2,1,0.4,1.6
			c0,0.4,0.2,0.8,0.2,1.2s0.2,0.8,0.2,1.4l0,0c0,0.2,0,0.6,0,0.8s0,0.6,0,0.8c0,0.4,0,0.8,0,1.2s0,0.8,0,1.4c0,0.4,0,1-0.2,1.4
			c0,0.4-0.2,1-0.4,1.4c-0.2,1.6-0.8,3.5-1.2,5.1c0,0.2-0.2,0.6-0.2,1c0,0.2-0.2,0.4-0.2,0.4c-0.4,1.6-1.6,3.5-2.3,5.1
			c-0.2,0.4-0.6,1-0.8,1.2c-0.6,0.8-1.2,1.7-1.7,2.5c-0.2,0.2-0.4,0.6-0.6,0.8c-0.2,0.4-0.6,0.8-1,1.2c-0.2,0.4-0.6,0.8-1,1
			c-0.2,0.2-0.2,0.2-0.4,0.4c-0.8,0.8-1.7,1.6-2.5,2.3c-0.4,0.4-1,0.8-1.4,1l0,0c-0.6,0.8-1.6,1.6-2.5,2.1L707.5,429.7
			c-11.1,8.9-29.4,12.1-40.4,7l-174.6-77.4c-2.5-1.2-4.5-2.7-5.8-4.3c-0.6-0.6-1.2-1-1.7-1.6c-0.2-0.2-0.6-0.6-0.8-0.8
			c-0.8-1-1.6-1.9-2.1-2.9c-0.4-0.8-0.8-1.4-1.2-2.1c-0.2-0.4-0.4-0.8-0.4-1.2c-0.2-0.4-0.2-0.8-0.4-1c-0.2-0.6-0.2-1-0.4-1.6
			c0-0.4-0.2-0.8-0.2-1.2c0-0.4-0.2-0.8-0.2-1.4l0,0c0-0.2,0-0.6,0-0.8c0-0.2,0-0.6,0-0.8c0-0.4,0-0.8,0-1.2c0-0.4,0-0.8,0-1.4
			c0-0.4,0-1,0.2-1.4c0-0.4,0.2-1,0.4-1.4c0.2-1.6,0.8-3.5,1.2-5.1c0-0.2,0.2-0.6,0.2-1c0-0.2,0.2-0.4,0.2-0.4
			c0.6-1.7,1.6-3.5,2.3-5.1c0.2-0.4,0.6-1,0.8-1.2c0.6-0.8,1.2-1.7,1.7-2.5c0.2-0.2,0.4-0.6,0.6-0.8c0.2-0.4,0.6-0.8,1-1.2
			c0.2-0.4,0.6-0.8,1-1c0.2-0.2,0.2-0.2,0.4-0.4c0.8-0.8,1.7-1.6,2.5-2.3c0.4-0.4,1-0.8,1.4-1l0,0c0.6-0.8,1.6-1.6,2.5-2.1L825,42.6
			z"/>
		<path class="st4" d="M824.2,43c11.1-8.9,29.4-12.1,40.4-7l174.4,77.4c3.5,1.6,6.8,5.1,7.6,6c0.2,0.2,0.4,0.6,0.8,0.8
			c0.8,1,1.4,1.9,1.9,2.9c0.4,0.8,0.8,1.4,1,2.1c0.2,0.4,0.2,0.8,0.4,1.2c0.2,0.4,0.2,0.8,0.4,1c0.2,0.6,0.2,1,0.4,1.6
			c0,0.4,0.2,0.8,0.2,1.2s0,0.8,0.2,1.2l0,0c0,0.2,0,0.6,0,0.8s0,0.6,0,0.8c0,0.4,0,0.8,0,1.2s0,0.8,0,1.2s0,1-0.2,1.4
			c-0.2,0.6-0.4,1.2-0.8,1.6c-0.2,1.4-1,3.3-1.4,4.9c0,0.2-0.2,0.6-0.4,0.8c0,0.2-0.2,0.4-0.2,0.4c-0.4,1.6-1.8,3.5-2.5,4.9
			c-0.2,0.4-0.6,0.8-0.8,1.2c-0.4,0.8-1.4,1.7-1.8,2.5c-0.2,0.2-0.4,0.6-0.6,0.8c-0.2,0.4-0.8,0.8-1,1.2s-0.8,0.8-1,1
			c0,0.2-0.2,0.2-0.4,0.4c-0.6,0.6-1.7,1.6-2.5,2.1c-0.4,0.4-1,0.8-1.4,1l0,0c-0.6,0.6-1.8,1.6-2.3,2.1l-328,266.4
			c-11.1,8.9-29.4,12.1-40.4,7l-174.4-77.4c-2.5-1.2-4.5-2.5-5.8-4.3c-0.6-0.6-1.2-1-1.7-1.7c-0.2-0.2-0.4-0.6-0.8-0.8
			c-0.8-1-1.4-1.9-1.9-2.9c-0.4-0.8-0.8-1.4-1-2.1c-0.2-0.4-0.2-0.8-0.4-1.2c-0.2-0.4-0.2-0.8-0.4-1c-0.2-0.6-0.2-1-0.4-1.6
			c0-0.4-0.2-0.8-0.2-1.2c0-0.4,0-0.8-0.2-1.2l0,0c0-0.2,0-0.6,0-0.8s0-0.6,0-0.8c0-0.4,0-0.8,0-1.2c0-0.4,0-0.8,0-1.2
			c0-0.4,0-1,0.2-1.4c0.2-0.6,0.4-1.2,0.8-1.6c0.2-1.4,1-3.3,1.4-4.9c0-0.2,0.2-0.6,0.4-0.8c0-0.2,0.2-0.4,0.2-0.4
			c0.4-1.6,1.7-3.5,2.5-4.9c0.2-0.4,0.6-0.8,0.8-1.2c0.4-0.8,1.4-1.7,1.7-2.5c0.2-0.2,0.4-0.6,0.6-0.8c0.2-0.4,0.8-0.8,1-1.2
			c0.2-0.4,0.8-0.8,1-1c0-0.2,0.2-0.2,0.4-0.4c0.6-0.6,1.7-1.6,2.5-2.1c0.4-0.4,1-0.8,1.4-1l0,0c0.6-0.6,1.7-1.6,2.3-2.1L824.2,43z"
			/>
		<path class="st5" d="M823.4,43.4c11.1-8.9,29.2-12.1,40.4-7l174.2,77.4c3.5,1.6,6.8,4.9,7.6,6c0.2,0.2,0.4,0.6,0.8,0.8
			c0.8,1,1.4,1.9,1.9,3.1c0.4,0.8,0.6,1.4,1,2.1c0.2,0.4,0.2,0.8,0.4,1.2c0,0.4,0.2,0.8,0.2,1c0.2,0.6,0.2,1,0.2,1.6
			c0,0.4,0,0.8,0.2,1.2c0,0.4,0,0.8,0,1.2l0,0c0,0.2,0,0.6,0,0.8s0,0.6,0,0.8c0,0.4,0,0.8-0.2,1.2c0,0.4,0,0.8-0.2,1.2
			c0,0.4-0.2,1-0.2,1.4c-0.2,0.6-0.6,1.2-1,1.7c-0.2,1.4-1.4,3.3-1.7,4.7c0,0.2-0.4,0.6-0.4,0.8s-0.2,0.4-0.2,0.4
			c-0.4,1.4-2.1,3.5-2.7,4.7c-0.2,0.4-0.6,0.8-0.8,1.2c-0.4,0.6-1.4,1.7-1.9,2.3c-0.2,0.2-0.6,0.6-0.6,0.8c-0.2,0.4-0.8,0.8-1,1
			s-0.8,0.8-1,1c0,0.2-0.2,0.2-0.4,0.4c-0.6,0.6-1.8,1.7-2.5,2.1c-0.4,0.2-1,0.8-1.4,1l0,0c-0.6,0.6-1.8,1.6-2.3,2.1L706.2,425.5
			c-11.1,8.9-29.2,12.1-40.4,7l-174.2-77.4c-2.5-1.2-4.5-2.5-5.8-4.3c-0.6-0.6-1.2-1.2-1.7-1.7c-0.2-0.2-0.4-0.6-0.6-0.8
			c-0.8-1-1.4-1.9-1.9-3.1c-0.4-0.8-0.6-1.4-1-2.1c-0.2-0.4-0.2-0.8-0.4-1.2c0-0.4-0.2-0.8-0.2-1c-0.2-0.6-0.2-1-0.2-1.6
			c0-0.4,0-0.8-0.2-1.2c0-0.4,0-0.8,0-1.2l0,0c0-0.2,0-0.6,0-0.8c0-0.2,0-0.6,0-0.8c0-0.4,0-0.8,0.2-1.2c0-0.4,0-0.8,0.2-1.2
			c0-0.4,0.2-1,0.2-1.4c0.2-0.6,0.6-1.2,1-1.7c0.2-1.4,1.4-3.3,1.7-4.7c0-0.2,0.4-0.6,0.4-0.8c0-0.2,0.2-0.4,0.2-0.4
			c0.4-1.4,2.1-3.5,2.7-4.7c0.2-0.4,0.6-0.8,0.8-1.2c0.4-0.6,1.4-1.7,1.9-2.3c0.2-0.2,0.6-0.6,0.6-0.8c0.2-0.2,0.8-0.8,1-1
			s0.8-0.8,1-1c0,0,0.2-0.2,0.4-0.4c0.6-0.6,1.7-1.7,2.5-2.1c0.4-0.2,1-0.8,1.4-1l0,0c0.6-0.6,1.7-1.6,2.3-2.1L823.4,43.4z"/>
		<path class="st6" d="M822.7,43.8c11.1-8.9,29.2-12.1,40.4-7l174.2,77.4c3.5,1.6,6.6,4.7,7.4,5.8c0.2,0.2,0.4,0.6,0.6,0.8
			c0.8,1,1.4,1.9,1.8,3.1c0.4,0.8,0.6,1.4,0.8,2.1c0.2,0.4,0.2,0.8,0.2,1.2c0,0.4,0.2,0.8,0.2,1c0,0.6,0.2,1,0.2,1.6
			c0,0.4,0,0.8,0,1.2s0,0.8,0,1.2l0,0c0,0.2,0,0.6,0,0.8s0,0.4,0,0.8s-0.2,0.8-0.2,1.2s-0.2,0.8-0.2,1.2s-0.2,1-0.4,1.4
			c-0.4,0.8-0.8,1.4-1.4,1.9c0,1.2-1.6,3.3-1.9,4.5c0,0.2-0.4,0.6-0.4,0.8s-0.2,0.4-0.2,0.4c-0.4,1.2-2.3,3.5-2.9,4.5
			c-0.2,0.2-0.6,0.8-0.8,1.2c-0.4,0.6-1.6,1.7-1.9,2.3c-0.2,0.2-0.6,0.6-0.6,0.8c-0.2,0.2-0.8,0.8-1,1s-0.8,0.8-1,1
			c0,0-0.2,0.2-0.4,0.4c-0.6,0.6-1.9,1.7-2.5,2.1c-0.2,0.2-1,0.8-1.4,1l0,0c-0.4,0.4-1.8,1.6-2.3,2.1L705.6,423.3
			c-11.1,8.9-29.2,12.1-40.4,7L491,352.9c-2.5-1.2-4.5-2.5-5.8-4.3c-0.6-0.6-1.2-1.2-1.7-1.7c-0.2-0.2-0.4-0.6-0.6-0.8
			c-0.8-1-1.4-1.9-1.7-3.1c-0.4-0.8-0.6-1.4-0.8-2.1c-0.2-0.4-0.2-0.8-0.2-1.2c0-0.4-0.2-0.8-0.2-1c0-0.6-0.2-1-0.2-1.6
			c0-0.4,0-0.8,0-1.2c0-0.4,0-0.8,0-1.2l0,0c0-0.2,0-0.6,0-0.8c0-0.2,0-0.4,0-0.8s0.2-0.8,0.2-1.2c0-0.4,0.2-0.8,0.2-1.2
			c0-0.4,0.2-1,0.4-1.4c0.4-0.8,0.8-1.4,1.4-1.9c0-1.2,1.6-3.3,1.9-4.5c0-0.2,0.4-0.6,0.4-0.8c0-0.2,0.2-0.4,0.2-0.4
			c0.4-1.2,2.3-3.5,2.9-4.5c0.2-0.2,0.6-0.8,0.8-1.2c0.4-0.6,1.6-1.7,1.9-2.3c0.2-0.2,0.6-0.6,0.6-0.8c0.2-0.2,0.8-0.8,1-1
			s0.8-0.8,1-1c0,0,0.2-0.2,0.4-0.4c0.6-0.6,1.9-1.7,2.5-2.1c0.2-0.2,1-0.8,1.4-1l0,0c0.4-0.4,1.7-1.6,2.3-2.1L822.7,43.8z"/>
		<path class="st7" d="M821.9,44c11.1-9,29.1-12.1,40.4-7l174,77.2c3.3,1.6,6.4,4.5,7.4,5.8c0.2,0.2,0.4,0.6,0.6,0.8
			c0.6,1,1.2,1.9,1.8,3.1c0.2,0.8,0.6,1.4,0.8,2.1c0,0.4,0.2,0.8,0.2,1.2c0,0.4,0.2,0.8,0.2,1c0,0.4,0,1,0,1.6c0,0.4,0,0.8,0,1.2
			s0,0.8,0,1.2l0,0c0,0.2,0,0.4,0,0.8c0,0.2,0,0.4-0.2,0.8c0,0.4-0.2,0.8-0.2,1.2s-0.2,0.8-0.2,1.2c-0.2,0.4-0.2,0.8-0.4,1.2
			c-0.4,0.8-1,1.6-1.8,2.1c0,1-1.9,3.3-2.1,4.3c0,0.2-0.4,0.6-0.4,0.8c0,0-0.2,0.2-0.2,0.4c-0.2,1-2.5,3.5-3.1,4.3
			c-0.2,0.2-0.8,0.8-0.8,1.2c-0.4,0.6-1.6,1.7-1.9,2.3c-0.2,0.2-0.6,0.6-0.6,0.8c-0.2,0.2-0.8,0.8-1,1s-0.8,0.8-1,1
			c0,0-0.2,0.2-0.4,0.4c-0.4,0.4-1.9,1.7-2.5,2.1c-0.2,0.2-1,0.8-1.4,1l0,0c-0.4,0.4-1.9,1.7-2.3,2.1L705,421.2
			c-11.1,8.9-29.2,12.1-40.4,7l-174-77.2c-2.5-1.2-4.5-2.5-5.8-4.3c-0.6-0.6-1.2-1.2-1.6-1.7c-0.2-0.2-0.4-0.6-0.6-0.8
			c-0.6-1-1.2-1.9-1.6-3.1c-0.2-0.8-0.6-1.4-0.8-2.1c0-0.4-0.2-0.8-0.2-1.2s-0.2-0.8-0.2-1c0-0.4,0-1,0-1.6c0-0.4,0-0.8,0-1.2
			c0-0.4,0-0.8,0-1.2l0,0c0-0.2,0-0.4,0-0.8c0-0.2,0-0.4,0.2-0.8c0-0.4,0.2-0.8,0.2-1.2s0.2-0.8,0.2-1.2c0.2-0.4,0.2-0.8,0.4-1.2
			c0.4-0.8,1-1.6,1.7-2.1c0-1,1.9-3.3,2.1-4.3c0-0.2,0.4-0.6,0.4-0.8c0,0,0.2-0.2,0.2-0.4c0.4-1,2.5-3.5,3.1-4.3
			c0.2-0.2,0.8-0.8,0.8-1.2c0.4-0.6,1.6-1.7,1.9-2.3c0.2-0.2,0.6-0.6,0.6-0.8c0.2-0.2,0.8-0.8,1-1s0.8-0.8,1-1c0,0,0.2-0.2,0.4-0.4
			c0.4-0.4,1.9-1.7,2.5-2.1c0.2-0.2,1-0.8,1.4-1l0,0c0.4-0.4,1.9-1.7,2.3-2.1L821.9,44z"/>
		<path class="st8" d="M820.9,44.4c11.1-8.9,29.2-12.1,40.4-7l174,77.4c3.3,1.6,6.2,4.3,7.4,5.8c0.2,0.2,0.4,0.6,0.6,0.8
			c0.6,1,1.2,1.9,1.6,3.1c0.2,0.8,0.4,1.6,0.6,2.1c0,0.4,0.2,0.8,0.2,1.2s0,0.8,0,1c0,0.4,0,1,0,1.4s0,0.8,0,1.2s0,0.8-0.2,1.2l0,0
			c0,0.2,0,0.4-0.2,0.8c0,0.2,0,0.4-0.2,0.8c0,0.4-0.2,0.8-0.4,1.2c-0.2,0.4-0.2,0.8-0.4,1.2c-0.2,0.4-0.2,0.8-0.4,1.2
			c-0.4,1-1.2,1.7-1.9,2.5c0,0.8-2.1,3.3-2.3,4.1c0,0.2-0.4,0.6-0.4,0.8c0,0-0.2,0.2-0.2,0.4c-0.2,0.8-2.7,3.5-3.1,4.1
			c-0.2,0.2-0.8,0.8-1,1c-0.2,0.4-1.8,1.7-1.9,2.1c0,0.2-0.6,0.6-0.6,0.8c-0.2,0.2-0.8,0.8-1,1s-0.8,0.8-1,1c0,0-0.2,0.2-0.4,0.4
			c-0.4,0.4-1.9,1.7-2.5,2.1c-0.2,0.2-1,0.8-1.4,1l0,0c-0.4,0.4-1.9,1.7-2.3,1.9L704.4,419c-11.1,8.9-29.2,12.1-40.4,7l-174-77.2
			c-2.5-1.2-4.3-2.5-5.8-4.3c-0.6-0.6-1.2-1.2-1.6-1.7c-0.2-0.2-0.4-0.6-0.6-0.8c-0.6-1-1.2-1.9-1.6-3.1c-0.2-0.8-0.4-1.6-0.6-2.1
			c0-0.4-0.2-0.8-0.2-1.2c0-0.4,0-0.8,0-1c0-0.4,0-1,0-1.4s0-0.8,0-1.2c0-0.4,0.2-0.8,0.2-1.2l0,0c0-0.2,0-0.4,0.2-0.8
			c0-0.2,0-0.4,0.2-0.8c0-0.4,0.2-0.8,0.4-1.2c0.2-0.4,0.2-0.8,0.4-1.2c0.2-0.4,0.2-0.8,0.4-1.2c0.4-1,1.2-1.6,1.9-2.3
			c0-0.8,2.1-3.3,2.3-4.1c0-0.2,0.4-0.6,0.4-0.8c0,0,0.2-0.2,0.2-0.4c0.2-0.8,2.7-3.5,3.1-4.1c0.2-0.2,0.8-0.8,1-1
			c0.2-0.4,1.7-1.7,1.9-2.1c0-0.2,0.6-0.6,0.6-0.8c0.2-0.2,0.8-0.8,1-1s0.8-0.8,1-1c0,0,0.2-0.2,0.4-0.4c0.4-0.4,1.9-1.7,2.5-2.1
			c0.2-0.2,1-0.8,1.4-1l0,0c0.4-0.4,1.9-1.7,2.3-1.9L820.9,44.4z"/>
		<path class="st9" d="M820.1,44.8c11.1-8.9,29.2-12.1,40.4-7l173.8,77.2c3.3,1.6,6.2,4.3,7.2,5.8c0.2,0.2,0.4,0.6,0.6,0.8
			c0.6,1,1.2,1.9,1.4,3.1c0.2,0.8,0.4,1.6,0.6,2.1c0,0.4,0,0.8,0.2,1.2c0,0.4,0,0.8,0,1c0,0.4,0,1,0,1.4s0,0.8-0.2,1.2
			c0,0.4-0.2,0.8-0.2,1.2l0,0c0,0.2-0.2,0.4-0.2,0.6s-0.2,0.4-0.2,0.6c-0.2,0.4-0.2,0.8-0.4,1.2s-0.2,0.8-0.4,1
			c-0.2,0.4-0.4,0.8-0.6,1.2c-0.6,1-1.4,1.7-2.3,2.7c0,0.6-2.5,3.1-2.7,3.9c0,0.2-0.4,0.6-0.6,0.6c0,0-0.2,0.2-0.2,0.4
			c-0.2,0.6-3.1,3.3-3.3,4.1c0,0.2-0.8,0.8-1,1c-0.2,0.4-1.8,1.7-2.1,2.1c0,0.2-0.6,0.6-0.6,0.6c-0.2,0.2-0.8,0.8-1,1s-0.8,0.8-1,1
			c0,0-0.2,0.2-0.4,0.2c-0.2,0.4-2.1,1.7-2.3,2.1c-0.2,0.2-1.2,0.8-1.2,1l0,0c-0.2,0.2-2.1,1.7-2.3,1.9L703.9,417.1
			c-11.1,8.9-29.2,12.1-40.4,7l-173.8-77.4c-2.5-1.2-4.3-2.5-5.6-4.1c-0.6-0.6-1.2-1.2-1.6-1.7c-0.2-0.2-0.4-0.6-0.6-0.8
			c-0.6-1-1.2-1.9-1.4-3.1c-0.2-0.8-0.4-1.6-0.4-2.1c0-0.4,0-0.8-0.2-1.2c0-0.4,0-0.8,0-1c0-0.4,0-1,0-1.4s0-0.8,0.2-1.2
			c0-0.4,0.2-0.8,0.2-1.2l0,0c0-0.2,0.2-0.4,0.2-0.6s0.2-0.4,0.2-0.6c0.2-0.4,0.2-0.8,0.4-1.2c0.2-0.4,0.2-0.8,0.4-1
			c0.2-0.4,0.4-0.8,0.6-1.2c0.6-1,1.4-1.7,2.3-2.7c0-0.6,2.5-3.1,2.7-3.9c0-0.2,0.4-0.6,0.6-0.6c0,0,0.2-0.2,0.2-0.4
			c0.2-0.6,3.1-3.3,3.3-4.1c0-0.2,0.8-0.8,1-1c0.2-0.4,1.7-1.7,2.1-2.1c0-0.2,0.6-0.6,0.6-0.6c0.2-0.2,0.8-0.8,1-1s0.8-0.8,1-1
			c0,0,0.2-0.2,0.4-0.2c0.2-0.4,2.1-1.7,2.3-2.1c0.2-0.2,1.2-1,1.2-1l0,0c0.2-0.2,2.1-1.7,2.3-1.9L820.1,44.8z"/>
		<path class="st10" d="M819.3,45.1c11.1-8.9,29.2-12.1,40.2-7l173.8,77.2c3.3,1.6,6,4.1,7.2,5.8c0.2,0.2,0.4,0.6,0.6,0.8
			c0.6,1,1,2.1,1.4,3.1c0.2,0.8,0.4,1.6,0.4,2.3c0,0.4,0,0.8,0,1.2s0,0.8,0,1c0,0.4,0,1-0.2,1.4c0,0.4-0.2,0.8-0.2,1
			c0,0.4-0.2,0.8-0.4,1.2l0,0c0,0.2-0.2,0.4-0.2,0.6s-0.2,0.4-0.2,0.6c-0.2,0.4-0.2,0.8-0.4,1.2s-0.4,0.6-0.4,1
			c-0.2,0.4-0.4,0.8-0.6,1.2c-0.8,1-1.6,1.9-2.7,2.9c0,0.4-2.9,3.1-2.9,3.7l-0.6,0.6c0,0-0.2,0.2-0.2,0.4c-0.2,0.6-3.3,3.3-3.5,3.9
			c0,0.2-0.8,0.8-1,1s-1.9,1.7-2.1,2.1l-0.6,0.6c0,0.2-1,0.8-1,1s-1,0.8-1,1c0,0-0.2,0.2-0.4,0.2c-0.2,0.2-2.1,1.7-2.3,1.9
			s-1.2,1-1.2,1l0,0c-0.2,0.2-2.1,1.7-2.3,1.9L703.7,415c-11.1,8.9-29.2,12.1-40.2,7l-174.2-77.2c-2.3-1.2-4.3-2.5-5.6-4.1
			c-0.6-0.6-1-1.2-1.6-1.7c-0.2-0.2-0.4-0.6-0.6-0.8c-0.6-1-1-2.1-1.4-3.1c-0.2-0.8-0.4-1.6-0.4-2.3c0-0.4,0-0.8,0-1.2
			c0-0.4,0-0.8,0-1c0-0.4,0-1,0.2-1.4c0-0.4,0.2-0.8,0.2-1c0-0.4,0.2-0.8,0.4-1.2l0,0c0-0.2,0.2-0.4,0.2-0.6s0.2-0.4,0.2-0.6
			c0.2-0.4,0.2-0.8,0.4-1.2c0.2-0.4,0.4-0.6,0.4-1c0.2-0.4,0.4-0.8,0.6-1.2c0.8-1,1.6-1.9,2.7-2.9c0-0.4,2.9-3.1,2.9-3.7l0.6-0.6
			c0,0,0.2-0.2,0.2-0.4c0.2-0.6,3.3-3.3,3.5-3.9c0-0.2,0.8-0.8,1-1s1.9-1.7,2.1-2.1l0.6-0.6c0-0.2,1-0.8,1-1s1-0.8,1-1
			c0,0,0.2-0.2,0.4-0.2c0.2-0.2,2.1-1.7,2.3-1.9c0.2-0.2,1.2-1,1.2-1l0,0c0.2-0.2,2.1-1.7,2.3-1.9L819.3,45.1z"/>
		<path class="st11" d="M818.6,45.5c11.1-8.9,29.2-12.1,40.2-7l173.6,77c3.3,1.6,5.8,3.9,7,5.8c0.2,0.2,0.4,0.6,0.6,0.8
			c0.6,1,1,2.1,1.2,3.1c0.2,0.8,0.2,1.6,0.2,2.3c0,0.4,0,0.8,0,1.2c0,0.4,0,0.8,0,1c0,0.4-0.2,1-0.2,1.4s-0.2,0.8-0.2,1
			c-0.2,0.4-0.2,0.8-0.4,1.2l0,0c0,0.2-0.2,0.4-0.2,0.6s-0.2,0.4-0.2,0.6c-0.2,0.4-0.4,0.8-0.6,1c-0.2,0.4-0.4,0.6-0.6,1
			s-0.4,0.8-0.6,1.2c-0.8,1.2-1.9,2.1-2.9,3.1c0,0.4-3.1,3.1-3.1,3.5l-0.6,0.6l-0.2,0.2c0,0.4-3.5,3.3-3.7,3.7c0,0-1,0.8-1,1
			c-0.2,0.2-1.9,1.7-2.1,1.9l-0.6,0.6c0,0-1,0.8-1,1l-1,0.8c0,0-0.2,0.2-0.4,0.2c-0.2,0.2-2.3,1.9-2.3,1.9l-1.2,1l0,0
			c-0.2,0.2-2.1,1.7-2.3,1.9L702.7,412.8c-11.1,8.9-29.2,12.1-40.2,7l-173.6-77c-2.3-1.2-4.3-2.5-5.6-4.1c-0.6-0.6-1-1.2-1.4-1.7
			c-0.2-0.2-0.4-0.6-0.6-0.8c-0.6-1-1-2.1-1.2-3.1c-0.2-0.8-0.2-1.6-0.2-2.3c0-0.4,0-0.8,0-1.2s0-0.8,0-1c0-0.4,0.2-1,0.2-1.4
			s0.2-0.8,0.2-1c0.2-0.4,0.2-0.8,0.4-1.2l0,0c0-0.2,0.2-0.4,0.2-0.6s0.2-0.4,0.2-0.6c0.2-0.4,0.4-0.8,0.6-1c0.2-0.4,0.4-0.6,0.6-1
			s0.4-0.8,0.6-1.2c0.8-1.2,1.7-2.1,2.9-3.1c0-0.4,3.1-3.1,3.1-3.5l0.6-0.6l0.2-0.2c0.2-0.4,3.5-3.3,3.7-3.7c0,0,1-0.8,1-1
			c0.2-0.2,1.9-1.7,2.1-1.9l0.6-0.6c0,0,1-0.8,1-1l1-0.8c0,0,0.2-0.2,0.4-0.2c0.2-0.2,2.3-1.9,2.3-1.9l1.2-1l0,0
			c0.2-0.2,2.1-1.7,2.3-1.9L818.6,45.5z"/>
		<path class="st12" d="M817.8,45.7c11.1-8.9,29.2-12.1,40.2-7l173.4,77.2c3.3,1.6,5.6,3.7,7,5.8c0.2,0.2,0.4,0.6,0.6,0.8
			c0.6,1,1,2.1,1.2,3.1c0.2,0.8,0.2,1.6,0.2,2.3c0,0.4,0,0.8,0,1.2c0,0.4,0,0.8-0.2,1c0,0.4-0.2,1-0.4,1.4s-0.2,0.8-0.4,1
			c-0.2,0.4-0.2,0.8-0.4,1.2l0,0c0,0.2-0.2,0.4-0.2,0.6s-0.2,0.4-0.4,0.6c-0.2,0.4-0.4,0.6-0.6,1s-0.4,0.6-0.6,1s-0.4,0.8-0.8,1
			c-1,1.2-2.1,2.1-3.3,3.3c0,0.2-3.5,3.1-3.5,3.3l-0.6,0.6l-0.2,0.2c0,0.2-3.7,3.3-3.9,3.5l-1,0.8c0,0-2.1,1.7-2.1,1.9
			c0,0-0.6,0.6-0.8,0.6l-1,0.8l-1,0.8c0,0-0.2,0.2-0.4,0.2l-2.3,1.9l-1.2,1l0,0l-2.3,1.9l-310.7,252c-11.1,8.9-29.2,12.1-40.2,7
			l-173.4-77c-2.3-1.2-4.3-2.5-5.6-4.1c-0.6-0.6-1-1.2-1.4-1.7c-0.2-0.2-0.4-0.6-0.6-0.8c-0.6-1-0.8-2.1-1-3.1
			c-0.2-0.8-0.2-1.6-0.2-2.3c0-0.4,0-0.8,0-1.2c0-0.4,0-0.8,0.2-1c0-0.4,0.2-1,0.4-1.4c0.2-0.4,0.2-0.8,0.4-1
			c0.2-0.4,0.2-0.8,0.4-1.2l0,0c0-0.2,0.2-0.4,0.2-0.6s0.2-0.4,0.4-0.6c0.2-0.4,0.4-0.6,0.6-1s0.4-0.6,0.6-1s0.4-0.8,0.8-1
			c1-1.2,1.9-2.1,3.3-3.3c0-0.2,3.5-3.1,3.5-3.3l0.6-0.6l0.2-0.2c0-0.2,3.7-3.3,3.9-3.5l1-0.8c0,0,2.1-1.7,2.1-1.9
			c0,0,0.6-0.6,0.8-0.6l1-0.8l1-0.8c0,0,0.2-0.2,0.4-0.2l2.3-1.9l1.2-1l0,0l2.3-1.9L817.8,45.7z"/>
		<path class="st13" d="M487.6,313.1c-11.1,8.9-10.9,20.4,0.2,25.5l173.4,77c11.1,5.1,29.2,1.9,40.2-7l329.4-267
			c11.1-8.9,10.9-20.4-0.2-25.5l-173.4-77c-11.1-5.1-29.2-1.9-40.2,7L487.6,313.1z"/>
	</g>
	<g>
		<path class="st14" d="M1029.9,140.2L703.1,405c-10.7,8.7-28.4,11.7-39.1,6.8L495.2,337c-10.9-5.1-10.9-16.1-0.2-24.9l326.8-265
			c10.7-8.7,28.4-11.7,39.1-6.8l29.2,13l-4.5,3.7c-4.7,4.5-7,9.3-1.7,11.7l78.4,35.4c5.2,2.3,13.8,0.2,20.8-3.1l7-3.1l39.7,17.7
			C1040.6,120.4,1040.6,131.5,1029.9,140.2z"/>
	</g>
	<g>
		
			<linearGradient id="SVGID_1_" gradientUnits="userSpaceOnUse" x1="584.7169" y1="691.6063" x2="578.6663" y2="695.2893" gradientTransform="matrix(-0.5553 0.9398 0.7802 0.4803 403.5798 -466.672)">
			<stop  offset="0" style="stop-color:#FFFFFF"/>
			<stop  offset="1" style="stop-color:#060606;stop-opacity:0.5"/>
		</linearGradient>
		<path class="st15" d="M622,414.6c-1.2-0.8-1.6-2.3-1-3.7c0.6-1.4,1.9-1.9,3.1-1.2c1.2,0.8,1.6,2.3,1,3.7
			C624.5,414.8,623.2,415.3,622,414.6z"/>
		
			<linearGradient id="SVGID_2_" gradientUnits="userSpaceOnUse" x1="585.765" y1="682.9103" x2="579.7141" y2="686.5931" gradientTransform="matrix(-0.5553 0.9398 0.7802 0.4803 403.5798 -466.672)">
			<stop  offset="0" style="stop-color:#FFFFFF"/>
			<stop  offset="1" style="stop-color:#060606;stop-opacity:0.5"/>
		</linearGradient>
		<path class="st16" d="M614.6,411.5c-1.2-0.8-1.6-2.3-1-3.7c0.6-1.4,1.9-1.9,3.1-1.2c1.2,0.8,1.6,2.3,1,3.7
			C617.1,411.5,615.8,412,614.6,411.5z"/>
		
			<linearGradient id="SVGID_3_" gradientUnits="userSpaceOnUse" x1="583.5266" y1="701.7725" x2="577.4757" y2="705.4555" gradientTransform="matrix(-0.5553 0.9398 0.7802 0.4803 403.5798 -466.672)">
			<stop  offset="0" style="stop-color:#FFFFFF"/>
			<stop  offset="1" style="stop-color:#060606;stop-opacity:0.5"/>
		</linearGradient>
		<path class="st17" d="M630.7,418.3c-1.2-0.8-1.6-2.3-1-3.7c0.6-1.4,1.9-1.9,3.1-1.2c1.2,0.8,1.6,2.3,1,3.7
			C633.3,418.5,631.7,419,630.7,418.3z"/>
		
			<linearGradient id="SVGID_4_" gradientUnits="userSpaceOnUse" x1="582.3798" y1="712.01" x2="576.3289" y2="715.6931" gradientTransform="matrix(-0.5553 0.9398 0.7802 0.4803 403.5798 -466.672)">
			<stop  offset="0" style="stop-color:#FFFFFF"/>
			<stop  offset="1" style="stop-color:#060606;stop-opacity:0.5"/>
		</linearGradient>
		<path class="st18" d="M639.3,422.2c-1.2-0.8-1.6-2.3-1-3.7c0.6-1.4,1.9-1.9,3.1-1.2c1.2,0.8,1.6,2.3,1,3.7
			C641.8,422.3,640.5,422.7,639.3,422.2z"/>
		
			<linearGradient id="SVGID_5_" gradientUnits="userSpaceOnUse" x1="581.1432" y1="722.0676" x2="575.0923" y2="725.7507" gradientTransform="matrix(-0.5553 0.9398 0.7802 0.4803 403.5798 -466.672)">
			<stop  offset="0" style="stop-color:#FFFFFF"/>
			<stop  offset="1" style="stop-color:#060606;stop-opacity:0.5"/>
		</linearGradient>
		<path class="st19" d="M647.9,425.8c-1.2-0.8-1.6-2.3-1-3.7c0.6-1.4,1.9-1.9,3.1-1.2c1.2,0.8,1.6,2.3,1,3.7S649,426.4,647.9,425.8z
			"/>
		
			<linearGradient id="SVGID_6_" gradientUnits="userSpaceOnUse" x1="579.9135" y1="732.1694" x2="573.8628" y2="735.8522" gradientTransform="matrix(-0.5553 0.9398 0.7802 0.4803 403.5798 -466.672)">
			<stop  offset="0" style="stop-color:#FFFFFF"/>
			<stop  offset="1" style="stop-color:#060606;stop-opacity:0.5"/>
		</linearGradient>
		<path class="st20" d="M656.4,429.5c-1.2-0.8-1.6-2.3-1-3.7c0.6-1.4,1.9-1.9,3.1-1.2c1.2,0.8,1.6,2.3,1,3.7
			S657.6,430.3,656.4,429.5z"/>
	</g>
	<g>
		
			<linearGradient id="SVGID_7_" gradientUnits="userSpaceOnUse" x1="600.4016" y1="547.6349" x2="594.3509" y2="551.3178" gradientTransform="matrix(-0.5553 0.9398 0.7802 0.4803 403.5798 -466.672)">
			<stop  offset="0" style="stop-color:#FFFFFF"/>
			<stop  offset="1" style="stop-color:#060606;stop-opacity:0.5"/>
		</linearGradient>
		<path class="st21" d="M501.1,360.1c-1.2-0.8-1.6-2.3-1-3.7s1.9-1.9,3.1-1.2c1.2,0.8,1.6,2.3,1,3.7
			C503.6,360.3,502.2,360.9,501.1,360.1z"/>
		
			<linearGradient id="SVGID_8_" gradientUnits="userSpaceOnUse" x1="601.4697" y1="538.9714" x2="595.4188" y2="542.6544" gradientTransform="matrix(-0.5553 0.9398 0.7802 0.4803 403.5798 -466.672)">
			<stop  offset="0" style="stop-color:#FFFFFF"/>
			<stop  offset="1" style="stop-color:#060606;stop-opacity:0.5"/>
		</linearGradient>
		<path class="st22" d="M493.7,357c-1.2-0.8-1.6-2.3-1-3.7c0.6-1.4,1.9-1.9,3.1-1.2c1.2,0.8,1.6,2.3,1,3.7S494.8,357.6,493.7,357z"
			/>
		
			<linearGradient id="SVGID_9_" gradientUnits="userSpaceOnUse" x1="599.1597" y1="557.7161" x2="593.1085" y2="561.3989" gradientTransform="matrix(-0.5553 0.9398 0.7802 0.4803 403.5798 -466.672)">
			<stop  offset="0" style="stop-color:#FFFFFF"/>
			<stop  offset="1" style="stop-color:#060606;stop-opacity:0.5"/>
		</linearGradient>
		<path class="st23" d="M509.6,363.8c-1.2-0.8-1.6-2.3-1-3.7c0.6-1.4,1.9-1.9,3.1-1.2c1.2,0.8,1.6,2.3,1,3.7
			C512.1,364,510.8,364.6,509.6,363.8z"/>
		
			<linearGradient id="SVGID_10_" gradientUnits="userSpaceOnUse" x1="598.0168" y1="567.9603" x2="591.9661" y2="571.6431" gradientTransform="matrix(-0.5553 0.9398 0.7802 0.4803 403.5798 -466.672)">
			<stop  offset="0" style="stop-color:#FFFFFF"/>
			<stop  offset="1" style="stop-color:#060606;stop-opacity:0.5"/>
		</linearGradient>
		<path class="st24" d="M518.2,367.7c-1.2-0.8-1.6-2.3-1-3.7c0.6-1.4,1.9-1.9,3.1-1.2c1.2,0.8,1.6,2.3,1,3.7
			C520.7,367.9,519.3,368.3,518.2,367.7z"/>
		
			<linearGradient id="SVGID_11_" gradientUnits="userSpaceOnUse" x1="596.8077" y1="578.063" x2="590.757" y2="581.7463" gradientTransform="matrix(-0.5553 0.9398 0.7802 0.4803 403.5798 -466.672)">
			<stop  offset="0" style="stop-color:#FFFFFF"/>
			<stop  offset="1" style="stop-color:#060606;stop-opacity:0.5"/>
		</linearGradient>
		<path class="st25" d="M526.7,371.4c-1.2-0.8-1.6-2.3-1-3.7c0.6-1.4,1.9-1.9,3.1-1.2c1.2,0.8,1.6,2.3,1,3.7
			C529.3,371.6,527.9,372.2,526.7,371.4z"/>
		
			<linearGradient id="SVGID_12_" gradientUnits="userSpaceOnUse" x1="595.58" y1="588.1678" x2="589.529" y2="591.8506" gradientTransform="matrix(-0.5553 0.9398 0.7802 0.4803 403.5798 -466.672)">
			<stop  offset="0" style="stop-color:#FFFFFF"/>
			<stop  offset="1" style="stop-color:#060606;stop-opacity:0.5"/>
		</linearGradient>
		<path class="st26" d="M535.3,375.1c-1.2-0.8-1.6-2.3-1-3.7c0.6-1.4,1.9-1.9,3.1-1.2s1.6,2.3,1,3.7
			C537.8,375.3,536.4,375.9,535.3,375.1z"/>
	</g>
</g>
<g id="leftBottomIphone">
	<g class="st0">
		<path class="st1" d="M614.8,652c0,0.6,0,1,0,1.4s0,0.8,0,1.2c-0.2,1.7-0.4,3.5-1,5.2c0,0.4-0.2,0.6-0.2,1c0,0.2-0.2,0.4-0.2,0.6
			c-0.6,1.7-1.4,3.5-2.1,5.2c-0.2,0.4-0.4,1-0.8,1.4c-0.6,1-1.2,1.7-1.7,2.7c-0.2,0.2-0.4,0.6-0.6,0.8c-0.4,0.4-0.6,0.8-1,1.2
			s-0.6,0.8-1,1.2c-0.2,0.2-0.2,0.2-0.4,0.4c-0.8,0.8-1.6,1.6-2.5,2.3c-0.4,0.4-1,0.8-1.4,1l0,0c-0.8,0.8-1.6,1.6-2.5,2.1
			L267.7,948.5c-11.1,8.9-29.4,12.1-40.6,7L52.5,877.9c-2.5-1.2-4.5-2.7-5.8-4.5c-0.6-0.4-1.4-1-1.9-1.6c-0.2-0.2-0.6-0.6-0.8-0.8
			c-0.8-1-1.6-1.9-2.3-2.9c-0.4-0.8-0.8-1.4-1.2-2.1c-0.2-0.4-0.4-0.8-0.6-1.2c-0.2-0.4-0.2-0.8-0.4-1.2c-0.2-0.6-0.4-1-0.4-1.6
			c-0.2-0.4-0.2-0.8-0.4-1.2s-0.2-0.8-0.2-1.4l0,0c0-0.2,0-0.6-0.2-0.8c0-0.2,0-0.6-0.2-0.8c0-0.4,0-0.8-0.2-1.4c0-0.4,0-0.8,0-1.4
			s0-1,0-1.6c0-0.4,0-0.8,0-1.2c0.2-1.7,0.4-3.5,1-5.2c0-0.4,0.2-0.6,0.2-1c0-0.2,0.2-0.4,0.2-0.6c0.6-1.7,1.4-3.5,2.1-5.2
			c0.2-0.4,0.4-1,0.8-1.4c0.6-1,1.2-1.7,1.7-2.7c0.2-0.2,0.4-0.6,0.6-0.8c0.4-0.4,0.6-0.8,1-1.2s0.6-0.8,1-1.2
			c0.2-0.2,0.2-0.2,0.4-0.4c0.8-0.8,1.6-1.6,2.5-2.3c0.4-0.4,1-0.8,1.4-1l0,0c0.8-0.8,1.6-1.6,2.5-2.1L385.2,558
			c11.1-8.9,29.4-12.1,40.6-7l174.6,78c2.5,1.2,4.5,2.7,5.8,4.5c0.6,0.6,1.4,1,1.9,1.6c0.2,0.2,0.6,0.6,0.8,0.8
			c0.8,1,1.6,1.9,2.3,2.9c0.4,0.8,0.8,1.4,1.2,2.1c0.2,0.4,0.4,0.8,0.6,1.2c0.2,0.4,0.2,0.8,0.4,1.2c0.2,0.6,0.4,1,0.4,1.6
			c0.2,0.4,0.2,0.8,0.4,1.2s0.2,0.8,0.2,1.4l0,0c0,0.2,0,0.6,0.2,0.8c0,0.2,0,0.6,0.2,0.8c0,0.4,0,0.8,0.2,1.4
			C614.8,651,614.8,651.6,614.8,652z"/>
	</g>
	<g>
		<path class="st2" d="M622.2,506.3c0,0.6,0,1,0,1.4s0,0.8,0,1.2c-0.2,1.7-0.4,3.5-1,5.2c0,0.4-0.2,0.6-0.2,1c0,0.2-0.2,0.4-0.2,0.6
			c-0.6,1.7-1.4,3.5-2.1,5.2c-0.2,0.4-0.4,1-0.8,1.4c-0.6,1-1.2,1.7-1.7,2.7c-0.2,0.2-0.4,0.6-0.6,0.8c-0.4,0.4-0.6,0.8-1,1.2
			s-0.6,0.8-1,1.2c-0.2,0.2-0.2,0.2-0.4,0.4c-0.8,0.8-1.6,1.6-2.5,2.3c-0.4,0.4-1,0.8-1.4,1l0,0c-0.8,0.8-1.6,1.6-2.5,2.1
			L274.9,802.9c-11.1,8.9-29.4,12.1-40.6,7L59.7,732.3c-2.5-1.2-4.5-2.7-5.8-4.5c-0.6-0.4-1.4-1-1.9-1.6c-0.2-0.2-0.6-0.6-0.8-0.8
			c-0.8-1-1.6-1.9-2.3-2.9c-0.4-0.8-0.8-1.4-1.2-2.1c-0.2-0.4-0.4-0.8-0.6-1.2c-0.2-0.4-0.2-0.8-0.4-1.2c-0.2-0.6-0.4-1-0.4-1.6
			c-0.2-0.4-0.2-0.8-0.4-1.2s-0.2-0.8-0.2-1.4l0,0c0-0.2,0-0.6-0.2-0.8c0-0.2,0-0.6-0.2-0.8c0-0.4,0-0.8-0.2-1.4c0-0.4,0-0.8,0-1.4
			c0-0.6,0-1,0-1.6c0-0.4,0-0.8,0-1.2c0.2-1.7,0.4-3.5,1-5.2c0-0.4,0.2-0.6,0.2-1c0-0.2,0.2-0.4,0.2-0.6c0.6-1.7,1.4-3.5,2.1-5.2
			c0.2-0.4,0.4-1,0.8-1.4c0.6-1,1.2-1.7,1.7-2.7c0.2-0.2,0.4-0.6,0.6-0.8c0.4-0.4,0.6-0.8,1-1.2s0.6-0.8,1-1.2
			c0.2-0.2,0.2-0.2,0.4-0.4c0.8-0.8,1.6-1.6,2.5-2.3c0.4-0.4,1-0.8,1.4-1l0,0c0.8-0.8,1.6-1.6,2.5-2.1l331.9-269.1
			c11.1-8.9,29.4-12.1,40.6-7L607.6,483c2.5,1.2,4.5,2.7,5.8,4.5c0.6,0.6,1.4,1,1.9,1.6c0.2,0.2,0.6,0.6,0.8,0.8
			c0.8,1,1.6,1.9,2.3,2.9c0.4,0.8,0.8,1.4,1.2,2.1c0.2,0.4,0.4,0.8,0.6,1.2c0.2,0.4,0.2,0.8,0.4,1.2c0.2,0.6,0.4,1,0.4,1.6
			c0.2,0.4,0.2,0.8,0.4,1.2c0.2,0.4,0.2,0.8,0.2,1.4l0,0c0,0.2,0,0.6,0.2,0.8c0,0.2,0,0.6,0.2,0.8c0,0.4,0,0.8,0.2,1.4
			C622.4,505.2,622.2,506,622.2,506.3z"/>
		<path class="st3" d="M391.8,413.8c11.1-8.9,29.4-12.1,40.4-7l174.6,77.4c2.5,1.2,4.5,2.7,5.8,4.3c0.6,0.6,1.2,1,1.7,1.6
			c0.2,0.2,0.6,0.6,0.8,0.8c0.8,1,1.6,1.9,2.1,2.9c0.4,0.8,0.8,1.4,1.2,2.1c0.2,0.4,0.4,0.8,0.4,1.2c0.2,0.4,0.2,0.8,0.4,1
			c0.2,0.6,0.2,1,0.4,1.6c0,0.4,0.2,0.8,0.2,1.2c0,0.4,0.2,0.8,0.2,1.4l0,0c0,0.2,0,0.6,0,0.8s0,0.6,0,0.8c0,0.4,0,0.8,0,1.2
			c0,0.4,0,0.8,0,1.4c0,0.4,0,1-0.2,1.4c0,0.4-0.2,1-0.4,1.4c-0.2,1.6-0.8,3.5-1.2,5.1c0,0.2-0.2,0.6-0.2,1c0,0.2-0.2,0.4-0.2,0.4
			c-0.4,1.6-1.6,3.5-2.3,5.1c-0.2,0.4-0.6,1-0.8,1.2c-0.6,0.8-1.2,1.7-1.7,2.5c-0.2,0.2-0.4,0.6-0.6,0.8c-0.2,0.4-0.6,0.8-1,1.2
			c-0.2,0.4-0.6,0.8-1,1c-0.2,0.2-0.2,0.2-0.4,0.4c-0.8,0.8-1.7,1.6-2.5,2.3c-0.4,0.4-1,0.8-1.4,1l0,0c-0.6,0.8-1.6,1.6-2.5,2.1
			L274.3,800.7c-11.1,8.9-29.4,12.1-40.4,7L59.3,730.3c-2.5-1.2-4.5-2.7-5.8-4.3c-0.6-0.6-1.2-1-1.7-1.6c-0.2-0.2-0.6-0.6-0.8-0.8
			c-0.8-1-1.6-1.9-2.1-2.9c-0.4-0.8-0.8-1.4-1.2-2.1c-0.2-0.4-0.4-0.8-0.4-1.2c-0.2-0.4-0.2-0.8-0.4-1c-0.2-0.6-0.2-1-0.4-1.6
			c0-0.4-0.2-0.8-0.2-1.2s-0.2-0.8-0.2-1.4l0,0c0-0.2,0-0.6,0-0.8s0-0.6,0-0.8c0-0.4,0-0.8,0-1.2s0-0.8,0-1.4c0-0.4,0-1,0.2-1.4
			c0-0.4,0.2-1,0.4-1.4c0.2-1.6,0.8-3.5,1.2-5.1c0-0.2,0.2-0.6,0.2-1c0-0.2,0.2-0.4,0.2-0.4c0.6-1.7,1.6-3.5,2.3-5.1
			c0.2-0.4,0.6-1,0.8-1.2c0.6-0.8,1.2-1.7,1.7-2.5c0.2-0.2,0.4-0.6,0.6-0.8c0.2-0.4,0.6-0.8,1-1.2c0.2-0.4,0.6-0.8,1-1
			c0.2-0.2,0.2-0.2,0.4-0.4c0.8-0.8,1.7-1.6,2.5-2.3c0.4-0.4,1-0.8,1.4-1l0,0c0.6-0.8,1.6-1.6,2.5-2.1L391.8,413.8z"/>
		<path class="st4" d="M391,414.2c11.1-8.9,29.4-12.1,40.4-7l174.4,77.4c2.5,1.2,4.5,2.5,5.8,4.3c0.6,0.6,1.2,1,1.7,1.7
			c0.2,0.2,0.4,0.6,0.8,0.8c0.8,1,1.4,1.9,1.9,2.9c0.4,0.8,0.8,1.4,1,2.1c0.2,0.4,0.2,0.8,0.4,1.2c0.2,0.4,0.2,0.8,0.4,1
			c0.2,0.6,0.2,1,0.4,1.6c0,0.4,0.2,0.8,0.2,1.2c0,0.4,0,0.8,0.2,1.2l0,0c0,0.2,0,0.6,0,0.8c0,0.2,0,0.6,0,0.8c0,0.4,0,0.8,0,1.2
			s0,0.8,0,1.2c0,0.4,0,1-0.2,1.4c-0.2,0.6-0.4,1.2-0.8,1.6c-0.2,1.4-1,3.3-1.4,4.9c0,0.2-0.2,0.6-0.4,0.8c0,0.2-0.2,0.4-0.2,0.4
			c-0.4,1.6-1.7,3.5-2.5,4.9c-0.2,0.4-0.6,0.8-0.8,1.2c-0.4,0.8-1.4,1.7-1.7,2.5c-0.2,0.2-0.4,0.6-0.6,0.8c-0.2,0.4-0.8,0.8-1,1.2
			s-0.8,0.8-1,1c0,0.2-0.2,0.2-0.4,0.4c-0.6,0.6-1.7,1.6-2.5,2.1c-0.4,0.4-1,0.8-1.4,1l0,0c-0.6,0.6-1.7,1.6-2.3,2.1l-328,266.2
			c-11.1,8.9-29.4,12.1-40.4,7L58.7,728.2c-2.5-1.2-4.5-2.5-5.8-4.3c-0.6-0.6-1.2-1-1.7-1.7c-0.2-0.2-0.4-0.6-0.8-0.8
			c-0.8-1-1.4-1.9-1.9-2.9c-0.4-0.8-0.8-1.4-1-2.1c-0.2-0.4-0.2-0.8-0.4-1.2s-0.2-0.8-0.4-1c-0.2-0.6-0.2-1-0.4-1.6
			c0-0.4-0.2-0.8-0.2-1.2s0-0.8-0.2-1.2l0,0c0-0.2,0-0.6,0-0.8s0-0.6,0-0.8c0-0.4,0-0.8,0-1.2s0-0.8,0-1.2s0-1,0.2-1.4
			c0.2-0.6,0.4-1.2,0.8-1.6c0.2-1.4,1-3.3,1.4-4.9c0-0.2,0.2-0.6,0.4-0.8c0-0.2,0.2-0.4,0.2-0.4c0.4-1.6,1.7-3.5,2.5-4.9
			c0.2-0.4,0.6-0.8,0.8-1.2c0.4-0.8,1.4-1.7,1.7-2.5c0.2-0.2,0.4-0.6,0.6-0.8c0.2-0.4,0.8-0.8,1-1.2s0.8-0.8,1-1
			c0-0.2,0.2-0.2,0.4-0.4c0.6-0.6,1.7-1.6,2.5-2.1c0.4-0.4,1-0.8,1.4-1l0,0c0.6-0.6,1.7-1.6,2.3-2.1L391,414.2z"/>
		<path class="st5" d="M390.2,414.4c11.1-8.9,29.2-12.1,40.4-7l174.2,77.4c2.5,1.2,4.5,2.5,5.8,4.3c0.6,0.6,1.2,1.2,1.7,1.7
			c0.2,0.2,0.4,0.6,0.6,0.8c0.8,1,1.4,1.9,1.9,3.1c0.4,0.8,0.6,1.4,1,2.1c0.2,0.4,0.2,0.8,0.4,1.2c0,0.4,0.2,0.8,0.2,1
			c0.2,0.6,0.2,1,0.2,1.6c0,0.4,0,0.8,0.2,1.2c0,0.4,0,0.8,0,1.2l0,0c0,0.2,0,0.6,0,0.8c0,0.2,0,0.6,0,0.8c0,0.4,0,0.8-0.2,1.2
			c0,0.4,0,0.8-0.2,1.2c0,0.4-0.2,1-0.2,1.4c-0.2,0.6-0.6,1.2-1,1.7c-0.2,1.4-1.4,3.3-1.7,4.7c0,0.2-0.4,0.6-0.4,0.8
			s-0.2,0.4-0.2,0.4c-0.4,1.4-2.1,3.5-2.7,4.7c-0.2,0.4-0.6,0.8-0.8,1.2c-0.4,0.6-1.4,1.7-1.9,2.3c-0.2,0.2-0.6,0.6-0.6,0.8
			c-0.2,0.4-0.8,0.8-1,1s-0.8,0.8-1,1c0,0.2-0.2,0.2-0.4,0.4c-0.6,0.6-1.7,1.7-2.5,2.1c-0.4,0.2-1,0.8-1.4,1l0,0
			c-0.6,0.6-1.7,1.6-2.3,2.1L273,796.4c-11.1,8.9-29.2,12.1-40.4,7L58.3,726.1c-2.5-1.2-4.5-2.5-5.8-4.3c-0.6-0.6-1.2-1.2-1.7-1.7
			c-0.2-0.2-0.4-0.6-0.6-0.8c-0.8-1-1.4-1.9-1.9-3.1c-0.4-0.8-0.6-1.4-1-2.1c-0.2-0.4-0.2-0.8-0.4-1.2c0-0.4-0.2-0.8-0.2-1
			c-0.2-0.6-0.2-1-0.2-1.6c0-0.4,0-0.8-0.2-1.2c0-0.4,0-0.8,0-1.2l0,0c0-0.2,0-0.6,0-0.8s0-0.6,0-0.8c0-0.4,0-0.8,0.2-1.2
			c0-0.4,0-0.8,0.2-1.2c0-0.4,0.2-1,0.2-1.4c0.2-0.6,0.6-1.2,1-1.7c0.2-1.4,1.4-3.3,1.7-4.7c0-0.2,0.4-0.6,0.4-0.8s0.2-0.4,0.2-0.4
			c0.4-1.4,2.1-3.5,2.7-4.7c0.2-0.4,0.6-0.8,0.8-1.2c0.4-0.6,1.4-1.7,1.9-2.3c0.2-0.2,0.6-0.6,0.6-0.8c0.2-0.2,0.8-0.8,1-1
			s0.8-0.8,1-1c0,0,0.2-0.2,0.4-0.4c0.6-0.6,1.7-1.7,2.5-2.1c0.4-0.2,1-0.8,1.4-1l0,0c0.6-0.6,1.7-1.6,2.3-2.1L390.2,414.4z"/>
		<path class="st6" d="M389.5,414.8c11.1-8.9,29.2-12.1,40.4-7l174.2,77.4c2.5,1.2,4.5,2.5,5.8,4.3c0.6,0.6,1.2,1.2,1.7,1.7
			c0.2,0.2,0.4,0.6,0.6,0.8c0.8,1,1.4,1.9,1.7,3.1c0.4,0.8,0.6,1.4,0.8,2.1c0.2,0.4,0.2,0.8,0.2,1.2c0,0.4,0.2,0.8,0.2,1
			c0,0.6,0.2,1,0.2,1.6c0,0.4,0,0.8,0,1.2s0,0.8,0,1.2l0,0c0,0.2,0,0.6,0,0.8s0,0.4,0,0.8s-0.2,0.8-0.2,1.2c0,0.4-0.2,0.8-0.2,1.2
			s-0.2,1-0.4,1.4c-0.4,0.8-0.8,1.4-1.4,1.9c0,1.2-1.6,3.3-1.9,4.5c0,0.2-0.4,0.6-0.4,0.8s-0.2,0.4-0.2,0.4
			c-0.4,1.2-2.3,3.5-2.9,4.5c-0.2,0.2-0.6,0.8-0.8,1.2c-0.4,0.6-1.6,1.7-1.9,2.3c-0.2,0.2-0.6,0.6-0.6,0.8c-0.2,0.2-0.8,0.8-1,1
			s-0.8,0.8-1,1c0,0-0.2,0.2-0.4,0.4c-0.6,0.6-1.9,1.7-2.5,2.1c-0.2,0.2-1,0.8-1.4,1l0,0c-0.4,0.4-1.7,1.6-2.3,2.1L272.4,794.5
			c-11.1,8.9-29.2,12.1-40.4,7L57.7,724.1c-2.5-1.2-4.5-2.5-5.8-4.3c-0.6-0.6-1.2-1.2-1.7-1.7c-0.2-0.2-0.4-0.6-0.6-0.8
			c-0.8-1-1.4-1.9-1.7-3.1c-0.4-0.8-0.6-1.4-0.8-2.1c-0.2-0.4-0.2-0.8-0.2-1.2s-0.2-0.8-0.2-1c0-0.6-0.2-1-0.2-1.6
			c0-0.4,0-0.8,0-1.2s0-0.8,0-1.2l0,0c0-0.2,0-0.6,0-0.8s0-0.4,0-0.8c0-0.4,0.2-0.8,0.2-1.2s0.2-0.8,0.2-1.2s0.2-1,0.4-1.4
			c0.4-0.8,0.8-1.4,1.4-1.9c0-1.2,1.6-3.3,1.9-4.5c0-0.2,0.4-0.6,0.4-0.8s0.2-0.4,0.2-0.4c0.4-1.2,2.3-3.5,2.9-4.5
			c0.2-0.2,0.6-0.8,0.8-1.2c0.4-0.6,1.6-1.7,1.9-2.3c0.2-0.2,0.6-0.6,0.6-0.8c0.2-0.2,0.8-0.8,1-1s0.8-0.8,1-1c0,0,0.2-0.2,0.4-0.4
			c0.6-0.6,1.9-1.7,2.5-2.1c0.2-0.2,1-0.8,1.4-1l0,0c0.4-0.4,1.7-1.6,2.3-2.1L389.5,414.8z"/>
		<path class="st7" d="M388.7,415.2c11.1-8.9,29.2-12.1,40.4-7l174,77.2c2.5,1.2,4.5,2.5,5.8,4.3c0.6,0.6,1.2,1.2,1.6,1.7
			c0.2,0.2,0.4,0.6,0.6,0.8c0.6,1,1.2,1.9,1.6,3.1c0.2,0.8,0.6,1.4,0.8,2.1c0,0.4,0.2,0.8,0.2,1.2s0.2,0.8,0.2,1c0,0.4,0,1,0,1.6
			c0,0.4,0,0.8,0,1.2c0,0.4,0,0.8,0,1.2l0,0c0,0.2,0,0.4,0,0.8c0,0.2,0,0.4-0.2,0.8c0,0.4-0.2,0.8-0.2,1.2s-0.2,0.8-0.2,1.2
			c-0.2,0.4-0.2,0.8-0.4,1.2c-0.4,0.8-1,1.6-1.7,2.1c0,1-1.9,3.3-2.1,4.3c0,0.2-0.4,0.6-0.4,0.8c0,0-0.2,0.2-0.2,0.4
			c-0.2,1-2.5,3.5-3.1,4.3c-0.2,0.2-0.8,0.8-0.8,1.2c-0.4,0.6-1.6,1.7-1.9,2.3c-0.2,0.2-0.6,0.6-0.6,0.8c-0.2,0.2-0.8,0.8-1,1
			s-0.8,0.8-1,1c0,0-0.2,0.2-0.4,0.4c-0.4,0.4-1.9,1.7-2.5,2.1c-0.2,0.2-1,0.8-1.4,1l0,0c-0.4,0.4-1.9,1.7-2.3,2.1L271.8,792.4
			c-11.1,8.9-29.2,12.1-40.4,7L57.4,722c-2.5-1.2-4.5-2.5-5.8-4.3c-0.6-0.6-1.2-1.2-1.6-1.7c-0.2-0.2-0.4-0.6-0.6-0.8
			c-0.6-1-1.2-1.9-1.6-3.1c-0.2-0.8-0.6-1.4-0.8-2.1c0-0.4-0.2-0.8-0.2-1.2s-0.2-0.8-0.2-1c0-0.4,0-1,0-1.6c0-0.4,0-0.8,0-1.2
			s0-0.8,0-1.2l0,0c0-0.2,0-0.4,0-0.8c0-0.2,0-0.4,0.2-0.8c0-0.4,0.2-0.8,0.2-1.2s0.2-0.8,0.2-1.2c0.2-0.4,0.2-0.8,0.4-1.2
			c0.4-0.8,1-1.6,1.7-2.1c0-1,1.9-3.3,2.1-4.3c0-0.2,0.4-0.6,0.4-0.8c0,0,0.2-0.2,0.2-0.4c0.4-1,2.5-3.5,3.1-4.3
			c0.2-0.2,0.8-0.8,0.8-1.2c0.4-0.6,1.6-1.7,1.9-2.3c0.2-0.2,0.6-0.6,0.6-0.8c0.2-0.2,0.8-0.8,1-1s0.8-0.8,1-1c0,0,0.2-0.2,0.4-0.4
			c0.4-0.4,1.9-1.7,2.5-2.1c0.2-0.2,1-0.8,1.4-1l0,0c0.4-0.4,1.9-1.7,2.3-2.1L388.7,415.2z"/>
		<path class="st8" d="M387.7,415.5c11.1-8.9,29.2-12.1,40.4-7l174,77.2c2.5,1.2,4.3,2.5,5.8,4.3c0.6,0.6,1.2,1.2,1.6,1.7
			c0.2,0.2,0.4,0.6,0.6,0.8c0.6,1,1.2,1.9,1.6,3.1c0.2,0.8,0.4,1.6,0.6,2.1c0,0.4,0.2,0.8,0.2,1.2c0,0.4,0,0.8,0,1c0,0.4,0,1,0,1.4
			s0,0.8,0,1.2c0,0.4-0.2,0.8-0.2,1.2l0,0c0,0.2,0,0.4-0.2,0.8c0,0.2,0,0.4-0.2,0.8c0,0.4-0.2,0.8-0.4,1.2c-0.2,0.4-0.2,0.8-0.4,1.2
			c-0.2,0.4-0.2,0.8-0.4,1.2c-0.4,1-1.2,1.6-1.9,2.3c0,0.8-2.1,3.3-2.3,4.1c0,0.2-0.4,0.6-0.4,0.8c0,0-0.2,0.2-0.2,0.4
			c-0.2,0.8-2.7,3.5-3.1,4.1c-0.2,0.2-0.8,0.8-1,1c-0.2,0.4-1.7,1.7-1.9,2.1c0,0.2-0.6,0.6-0.6,0.8c-0.2,0.2-0.8,0.8-1,1
			s-0.8,0.8-1,1c0,0-0.2,0.2-0.4,0.4c-0.4,0.4-1.9,1.7-2.5,2.1c-0.2,0.2-1,0.8-1.4,1l0,0c-0.4,0.4-1.9,1.7-2.3,1.9L271.2,790.2
			c-11.1,8.9-29.2,12.1-40.4,7L56.8,720c-2.5-1.2-4.3-2.5-5.8-4.3c-0.6-0.6-1.2-1.2-1.6-1.7c-0.2-0.2-0.4-0.6-0.6-0.8
			c-0.6-1-1.2-1.9-1.6-3.1c-0.2-0.8-0.4-1.6-0.6-2.1c0-0.4-0.2-0.8-0.2-1.2s0-0.8,0-1c0-0.4,0-1,0-1.4s0-0.8,0-1.2s0.2-0.8,0.2-1.2
			l0,0c0-0.2,0-0.4,0.2-0.8c0-0.2,0-0.4,0.2-0.8c0-0.4,0.2-0.8,0.4-1.2s0.2-0.8,0.4-1.2s0.2-0.8,0.4-1.2c0.4-1,1.2-1.6,1.9-2.3
			c0-0.8,2.1-3.3,2.3-4.1c0-0.2,0.4-0.6,0.4-0.8c0,0,0.2-0.2,0.2-0.4c0.2-0.8,2.7-3.5,3.1-4.1c0.2-0.2,0.8-0.8,1-1
			c0.2-0.4,1.7-1.7,1.9-2.1c0-0.2,0.6-0.6,0.6-0.8c0.2-0.2,0.8-0.8,1-1s0.8-0.8,1-1c0,0,0.2-0.2,0.4-0.4c0.4-0.4,1.9-1.7,2.5-2.1
			c0.2-0.2,1-0.8,1.4-1l0,0c0.4-0.4,1.9-1.7,2.3-1.9L387.7,415.5z"/>
		<path class="st9" d="M386.9,415.7c11.1-8.9,29.2-12.1,40.4-7l173.8,77.2c2.5,1.2,4.3,2.5,5.6,4.1c0.6,0.6,1.2,1.2,1.6,1.7
			c0.2,0.2,0.4,0.6,0.6,0.8c0.6,1,1.2,1.9,1.4,3.1c0.2,0.8,0.4,1.6,0.4,2.1c0,0.4,0,0.8,0.2,1.2c0,0.4,0,0.8,0,1c0,0.4,0,1,0,1.4
			s0,0.8-0.2,1.2c0,0.4-0.2,0.8-0.2,1.2l0,0c0,0.2-0.2,0.4-0.2,0.6s-0.2,0.4-0.2,0.6c-0.2,0.4-0.2,0.8-0.4,1.2
			c-0.2,0.4-0.2,0.8-0.4,1c-0.2,0.4-0.4,0.8-0.6,1.2c-0.6,1-1.4,1.7-2.3,2.7c0,0.6-2.5,3.1-2.7,3.9c0,0.2-0.4,0.6-0.6,0.6
			c0,0-0.2,0.2-0.2,0.4c-0.2,0.6-3.1,3.3-3.3,4.1c0,0.2-0.8,0.8-1,1c-0.2,0.4-1.7,1.7-2.1,2.1c0,0.2-0.6,0.6-0.6,0.6
			c-0.2,0.2-0.8,0.8-1,1s-0.8,0.8-1,1c0,0-0.2,0.2-0.4,0.2c-0.2,0.4-2.1,1.7-2.3,2.1c-0.2,0.2-1.2,0.8-1.2,1l0,0
			c-0.2,0.2-2.1,1.7-2.3,1.9l-317,257.2c-11.1,8.9-29.2,12.1-40.4,7L56.4,717.9c-2.5-1.2-4.3-2.5-5.6-4.1c-0.6-0.6-1.2-1.2-1.6-1.7
			c-0.2-0.2-0.4-0.6-0.6-0.8c-0.6-1-1.2-1.9-1.4-3.1c-0.2-0.8-0.4-1.6-0.4-2.1c0-0.4,0-0.8-0.2-1.2c0-0.4,0-0.8,0-1c0-0.4,0-1,0-1.4
			s0-0.8,0.2-1.2c0-0.4,0.2-0.8,0.2-1.2l0,0c0-0.2,0.2-0.4,0.2-0.6s0.2-0.4,0.2-0.6c0.2-0.4,0.2-0.8,0.4-1.2s0.2-0.8,0.4-1
			c0.2-0.4,0.4-0.8,0.6-1.2c0.6-1,1.4-1.7,2.3-2.7c0-0.6,2.5-3.1,2.7-3.9c0-0.2,0.4-0.6,0.6-0.6c0,0,0.2-0.2,0.2-0.4
			c0.2-0.6,3.1-3.3,3.3-4.1c0-0.2,0.8-0.8,1-1c0.2-0.4,1.7-1.7,2.1-2.1c0-0.2,0.6-0.6,0.6-0.6c0.2-0.2,0.8-0.8,1-1s0.8-0.8,1-1
			c0,0,0.2-0.2,0.4-0.2c0.2-0.4,2.1-1.7,2.3-2.1c0.2-0.2,1.2-1,1.2-1l0,0c0.2-0.2,2.1-1.7,2.3-1.9L386.9,415.7z"/>
		<path class="st10" d="M386.1,416.1c11.1-8.9,29.2-12.1,40.2-7L600,486.3c2.3,1.2,4.3,2.5,5.6,4.1c0.6,0.6,1,1.2,1.6,1.7
			c0.2,0.2,0.4,0.6,0.6,0.8c0.6,1,1,2.1,1.4,3.1c0.2,0.8,0.4,1.6,0.4,2.3c0,0.4,0,0.8,0,1.2s0,0.8,0,1c0,0.4,0,1-0.2,1.4
			c0,0.4-0.2,0.8-0.2,1c0,0.4-0.2,0.8-0.4,1.2l0,0c0,0.2-0.2,0.4-0.2,0.6s-0.2,0.4-0.2,0.6c-0.2,0.4-0.2,0.8-0.4,1.2
			c-0.2,0.4-0.4,0.6-0.4,1c-0.2,0.4-0.4,0.8-0.6,1.2c-0.8,1-1.6,1.9-2.7,2.9c0,0.4-2.9,3.1-2.9,3.7l-0.6,0.6c0,0-0.2,0.2-0.2,0.4
			c-0.2,0.6-3.3,3.3-3.5,3.9c0,0.2-0.8,0.8-1,1s-1.9,1.7-2.1,2.1l-0.6,0.6c0,0.2-1,0.8-1,1s-1,0.8-1,1c0,0-0.2,0.2-0.4,0.2
			c-0.2,0.2-2.1,1.7-2.3,1.9s-1.2,1-1.2,1l0,0c-0.2,0.2-2.1,1.7-2.3,1.9l-315,255.3c-11.1,8.9-29.2,12.1-40.2,7L56.4,715.7
			c-2.3-1.2-4.3-2.5-5.6-4.1c-0.6-0.6-1-1.2-1.6-1.7c-0.2-0.2-0.4-0.6-0.6-0.8c-0.6-1-1-2.1-1.4-3.1c-0.2-0.8-0.4-1.6-0.4-2.3
			c0-0.4,0-0.8,0-1.2s0-0.8,0-1c0-0.4,0-1,0.2-1.4c0-0.4,0.2-0.8,0.2-1c0-0.4,0.2-0.8,0.4-1.2l0,0c0-0.2,0.2-0.4,0.2-0.6
			c0-0.2,0.2-0.4,0.2-0.6c0.2-0.4,0.2-0.8,0.4-1.2s0.4-0.6,0.4-1c0.2-0.4,0.4-0.8,0.6-1.2c0.8-1,1.6-1.9,2.7-2.9
			c0-0.4,2.9-3.1,2.9-3.7l0.6-0.6c0,0,0.2-0.2,0.2-0.4c0.2-0.6,3.3-3.3,3.5-3.9c0-0.2,0.8-0.8,1-1s1.9-1.7,2.1-2.1l0.6-0.6
			c0-0.2,1-0.8,1-1s1-0.8,1-1c0,0,0.2-0.2,0.4-0.2c0.2-0.2,2.1-1.7,2.3-1.9s1.2-1,1.2-1l0,0c0.2-0.2,2.1-1.7,2.3-1.9L386.1,416.1z"
			/>
		<path class="st11" d="M385.4,416.5c11.1-8.9,29.2-12.1,40.2-7l173.6,77c2.3,1.2,4.3,2.5,5.6,4.1c0.6,0.6,1,1.2,1.4,1.7
			c0.2,0.2,0.4,0.6,0.6,0.8c0.6,1,1,2.1,1.2,3.1c0.2,0.8,0.2,1.6,0.2,2.3c0,0.4,0,0.8,0,1.2c0,0.4,0,0.8,0,1c0,0.4-0.2,1-0.2,1.4
			s-0.2,0.8-0.2,1c-0.2,0.4-0.2,0.8-0.4,1.2l0,0c0,0.2-0.2,0.4-0.2,0.6s-0.2,0.4-0.2,0.6c-0.2,0.4-0.4,0.8-0.6,1
			c-0.2,0.4-0.4,0.6-0.6,1c-0.2,0.4-0.4,0.8-0.6,1.2c-0.8,1.2-1.7,2.1-2.9,3.1c0,0.4-3.1,3.1-3.1,3.5l-0.6,0.6l-0.2,0.2
			c0,0.4-3.5,3.3-3.7,3.7c0,0-1,0.8-1,1c-0.2,0.2-1.9,1.7-2.1,1.9l-0.6,0.6c0,0-1,0.8-1,1l-1,0.8c0,0-0.2,0.2-0.4,0.2
			c-0.2,0.2-2.3,1.9-2.3,1.9l-1.2,1l0,0c-0.2,0.2-2.1,1.7-2.3,1.9L269.5,783.8c-11.1,8.9-29.2,12.1-40.2,7l-173.6-77
			c-2.3-1.2-4.3-2.5-5.6-4.1c-0.6-0.6-1-1.2-1.4-1.7c-0.2-0.2-0.4-0.6-0.6-0.8c-0.6-1-1-2.1-1.2-3.1c-0.2-0.8-0.2-1.6-0.2-2.3
			c0-0.4,0-0.8,0-1.2s0-0.8,0-1c0-0.4,0.2-1,0.2-1.4s0.2-0.8,0.2-1c0.2-0.4,0.2-0.8,0.4-1.2l0,0c0-0.2,0.2-0.4,0.2-0.6
			s0.2-0.4,0.2-0.6c0.2-0.4,0.4-0.8,0.6-1c0.2-0.4,0.4-0.6,0.6-1c0.2-0.4,0.4-0.8,0.6-1.2c0.8-1.2,1.7-2.1,2.9-3.1
			c0-0.4,3.1-3.1,3.1-3.5l0.6-0.6l0.2-0.2c0.2-0.4,3.5-3.3,3.7-3.7c0,0,1-0.8,1-1c0.2-0.2,1.9-1.7,2.1-1.9l0.6-0.6c0,0,1-0.8,1-1
			l1-0.8c0,0,0.2-0.2,0.4-0.2c0.2-0.2,2.3-1.9,2.3-1.9l1.2-1l0,0c0.2-0.2,2.1-1.7,2.3-1.9L385.4,416.5z"/>
		<path class="st12" d="M384.6,416.9c11.1-8.9,29.2-12.1,40.2-7l173.4,77c2.3,1.2,4.3,2.5,5.6,4.1c0.6,0.6,1,1.2,1.4,1.7
			c0.2,0.2,0.4,0.6,0.6,0.8c0.6,1,0.8,2.1,1,3.1c0.2,0.8,0.2,1.6,0.2,2.3c0,0.4,0,0.8,0,1.2c0,0.4,0,0.8-0.2,1c0,0.4-0.2,1-0.4,1.4
			s-0.2,0.8-0.4,1c-0.2,0.4-0.2,0.8-0.4,1.2l0,0c0,0.2-0.2,0.4-0.2,0.6s-0.2,0.4-0.4,0.6c-0.2,0.4-0.4,0.6-0.6,1
			c-0.2,0.4-0.4,0.6-0.6,1c-0.2,0.4-0.4,0.8-0.8,1c-1,1.2-1.9,2.1-3.3,3.3c0,0.2-3.5,3.1-3.5,3.3l-0.6,0.6l-0.2,0.2
			c0,0.2-3.7,3.3-3.9,3.5l-1,0.8c0,0-2.1,1.7-2.1,1.9c0,0-0.6,0.6-0.8,0.6l-1,0.8l-1,0.8c0,0-0.2,0.2-0.4,0.2l-2.3,1.9l-1.2,1l0,0
			l-2.3,1.9L268.9,781.9c-11.1,8.9-29.2,12.1-40.2,7l-173.4-77c-2.3-1.2-4.3-2.5-5.6-4.1c-0.6-0.6-1-1.2-1.4-1.7
			c-0.2-0.2-0.4-0.6-0.6-0.8c-0.6-1-0.8-2.1-1-3.1c-0.2-0.8-0.2-1.6-0.2-2.3c0-0.4,0-0.8,0-1.2s0-0.8,0.2-1c0-0.4,0.2-1,0.4-1.4
			s0.2-0.8,0.4-1c0.2-0.4,0.2-0.8,0.4-1.2l0,0c0-0.2,0.2-0.4,0.2-0.6s0.2-0.4,0.4-0.6c0.2-0.4,0.4-0.6,0.6-1c0.2-0.4,0.4-0.6,0.6-1
			c0.2-0.4,0.4-0.8,0.8-1c1-1.2,1.9-2.1,3.3-3.3c0-0.2,3.5-3.1,3.5-3.3l0.6-0.6l0.2-0.2c0-0.2,3.7-3.3,3.9-3.5l1-0.8
			c0,0,2.1-1.7,2.1-1.9c0,0,0.6-0.6,0.8-0.6l1-0.8l1-0.8c0,0,0.2-0.2,0.4-0.2l2.3-1.9l1.2-1l0,0l2.3-1.9L384.6,416.9z"/>
		<path class="st13" d="M54.4,684.3c-11.1,8.9-10.9,20.4,0.2,25.5l173.4,77c11.1,5.1,29.2,1.9,40.2-7l329.4-267
			c11.1-8.9,10.9-20.4-0.2-25.5l-173.4-77c-11.1-5.1-29.2-1.9-40.2,7L54.4,684.3z"/>
	</g>
	<g>
		<path class="st14" d="M596.7,511.2l-326.8,265c-10.7,8.7-28.4,11.7-39.1,6.8L62,708.2c-10.9-5.1-10.9-16.1-0.2-24.9l326.8-265
			c10.7-8.7,28.4-11.7,39.1-6.8l29.2,13l-4.7,3.5c-4.7,4.5-7,9.3-1.7,11.7l78.4,35.4c5.2,2.3,13.8,0.2,20.8-3.1l7-3.1l39.7,17.7
			C607.4,491.4,607.4,502.5,596.7,511.2z"/>
	</g>
	<g>
		
			<linearGradient id="SVGID_13_" gradientUnits="userSpaceOnUse" x1="1082.2966" y1="490.5149" x2="1076.2457" y2="494.1977" gradientTransform="matrix(-0.5553 0.9398 0.7802 0.4803 403.5798 -466.672)">
			<stop  offset="0" style="stop-color:#FFFFFF"/>
			<stop  offset="1" style="stop-color:#060606;stop-opacity:0.5"/>
		</linearGradient>
		<path class="st27" d="M188.8,785.7c-1.2-0.8-1.6-2.3-1-3.7s1.9-1.9,3.1-1.2c1.2,0.8,1.6,2.3,1,3.7
			C191.3,785.7,190,786.3,188.8,785.7z"/>
		
			<linearGradient id="SVGID_14_" gradientUnits="userSpaceOnUse" x1="1083.3054" y1="481.7546" x2="1077.2544" y2="485.4376" gradientTransform="matrix(-0.5553 0.9398 0.7802 0.4803 403.5798 -466.672)">
			<stop  offset="0" style="stop-color:#FFFFFF"/>
			<stop  offset="1" style="stop-color:#060606;stop-opacity:0.5"/>
		</linearGradient>
		<path class="st28" d="M181.4,782.4c-1.2-0.8-1.6-2.3-1-3.7s1.9-1.9,3.1-1.2c1.2,0.8,1.6,2.3,1,3.7
			C183.9,782.6,182.6,783,181.4,782.4z"/>
		
			<linearGradient id="SVGID_15_" gradientUnits="userSpaceOnUse" x1="1081.1067" y1="500.6814" x2="1075.0554" y2="504.3642" gradientTransform="matrix(-0.5553 0.9398 0.7802 0.4803 403.5798 -466.672)">
			<stop  offset="0" style="stop-color:#FFFFFF"/>
			<stop  offset="1" style="stop-color:#060606;stop-opacity:0.5"/>
		</linearGradient>
		<path class="st29" d="M197.5,789.4c-1.2-0.8-1.6-2.3-1-3.7s1.9-1.9,3.1-1.2c1.2,0.8,1.6,2.3,1,3.7
			C200.1,789.4,198.5,790,197.5,789.4z"/>
		
			<linearGradient id="SVGID_16_" gradientUnits="userSpaceOnUse" x1="1079.9104" y1="510.8378" x2="1073.8595" y2="514.5206" gradientTransform="matrix(-0.5553 0.9398 0.7802 0.4803 403.5798 -466.672)">
			<stop  offset="0" style="stop-color:#FFFFFF"/>
			<stop  offset="1" style="stop-color:#060606;stop-opacity:0.5"/>
		</linearGradient>
		<path class="st30" d="M206.1,793.1c-1.2-0.8-1.6-2.3-1-3.7s1.9-1.9,3.1-1.2c1.2,0.8,1.6,2.3,1,3.7S207.3,793.7,206.1,793.1z"/>
		
			<linearGradient id="SVGID_17_" gradientUnits="userSpaceOnUse" x1="1078.7158" y1="520.9648" x2="1072.6649" y2="524.6476" gradientTransform="matrix(-0.5553 0.9398 0.7802 0.4803 403.5798 -466.672)">
			<stop  offset="0" style="stop-color:#FFFFFF"/>
			<stop  offset="1" style="stop-color:#060606;stop-opacity:0.5"/>
		</linearGradient>
		<path class="st31" d="M214.7,796.8c-1.2-0.8-1.6-2.3-1-3.7s1.9-1.9,3.1-1.2c1.2,0.8,1.6,2.3,1,3.7S215.8,797.6,214.7,796.8z"/>
		
			<linearGradient id="SVGID_18_" gradientUnits="userSpaceOnUse" x1="1077.5325" y1="531.142" x2="1071.4813" y2="534.8251" gradientTransform="matrix(-0.5553 0.9398 0.7802 0.4803 403.5798 -466.672)">
			<stop  offset="0" style="stop-color:#FFFFFF"/>
			<stop  offset="1" style="stop-color:#060606;stop-opacity:0.5"/>
		</linearGradient>
		<path class="st32" d="M223.2,800.7c-1.2-0.8-1.6-2.3-1-3.7s1.9-1.9,3.1-1.2c1.2,0.8,1.6,2.3,1,3.7
			C225.7,800.7,224.4,801.3,223.2,800.7z"/>
	</g>
	<g>
		
			<linearGradient id="SVGID_19_" gradientUnits="userSpaceOnUse" x1="1098.0208" y1="346.6081" x2="1091.9697" y2="350.291" gradientTransform="matrix(-0.5553 0.9398 0.7802 0.4803 403.5798 -466.672)">
			<stop  offset="0" style="stop-color:#FFFFFF"/>
			<stop  offset="1" style="stop-color:#060606;stop-opacity:0.5"/>
		</linearGradient>
		<path class="st33" d="M67.9,731.3c-1.2-0.8-1.6-2.3-1-3.7s1.9-1.9,3.1-1.2c1.2,0.8,1.6,2.3,1,3.7C70.4,731.3,69,731.9,67.9,731.3z
			"/>
		
			<linearGradient id="SVGID_20_" gradientUnits="userSpaceOnUse" x1="1099.0424" y1="337.8686" x2="1092.9915" y2="341.5514" gradientTransform="matrix(-0.5553 0.9398 0.7802 0.4803 403.5798 -466.672)">
			<stop  offset="0" style="stop-color:#FFFFFF"/>
			<stop  offset="1" style="stop-color:#060606;stop-opacity:0.5"/>
		</linearGradient>
		<path class="st34" d="M60.5,728c-1.2-0.8-1.6-2.3-1-3.7s1.9-1.9,3.1-1.2c1.2,0.8,1.6,2.3,1,3.7S61.6,728.8,60.5,728z"/>
		
			<linearGradient id="SVGID_21_" gradientUnits="userSpaceOnUse" x1="1096.7983" y1="356.7214" x2="1090.7474" y2="360.4044" gradientTransform="matrix(-0.5553 0.9398 0.7802 0.4803 403.5798 -466.672)">
			<stop  offset="0" style="stop-color:#FFFFFF"/>
			<stop  offset="1" style="stop-color:#060606;stop-opacity:0.5"/>
		</linearGradient>
		<path class="st35" d="M76.4,735c-1.2-0.8-1.6-2.3-1-3.7s1.9-1.9,3.1-1.2c1.2,0.8,1.6,2.3,1,3.7S77.6,735.6,76.4,735z"/>
		
			<linearGradient id="SVGID_22_" gradientUnits="userSpaceOnUse" x1="1095.5895" y1="366.8575" x2="1089.5385" y2="370.5403" gradientTransform="matrix(-0.5553 0.9398 0.7802 0.4803 403.5798 -466.672)">
			<stop  offset="0" style="stop-color:#FFFFFF"/>
			<stop  offset="1" style="stop-color:#060606;stop-opacity:0.5"/>
		</linearGradient>
		<path class="st36" d="M85,738.7c-1.2-0.8-1.6-2.3-1-3.7s1.9-1.9,3.1-1.2s1.6,2.3,1,3.7S86.1,739.5,85,738.7z"/>
		
			<linearGradient id="SVGID_23_" gradientUnits="userSpaceOnUse" x1="1094.4266" y1="377.0361" x2="1088.3757" y2="380.7191" gradientTransform="matrix(-0.5553 0.9398 0.7802 0.4803 403.5798 -466.672)">
			<stop  offset="0" style="stop-color:#FFFFFF"/>
			<stop  offset="1" style="stop-color:#060606;stop-opacity:0.5"/>
		</linearGradient>
		<path class="st37" d="M93.5,742.6c-1.2-0.8-1.6-2.3-1-3.7s1.9-1.9,3.1-1.2s1.6,2.3,1,3.7C96.1,742.6,94.7,743.2,93.5,742.6z"/>
		
			<linearGradient id="SVGID_24_" gradientUnits="userSpaceOnUse" x1="1093.1991" y1="387.1408" x2="1087.1478" y2="390.8239" gradientTransform="matrix(-0.5553 0.9398 0.7802 0.4803 403.5798 -466.672)">
			<stop  offset="0" style="stop-color:#FFFFFF"/>
			<stop  offset="1" style="stop-color:#060606;stop-opacity:0.5"/>
		</linearGradient>
		<path class="st38" d="M102.1,746.3c-1.2-0.8-1.6-2.3-1-3.7s1.9-1.9,3.1-1.2c1.2,0.8,1.6,2.3,1,3.7
			C104.6,746.3,103.2,746.9,102.1,746.3z"/>
	</g>
</g>
<g id="rightIphone">
	<g class="st0">
		<path class="st1" d="M1154.6,657.2c0,0.6,0,1,0,1.4s0,0.8,0,1.2c-0.2,1.7-0.4,3.5-1,5.2c0,0.4-0.2,0.6-0.2,1
			c0,0.2-0.2,0.4-0.2,0.6c-0.6,1.7-1.4,3.5-2.1,5.2c-0.2,0.4-0.4,1-0.8,1.4c-0.6,1-1.2,1.7-1.8,2.7c-0.2,0.2-0.4,0.6-0.6,0.8
			c-0.4,0.4-0.6,0.8-1,1.2s-0.6,0.8-1,1.2c-0.2,0.2-0.2,0.2-0.4,0.4c-0.8,0.8-1.6,1.6-2.5,2.3c-0.4,0.4-1,0.8-1.4,1l0,0
			c-0.8,0.8-1.6,1.6-2.5,2.1L807.3,953.7c-11.1,8.9-29.4,12.1-40.6,7l-174.6-77.6c-2.5-1.2-4.5-2.7-5.8-4.5c-0.6-0.4-1.4-1-1.9-1.6
			c-0.2-0.2-0.6-0.6-0.8-0.8c-0.8-1-1.6-1.9-2.3-2.9c-0.4-0.8-0.8-1.4-1.2-2.1c-0.2-0.4-0.4-0.8-0.6-1.2c-0.2-0.4-0.2-0.8-0.4-1.2
			c-0.2-0.6-0.4-1-0.4-1.6c-0.2-0.4-0.2-0.8-0.4-1.2s-0.2-0.8-0.2-1.4l0,0c0-0.2,0-0.6-0.2-0.8c0-0.2,0-0.6-0.2-0.8
			c0-0.4,0-0.8-0.2-1.4c0-0.4,0-0.8,0-1.4c0-0.6,0-1,0-1.6c0-0.4,0-0.8,0-1.2c0.2-1.7,0.4-3.5,1-5.2c0-0.4,0.2-0.6,0.2-1
			c0-0.2,0.2-0.4,0.2-0.6c0.6-1.7,1.4-3.5,2.1-5.2c0.2-0.4,0.4-1,0.8-1.4c0.6-1,1.2-1.7,1.7-2.7c0.2-0.2,0.4-0.6,0.6-0.8
			c0.4-0.4,0.6-0.8,1-1.2s0.6-0.8,1-1.2c0.2-0.2,0.2-0.2,0.4-0.4c0.8-0.8,1.6-1.6,2.5-2.3c0.4-0.4,1-0.8,1.4-1l0,0
			c0.8-0.8,1.6-1.6,2.5-2.1l331.9-269.1c11.1-8.9,29.4-12.1,40.6-7l174.6,77.6c2.5,1.2,4.5,2.7,5.8,4.5c0.6,0.6,1.4,1,1.9,1.6
			c0.2,0.2,0.6,0.6,0.8,0.8c0.8,1,1.6,1.9,2.3,2.9c0.4,0.8,0.8,1.4,1.2,2.1c0.2,0.4,0.4,0.8,0.6,1.2s0.2,0.8,0.4,1.2
			c0.2,0.6,0.4,1,0.4,1.6c0.2,0.4,0.2,0.8,0.4,1.2c0.2,0.4,0.2,0.8,0.2,1.4l0,0c0,0.2,0,0.6,0.2,0.8c0,0.2,0,0.6,0.2,0.8
			c0,0.4,0,0.8,0.2,1.4C1154.6,656.4,1154.6,656.8,1154.6,657.2z"/>
	</g>
	<g>
		<path class="st2" d="M1161.7,511.6c0,0.6,0,1,0,1.4s0,0.8,0,1.2c-0.2,1.7-0.4,3.5-1,5.2c0,0.4-0.2,0.6-0.2,1
			c0,0.2-0.2,0.4-0.2,0.6c-0.6,1.7-1.4,3.5-2.1,5.2c-0.2,0.4-0.4,1-0.8,1.4c-0.6,1-1.2,1.7-1.8,2.7c-0.2,0.2-0.4,0.6-0.6,0.8
			c-0.4,0.4-0.6,0.8-1,1.2s-0.6,0.8-1,1.2c-0.2,0.2-0.2,0.2-0.4,0.4c-0.8,0.8-1.6,1.6-2.5,2.3c-0.4,0.4-1,0.8-1.4,1l0,0
			c-0.8,0.8-1.6,1.6-2.5,2.1L814.5,808.1c-11.1,8.9-29.4,12.1-40.6,7l-174.4-77.6c-2.5-1.2-4.5-2.7-5.8-4.5c-0.6-0.4-1.4-1-1.9-1.6
			c-0.2-0.2-0.6-0.6-0.8-0.8c-0.8-1-1.6-1.9-2.3-2.9c-0.4-0.8-0.8-1.4-1.2-2.1c-0.2-0.4-0.4-0.8-0.6-1.2c-0.2-0.4-0.2-0.8-0.4-1.2
			c-0.2-0.6-0.4-1-0.4-1.6c-0.2-0.4-0.2-0.8-0.4-1.2s-0.2-0.8-0.2-1.4l0,0c0-0.2,0-0.6-0.2-0.8c0-0.2,0-0.6-0.2-0.8
			c0-0.4,0-0.8-0.2-1.4c0-0.4,0-0.8,0-1.4c0-0.6,0-1,0-1.6c0-0.4,0-0.8,0-1.2c0.2-1.7,0.4-3.5,1-5.2c0-0.4,0.2-0.6,0.2-1
			c0-0.2,0.2-0.4,0.2-0.6c0.6-1.7,1.4-3.5,2.1-5.2c0.2-0.4,0.4-1,0.8-1.4c0.6-1,1.2-1.7,1.7-2.7c0.2-0.2,0.4-0.6,0.6-0.8
			c0.4-0.4,0.6-0.8,1-1.2s0.6-0.8,1-1.2c0.2-0.2,0.2-0.2,0.4-0.4c0.8-0.8,1.6-1.6,2.5-2.3c0.4-0.4,1-0.8,1.4-1l0,0
			c0.8-0.8,1.6-1.6,2.5-2.1l332.1-268.5c11.1-8.9,29.4-12.1,40.6-7l174.6,77.6c2.5,1.2,4.5,2.7,5.8,4.5c0.6,0.6,1.4,1,1.9,1.6
			c0.2,0.2,0.6,0.6,0.8,0.8c0.8,1,1.6,1.9,2.3,2.9c0.4,0.8,0.8,1.4,1.2,2.1c0.2,0.4,0.4,0.8,0.6,1.2c0.2,0.4,0.2,0.8,0.4,1.2
			c0.2,0.6,0.4,1,0.4,1.6c0.2,0.4,0.2,0.8,0.4,1.2c0.2,0.4,0.2,0.8,0.2,1.4l0,0c0,0.2,0,0.6,0.2,0.8c0,0.2,0,0.6,0.2,0.8
			c0,0.4,0,0.8,0.2,1.4C1161.7,510.8,1161.7,511.2,1161.7,511.6z"/>
		<path class="st3" d="M931.5,419c11.1-8.9,29.4-12.1,40.4-7l174.6,77.4c2.5,1.2,4.5,2.7,5.8,4.3c0.6,0.6,1.2,1,1.8,1.6
			c0.2,0.2,0.6,0.6,0.8,0.8c0.8,1,1.6,1.9,2.1,2.9c0.4,0.8,0.8,1.4,1.2,2.1c0.2,0.4,0.4,0.8,0.4,1.2c0.2,0.4,0.2,0.8,0.4,1
			c0.2,0.6,0.2,1,0.4,1.6c0,0.4,0.2,0.8,0.2,1.2c0,0.4,0.2,0.8,0.2,1.4l0,0c0,0.2,0,0.6,0,0.8s0,0.6,0,0.8c0,0.4,0,0.8,0,1.2
			s0,0.8,0,1.4c0,0.4,0,1-0.2,1.4c0,0.4-0.2,1-0.4,1.4c-0.2,1.6-0.8,3.5-1.2,5.1c0,0.2-0.2,0.6-0.2,1c0,0.2-0.2,0.4-0.2,0.4
			c-0.4,1.6-1.6,3.5-2.3,5.1c-0.2,0.4-0.6,1-0.8,1.2c-0.6,0.8-1.2,1.7-1.7,2.5c-0.2,0.2-0.4,0.6-0.6,0.8c-0.2,0.4-0.6,0.8-1,1.2
			c-0.2,0.4-0.6,0.8-1,1c-0.2,0.2-0.2,0.2-0.4,0.4c-0.8,0.8-1.8,1.6-2.5,2.3c-0.4,0.4-1,0.8-1.4,1l0,0c-0.6,0.8-1.6,1.6-2.5,2.1
			L813.9,806c-11.1,8.9-29.4,12.1-40.4,7l-174.6-77.4c-2.5-1.2-4.5-2.7-5.8-4.3c-0.6-0.6-1.2-1-1.7-1.6c-0.2-0.2-0.6-0.6-0.8-0.8
			c-0.8-1-1.6-1.9-2.1-2.9c-0.4-0.8-0.8-1.4-1.2-2.1c-0.2-0.4-0.4-0.8-0.4-1.2c-0.2-0.4-0.2-0.8-0.4-1c-0.2-0.6-0.2-1-0.4-1.6
			c0-0.4-0.2-0.8-0.2-1.2s-0.2-0.8-0.2-1.4l0,0c0-0.2,0-0.6,0-0.8s0-0.6,0-0.8c0-0.4,0-0.8,0-1.2s0-0.8,0-1.4c0-0.4,0-1,0.2-1.4
			c0-0.4,0.2-1,0.4-1.4c0.2-1.6,0.8-3.5,1.2-5.1c0-0.2,0.2-0.6,0.2-1c0-0.2,0.2-0.4,0.2-0.4c0.6-1.7,1.6-3.5,2.3-5.1
			c0.2-0.4,0.6-1,0.8-1.2c0.6-0.8,1.2-1.7,1.7-2.5c0.2-0.2,0.4-0.6,0.6-0.8c0.2-0.4,0.6-0.8,1-1.2c0.2-0.4,0.6-0.8,1-1
			c0.2-0.2,0.2-0.2,0.4-0.4c0.8-0.8,1.7-1.6,2.5-2.3c0.4-0.4,1-0.8,1.4-1l0,0c0.6-0.8,1.6-1.6,2.5-2.1L931.5,419z"/>
		<path class="st4" d="M930.8,419.4c11.1-8.9,29.4-12.1,40.4-7l174.4,77.4c2.5,1.2,4.5,2.5,5.8,4.3c0.6,0.6,1.2,1,1.8,1.7
			c0.2,0.2,0.4,0.6,0.8,0.8c0.8,1,1.4,1.9,1.9,2.9c0.4,0.8,0.8,1.4,1,2.1c0.2,0.4,0.2,0.8,0.4,1.2c0.2,0.4,0.2,0.8,0.4,1
			c0.2,0.6,0.2,1,0.4,1.6c0,0.4,0.2,0.8,0.2,1.2c0,0.4,0,0.8,0.2,1.2l0,0c0,0.2,0,0.6,0,0.8s0,0.6,0,0.8c0,0.4,0,0.8,0,1.2
			c0,0.4,0,0.8,0,1.2c0,0.4,0,1-0.2,1.4c-0.2,0.6-0.4,1.2-0.8,1.6c-0.2,1.4-1,3.3-1.4,4.9c0,0.2-0.2,0.6-0.4,0.8
			c0,0.2-0.2,0.4-0.2,0.4c-0.4,1.6-1.7,3.5-2.5,4.9c-0.2,0.4-0.6,0.8-0.8,1.2c-0.4,0.8-1.4,1.7-1.8,2.5c-0.2,0.2-0.4,0.6-0.6,0.8
			c-0.2,0.4-0.8,0.8-1,1.2s-0.8,0.8-1,1c0,0.2-0.2,0.2-0.4,0.4c-0.6,0.6-1.8,1.6-2.5,2.1c-0.4,0.4-1,0.8-1.4,1l0,0
			c-0.6,0.6-1.8,1.6-2.3,2.1L813.3,804c-11.1,8.9-29.4,12.1-40.4,7l-174.4-77.4c-2.5-1.2-4.5-2.5-5.8-4.3c-0.6-0.6-1.2-1-1.7-1.7
			c-0.2-0.2-0.4-0.6-0.8-0.8c-0.8-1-1.4-1.9-1.9-2.9c-0.4-0.8-0.8-1.4-1-2.1c-0.2-0.4-0.2-0.8-0.4-1.2s-0.2-0.8-0.4-1
			c-0.2-0.6-0.2-1-0.4-1.6c0-0.4-0.2-0.8-0.2-1.2s0-0.8-0.2-1.2l0,0c0-0.2,0-0.6,0-0.8s0-0.6,0-0.8c0-0.4,0-0.8,0-1.2s0-0.8,0-1.2
			s0-1,0.2-1.4c0.2-0.6,0.4-1.2,0.8-1.6c0.2-1.4,1-3.3,1.4-4.9c0-0.2,0.2-0.6,0.4-0.8c0-0.2,0.2-0.4,0.2-0.4
			c0.4-1.6,1.7-3.5,2.5-4.9c0.2-0.4,0.6-0.8,0.8-1.2c0.4-0.8,1.4-1.7,1.7-2.5c0.2-0.2,0.4-0.6,0.6-0.8c0.2-0.4,0.8-0.8,1-1.2
			s0.8-0.8,1-1c0-0.2,0.2-0.2,0.4-0.4c0.6-0.6,1.7-1.6,2.5-2.1c0.4-0.4,1-0.8,1.4-1l0,0c0.6-0.6,1.7-1.6,2.3-2.1L930.8,419.4z"/>
		<path class="st5" d="M930,419.8c11.1-8.9,29.2-12.1,40.4-7l174.2,77.4c2.5,1.2,4.5,2.5,5.8,4.3c0.6,0.6,1.2,1.2,1.8,1.7
			c0.2,0.2,0.4,0.6,0.6,0.8c0.8,1,1.4,1.9,1.9,3.1c0.4,0.8,0.6,1.4,1,2.1c0.2,0.4,0.2,0.8,0.4,1.2c0,0.4,0.2,0.8,0.2,1
			c0.2,0.6,0.2,1,0.2,1.6c0,0.4,0,0.8,0.2,1.2c0,0.4,0,0.8,0,1.2l0,0c0,0.2,0,0.6,0,0.8s0,0.6,0,0.8c0,0.4,0,0.8-0.2,1.2
			c0,0.4,0,0.8-0.2,1.2c0,0.4-0.2,1-0.2,1.4c-0.2,0.6-0.6,1.2-1,1.7c-0.2,1.4-1.4,3.3-1.8,4.7c0,0.2-0.4,0.6-0.4,0.8
			s-0.2,0.4-0.2,0.4c-0.4,1.4-2.1,3.5-2.7,4.7c-0.2,0.4-0.6,0.8-0.8,1.2c-0.4,0.6-1.4,1.7-1.9,2.3c-0.2,0.2-0.6,0.6-0.6,0.8
			c-0.2,0.4-0.8,0.8-1,1s-0.8,0.8-1,1c0,0.2-0.2,0.2-0.4,0.4c-0.6,0.6-1.7,1.7-2.5,2.1c-0.4,0.2-1,0.8-1.4,1l0,0
			c-0.6,0.6-1.7,1.6-2.3,2.1L812.7,801.9c-11.1,8.9-29.2,12.1-40.4,7l-174.2-77.4c-2.5-1.2-4.5-2.5-5.8-4.3
			c-0.6-0.6-1.2-1.2-1.7-1.7c-0.2-0.2-0.4-0.6-0.6-0.8c-0.8-1-1.4-1.9-1.9-3.1c-0.4-0.8-0.6-1.4-1-2.1c-0.2-0.4-0.2-0.8-0.4-1.2
			c0-0.4-0.2-0.8-0.2-1c-0.2-0.6-0.2-1-0.2-1.6c0-0.4,0-0.8-0.2-1.2c0-0.4,0-0.8,0-1.2l0,0c0-0.2,0-0.6,0-0.8s0-0.6,0-0.8
			c0-0.4,0-0.8,0.2-1.2c0-0.4,0-0.8,0.2-1.2c0-0.4,0.2-1,0.2-1.4c0.2-0.6,0.6-1.2,1-1.7c0.2-1.4,1.4-3.3,1.7-4.7
			c0-0.2,0.4-0.6,0.4-0.8s0.2-0.4,0.2-0.4c0.4-1.4,2.1-3.5,2.7-4.7c0.2-0.4,0.6-0.8,0.8-1.2c0.4-0.6,1.4-1.7,1.9-2.3
			c0.2-0.2,0.6-0.6,0.6-0.8c0.2-0.2,0.8-0.8,1-1s0.8-0.8,1-1c0,0,0.2-0.2,0.4-0.4c0.6-0.6,1.7-1.7,2.5-2.1c0.4-0.2,1-0.8,1.4-1l0,0
			c0.6-0.6,1.7-1.6,2.3-2.1L930,419.8z"/>
		<path class="st6" d="M929.2,420c11.1-8.9,29.2-12.1,40.4-7l174.2,77.4c2.5,1.2,4.5,2.5,5.8,4.3c0.6,0.6,1.2,1.2,1.8,1.7
			c0.2,0.2,0.4,0.6,0.6,0.8c0.8,1,1.4,1.9,1.8,3.1c0.4,0.8,0.6,1.4,0.8,2.1c0.2,0.4,0.2,0.8,0.2,1.2s0.2,0.8,0.2,1
			c0,0.6,0.2,1,0.2,1.6c0,0.4,0,0.8,0,1.2c0,0.4,0,0.8,0,1.2l0,0c0,0.2,0,0.6,0,0.8c0,0.2,0,0.4,0,0.8s-0.2,0.8-0.2,1.2
			c0,0.4-0.2,0.8-0.2,1.2s-0.2,1-0.4,1.4c-0.4,0.8-0.8,1.4-1.4,1.9c0,1.2-1.6,3.3-1.9,4.5c0,0.2-0.4,0.6-0.4,0.8s-0.2,0.4-0.2,0.4
			c-0.4,1.2-2.3,3.5-2.9,4.5c-0.2,0.2-0.6,0.8-0.8,1.2c-0.4,0.6-1.6,1.7-1.9,2.3c-0.2,0.2-0.6,0.6-0.6,0.8c-0.2,0.2-0.8,0.8-1,1
			s-0.8,0.8-1,1c0,0-0.2,0.2-0.4,0.4c-0.6,0.6-1.9,1.7-2.5,2.1c-0.2,0.2-1,0.8-1.4,1l0,0c-0.4,0.4-1.8,1.6-2.3,2.1L812.2,799.7
			c-11.1,8.9-29.2,12.1-40.4,7l-174.2-77.4c-2.5-1.2-4.5-2.5-5.8-4.3c-0.6-0.6-1.2-1.2-1.7-1.7c-0.2-0.2-0.4-0.6-0.6-0.8
			c-0.8-1-1.4-1.9-1.7-3.1c-0.4-0.8-0.6-1.4-0.8-2.1c-0.2-0.4-0.2-0.8-0.2-1.2s-0.2-0.8-0.2-1c0-0.6-0.2-1-0.2-1.6
			c0-0.4,0-0.8,0-1.2s0-0.8,0-1.2l0,0c0-0.2,0-0.6,0-0.8s0-0.4,0-0.8s0.2-0.8,0.2-1.2s0.2-0.8,0.2-1.2s0.2-1,0.4-1.4
			c0.4-0.8,0.8-1.4,1.4-1.9c0-1.2,1.6-3.3,1.9-4.5c0-0.2,0.4-0.6,0.4-0.8s0.2-0.4,0.2-0.4c0.4-1.2,2.3-3.5,2.9-4.5
			c0.2-0.2,0.6-0.8,0.8-1.2c0.4-0.6,1.6-1.7,1.9-2.3c0.2-0.2,0.6-0.6,0.6-0.8c0.2-0.2,0.8-0.8,1-1s0.8-0.8,1-1c0,0,0.2-0.2,0.4-0.4
			c0.6-0.6,1.9-1.7,2.5-2.1c0.2-0.2,1-0.8,1.4-1l0,0c0.4-0.4,1.7-1.6,2.3-2.1L929.2,420z"/>
		<path class="st7" d="M928.2,420.4c11.1-8.9,29.2-12.1,40.4-7l174,77.2c2.5,1.2,4.5,2.5,5.8,4.3c0.6,0.6,1.2,1.2,1.6,1.7
			c0.2,0.2,0.4,0.6,0.6,0.8c0.6,1,1.2,1.9,1.6,3.1c0.2,0.8,0.6,1.4,0.8,2.1c0,0.4,0.2,0.8,0.2,1.2c0,0.4,0.2,0.8,0.2,1
			c0,0.4,0,1,0,1.6c0,0.4,0,0.8,0,1.2c0,0.4,0,0.8,0,1.2l0,0c0,0.2,0,0.4,0,0.8c0,0.2,0,0.4-0.2,0.8c0,0.4-0.2,0.8-0.2,1.2
			c0,0.4-0.2,0.8-0.2,1.2c-0.2,0.4-0.2,0.8-0.4,1.2c-0.4,0.8-1,1.6-1.8,2.1c0,1-1.9,3.3-2.1,4.3c0,0.2-0.4,0.6-0.4,0.8
			c0,0-0.2,0.2-0.2,0.4c-0.2,1-2.5,3.5-3.1,4.3c-0.2,0.2-0.8,0.8-0.8,1.2c-0.4,0.6-1.6,1.7-1.9,2.3c-0.2,0.2-0.6,0.6-0.6,0.8
			c-0.2,0.2-0.8,0.8-1,1s-0.8,0.8-1,1c0,0-0.2,0.2-0.4,0.4c-0.4,0.4-1.9,1.7-2.5,2.1c-0.2,0.2-1,0.8-1.4,1l0,0
			c-0.4,0.4-1.9,1.7-2.3,2.1L811.6,797.6c-11.1,8.9-29.2,12.1-40.4,7l-174-77.2c-2.5-1.2-4.5-2.5-5.8-4.3c-0.6-0.6-1.2-1.2-1.6-1.7
			c-0.2-0.2-0.4-0.6-0.6-0.8c-0.6-1-1.2-1.9-1.6-3.1c-0.2-0.8-0.6-1.4-0.8-2.1c0-0.4-0.2-0.8-0.2-1.2s-0.2-0.8-0.2-1
			c0-0.4,0-1,0-1.6c0-0.4,0-0.8,0-1.2s0-0.8,0-1.2l0,0c0-0.2,0-0.4,0-0.8c0-0.2,0-0.4,0.2-0.8c0-0.4,0.2-0.8,0.2-1.2
			s0.2-0.8,0.2-1.2c0.2-0.4,0.2-0.8,0.4-1.2c0.4-0.8,1-1.6,1.7-2.1c0-1,1.9-3.3,2.1-4.3c0-0.2,0.4-0.6,0.4-0.8c0,0,0.2-0.2,0.2-0.4
			c0.4-1,2.5-3.5,3.1-4.3c0.2-0.2,0.8-0.8,0.8-1.2c0.4-0.6,1.6-1.7,1.9-2.3c0.2-0.2,0.6-0.6,0.6-0.8c0.2-0.2,0.8-0.8,1-1
			s0.8-0.8,1-1c0,0,0.2-0.2,0.4-0.4c0.4-0.4,1.9-1.7,2.5-2.1c0.2-0.2,1-0.8,1.4-1l0,0c0.4-0.4,1.9-1.7,2.3-2.1L928.2,420.4z"/>
		<path class="st8" d="M927.5,420.8c11.1-8.9,29.2-12.1,40.4-7l174,77.2c2.5,1.2,4.3,2.5,5.8,4.3c0.6,0.6,1.2,1.2,1.6,1.7
			c0.2,0.2,0.4,0.6,0.6,0.8c0.6,1,1.2,1.9,1.6,3.1c0.2,0.8,0.4,1.6,0.6,2.1c0,0.4,0.2,0.8,0.2,1.2c0,0.4,0,0.8,0,1c0,0.4,0,1,0,1.4
			s0,0.8,0,1.2s-0.2,0.8-0.2,1.2l0,0c0,0.2,0,0.4-0.2,0.8c0,0.2,0,0.4-0.2,0.8c0,0.4-0.2,0.8-0.4,1.2c-0.2,0.4-0.2,0.8-0.4,1.2
			c-0.2,0.4-0.2,0.8-0.4,1.2c-0.4,1-1.2,1.6-1.9,2.3c0,0.8-2.1,3.3-2.3,4.1c0,0.2-0.4,0.6-0.4,0.8c0,0-0.2,0.2-0.2,0.4
			c-0.2,0.8-2.7,3.5-3.1,4.1c-0.2,0.2-0.8,0.8-1,1c-0.2,0.4-1.7,1.7-1.9,2.1c0,0.2-0.6,0.6-0.6,0.8c-0.2,0.2-0.8,0.8-1,1
			s-0.8,0.8-1,1c0,0-0.2,0.2-0.4,0.4c-0.4,0.4-1.9,1.7-2.5,2.1c-0.2,0.2-1,0.8-1.4,1l0,0c-0.4,0.4-1.9,1.7-2.3,1.9L811,795.5
			c-11.1,8.9-29.2,12.1-40.4,7l-174-77.2c-2.5-1.2-4.3-2.5-5.8-4.3c-0.6-0.6-1.2-1.2-1.6-1.7c-0.2-0.2-0.4-0.6-0.6-0.8
			c-0.6-1-1.2-1.9-1.6-3.1c-0.2-0.8-0.4-1.6-0.6-2.1c0-0.4-0.2-0.8-0.2-1.2s0-0.8,0-1c0-0.4,0-1,0-1.4s0-0.8,0-1.2s0.2-0.8,0.2-1.2
			l0,0c0-0.2,0-0.4,0.2-0.8c0-0.2,0-0.4,0.2-0.8c0-0.4,0.2-0.8,0.4-1.2s0.2-0.8,0.4-1.2s0.2-0.8,0.4-1.2c0.4-1,1.2-1.6,1.9-2.3
			c0-0.8,2.1-3.3,2.3-4.1c0-0.2,0.4-0.6,0.4-0.8c0,0,0.2-0.2,0.2-0.4c0.2-0.8,2.7-3.5,3.1-4.1c0.2-0.2,0.8-0.8,1-1
			c0.2-0.4,1.7-1.7,1.9-2.1c0-0.2,0.6-0.6,0.6-0.8c0.2-0.2,0.8-0.8,1-1s0.8-0.8,1-1c0,0,0.2-0.2,0.4-0.4c0.4-0.4,1.9-1.7,2.5-2.1
			c0.2-0.2,1-0.8,1.4-1l0,0c0.4-0.4,1.9-1.7,2.3-1.9L927.5,420.8z"/>
		<path class="st9" d="M926.7,421.2c11.1-8.9,29.2-12.1,40.4-7l173.8,77.2c2.5,1.2,4.3,2.5,5.6,4.1c0.6,0.6,1.2,1.2,1.6,1.7
			c0.2,0.2,0.4,0.6,0.6,0.8c0.6,1,1.2,1.9,1.4,3.1c0.2,0.8,0.4,1.6,0.4,2.1c0,0.4,0,0.8,0.2,1.2c0,0.4,0,0.8,0,1c0,0.4,0,1,0,1.4
			s0,0.8-0.2,1.2c0,0.4-0.2,0.8-0.2,1.2l0,0c0,0.2-0.2,0.4-0.2,0.6s-0.2,0.4-0.2,0.6c-0.2,0.4-0.2,0.8-0.4,1.2s-0.2,0.8-0.4,1
			c-0.2,0.4-0.4,0.8-0.6,1.2c-0.6,1-1.4,1.7-2.3,2.7c0,0.6-2.5,3.1-2.7,3.9c0,0.2-0.4,0.6-0.6,0.6c0,0-0.2,0.2-0.2,0.4
			c-0.2,0.6-3.1,3.3-3.3,4.1c0,0.2-0.8,0.8-1,1c-0.2,0.4-1.8,1.7-2.1,2.1c0,0.2-0.6,0.6-0.6,0.6c-0.2,0.2-0.8,0.8-1,1s-0.8,0.8-1,1
			c0,0-0.2,0.2-0.4,0.2c-0.2,0.4-2.1,1.7-2.3,2.1c-0.2,0.2-1.2,0.8-1.2,1l0,0c-0.2,0.2-2.1,1.7-2.3,1.9L810.4,793.3
			c-11.1,8.9-29.2,12.1-40.4,7l-173.8-77.2c-2.5-1.2-4.3-2.5-5.6-4.1c-0.6-0.6-1.2-1.2-1.6-1.7c-0.2-0.2-0.4-0.6-0.6-0.8
			c-0.6-1-1.2-1.9-1.4-3.1c-0.2-0.8-0.4-1.6-0.4-2.1c0-0.4,0-0.8-0.2-1.2c0-0.4,0-0.8,0-1c0-0.4,0-1,0-1.4s0-0.8,0.2-1.2
			c0-0.4,0.2-0.8,0.2-1.2l0,0c0-0.2,0.2-0.4,0.2-0.6c0-0.2,0.2-0.4,0.2-0.6c0.2-0.4,0.2-0.8,0.4-1.2s0.2-0.8,0.4-1
			c0.2-0.4,0.4-0.8,0.6-1.2c0.6-1,1.4-1.7,2.3-2.7c0-0.6,2.5-3.1,2.7-3.9c0-0.2,0.4-0.6,0.6-0.6c0,0,0.2-0.2,0.2-0.4
			c0.2-0.6,3.1-3.3,3.3-4.1c0-0.2,0.8-0.8,1-1c0.2-0.4,1.7-1.7,2.1-2.1c0-0.2,0.6-0.6,0.6-0.6c0.2-0.2,0.8-0.8,1-1s0.8-0.8,1-1
			c0,0,0.2-0.2,0.4-0.2c0.2-0.4,2.1-1.7,2.3-2.1c0.2-0.2,1.2-1,1.2-1l0,0c0.2-0.2,2.1-1.7,2.3-1.9L926.7,421.2z"/>
		<path class="st10" d="M925.9,421.6c11.1-8.9,29.2-12.1,40.2-7l173.6,77.2c2.3,1.2,4.3,2.5,5.6,4.1c0.6,0.6,1,1.2,1.6,1.7
			c0.2,0.2,0.4,0.6,0.6,0.8c0.6,1,1,2.1,1.4,3.1c0.2,0.8,0.4,1.6,0.4,2.3c0,0.4,0,0.8,0,1.2c0,0.4,0,0.8,0,1c0,0.4,0,1-0.2,1.4
			c0,0.4-0.2,0.8-0.2,1c0,0.4-0.2,0.8-0.4,1.2l0,0c0,0.2-0.2,0.4-0.2,0.6s-0.2,0.4-0.2,0.6c-0.2,0.4-0.2,0.8-0.4,1.2
			c-0.2,0.4-0.4,0.6-0.4,1c-0.2,0.4-0.4,0.8-0.6,1.2c-0.8,1-1.6,1.9-2.7,2.9c0,0.4-2.9,3.1-2.9,3.7l-0.6,0.6c0,0-0.2,0.2-0.2,0.4
			c-0.2,0.6-3.3,3.3-3.5,3.9c0,0.2-0.8,0.8-1,1s-1.9,1.7-2.1,2.1l-0.6,0.6c0,0.2-1,0.8-1,1s-1,0.8-1,1c0,0-0.2,0.2-0.4,0.2
			c-0.2,0.2-2.1,1.7-2.3,1.9c-0.2,0.2-1.2,1-1.2,1l0,0c-0.2,0.2-2.1,1.7-2.3,1.9l-315.1,255c-11.1,8.9-29.2,12.1-40.2,7L596,721.2
			c-2.3-1.2-4.3-2.5-5.6-4.1c-0.6-0.6-1-1.2-1.6-1.7c-0.2-0.2-0.4-0.6-0.6-0.8c-0.6-1-1-2.1-1.4-3.1c-0.2-0.8-0.4-1.6-0.4-2.3
			c0-0.4,0-0.8,0-1.2s0-0.8,0-1c0-0.4,0-1,0.2-1.4c0-0.4,0.2-0.8,0.2-1c0-0.4,0.2-0.8,0.4-1.2l0,0c0-0.2,0.2-0.4,0.2-0.6
			c0-0.2,0.2-0.4,0.2-0.6c0.2-0.4,0.2-0.8,0.4-1.2s0.4-0.6,0.4-1c0.2-0.4,0.4-0.8,0.6-1.2c0.8-1,1.6-1.9,2.7-2.9
			c0-0.4,2.9-3.1,2.9-3.7l0.6-0.6c0,0,0.2-0.2,0.2-0.4c0.2-0.6,3.3-3.3,3.5-3.9c0-0.2,0.8-0.8,1-1s1.9-1.7,2.1-2.1l0.6-0.6
			c0-0.2,1-0.8,1-1s1-0.8,1-1c0,0,0.2-0.2,0.4-0.2c0.2-0.2,2.1-1.7,2.3-1.9s1.2-1,1.2-1l0,0c0.2-0.2,2.1-1.7,2.3-1.9L925.9,421.6z"
			/>
		<path class="st11" d="M925.1,421.8c11.1-8.9,29.2-12.1,40.2-7l173.6,77c2.3,1.2,4.3,2.5,5.6,4.1c0.6,0.6,1,1.2,1.4,1.7
			c0.2,0.2,0.4,0.6,0.6,0.8c0.6,1,1,2.1,1.2,3.1c0.2,0.8,0.2,1.6,0.2,2.3c0,0.4,0,0.8,0,1.2c0,0.4,0,0.8,0,1c0,0.4-0.2,1-0.2,1.4
			s-0.2,0.8-0.2,1c-0.2,0.4-0.2,0.8-0.4,1.2l0,0c0,0.2-0.2,0.4-0.2,0.6s-0.2,0.4-0.2,0.6c-0.2,0.4-0.4,0.8-0.6,1
			c-0.2,0.4-0.4,0.6-0.6,1s-0.4,0.8-0.6,1.2c-0.8,1.2-1.8,2.1-2.9,3.1c0,0.4-3.1,3.1-3.1,3.5l-0.6,0.6l-0.2,0.2
			c0,0.4-3.5,3.3-3.7,3.7c0,0-1,0.8-1,1c-0.2,0.2-1.9,1.7-2.1,1.9l-0.6,0.6c0,0-1,0.8-1,1l-1,0.8c0,0-0.2,0.2-0.4,0.2
			c-0.2,0.2-2.3,1.9-2.3,1.9l-1.2,1l0,0c-0.2,0.2-2.1,1.7-2.3,1.9L809.2,789.2c-11.1,8.9-29.2,12.1-40.2,7l-173.6-77
			c-2.3-1.2-4.3-2.5-5.6-4.1c-0.6-0.6-1-1.2-1.4-1.7c-0.2-0.2-0.4-0.6-0.6-0.8c-0.6-1-1-2.1-1.2-3.1c-0.2-0.8-0.2-1.6-0.2-2.3
			c0-0.4,0-0.8,0-1.2s0-0.8,0-1c0-0.4,0.2-1,0.2-1.4s0.2-0.8,0.2-1c0.2-0.4,0.2-0.8,0.4-1.2l0,0c0-0.2,0.2-0.4,0.2-0.6
			c0-0.2,0.2-0.4,0.2-0.6c0.2-0.4,0.4-0.8,0.6-1c0.2-0.4,0.4-0.6,0.6-1c0.2-0.4,0.4-0.8,0.6-1.2c0.8-1.2,1.7-2.1,2.9-3.1
			c0-0.4,3.1-3.1,3.1-3.5l0.6-0.6l0.2-0.2c0.2-0.4,3.5-3.3,3.7-3.7c0,0,1-0.8,1-1c0.2-0.2,1.9-1.7,2.1-1.9l0.6-0.6c0,0,1-0.8,1-1
			l1-0.8c0,0,0.2-0.2,0.4-0.2c0.2-0.2,2.3-1.9,2.3-1.9l1.2-1l0,0c0.2-0.2,2.1-1.7,2.3-1.9L925.1,421.8z"/>
		<path class="st12" d="M924.3,422.2c11.1-8.9,29.2-12.1,40.2-7l173.4,77c2.3,1.2,4.3,2.5,5.6,4.1c0.6,0.6,1,1.2,1.4,1.7
			c0.2,0.2,0.4,0.6,0.6,0.8c0.6,1,0.8,2.1,1,3.1c0.2,0.8,0.2,1.6,0.2,2.3c0,0.4,0,0.8,0,1.2c0,0.4,0,0.8-0.2,1c0,0.4-0.2,1-0.4,1.4
			c-0.2,0.4-0.2,0.8-0.4,1c-0.2,0.4-0.2,0.8-0.4,1.2l0,0c0,0.2-0.2,0.4-0.2,0.6s-0.2,0.4-0.4,0.6c-0.2,0.4-0.4,0.6-0.6,1
			s-0.4,0.6-0.6,1s-0.4,0.8-0.8,1c-1,1.2-1.9,2.1-3.3,3.3c0,0.2-3.5,3.1-3.5,3.3l-0.6,0.6l-0.2,0.2c0,0.2-3.7,3.3-3.9,3.5l-1,0.8
			c0,0-2.1,1.7-2.1,1.9c0,0-0.6,0.6-0.8,0.6l-1,0.8l-1,0.8c0,0-0.2,0.2-0.4,0.2l-2.3,1.9l-1.2,1l0,0l-2.3,1.9L808.5,787.1
			c-11.1,8.9-29.2,12.1-40.2,7l-173.4-77c-2.3-1.2-4.3-2.5-5.6-4.1c-0.6-0.6-1-1.2-1.4-1.7c-0.2-0.2-0.4-0.6-0.6-0.8
			c-0.6-1-0.8-2.1-1-3.1c-0.2-0.8-0.2-1.6-0.2-2.3c0-0.4,0-0.8,0-1.2s0-0.8,0.2-1c0-0.4,0.2-1,0.4-1.4s0.2-0.8,0.4-1
			c0.2-0.4,0.2-0.8,0.4-1.2l0,0c0-0.2,0.2-0.4,0.2-0.6c0-0.2,0.2-0.4,0.4-0.6c0.2-0.4,0.4-0.6,0.6-1c0.2-0.4,0.4-0.6,0.6-1
			c0.2-0.4,0.4-0.8,0.8-1c1-1.2,1.9-2.1,3.3-3.3c0-0.2,3.5-3.1,3.5-3.3l0.6-0.6l0.2-0.2c0-0.2,3.7-3.3,3.9-3.5l1-0.8
			c0,0,2.1-1.7,2.1-1.9c0,0,0.6-0.6,0.8-0.6l1-0.8l1-0.8c0,0,0.2-0.2,0.4-0.2l2.3-1.9l1.2-1l0,0l2.3-1.9L924.3,422.2z"/>
		<path class="st13" d="M594,689.5c-11.1,8.9-10.9,20.4,0.2,25.5l173.4,77c11.1,5.1,29.2,1.9,40.2-7l329.4-267
			c11.1-8.9,10.9-20.4-0.2-25.5l-173.4-77c-11.1-5.1-29.2-1.9-40.2,7L594,689.5z"/>
	</g>
	<g>
		<path class="st14" d="M1136.5,516.5l-326.8,265c-10.7,8.7-28.4,11.7-39.1,6.8l-168.8-75.1c-10.9-5.1-10.9-16.1-0.2-24.9l326.8-265
			c10.7-8.7,28.4-11.7,39.1-6.8l29.2,13L992,433c-4.7,4.5-7,9.3-1.7,11.7l78.4,35.4c5.2,2.3,13.8,0.2,20.8-3.1l7-3.1l39.7,17.7
			C1147.2,496.6,1147.2,507.9,1136.5,516.5z"/>
	</g>
	<g>
		
			<linearGradient id="SVGID_25_" gradientUnits="userSpaceOnUse" x1="827.2319" y1="1000.7366" x2="821.181" y2="1004.4194" gradientTransform="matrix(-0.5553 0.9398 0.7802 0.4803 403.5798 -466.672)">
			<stop  offset="0" style="stop-color:#FFFFFF"/>
			<stop  offset="1" style="stop-color:#060606;stop-opacity:0.5"/>
		</linearGradient>
		<path class="st39" d="M728.5,791c-1.2-0.8-1.6-2.3-1-3.7s1.9-1.9,3.1-1.2c1.2,0.8,1.6,2.3,1,3.7
			C731.1,791.2,729.7,791.6,728.5,791z"/>
		
			<linearGradient id="SVGID_26_" gradientUnits="userSpaceOnUse" x1="828.2522" y1="991.9946" x2="822.2009" y2="995.6776" gradientTransform="matrix(-0.5553 0.9398 0.7802 0.4803 403.5798 -466.672)">
			<stop  offset="0" style="stop-color:#FFFFFF"/>
			<stop  offset="1" style="stop-color:#060606;stop-opacity:0.5"/>
		</linearGradient>
		<path class="st40" d="M721.2,787.7c-1.2-0.8-1.6-2.3-1-3.7s1.9-1.9,3.1-1.2s1.6,2.3,1,3.7S722.3,788.5,721.2,787.7z"/>
		
			<linearGradient id="SVGID_27_" gradientUnits="userSpaceOnUse" x1="826.0211" y1="1010.8688" x2="819.9701" y2="1014.5516" gradientTransform="matrix(-0.5553 0.9398 0.7802 0.4803 403.5798 -466.672)">
			<stop  offset="0" style="stop-color:#FFFFFF"/>
			<stop  offset="1" style="stop-color:#060606;stop-opacity:0.5"/>
		</linearGradient>
		<path class="st41" d="M737.1,794.7c-1.2-0.8-1.6-2.3-1-3.7s1.9-1.9,3.1-1.2s1.6,2.3,1,3.7S738.3,795.5,737.1,794.7z"/>
		
			<linearGradient id="SVGID_28_" gradientUnits="userSpaceOnUse" x1="824.8488" y1="1021.0646" x2="818.7978" y2="1024.7477" gradientTransform="matrix(-0.5553 0.9398 0.7802 0.4803 403.5798 -466.672)">
			<stop  offset="0" style="stop-color:#FFFFFF"/>
			<stop  offset="1" style="stop-color:#060606;stop-opacity:0.5"/>
		</linearGradient>
		<path class="st42" d="M745.9,798.4c-1.2-0.8-1.6-2.3-1-3.7s1.9-1.9,3.1-1.2c1.2,0.8,1.6,2.3,1,3.7
			C748.4,798.6,746.8,799.2,745.9,798.4z"/>
		
			<linearGradient id="SVGID_29_" gradientUnits="userSpaceOnUse" x1="823.6877" y1="1031.2463" x2="817.6368" y2="1034.9294" gradientTransform="matrix(-0.5553 0.9398 0.7802 0.4803 403.5798 -466.672)">
			<stop  offset="0" style="stop-color:#FFFFFF"/>
			<stop  offset="1" style="stop-color:#060606;stop-opacity:0.5"/>
		</linearGradient>
		<path class="st43" d="M754.4,802.3c-1.2-0.8-1.6-2.3-1-3.7s1.9-1.9,3.1-1.2c1.2,0.8,1.6,2.3,1,3.7
			C756.9,802.3,755.6,802.9,754.4,802.3z"/>
		
			<linearGradient id="SVGID_30_" gradientUnits="userSpaceOnUse" x1="822.4864" y1="1041.3942" x2="816.4351" y2="1045.0776" gradientTransform="matrix(-0.5553 0.9398 0.7802 0.4803 403.5798 -466.672)">
			<stop  offset="0" style="stop-color:#FFFFFF"/>
			<stop  offset="1" style="stop-color:#060606;stop-opacity:0.5"/>
		</linearGradient>
		<path class="st44" d="M763,806c-1.2-0.8-1.6-2.3-1-3.7s1.9-1.9,3.1-1.2s1.6,2.3,1,3.7S764.1,806.6,763,806z"/>
	</g>
	<g>
		
			<linearGradient id="SVGID_31_" gradientUnits="userSpaceOnUse" x1="842.95" y1="856.8199" x2="836.899" y2="860.5029" gradientTransform="matrix(-0.5553 0.9398 0.7802 0.4803 403.5798 -466.672)">
			<stop  offset="0" style="stop-color:#FFFFFF"/>
			<stop  offset="1" style="stop-color:#060606;stop-opacity:0.5"/>
		</linearGradient>
		<path class="st45" d="M607.6,736.6c-1.2-0.8-1.6-2.3-1-3.7s1.9-1.9,3.1-1.2s1.6,2.3,1,3.7C610.1,736.7,608.8,737.3,607.6,736.6z"
			/>
		
			<linearGradient id="SVGID_32_" gradientUnits="userSpaceOnUse" x1="843.9097" y1="847.9786" x2="837.8588" y2="851.6616" gradientTransform="matrix(-0.5553 0.9398 0.7802 0.4803 403.5798 -466.672)">
			<stop  offset="0" style="stop-color:#FFFFFF"/>
			<stop  offset="1" style="stop-color:#060606;stop-opacity:0.5"/>
		</linearGradient>
		<path class="st46" d="M600.2,733.2c-1.2-0.8-1.6-2.3-1-3.7s1.9-1.9,3.1-1.2c1.2,0.8,1.6,2.3,1,3.7S601.4,734,600.2,733.2z"/>
		
			<linearGradient id="SVGID_33_" gradientUnits="userSpaceOnUse" x1="841.6992" y1="866.8864" x2="835.6483" y2="870.5693" gradientTransform="matrix(-0.5553 0.9398 0.7802 0.4803 403.5798 -466.672)">
			<stop  offset="0" style="stop-color:#FFFFFF"/>
			<stop  offset="1" style="stop-color:#060606;stop-opacity:0.5"/>
		</linearGradient>
		<path class="st47" d="M616.2,740.2c-1.2-0.8-1.6-2.3-1-3.7s1.9-1.9,3.1-1.2c1.2,0.8,1.6,2.3,1,3.7S617.3,741,616.2,740.2z"/>
		
			<linearGradient id="SVGID_34_" gradientUnits="userSpaceOnUse" x1="840.4571" y1="876.9675" x2="834.4058" y2="880.6505" gradientTransform="matrix(-0.5553 0.9398 0.7802 0.4803 403.5798 -466.672)">
			<stop  offset="0" style="stop-color:#FFFFFF"/>
			<stop  offset="1" style="stop-color:#060606;stop-opacity:0.5"/>
		</linearGradient>
		<path class="st48" d="M624.7,743.9c-1.2-0.8-1.6-2.3-1-3.7s1.9-1.9,3.1-1.2c1.2,0.8,1.6,2.3,1,3.7
			C627.2,744.1,625.9,744.7,624.7,743.9z"/>
		
			<linearGradient id="SVGID_35_" gradientUnits="userSpaceOnUse" x1="839.3285" y1="887.2031" x2="833.2776" y2="890.886" gradientTransform="matrix(-0.5553 0.9398 0.7802 0.4803 403.5798 -466.672)">
			<stop  offset="0" style="stop-color:#FFFFFF"/>
			<stop  offset="1" style="stop-color:#060606;stop-opacity:0.5"/>
		</linearGradient>
		<path class="st49" d="M633.3,747.8c-1.2-0.8-1.6-2.3-1-3.7s1.9-1.9,3.1-1.2s1.6,2.3,1,3.7S634.4,748.4,633.3,747.8z"/>
		
			<linearGradient id="SVGID_36_" gradientUnits="userSpaceOnUse" x1="838.1052" y1="897.3147" x2="832.0543" y2="900.9977" gradientTransform="matrix(-0.5553 0.9398 0.7802 0.4803 403.5798 -466.672)">
			<stop  offset="0" style="stop-color:#FFFFFF"/>
			<stop  offset="1" style="stop-color:#060606;stop-opacity:0.5"/>
		</linearGradient>
		<path class="st50" d="M641.8,751.5c-1.2-0.8-1.6-2.3-1-3.7s1.9-1.9,3.1-1.2s1.6,2.3,1,3.7C644.4,751.7,643,752.3,641.8,751.5z"/>
	</g>
</g>
</svg>
