<?xml version="1.0" encoding="utf-8"?>
<!-- Generator: Adobe Illustrator 22.0.1, SVG Export Plug-In . SVG Version: 6.00 Build 0)  -->
<svg version="1.1" id="Layer_1" xmlns="http://www.w3.org/2000/svg" xmlns:xlink="http://www.w3.org/1999/xlink" x="0px" y="0px"
	 viewBox="0 0 512 512" style="enable-background:new 0 0 512 512;" xml:space="preserve">
<style type="text/css">
	.st0{fill:#F0F0F0;}
	.st1{fill:#0052B4;}
	.st2{fill:#D80027;}
	.st3{fill:#FFFFFF;stroke:#000000;stroke-miterlimit:10;}
	.st4{fill:none;stroke:#FFFFFF;stroke-width:10;stroke-miterlimit:10;}
</style>
<path class="st0" d="M0,256c0,141.4,114.6,256,256,256c70.7,0,134.7-28.7,181-75L75,75C28.7,121.3,0,185.3,0,256z"/>
<g>
	<path class="st1" d="M8.8,189.2H142l-89.1-89.1C32.8,126.3,17.6,156.5,8.8,189.2z"/>
	<path class="st1" d="M503.2,189.2"/>
	<path class="st1" d="M52.9,411.9l89.1-89.1H8.8C17.6,355.5,32.8,385.7,52.9,411.9z"/>
	<path class="st1" d="M189.2,503.2V370l-89.1,89.1C126.3,479.2,156.5,494.4,189.2,503.2z"/>
	<path class="st1" d="M322.8,503.2L322.8,503.2c32.8-8.8,62.9-24,89.1-44.1L322.8,370V503.2z"/>
</g>
<g>
	<path class="st2" d="M2.2,222.6C0.7,233.5,0,244.7,0,256c0,11.3,0.7,22.5,2.2,33.4h220.4h0v220.4c10.9,1.4,22.1,2.2,33.4,2.2
		c11.3,0,22.5-0.7,33.4-2.2V289.4v0h0l-66.8-66.8H2.2z"/>
	<path class="st2" d="M189.2,322.8L75,437c5.3,5.3,10.7,10.3,16.4,15l97.8-97.8L189.2,322.8L189.2,322.8L189.2,322.8z"/>
	<polygon class="st2" points="75,75 189.2,189.2 75,75 	"/>
	<path class="st2" d="M59.9,91.4l97.8,97.8h31.5v0L75,75C69.7,80.2,64.7,85.7,59.9,91.4z"/>
</g>
<path class="st3" d="M256,561"/>
<path class="st0" d="M254.4,1c-70.7,0-134.7,28.7-181,75l362,362c46.3-46.3,75-110.3,75-181C510.4,115.6,395.8,1,254.4,1z"/>
<path class="st2" d="M501.6,190.2H243.3v55.7l11.1,11.1h256C510.4,233.9,507.3,211.5,501.6,190.2z"/>
<path class="st2" d="M413.8,56.7H243.3v66.8h229.6C457.2,97.9,437.1,75.3,413.8,56.7z"/>
<path class="st2" d="M472.9,390.6c12.6-20.5,22.3-43,28.8-66.8H321.2l66.8,66.8H472.9z"/>
<path class="st1" d="M117,41h23.3l-21.7,15.8l8.3,25.5l-21.7-15.8L83.5,82.3l7.2-22c-6,5-11.8,10.3-17.3,15.8l27.5,27.5l4.4-13.4
	l8.3,25.5h26.8l-15.8,11.5l63.1,63.1h1.2l8.3-25.5l8.3,25.5h26.8l-21.7,15.8l3.4,10.6l40.5,40.5c0-141.4,0-158.1,0-256
	C203.9,1,156.7,15.7,117,41z M210.5,131.3l8.3,25.5l-21.7-15.8l-21.7,15.8l8.3-25.5l-21.7-15.8h26.8l8.3-25.5l8.3,25.5h26.8
	L210.5,131.3z M210.5,56.7l8.3,25.5l-21.7-15.8l-21.7,15.8l8.3-25.5L161.9,41h26.8l8.3-25.5l8.3,25.5h26.8L210.5,56.7z"/>
<path class="st4" d="M512,512"/>
</svg>
