<?xml version="1.0" encoding="utf-8"?>
<!-- Generator: Adobe Illustrator 22.0.1, SVG Export Plug-In . SVG Version: 6.00 Build 0)  -->
<svg version="1.1" id="Calque_1" xmlns="http://www.w3.org/2000/svg" xmlns:xlink="http://www.w3.org/1999/xlink" x="0px" y="0px"
	 viewBox="0 0 1320 1494" style="enable-background:new 0 0 1320 1494;" xml:space="preserve">
<style type="text/css">
	.st0{opacity:0.39;filter:url(#AI_FlouGaussien_4);}
	.st1{fill:#3D3D3D;}
	.st2{fill:#6B6B6B;}
	.st3{fill:#14A5A1;}
	.st4{fill:#28D1D1;}
	.st5{fill:#F4F4F4;}
	.st6{fill:#E5E5E5;}
	.st7{fill:#CCCCCC;}
	.st8{fill:#EAEAEA;}
	.st9{fill:none;}
	.st10{fill:#EAEAEA;stroke:#FFFFFF;stroke-width:2;stroke-miterlimit:10;}
	.st11{fill:#DDDDDD;}
	.st12{fill:#DDDDDD;stroke:#FFFFFF;stroke-width:2;stroke-miterlimit:10;}
	.st13{fill:none;stroke:#CECECE;stroke-miterlimit:10;}
	.st14{fill:#D1D1D1;}
	.st15{fill:#C4C4C4;}
</style>
<filter  id="AI_FlouGaussien_4">
	<feGaussianBlur  stdDeviation="4"></feGaussianBlur>
</filter>
<g class="st0">
	<g>
		<path class="st1" d="M44.9,869.1L44.9,869.1l444.8-269.7c9.4-5.7,21-5.7,30.3-0.2l99.5,59.1v7.3l389.7,231.3l7-3.6l130.7,77.4
			c8.5,4.6,8.5,16.9,0.2,21.6l-442.4,264.3c-10.3,3.1-23.1,2.9-33.2-0.7L49.6,893.4C38.4,886.6,36.9,876.3,44.9,869.1z"/>
	</g>
</g>
<path class="st2" d="M987,707.4"/>
<path class="st3" d="M611.3,237.2c0.2,0.2,0.2,0.2,0.2,0.2l1.8,1c-1-0.7-1.8-1.2-2.9-1.7C610.7,237,610.9,237,611.3,237.2z"/>
<path d="M1120.6,399.2l-7.5-4.1C1115.6,396.5,1118.4,397.9,1120.6,399.2z"/>
<path d="M1007.7,334.1c4.1,2.7,8.5,5.1,12.3,7.3L1007.7,334.1z"/>
<path d="M1005.4,337.3L551.1,74.5C637.7,124.4,857.6,251.7,1005.4,337.3z"/>
<path class="st4" d="M1264.3,416c1,0.5,1.8,1.2,2.9,1.8l-6.2-3.4C1262,415.1,1263,415.6,1264.3,416z"/>
<path class="st5" d="M514.8,55.8c0-1.7,0.2-3.4,0.7-4.8c0.5-1.2,1-2.7,1.8-3.6c0.5-0.7,1-1,1.5-1.5l0,0c2.1-1.5,4.4-2.1,6.8-1.8
	c0.7,0.2,1.2,0.2,1.8,0.5c1.2,0.2,2.4,1,3.6,1.7c0.7,0.2,633.9,365.7,634.2,366.1l6.2,3.4c7.7,6.2,13.9,18,13.9,27.7v506.4l0,0
	c0,7.3-2.7,12.8-6.8,15.2l-1.7,1l-8.2,3.9c0.2-0.2,1.5-1,3.1-3.1c-2.7,0-5.1-0.5-7.7-1.7l0,0L542.7,605.6l-8-4.6
	c-10.9-8.5-19.6-24.4-20.1-37.6v-1.8C514.6,453.7,514.6,68.6,514.8,55.8z"/>
<path class="st6" d="M506.8,59.9c0-3.1,0.7-6.2,2.7-8.7c1.7-2.1,5.1-3.6,8-3.1c0.7,0.2,1.2,0.2,1.8,0.5c1.5,0.2,2.7,1,3.9,1.7
	c0.5,0.2,1.7,1,3.6,1.8c0.2,0.2,0.5,0.2,0.7,0.5c0.7,0.5,1.7,1,2.9,1.7c2.1,1.2,5.3,2.9,8.7,4.8l2.7,1.5l6.5,3.6l11.1,6.5
	c0,0,597.6,345.1,597.8,345.3l6.2,3.4c7.7,6.2,13.9,18,13.9,27.7v506.2l0,0c-0.2,7.3-2.9,12.8-7,15.2c-3.6,2.1-8.5,2.4-14.1,0l0,0
	l-138-79.8l-33-10l-450.6-269l-8-4.6c-10.9-8.5-19.6-24.4-20.1-37.6v-1.8C506.6,457.5,506.6,72.7,506.8,59.9z"/>
<path class="st7" d="M44.9,862.2L44.9,862.2l442.9-258.7c9.2-5.6,20.5-5.6,29.9,0L1144,969.7c0.2,0.2,0.5,0.2,0.7,0.5l5.6-6.8v17.4
	c0,4.1-2.1,8.2-6.2,10.5l-442,258.2c-10.3,3.1-23.1,2.9-33.2-0.7L49,886.6C37.8,880.1,35.9,869.9,44.9,862.2z"/>
<path class="st5" d="M42.3,857.2L42.3,857.2l444.5-269.4c9.4-5.7,21-5.7,30.3-0.2l99.5,59.1v7.3L1006,885.3l7-3.6l130.7,77.4
	c8.5,4.6,8.5,16.9,0.2,21.6L701.4,1245c-10.3,3.1-23.1,2.9-33.2-0.7L46.5,881.8C35.1,875.2,33.9,865,42.3,857.2z"/>
<polygon class="st8" points="524.8,81.9 524.8,563.4 1159.4,931.3 1159.1,449.6 "/>
<g>
	<g>
		<g>
			<g>
				<g>
					<g>
						<g>
							<g>
								<g>
									<g>
										<path class="st8" d="M1074.5,1001.8c1.2,0.7,1.2,1.7,0,2.4l-14.6,8.5c-1,0.7-2.9,0.7-4.1,0l-63-36.9
											c-1.2-0.7-1.2-1.7,0-2.4l14.6-8.7c1-0.7,2.9-0.7,4.1,0L1074.5,1001.8z"/>
									</g>
								</g>
							</g>
						</g>
					</g>
				</g>
			</g>
			<g>
				<g>
					<g>
						<g>
							<g>
								<g>
									<g>
										<path class="st8" d="M965.5,940c1-0.7,2.9-0.7,4.1,0l32.4,19.3c1.2,0.7,1.2,1.7,0,2.4l-14.6,8.7c-1,0.7-2.9,0.7-4.1,0
											l-32.4-19.3c-1.2-0.7-1.2-1.7,0-2.4L965.5,940z"/>
									</g>
								</g>
							</g>
						</g>
					</g>
				</g>
			</g>
			<g>
				<g>
					<g>
						<g>
							<g>
								<g>
									<g>
										<path class="st8" d="M923.3,915.5c1-0.7,2.9-0.7,4.1,0l32.8,19.5c1.2,0.7,1.2,1.7,0,2.4l-14.6,8.7c-1,0.7-2.9,0.7-4.1,0
											l-32.8-19.6c-1.2-0.7-1.2-1.7,0-2.4L923.3,915.5z"/>
									</g>
								</g>
							</g>
						</g>
					</g>
				</g>
			</g>
			<g>
				<g>
					<g>
						<g>
							<g>
								<g>
									<g>
										<path class="st8" d="M889.1,895.1c1-0.7,2.9-0.7,4.1,0l25.3,14.9c1.2,0.7,1.2,1.7,0,2.4l-14.9,8.7c-1,0.7-2.9,0.7-4.1,0
											l-25.3-14.9c-1.2-0.7-1.2-1.7,0-2.4L889.1,895.1z"/>
									</g>
								</g>
							</g>
						</g>
					</g>
				</g>
			</g>
			<g>
				<g>
					<g>
						<g>
							<g>
								<g>
									<g>
										<path class="st8" d="M831.8,878.6l14.9-8.7c1-0.7,2.9-0.7,4.1,0l33.2,19.8c1.2,0.7,1.2,1.7,0,2.4l-14.9,8.7
											c-1,0.7-2.9,0.7-4.1,0l-17.8-10.3l-1.2-0.7l-14.1-8.7C830.6,880.4,830.6,879.1,831.8,878.6z"/>
									</g>
								</g>
							</g>
						</g>
					</g>
				</g>
			</g>
			<g>
				<g>
					<g>
						<g>
							<g>
								<g>
									<g>
										<path class="st8" d="M803.9,844.7c1-0.7,2.9-0.7,4.1,0l33.5,19.8c1.2,0.7,1.2,1.7,0,2.4l-14.9,8.7c-1,0.7-2.9,0.7-4.1,0
											L789,855.8c-1.2-0.7-1.2-1.7,0-2.4L803.9,844.7z"/>
									</g>
								</g>
							</g>
						</g>
					</g>
				</g>
			</g>
			<g>
				<g>
					<g>
						<g>
							<g>
								<g>
									<g>
										<path class="st8" d="M761.7,819.5c1-0.7,2.9-0.7,4.1,0l33.2,19.8c1.2,0.7,1.2,1.7,0,2.4l-15.2,8.7c-1,0.7-2.9,0.7-4.1,0
											l-33.2-19.8c-1.2-0.7-1.2-1.7,0-2.4L761.7,819.5z"/>
									</g>
								</g>
							</g>
						</g>
					</g>
				</g>
			</g>
			<g>
				<g>
					<g>
						<g>
							<g>
								<g>
									<g>
										<path class="st8" d="M719.6,794.3c1-0.7,2.9-0.7,4.1,0l33,19.8c1.2,0.7,1.2,1.7,0,2.4l-15.2,8.7c-1,0.7-2.9,0.7-4.1,0
											l-33-19.6c-1.2-0.7-1.2-1.7,0-2.4L719.6,794.3z"/>
									</g>
								</g>
							</g>
						</g>
					</g>
				</g>
			</g>
			<g>
				<g>
					<g>
						<g>
							<g>
								<g>
									<g>
										<path class="st8" d="M677.1,769.5c1-0.7,2.9-0.7,4.1,0l33.2,19.8c1.2,0.7,1.2,1.7,0,2.4l-15.2,8.9c-1,0.7-2.9,0.7-4.1,0
											l-33.2-19.8c-1.2-0.7-1.2-1.7,0-2.4L677.1,769.5z"/>
									</g>
								</g>
							</g>
						</g>
					</g>
				</g>
			</g>
			<g>
				<g>
					<g>
						<g>
							<g>
								<g>
									<g>
										<path class="st8" d="M672.4,764.4c1.2,0.7,1.2,1.7,0,2.4l-15.2,8.9c-1,0.7-2.9,0.7-4.1,0l-32.8-19.6
											c-1.2-0.7-1.2-1.7,0-2.4l14.9-9.2c1.2-0.7,2.9-0.7,4.1,0L672.4,764.4z"/>
									</g>
								</g>
							</g>
						</g>
					</g>
				</g>
			</g>
			<g>
				<g>
					<g>
						<g>
							<g>
								<g>
									<g>
										<path class="st8" d="M630,739.2c1.2,0.7,1.2,1.7,0,2.4l-14.9,9.2c-1.2,0.7-2.9,0.7-4.1,0L572,728c-1.2-0.7-1.2-1.7,0-2.4
											l15.2-9.2c1.2-0.7,2.9-0.7,4.1,0L630,739.2z"/>
									</g>
								</g>
							</g>
						</g>
					</g>
				</g>
			</g>
			<g>
				<g>
					<g>
						<g>
							<g>
								<g>
									<g>
										<path class="st8" d="M538.7,687.5c1.2-0.7,2.9-0.7,4.1,0l39.3,23.1c1.2,0.7,1.2,1.7,0,2.4l-14.9,9.2
											c-1.2,0.7-2.9,0.7-4.1,0l-39.3-23.1c-1.2-0.7-1.2-1.7,0-2.4L538.7,687.5z"/>
									</g>
								</g>
							</g>
						</g>
					</g>
				</g>
			</g>
			<g>
				<g>
					<g>
						<g>
							<g>
								<g>
									<g>
										<path class="st8" d="M491.1,659.6c1-0.7,2.9-0.7,4.1,0l38.8,22.8c1.2,0.7,1.2,1.7,0,2.4l-15.2,9.2c-1.2,0.7-2.9,0.7-4.1,0
											l-39.2-23c-1.2-0.7-1.2-1.7,0-2.4L491.1,659.6z"/>
									</g>
								</g>
							</g>
						</g>
					</g>
				</g>
			</g>
			<g>
				<g>
					<g>
						<g>
							<g>
								<g>
									<g>
										<path class="st8" d="M440.4,629.5c1.2-0.7,2.9-0.7,4.1,0l41.2,24.4c1.2,0.7,1.2,1.7,0,2.4l-15.5,9.2c-1,0.7-2.9,0.7-4.1,0
											l-40.7-24.2c-1.2-0.7-1.2-1.7,0-2.4L440.4,629.5z"/>
									</g>
								</g>
							</g>
						</g>
					</g>
				</g>
			</g>
		</g>
		<g>
			<g>
				<g>
					<g>
						<g>
							<g>
								<g>
									<path class="st8" d="M1050.4,1015.7c1.2,0.7,1.2,1.7,0,2.4l-27.2,15.5c-1,0.7-2.9,0.7-4.1,0l-33-19.5
										c-1.2-0.7-1.2-1.7,0-2.4l27-15.7c1.2-0.7,2.9-0.7,4.1,0L1050.4,1015.7z"/>
								</g>
							</g>
						</g>
					</g>
				</g>
			</g>
			<g>
				<g>
					<g>
						<g>
							<g>
								<g>
									<path class="st8" d="M971,971.5c1-0.7,2.9-0.7,4.1,0l33,19.6c1.2,0.7,1.2,1.7,0,2.4l-27,15.7c-1.2,0.7-2.9,0.7-4.1,0
										l-33-19.6c-1.2-0.7-1.2-1.7,0-2.4L971,971.5z"/>
								</g>
							</g>
						</g>
					</g>
				</g>
			</g>
			<g>
				<g>
					<g>
						<g>
							<g>
								<g>
									<path class="st8" d="M928.3,946.3c1-0.7,2.9-0.7,4.1,0l33.2,19.6c1.2,0.7,1.2,1.7,0,2.4l-27,15.7c-1.2,0.7-2.9,0.7-4.1,0
										l-33-19.6c-1.2-0.7-1.2-1.7,0-2.4L928.3,946.3z"/>
								</g>
							</g>
						</g>
					</g>
				</g>
			</g>
			<g>
				<g>
					<g>
						<g>
							<g>
								<g>
									<path class="st8" d="M886.6,921.3c1.2-0.7,2.9-0.7,4.1,0l32.8,19.8c1.2,0.7,1.2,1.7,0,2.4l-27,15.7c-1,0.7-2.9,0.7-4.1,0
										l-33-19.6c-1.2-0.7-1.2-1.7,0-2.4L886.6,921.3z"/>
								</g>
							</g>
						</g>
					</g>
				</g>
			</g>
			<g>
				<g>
					<g>
						<g>
							<g>
								<g>
									<path class="st8" d="M881.3,916c1.2,0.7,1.2,1.7,0,2.4l-27,15.7c-1.2,0.7-2.9,0.7-4.1,0l-33-19.5c-1.2-0.7-1.2-1.7,0-2.4
										l27-15.7c1.2-0.7,2.9-0.7,4.1,0L881.3,916z"/>
								</g>
							</g>
						</g>
					</g>
				</g>
			</g>
			<g>
				<g>
					<g>
						<g>
							<g>
								<g>
									<path class="st8" d="M802,871.6c1.2-0.7,2.9-0.7,4.1,0l33.2,19.6c1.2,0.7,1.2,1.7,0,2.4l-27,15.7c-1.2,0.7-2.9,0.7-4.1,0
										L775,889.8c-1.2-0.7-1.2-1.7,0-2.4L802,871.6z"/>
								</g>
							</g>
						</g>
					</g>
				</g>
			</g>
			<g>
				<g>
					<g>
						<g>
							<g>
								<g>
									<path class="st8" d="M759.8,846.8c1.2-0.7,2.9-0.7,4.1,0l33,19.6c1.2,0.7,1.2,1.7,0,2.4l-27,15.7c-1,0.7-2.9,0.7-4.1,0
										l-33-19.5c-1.2-0.7-1.2-1.7,0-2.4L759.8,846.8z"/>
								</g>
							</g>
						</g>
					</g>
				</g>
			</g>
			<g>
				<g>
					<g>
						<g>
							<g>
								<g>
									<path class="st8" d="M717.6,822.1c1-0.7,2.9-0.7,4.1,0l33,19.6c1.2,0.7,1.2,1.7,0,2.4l-27,15.7c-1,0.7-2.9,0.7-4.1,0
										l-33-19.7c-1.2-0.7-1.2-1.7,0-2.4L717.6,822.1z"/>
								</g>
							</g>
						</g>
					</g>
				</g>
			</g>
			<g>
				<g>
					<g>
						<g>
							<g>
								<g>
									<path class="st8" d="M675.2,796.9c1.2-0.7,2.9-0.7,4.1,0l33,19.6c1.2,0.7,1.2,1.7,0,2.4l-27,15.7c-1.2,0.7-2.9,0.7-4.1,0
										l-33-19.5c-1.2-0.7-1.2-1.7,0-2.4L675.2,796.9z"/>
								</g>
							</g>
						</g>
					</g>
				</g>
			</g>
			<g>
				<g>
					<g>
						<g>
							<g>
								<g>
									<path class="st8" d="M632.9,771.9c1.2-0.7,2.9-0.7,4.1,0l33.2,19.8c1.2,0.7,1.2,1.7,0,2.4l-27,15.7c-1.2,0.7-2.9,0.7-4.1,0
										l-33.4-19.9c-1.2-0.7-1.2-1.7,0-2.4L632.9,771.9z"/>
								</g>
							</g>
						</g>
					</g>
				</g>
			</g>
			<g>
				<g>
					<g>
						<g>
							<g>
								<g>
									<path class="st8" d="M590,747.9c1-0.7,2.9-0.7,4.1,0l33.7,19.3c1.2,0.7,1.2,1.7,0,2.4l-27,15.5c-1,0.7-2.9,0.7-4.1,0
										l-33-19.6c-1.2-0.7-1.2-1.7,0-2.4L590,747.9z"/>
								</g>
							</g>
						</g>
					</g>
				</g>
			</g>
			<g>
				<g>
					<g>
						<g>
							<g>
								<g>
									<path class="st8" d="M548.5,722.6c1-0.7,2.9-0.7,4.1,0l33,19.6c1.2,0.7,1.2,1.7,0,2.4l-27,15.5c-1,0.7-2.9,0.7-4.1,0
										l-33-19.7c-1.2-0.7-1.2-1.7,0-2.4L548.5,722.6z"/>
								</g>
							</g>
						</g>
					</g>
				</g>
			</g>
			<g>
				<g>
					<g>
						<g>
							<g>
								<g>
									<path class="st8" d="M506.1,697.7c1-0.7,2.9-0.7,4.1,0l33.2,19.6c1.2,0.7,1.2,1.7,0,2.4l-27,15.5c-1,0.7-2.9,0.7-4.1,0
										l-33-19.6c-1.2-0.7-1.2-1.7,0-2.4L506.1,697.7z"/>
								</g>
							</g>
						</g>
					</g>
				</g>
			</g>
			<g>
				<g>
					<g>
						<g>
							<g>
								<g>
									<path class="st8" d="M463.9,672.9c1-0.7,2.9-0.7,4.1,0l33,19.6c1.2,0.7,1.2,1.7,0,2.4l-27,15.5c-1,0.7-2.9,0.7-4.1,0
										l-33-19.6c-1.2-0.7-1.2-1.7,0-2.4L463.9,672.9z"/>
								</g>
							</g>
						</g>
					</g>
				</g>
			</g>
			<g>
				<g>
					<g>
						<g>
							<g>
								<g>
									<path class="st8" d="M416.7,644.4c1.2-0.7,2.9-0.7,4.1,0l38.6,22.6c1.2,0.7,1.2,1.7,0,2.4l-27.2,15.5c-1,0.7-2.9,0.7-4.1,0
										l-37.8-22.1c-1.2-0.7-1.2-1.7,0-2.4L416.7,644.4z"/>
								</g>
							</g>
						</g>
					</g>
				</g>
			</g>
		</g>
		<g>
			<g>
				<g>
					<g>
						<g>
							<g>
								<g>
									<g>
										<path class="st8" d="M946.8,998.9c1-0.7,2.9-0.7,4.1,0l63.3,37.6c1.2,0.7,1.2,1.7,0,2.4l-29.9,17.3c-1,0.7-2.9,0.7-4.1,0
											l-63.3-37.6c-1.2-0.7-1.2-1.7,0-2.4L946.8,998.9z"/>
									</g>
								</g>
							</g>
						</g>
					</g>
					<g>
						<g>
							<g>
								<g>
									<g>
										<path class="st8" d="M941.6,993.8c1.2,0.7,1.2,1.7,0,2.4l-29.9,17.3c-1,0.7-2.9,0.7-4.1,0l-31.8-18.7
											c-1.2-0.7-1.2-1.7,0-2.4l29.9-17.3c1-0.7,2.9-0.7,4.1,0L941.6,993.8z"/>
									</g>
								</g>
							</g>
						</g>
					</g>
					<g>
						<g>
							<g>
								<g>
									<g>
										<path class="st8" d="M900.7,969.6c1.2,0.7,1.2,1.7,0,2.4l-29.9,17.3c-1,0.7-2.9,0.7-4.1,0L835,970.6
											c-1.2-0.7-1.2-1.7,0-2.4l29.6-17.3c1-0.7,2.9-0.7,4.1,0L900.7,969.6z"/>
									</g>
								</g>
							</g>
						</g>
					</g>
					<g>
						<g>
							<g>
								<g>
									<g>
										<path class="st8" d="M828.5,929.3c1-0.7,2.9-0.7,4.1,0l27.2,16c1.2,0.7,1.2,1.7,0,2.4L829.9,965c-1,0.7-2.9,0.7-4.1,0
											l-27.2-16c-1.2-0.7-1.2-1.7,0-2.4L828.5,929.3z"/>
									</g>
								</g>
							</g>
						</g>
					</g>
					<g>
						<g>
							<g>
								<g>
									<g>
										<path class="st8" d="M807.4,915c1.2,0.7,2.1,1.2,2.4,1.5c0.2,0.2,1.2,0.7,2.4,1.5l11.1,6.5c1.2,0.7,1.2,1.7,0,2.4
											l-30,17.2c-1,0.7-2.9,0.7-4.1,0l-34-20.3c-1.2-0.7-1.2-1.7,0-2.4l30.1-17.2c1-0.7,2.9-0.7,4.1,0L807.4,915z"/>
									</g>
								</g>
							</g>
						</g>
					</g>
					<g>
						<g>
							<g>
								<g>
									<g>
										<path class="st8" d="M743.1,879.1c1-0.7,2.9-0.7,4.1,0l33.2,19.6c1.2,0.7,1.2,1.7,0,2.4l-30.1,17.2c-1,0.7-2.9,0.7-4.1,0
											L713,898.7c-1.2-0.7-1.2-1.7,0-2.4L743.1,879.1z"/>
									</g>
								</g>
							</g>
						</g>
					</g>
					<g>
						<g>
							<g>
								<g>
									<g>
										<path class="st8" d="M738.3,874c1.2,0.7,1.2,1.7,0,2.4l-30.1,17.2c-1,0.7-2.9,0.7-4.1,0l-34.2-20.3
											c-1.2-0.7-1.2-1.7,0-2.4l30.1-17.2c1-0.7,2.9-0.7,4.1,0L738.3,874z"/>
									</g>
								</g>
							</g>
						</g>
					</g>
					<g>
						<g>
							<g>
								<g>
									<g>
										<path class="st8" d="M658.4,829.1c1-0.7,2.9-0.7,4.1,0l32.4,19c1.2,0.7,1.2,1.7,0,2.4l-30.1,17.2c-1,0.7-2.9,0.7-4.1,0
											l-32.4-19c-1.2-0.7-1.2-1.7,0-2.4L658.4,829.1z"/>
									</g>
								</g>
							</g>
						</g>
					</g>
					<g>
						<g>
							<g>
								<g>
									<g>
										<path class="st8" d="M638.2,814.8c1.2,0.7,2.1,1.5,2.4,1.7c0,0.2,0.2,0.5,0.5,0.2c0.2-0.2,1.2,0.2,2.4,1l10,5.9
											c1.2,0.7,1.2,1.7,0,2.4l-30.1,17c-1,0.7-2.9,0.7-4.1,0l-34-20.1c-1.2-0.7-1.2-1.7,0-2.4l30.1-17.2c1-0.7,2.9-0.7,4.1,0
											L638.2,814.8z"/>
									</g>
								</g>
							</g>
						</g>
					</g>
					<g>
						<g>
							<g>
								<g>
									<g>
										<path class="st8" d="M610.4,798.6c1.2,0.7,1.2,1.7,0,2.4l-30.1,17.2c-1,0.7-2.9,0.7-4.1,0l-31.8-18.7
											c-1.2-0.7-1.2-1.7,0-2.4l30.1-17.2c1-0.7,2.9-0.7,4.1,0L610.4,798.6z"/>
									</g>
								</g>
							</g>
						</g>
					</g>
					<g>
						<g>
							<g>
								<g>
									<g>
										<path class="st8" d="M569.4,774.6c1.2,0.7,1.2,1.7,0,2.4l-30.1,17.2c-1,0.7-2.9,0.7-4.1,0L496,771.1
											c-1.2-0.7-1.2-1.7,0-2.4l30.3-17.2c1-0.7,2.9-0.7,4.1,0L569.4,774.6z"/>
									</g>
								</g>
							</g>
						</g>
					</g>
					<g>
						<g>
							<g>
								<g>
									<g>
										<path class="st8" d="M521.6,745.7c1.2,0.7,1.2,1.7,0,2.4L491.7,765c-1.2,0.7-1.8,1.5-1.8,1.7s-0.7,0-1.8-0.7l-39.4-23.2
											c-1.2-0.7-1.2-1.7,0-2.4l29.9-17.2c1-0.7,2.9-0.7,4.1,0L521.6,745.7z"/>
									</g>
								</g>
							</g>
						</g>
					</g>
					<g>
						<g>
							<g>
								<g>
									<g>
										<path class="st8" d="M429.5,694.3c1-0.7,2.9-0.7,4.1,0l35.2,20.8c1.2,0.5,2.4,1.2,2.7,1.5c0.2,0.2,1.2,1,2.1,1.5
											c1,0.5,0.7,1.5-0.5,2.1l-29.9,17.2c-1,0.7-2.9,0.7-4.1,0l-39.8-23.3c-1.2-0.7-1.2-1.7,0-2.4L429.5,694.3z"/>
									</g>
								</g>
							</g>
						</g>
					</g>
					<g>
						<g>
							<g>
								<g>
									<g>
										<path class="st8" d="M380.9,665.5c1.2-0.7,2.9-0.7,4.1,0l39.5,23.1c1.2,0.7,1.2,1.7,0,2.4l-29.9,17.2
											c-1,0.7-2.9,0.7-4.1,0L352,685.6c-1.2-0.7-1.2-1.7,0-2.4L380.9,665.5z"/>
									</g>
								</g>
							</g>
						</g>
					</g>
				</g>
				<g>
					<g>
						<g>
							<g>
								<g>
									<polygon class="st8" points="641.4,816.7 640.8,817.2 640.3,816.3 									"/>
								</g>
							</g>
						</g>
					</g>
				</g>
			</g>
		</g>
		<g>
			<g>
				<g>
					<g>
						<g>
							<path class="st8" d="M975.3,1059.1c1.2,0.7,1.2,1.7,0,2.4l-29.9,17.3c-1,0.7-2.9,0.7-4.1,0l-84.8-50.2
								c-1.2-0.7-1.2-1.7,0-2.4l29.6-17.3c1-0.7,2.9-0.7,4.1,0L975.3,1059.1z"/>
						</g>
					</g>
				</g>
			</g>
			<g>
				<g>
					<g>
						<g>
							<path class="st8" d="M825.4,973c1-0.7,2.9-0.7,4.1,0l51.6,30.3c1.2,0.7,1.2,1.7,0,2.4l-29.6,17.3c-1,0.7-2.9,0.7-4.1,0
								l-51.6-30.3c-1.2-0.7-1.2-1.7,0-2.4L825.4,973z"/>
						</g>
					</g>
				</g>
			</g>
			<g>
				<g>
					<g>
						<g>
							<path class="st8" d="M820.7,968.1c1.2,0.7,1.2,1.7,0,2.4l-29.1,16.9c-1,0.7-2.9,0.7-4.1,0l-52-30.1c-1.2-0.7-1.2-1.7,0-2.4
								l29.6-17.3c1-0.7,2.9-0.7,4.1,0L820.7,968.1z"/>
						</g>
					</g>
				</g>
			</g>
			<g>
				<g>
					<g>
						<g>
							<path class="st8" d="M760.1,932.4c1.2,0.7,1.2,1.7,0,2.4l-29.6,17.3c-1,0.7-2.9,0.7-4.1,0l-51.6-30.5c-1.2-0.7-1.2-1.7,0-2.4
								l29.6-17.3c1-0.7,2.9-0.7,4.1,0L760.1,932.4z"/>
						</g>
					</g>
				</g>
			</g>
			<g>
				<g>
					<g>
						<g>
							<path class="st8" d="M699.4,896.4c1.2,0.7,1.2,1.7,0,2.4l-29.6,17.3c-1,0.7-2.9,0.7-4.1,0l-51.4-30.3c-1.2-0.7-1.2-1.7,0-2.4
								l29.6-17.3c1-0.7,2.9-0.7,4.1,0L699.4,896.4z"/>
						</g>
					</g>
				</g>
			</g>
			<g>
				<g>
					<g>
						<g>
							<path class="st8" d="M639.1,860.9c1.2,0.7,1.2,1.7,0,2.4l-29.6,17.3c-1,0.7-2.9,0.7-4.1,0l-51.6-30.3c-1.2-0.7-1.2-1.7,0-2.4
								l29.6-17.3c1-0.7,2.9-0.7,4.1,0L639.1,860.9z"/>
						</g>
					</g>
				</g>
			</g>
			<g>
				<g>
					<g>
						<g>
							<path class="st8" d="M578.1,825.2c1.2,0.7,1.2,1.7,0,2.4L548.5,845c-1,0.7-2.9,0.7-4.1,0L493,814.7c-1.2-0.7-1.2-1.7,0-2.4
								l29.6-17.3c1-0.7,2.9-0.7,4.1,0L578.1,825.2z"/>
						</g>
					</g>
				</g>
			</g>
			<g>
				<g>
					<g>
						<g>
							<path class="st8" d="M517.7,788.9c1.2,0.7,1.2,1.7,0,2.4l-29.6,17.3c-1,0.7-2.9,0.7-4.1,0l-49.9-29.4c-1.2-0.7-1.2-1.7,0-2.4
								l28.9-17.5c1.2-0.7,2.9-0.7,4.1,0L517.7,788.9z"/>
						</g>
					</g>
				</g>
			</g>
			<g>
				<g>
					<g>
						<g>
							<path class="st8" d="M457.8,754.3c1.2,0.7,1.2,1.7,0,2.4l-28.9,17.5c-1.2,0.7-2.9,0.7-4.1,0l-51.1-30c-1.2-0.5-1.2-1.7,0-2.4
								l28.9-17.8c1.2-0.7,2.9-0.7,4.1,0L457.8,754.3z"/>
						</g>
					</g>
				</g>
			</g>
			<g>
				<g>
					<g>
						<g>
							<path class="st8" d="M342.9,688.5c1.2-0.7,2.9-0.7,4.1,0l50.6,29.9c1.2,0.5,1.2,1.7,0,2.4l-28.9,17.8c-1.2,0.7-2.9,0.7-4.1,0
								l-50.9-29.9c-1.2-0.7-1.2-1.7,0-2.4L342.9,688.5z"/>
						</g>
					</g>
				</g>
			</g>
		</g>
		<g>
			<g>
				<g>
					<g>
						<path class="st8" d="M824.1,1017.7c1.2-0.7,2.9-0.7,4.1,0l107.7,63.6c1.2,0.7,1.2,1.7,0,2.4L906,1101c-1,0.7-2.9,0.7-4.1,0
							l-107-63.3c-1.2-0.7-1.2-1.7,0-2.4L824.1,1017.7z"/>
					</g>
				</g>
			</g>
			<g>
				<g>
					<g>
						<path class="st8" d="M819.3,1012.6c1.2,0.7,1.2,1.7,0,2.4l-29.1,17.5c-1.2,0.7-2.9,0.7-4.1,0l-51.9-30.6
							c-1.2-0.7-1.2-1.7,0-2.4l29.1-17.5c1.2-0.7,2.9-0.7,4.1,0L819.3,1012.6z"/>
					</g>
				</g>
			</g>
			<g>
				<g>
					<g>
						<path class="st8" d="M758.4,976.7c1.2,0.7,1.2,1.7,0,2.4l-29.1,17.6c-1.2,0.7-2.9,0.7-4.1,0l-47.3-28c-1.2-0.7-1.2-1.7,0-2.4
							l29.9-17.3c1-0.7,2.9-0.7,4.1,0L758.4,976.7z"/>
					</g>
				</g>
			</g>
			<g>
				<g>
					<g>
						<path class="st8" d="M651.4,915.5c1-0.7,2.9-0.7,4.1,0l47.3,27.9c1.2,0.7,1.2,1.7,0,2.4l-29.9,17.3c-1,0.7-2.9,0.7-4.1,0
							l-47.5-28c-1.2-0.7-1.2-1.7,0-2.4L651.4,915.5z"/>
					</g>
				</g>
			</g>
			<g>
				<g>
					<g>
						<path class="st8" d="M646.3,910.5c1.2,0.7,1.2,1.7,0,2.4l-29.9,17.2c-1,0.7-2.9,0.7-4.1,0l-47.3-28c-1.2-0.7-1.2-1.7,0-2.4
							l29.6-17.3c1-0.7,2.9-0.7,4.1,0L646.3,910.5z"/>
					</g>
				</g>
			</g>
			<g>
				<g>
					<g>
						<path class="st8" d="M544.2,850.7c1,0.5,2.1,1.2,2.1,1.2s1,0.5,2.1,1.2l41.2,24.2c1.2,0.7,1.2,1.7,0,2.4L559.9,897
							c-1,0.7-2.9,0.7-4.1,0l-47.3-28c-1.2-0.7-1.2-1.7,0-2.4l29.6-17.3c1-0.7,2.9-0.7,4.1,0L544.2,850.7z"/>
					</g>
				</g>
			</g>
			<g>
				<g>
					<g>
						<path class="st8" d="M533.3,843.9c1.2,0.7,1.2,1.7,0,2.4l-29.6,17.3c-1,0.7-2.9,0.7-4.1,0l-47.3-28c-1.2-0.7-1.2-1.7,0-2.4
							l29.6-17.3c1-0.7,2.9-0.7,4.1,0L533.3,843.9z"/>
					</g>
				</g>
			</g>
			<g>
				<g>
					<g>
						<path class="st8" d="M476.7,810.5c1.2,0.7,1.2,1.7,0,2.4l-29.6,17.3c-1,0.7-2.9,0.7-4.1,0l-47.3-28c-1.2-0.7-1.2-1.7,0-2.4
							l29.6-17.3c1-0.7,2.9-0.7,4.1,0L476.7,810.5z"/>
					</g>
				</g>
			</g>
			<g>
				<g>
					<g>
						<path class="st8" d="M420.1,777.1c1.2,0.7,1.2,1.7,0,2.4l-29.6,17.3c-1,0.7-2.9,0.7-4.1,0l-47.3-28c-1.2-0.7-1.2-1.7,0-2.4
							l29.6-17.3c1-0.7,2.9-0.7,4.1,0L420.1,777.1z"/>
					</g>
				</g>
			</g>
			<g>
				<g>
					<g>
						<path class="st8" d="M304.9,711.5c1.2-0.7,2.9-0.7,4.1,0l54.8,32.4c1.2,0.7,1.2,1.7,0,2.4l-29.6,17.2c-1,0.7-2.9,0.7-4.1,0
							l-54-31.8c-1.2-0.7-1.2-1.7,0-2.4L304.9,711.5z"/>
					</g>
				</g>
			</g>
		</g>
		<g>
			<g>
				<g>
					<path class="st8" d="M897.1,1104.2c1.2,0.7,1.2,1.7,0,2.4l-29.9,17.3c-1,0.7-2.9,0.7-4.1,0l-33.2-19.8c-1.2-0.7-1.2-1.7,0-2.4
						l29.9-17.3c1-0.7,2.9-0.7,4.1,0L897.1,1104.2z"/>
				</g>
			</g>
			<g>
				<g>
					<path class="st8" d="M854.7,1078.9c1.2,0.7,1.2,1.7,0,2.4l-29.6,17.4c-1,0.7-2.9,0.7-4.1,0l-38.8-22.8c-1.2-0.7-1.2-1.7,0-2.4
						l29.6-17.3c1-0.7,2.9-0.7,4.1,0L854.7,1078.9z"/>
				</g>
			</g>
			<g>
				<g>
					<path class="st8" d="M807.1,1050.6c1.2,0.7,1.2,1.7,0,2.4l-29.9,17.3c-1,0.7-2.9,0.7-4.1,0l-38.8-22.8c-1.2-0.7-1.2-1.7,0-2.4
						l29.9-17.3c1-0.7,2.9-0.7,4.1,0L807.1,1050.6z"/>
				</g>
			</g>
			<g>
				<g>
					<path class="st8" d="M759.1,1022.3c1.2,0.7,1.2,1.7,0,2.4l-29.9,17.3c-1,0.7-2.9,0.7-4.1,0l-38.8-22.6c-1.2-0.7-1.2-1.7,0-2.4
						l29.9-17.3c1-0.7,2.9-0.7,4.1,0L759.1,1022.3z"/>
				</g>
			</g>
			<g>
				<g>
					<path class="st8" d="M711.2,994.1c1.2,0.7,1.2,1.7,0,2.4l-29.9,17.3c-1,0.7-2.9,0.7-4.1,0L471.1,892.3c-1.2-0.7-1.2-1.7,0-2.4
						l29.9-17.3c1-0.7,2.9-0.7,4.1,0L711.2,994.1z"/>
				</g>
			</g>
			<g>
				<g>
					<path class="st8" d="M496.1,867.3c1.2,0.7,1.2,1.7,0,2.4L466.2,887c-1,0.7-2.9,0.7-4.1,0l-38.8-22.8c-1.2-0.7-1.2-1.7,0-2.4
						l29.9-17.3c1-0.7,2.9-0.7,4.1,0L496.1,867.3z"/>
				</g>
			</g>
			<g>
				<g>
					<path class="st8" d="M448,838.9c1.2,0.7,1.2,1.7,0,2.4l-29.9,17.4c-1,0.7-2.9,0.7-4.1,0l-37.6-21.9c-1.2-0.7-1.2-1.7,0-2.4
						l29.9-17.3c1-0.7,2.9-0.7,4.1,0L448,838.9z"/>
				</g>
			</g>
			<g>
				<g>
					<path class="st8" d="M401.8,811.3c1.2,0.7,1.2,1.7,0,2.4L371.9,831c-1,0.7-2.9,0.7-4.1,0l-37.6-21.9c-1.2-0.7-1.2-1.7,0-2.4
						l29.9-17.3c1-0.7,2.9-0.7,4.1,0L401.8,811.3z"/>
				</g>
			</g>
			<g>
				<g>
					<path class="st8" d="M313.1,762c1-0.7,2.9-0.7,4.1,0l37.6,22c1.2,0.7,1.2,1.7,0,2.4l-11.8,7l-41.5-24.8L313.1,762z"/>
					<path class="st8" d="M284,779.4l13.3-7.7l41.5,24.7l-13.1,7.5c-1.2,0.7-2.1,1.2-2.1,1.2s-1-0.5-2.1-1.2l-37.5-22
						C282.3,781,282.3,779.9,284,779.4z"/>
				</g>
			</g>
			<g>
				<g>
					<path class="st8" d="M267,734.4c1.2-0.7,2.9-0.7,4.1,0l37.1,21.9c1.2,0.7,1.2,1.7,0,2.4L278.4,776c-1,0.7-2.9,0.7-4.1,0
						l-36.5-21.4c-1.2-0.7-1.2-1.7,0-2.4L267,734.4z"/>
				</g>
			</g>
		</g>
	</g>
	<g>
		<g>
			<g>
				<g>
					<line class="st9" x1="830.5" y1="928.3" x2="825.4" y2="925.4"/>
				</g>
			</g>
		</g>
	</g>
	<g>
		<g>
			<g>
				<g>
					<line class="st9" x1="787.8" y1="903" x2="782.8" y2="900"/>
				</g>
			</g>
		</g>
	</g>
	<g>
		<g>
			<g>
				<g>
					<line class="st9" x1="702" y1="852.6" x2="697" y2="849.6"/>
				</g>
			</g>
		</g>
		<g>
			<g>
				<g>
					<line class="st9" x1="667.3" y1="872" x2="662.4" y2="868.8"/>
				</g>
			</g>
		</g>
	</g>
	<g>
		<g>
			<g>
				<g>
					<path class="st10" d="M430.4,690.9"/>
				</g>
			</g>
		</g>
	</g>
	<g>
		<g>
			<g>
				<g>
					<path class="st10" d="M489.9,657.2"/>
				</g>
			</g>
		</g>
	</g>
	<g>
		<g>
			<g>
				<polygon class="st8" points="546.5,851.7 546.4,851.9 546.1,851.4 				"/>
			</g>
		</g>
	</g>
	<g>
		<g>
			<path class="st10" d="M299.4,720.5"/>
		</g>
	</g>
	<g>
		<g>
			<path class="st10" d="M349.7,691.4"/>
		</g>
	</g>
	<g>
		<line class="st9" x1="766.3" y1="1026.6" x2="761.4" y2="1023.7"/>
	</g>
</g>
<g>
	<g>
		<g>
			<g>
				<g>
					<g>
						<g>
							<g>
								<g>
									<g>
										<path class="st11" d="M1074.5,999.5c1.2,0.7,1.2,1.7,0,2.4l-14.6,8.5c-1,0.7-2.9,0.7-4.1,0l-63-37c-1.2-0.7-1.2-1.7,0-2.4
											l14.6-8.7c1-0.7,2.9-0.7,4.1,0L1074.5,999.5z"/>
									</g>
								</g>
							</g>
						</g>
					</g>
				</g>
			</g>
			<g>
				<g>
					<g>
						<g>
							<g>
								<g>
									<g>
										<path class="st11" d="M965.5,937.9c1-0.7,2.9-0.7,4.1,0l32.4,19.3c1.2,0.7,1.2,1.7,0,2.4l-14.6,8.7c-1,0.7-2.9,0.7-4.1,0
											L950.9,949c-1.2-0.7-1.2-1.7,0-2.4L965.5,937.9z"/>
									</g>
								</g>
							</g>
						</g>
					</g>
				</g>
			</g>
			<g>
				<g>
					<g>
						<g>
							<g>
								<g>
									<g>
										<path class="st11" d="M923.3,913.2c1-0.7,2.9-0.7,4.1,0l32.8,19.6c1.2,0.7,1.2,1.7,0,2.4l-14.6,8.7c-1,0.7-2.9,0.7-4.1,0
											l-32.8-19.6c-1.2-0.7-1.2-1.7,0-2.4L923.3,913.2z"/>
									</g>
								</g>
							</g>
						</g>
					</g>
				</g>
			</g>
			<g>
				<g>
					<g>
						<g>
							<g>
								<g>
									<g>
										<path class="st11" d="M889.1,892.7c1-0.7,2.9-0.7,4.1,0l25.3,14.9c1.2,0.7,1.2,1.7,0,2.4l-14.9,8.7c-1,0.7-2.9,0.7-4.1,0
											l-25.3-14.9c-1.2-0.7-1.2-1.7,0-2.4L889.1,892.7z"/>
									</g>
								</g>
							</g>
						</g>
					</g>
				</g>
			</g>
			<g>
				<g>
					<g>
						<g>
							<g>
								<g>
									<g>
										<path class="st11" d="M831.8,876.5l14.9-8.7c1-0.7,2.9-0.7,4.1,0l33.2,19.8c1.2,0.7,1.2,1.7,0,2.4l-14.9,8.7
											c-1,0.7-2.9,0.7-4.1,0l-17.8-10.3l-1.2-0.7l-14-8.7C830.6,878,830.6,876.9,831.8,876.5z"/>
									</g>
								</g>
							</g>
						</g>
					</g>
				</g>
			</g>
			<g>
				<g>
					<g>
						<g>
							<g>
								<g>
									<g>
										<path class="st11" d="M803.9,842.5c1-0.7,2.9-0.7,4.1,0l33.5,19.8c1.2,0.7,1.2,1.7,0,2.4l-14.9,8.7c-1,0.7-2.9,0.7-4.1,0
											L789,853.6c-1.2-0.7-1.2-1.7,0-2.4L803.9,842.5z"/>
									</g>
								</g>
							</g>
						</g>
					</g>
				</g>
			</g>
			<g>
				<g>
					<g>
						<g>
							<g>
								<g>
									<g>
										<path class="st11" d="M761.7,817.4c1-0.7,2.9-0.7,4.1,0l33.2,19.8c1.2,0.7,1.2,1.7,0,2.4l-15.2,8.7c-1,0.7-2.9,0.7-4.1,0
											l-33.2-19.8c-1.2-0.7-1.2-1.7,0-2.4L761.7,817.4z"/>
									</g>
								</g>
							</g>
						</g>
					</g>
				</g>
			</g>
			<g>
				<g>
					<g>
						<g>
							<g>
								<g>
									<g>
										<path class="st11" d="M719.6,792.1c1-0.7,2.9-0.7,4.1,0l33,19.8c1.2,0.7,1.2,1.7,0,2.4l-15.2,8.7c-1,0.7-2.9,0.7-4.1,0
											l-33-19.6c-1.2-0.7-1.2-1.7,0-2.4L719.6,792.1z"/>
									</g>
								</g>
							</g>
						</g>
					</g>
				</g>
			</g>
			<g>
				<g>
					<g>
						<g>
							<g>
								<g>
									<g>
										<path class="st11" d="M677.1,767.2c1-0.7,2.9-0.7,4.1,0l33.2,19.8c1.2,0.7,1.2,1.7,0,2.4l-15.2,8.9c-1,0.7-2.9,0.7-4.1,0
											l-33.2-19.8c-1.2-0.7-1.2-1.7,0-2.4L677.1,767.2z"/>
									</g>
								</g>
							</g>
						</g>
					</g>
				</g>
			</g>
			<g>
				<g>
					<g>
						<g>
							<g>
								<g>
									<g>
										<path class="st11" d="M672.4,762.1c1.2,0.7,1.2,1.7,0,2.4l-15.2,8.9c-1,0.7-2.9,0.7-4.1,0l-32.8-19.6
											c-1.2-0.7-1.2-1.7,0-2.4l14.9-9.2c1.2-0.7,2.9-0.7,4.1,0L672.4,762.1z"/>
									</g>
								</g>
							</g>
						</g>
					</g>
				</g>
			</g>
			<g>
				<g>
					<g>
						<g>
							<g>
								<g>
									<g>
										<path class="st11" d="M630,736.9c1.2,0.7,1.2,1.7,0,2.4l-14.9,9.2c-1.2,0.7-2.9,0.7-4.1,0l-39-22.8
											c-1.2-0.7-1.2-1.7,0-2.4l15.2-9.2c1.2-0.7,2.9-0.7,4.1,0L630,736.9z"/>
									</g>
								</g>
							</g>
						</g>
					</g>
				</g>
			</g>
			<g>
				<g>
					<g>
						<g>
							<g>
								<g>
									<g>
										<path class="st11" d="M538.7,685.4c1.2-0.7,2.9-0.7,4.1,0l39.3,23.1c1.2,0.7,1.2,1.7,0,2.4l-14.9,9.2
											c-1.2,0.7-2.9,0.7-4.1,0L523.8,697c-1.2-0.7-1.2-1.7,0-2.4L538.7,685.4z"/>
									</g>
								</g>
							</g>
						</g>
					</g>
				</g>
			</g>
			<g>
				<g>
					<g>
						<g>
							<g>
								<g>
									<g>
										<path class="st11" d="M491.1,657.3c1-0.7,2.9-0.7,4.1,0l38.8,22.8c1.2,0.7,1.2,1.7,0,2.4l-15.2,9.2
											c-1.2,0.7-2.9,0.7-4.1,0l-39.2-23.1c-1.2-0.7-1.2-1.7,0-2.4L491.1,657.3z"/>
									</g>
								</g>
							</g>
						</g>
					</g>
				</g>
			</g>
			<g>
				<g>
					<g>
						<g>
							<g>
								<g>
									<g>
										<path class="st11" d="M440.4,627.2c1.2-0.7,2.9-0.7,4.1,0l41.2,24.4c1.2,0.7,1.2,1.7,0,2.4l-15.5,9.2
											c-1,0.7-2.9,0.7-4.1,0L425.4,639c-1.2-0.7-1.2-1.7,0-2.4L440.4,627.2z"/>
									</g>
								</g>
							</g>
						</g>
					</g>
				</g>
			</g>
		</g>
		<g>
			<g>
				<g>
					<g>
						<g>
							<g>
								<g>
									<path class="st11" d="M1050.4,1013.5c1.2,0.7,1.2,1.7,0,2.4l-27.2,15.5c-1,0.7-2.9,0.7-4.1,0l-33-19.6
										c-1.2-0.7-1.2-1.7,0-2.4l27-15.7c1.2-0.7,2.9-0.7,4.1,0L1050.4,1013.5z"/>
								</g>
							</g>
						</g>
					</g>
				</g>
			</g>
			<g>
				<g>
					<g>
						<g>
							<g>
								<g>
									<path class="st11" d="M971,969.2c1-0.7,2.9-0.7,4.1,0l33,19.6c1.2,0.7,1.2,1.7,0,2.4l-27,15.7c-1.2,0.7-2.9,0.7-4.1,0
										l-33-19.6c-1.2-0.7-1.2-1.7,0-2.4L971,969.2z"/>
								</g>
							</g>
						</g>
					</g>
				</g>
			</g>
			<g>
				<g>
					<g>
						<g>
							<g>
								<g>
									<path class="st11" d="M928.3,944c1-0.7,2.9-0.7,4.1,0l33.2,19.6c1.2,0.7,1.2,1.7,0,2.4l-27,15.7c-1.2,0.7-2.9,0.7-4.1,0
										l-33-19.6c-1.2-0.7-1.2-1.7,0-2.4L928.3,944z"/>
								</g>
							</g>
						</g>
					</g>
				</g>
			</g>
			<g>
				<g>
					<g>
						<g>
							<g>
								<g>
									<path class="st11" d="M886.6,919.1c1.2-0.7,2.9-0.7,4.1,0l32.8,19.8c1.2,0.7,1.2,1.7,0,2.4l-27,15.7c-1,0.7-2.9,0.7-4.1,0
										l-33.1-19.7c-1.2-0.7-1.2-1.7,0-2.4L886.6,919.1z"/>
								</g>
							</g>
						</g>
					</g>
				</g>
			</g>
			<g>
				<g>
					<g>
						<g>
							<g>
								<g>
									<path class="st11" d="M881.3,913.7c1.2,0.7,1.2,1.7,0,2.4l-27,15.7c-1.2,0.7-2.9,0.7-4.1,0l-33-19.6
										c-1.2-0.7-1.2-1.7,0-2.4l27-15.7c1.2-0.7,2.9-0.7,4.1,0L881.3,913.7z"/>
								</g>
							</g>
						</g>
					</g>
				</g>
			</g>
			<g>
				<g>
					<g>
						<g>
							<g>
								<g>
									<path class="st11" d="M802,869.4c1.2-0.7,2.9-0.7,4.1,0l33.2,19.6c1.2,0.7,1.2,1.7,0,2.4l-27,15.7c-1.2,0.7-2.9,0.7-4.1,0
										L775,887.6c-1.2-0.7-1.2-1.7,0-2.4L802,869.4z"/>
								</g>
							</g>
						</g>
					</g>
				</g>
			</g>
			<g>
				<g>
					<g>
						<g>
							<g>
								<g>
									<path class="st11" d="M759.8,844.5c1.2-0.7,2.9-0.7,4.1,0l33,19.6c1.2,0.7,1.2,1.7,0,2.4l-27,15.7c-1,0.7-2.9,0.7-4.1,0
										l-33-19.6c-1.2-0.7-1.2-1.7,0-2.4L759.8,844.5z"/>
								</g>
							</g>
						</g>
					</g>
				</g>
			</g>
			<g>
				<g>
					<g>
						<g>
							<g>
								<g>
									<path class="st11" d="M717.6,819.6c1-0.7,2.9-0.7,4.1,0l33,19.6c1.2,0.7,1.2,1.7,0,2.4l-27,15.8c-1,0.7-2.9,0.7-4.1,0
										l-33-19.6c-1.2-0.7-1.2-1.7,0-2.4L717.6,819.6z"/>
								</g>
							</g>
						</g>
					</g>
				</g>
			</g>
			<g>
				<g>
					<g>
						<g>
							<g>
								<g>
									<path class="st11" d="M675.2,794.6c1.2-0.7,2.9-0.7,4.1,0l33,19.6c1.2,0.7,1.2,1.7,0,2.4l-27,15.7c-1.2,0.7-2.9,0.7-4.1,0
										l-33-19.6c-1.2-0.7-1.2-1.7,0-2.4L675.2,794.6z"/>
								</g>
							</g>
						</g>
					</g>
				</g>
			</g>
			<g>
				<g>
					<g>
						<g>
							<g>
								<g>
									<path class="st11" d="M632.9,769.7c1.2-0.7,2.9-0.7,4.1,0l33.2,19.8c1.2,0.7,1.2,1.7,0,2.4l-27,15.7
										c-1.2,0.7-2.9,0.7-4.1,0l-33.2-19.8c-1.2-0.7-1.2-1.7,0-2.4L632.9,769.7z"/>
								</g>
							</g>
						</g>
					</g>
				</g>
			</g>
			<g>
				<g>
					<g>
						<g>
							<g>
								<g>
									<path class="st11" d="M590,745.6c1-0.7,2.9-0.7,4.1,0l33.7,19.3c1.2,0.7,1.2,1.7,0,2.4l-27.1,15.4c-1,0.7-2.9,0.7-4.1,0
										l-33-19.6c-1.2-0.7-1.2-1.7,0-2.4L590,745.6z"/>
								</g>
							</g>
						</g>
					</g>
				</g>
			</g>
			<g>
				<g>
					<g>
						<g>
							<g>
								<g>
									<path class="st11" d="M548.5,720.2c1-0.7,2.9-0.7,4.1,0l33,19.6c1.2,0.7,1.2,1.7,0,2.4l-27,15.5c-1,0.7-2.9,0.7-4.1,0
										l-33-19.7c-1.2-0.7-1.2-1.7,0-2.4L548.5,720.2z"/>
								</g>
							</g>
						</g>
					</g>
				</g>
			</g>
			<g>
				<g>
					<g>
						<g>
							<g>
								<g>
									<path class="st11" d="M506.1,695.4c1-0.7,2.9-0.7,4.1,0l33.2,19.6c1.2,0.7,1.2,1.7,0,2.4l-27,15.5c-1,0.7-2.9,0.7-4.1,0
										l-33-19.6c-1.2-0.7-1.2-1.7,0-2.4L506.1,695.4z"/>
								</g>
							</g>
						</g>
					</g>
				</g>
			</g>
			<g>
				<g>
					<g>
						<g>
							<g>
								<g>
									<path class="st11" d="M463.9,670.6c1-0.7,2.9-0.7,4.1,0l33,19.6c1.2,0.7,1.2,1.7,0,2.4l-27,15.5c-1,0.7-2.9,0.7-4.1,0
										l-33-19.7c-1.2-0.7-1.2-1.7,0-2.4L463.9,670.6z"/>
								</g>
							</g>
						</g>
					</g>
				</g>
			</g>
			<g>
				<g>
					<g>
						<g>
							<g>
								<g>
									<path class="st11" d="M416.7,642.2c1.2-0.7,2.9-0.7,4.1,0l38.6,22.6c1.2,0.7,1.2,1.7,0,2.4l-27.2,15.5
										c-1,0.7-2.9,0.7-4.1,0l-37.8-22.1c-1.2-0.7-1.2-1.7,0-2.4L416.7,642.2z"/>
								</g>
							</g>
						</g>
					</g>
				</g>
			</g>
		</g>
		<g>
			<g>
				<g>
					<g>
						<g>
							<g>
								<g>
									<g>
										<path class="st11" d="M946.8,996.6c1-0.7,2.9-0.7,4.1,0l63.3,37.6c1.2,0.7,1.2,1.7,0,2.4l-29.9,17.2c-1,0.7-2.9,0.7-4.1,0
											l-63.3-37.5c-1.2-0.7-1.2-1.7,0-2.4L946.8,996.6z"/>
									</g>
								</g>
							</g>
						</g>
					</g>
					<g>
						<g>
							<g>
								<g>
									<g>
										<path class="st11" d="M941.6,991.5c1.2,0.7,1.2,1.7,0,2.4l-29.9,17.3c-1,0.7-2.9,0.7-4.1,0l-31.8-18.7
											c-1.2-0.7-1.2-1.7,0-2.4l29.9-17.3c1-0.7,2.9-0.7,4.1,0L941.6,991.5z"/>
									</g>
								</g>
							</g>
						</g>
					</g>
					<g>
						<g>
							<g>
								<g>
									<g>
										<path class="st11" d="M900.7,967.5c1.2,0.7,1.2,1.7,0,2.4l-29.9,17.3c-1,0.7-2.9,0.7-4.1,0L835,968.4
											c-1.2-0.7-1.2-1.7,0-2.4l29.6-17.3c1-0.7,2.9-0.7,4.1,0L900.7,967.5z"/>
									</g>
								</g>
							</g>
						</g>
					</g>
					<g>
						<g>
							<g>
								<g>
									<g>
										<path class="st11" d="M828.5,927c1-0.7,2.9-0.7,4.1,0l27.2,16c1.2,0.7,1.2,1.7,0,2.4l-29.9,17.3c-1,0.7-2.9,0.7-4.1,0
											l-27.2-16c-1.2-0.7-1.2-1.7,0-2.4L828.5,927z"/>
									</g>
								</g>
							</g>
						</g>
					</g>
					<g>
						<g>
							<g>
								<g>
									<g>
										<path class="st11" d="M807.4,912.7c1.2,0.7,2.1,1.2,2.4,1.5c0.4,0.2,1.2,0.7,2.4,1.5l11.1,6.5c1.2,0.7,1.2,1.7,0,2.4
											l-30,17.3c-1,0.7-2.9,0.7-4.1,0l-34-20.3c-1.2-0.7-1.2-1.7,0-2.4l30.1-17.2c1-0.7,2.9-0.7,4.1,0L807.4,912.7z"/>
									</g>
								</g>
							</g>
						</g>
					</g>
					<g>
						<g>
							<g>
								<g>
									<g>
										<path class="st11" d="M743.1,876.9c1-0.7,2.9-0.7,4.1,0l33.2,19.6c1.2,0.7,1.2,1.7,0,2.4l-30.1,17c-1,0.7-2.9,0.7-4.1,0
											L713,896.3c-1.2-0.7-1.2-1.7,0-2.4L743.1,876.9z"/>
									</g>
								</g>
							</g>
						</g>
					</g>
					<g>
						<g>
							<g>
								<g>
									<g>
										<path class="st11" d="M738.3,871.9c1.2,0.7,1.2,1.7,0,2.4l-30.1,17.2c-1,0.7-2.9,0.7-4.1,0l-34.2-20.3
											c-1.2-0.7-1.2-1.7,0-2.4l30.1-17.2c1-0.7,2.9-0.7,4.1,0L738.3,871.9z"/>
									</g>
								</g>
							</g>
						</g>
					</g>
					<g>
						<g>
							<g>
								<g>
									<g>
										<path class="st11" d="M658.4,826.8c1-0.7,2.9-0.7,4.1,0l32.4,19c1.2,0.7,1.2,1.7,0,2.4l-30.1,17.2c-1,0.7-2.9,0.7-4.1,0
											l-32.4-19c-1.2-0.7-1.2-1.7,0-2.4L658.4,826.8z"/>
									</g>
								</g>
							</g>
						</g>
					</g>
					<g>
						<g>
							<g>
								<g>
									<g>
										<path class="st11" d="M638.2,812.5c1.2,0.7,2.1,1.5,2.4,1.7c0,0.2,0.2,0.5,0.5,0.2s1.2,0.2,2.4,1l10,5.9
											c1.2,0.7,1.2,1.7,0,2.4l-30.1,17.2c-1,0.7-2.9,0.7-4.1,0l-34-20.1c-1.2-0.7-1.2-1.7,0-2.4l30.1-17.2c1-0.7,2.9-0.7,4.1,0
											L638.2,812.5z"/>
									</g>
								</g>
							</g>
						</g>
					</g>
					<g>
						<g>
							<g>
								<g>
									<g>
										<path class="st11" d="M610.4,796.4c1.2,0.7,1.2,1.7,0,2.4L580.3,816c-1,0.7-2.9,0.7-4.1,0l-31.8-18.9
											c-1.2-0.7-1.2-1.7,0-2.4l30.1-17.2c1-0.7,2.9-0.7,4.1,0L610.4,796.4z"/>
									</g>
								</g>
							</g>
						</g>
					</g>
					<g>
						<g>
							<g>
								<g>
									<g>
										<path class="st11" d="M569.4,772.3c1.2,0.7,1.2,1.7,0,2.4l-30.1,17.2c-1,0.7-2.9,0.7-4.1,0L496,768.8
											c-1.2-0.7-1.2-1.7,0-2.4l30.5-17.2c1-0.7,2.9-0.7,4.1,0L569.4,772.3z"/>
									</g>
								</g>
							</g>
						</g>
					</g>
					<g>
						<g>
							<g>
								<g>
									<g>
										<path class="st11" d="M521.6,743.4c1.2,0.7,1.2,1.7,0,2.4l-29.9,16.9c-1.2,0.7-1.8,1.5-1.8,1.7s-0.7,0-1.8-0.7l-39.4-23.1
											c-1.2-0.7-1.2-1.7,0-2.4l29.9-17.2c1-0.7,2.9-0.7,4.1,0L521.6,743.4z"/>
									</g>
								</g>
							</g>
						</g>
					</g>
					<g>
						<g>
							<g>
								<g>
									<g>
										<path class="st11" d="M429.5,692.1c1-0.7,2.9-0.7,4.1,0l35.2,20.8c1.2,0.5,2.4,1.2,2.7,1.5c0.2,0.2,1.2,1,2.1,1.5
											c1,0.5,0.7,1.5-0.5,2.1l-30,17c-1,0.7-2.9,0.7-4.1,0l-39.8-23.3c-1.2-0.7-1.2-1.7,0-2.4L429.5,692.1z"/>
									</g>
								</g>
							</g>
						</g>
					</g>
					<g>
						<g>
							<g>
								<g>
									<g>
										<path class="st11" d="M380.9,663.4c1.2-0.7,2.9-0.7,4.1,0l39.5,23.1c1.2,0.7,1.2,1.7,0,2.4L394.7,706
											c-1,0.7-2.9,0.7-4.1,0L352,683.4c-1.2-0.7-1.2-1.7,0-2.4L380.9,663.4z"/>
									</g>
								</g>
							</g>
						</g>
					</g>
				</g>
				<g>
					<g>
						<g>
							<g>
								<g>
									<polygon class="st11" points="641.4,814.5 640.8,814.9 640.3,814 									"/>
								</g>
							</g>
						</g>
					</g>
				</g>
			</g>
		</g>
		<g>
			<g>
				<g>
					<g>
						<g>
							<path class="st11" d="M975.3,1056.9c1.2,0.7,1.2,1.7,0,2.4l-29.9,17.3c-1,0.7-2.9,0.7-4.1,0l-84.8-50c-1.2-0.7-1.2-1.7,0-2.4
								l29.6-17.3c1-0.7,2.9-0.7,4.1,0L975.3,1056.9z"/>
						</g>
					</g>
				</g>
			</g>
			<g>
				<g>
					<g>
						<g>
							<path class="st11" d="M825.4,970.9c1-0.7,2.9-0.7,4.1,0l51.6,30.3c1.2,0.7,1.2,1.7,0,2.4l-29.6,17.2c-1,0.7-2.9,0.7-4.1,0
								l-51.6-30.3c-1.2-0.7-1.2-1.7,0-2.4L825.4,970.9z"/>
						</g>
					</g>
				</g>
			</g>
			<g>
				<g>
					<g>
						<g>
							<path class="st11" d="M820.7,965.7c1.2,0.7,1.2,1.7,0,2.4L791.6,985c-1,0.7-2.9,0.7-4.1,0l-52-30.1c-1.2-0.7-1.2-1.7,0-2.4
								l29.6-17.3c1-0.7,2.9-0.7,4.1,0L820.7,965.7z"/>
						</g>
					</g>
				</g>
			</g>
			<g>
				<g>
					<g>
						<g>
							<path class="st11" d="M760.1,930.1c1.2,0.7,1.2,1.7,0,2.4l-29.6,17.3c-1,0.7-2.9,0.7-4.1,0l-51.6-30.2
								c-1.2-0.7-1.2-1.7,0-2.4l29.6-17.3c1-0.7,2.9-0.7,4.1,0L760.1,930.1z"/>
						</g>
					</g>
				</g>
			</g>
			<g>
				<g>
					<g>
						<g>
							<path class="st11" d="M699.4,894.2c1.2,0.7,1.2,1.7,0,2.4l-29.6,17.3c-1,0.7-2.9,0.7-4.1,0l-51.4-30.3
								c-1.2-0.7-1.2-1.7,0-2.4l29.6-17.3c1-0.7,2.9-0.7,4.1,0L699.4,894.2z"/>
						</g>
					</g>
				</g>
			</g>
			<g>
				<g>
					<g>
						<g>
							<path class="st11" d="M639.1,858.4c1.2,0.7,1.2,1.7,0,2.4l-29.6,17.3c-1,0.7-2.9,0.7-4.1,0l-51.6-30.3
								c-1.2-0.7-1.2-1.7,0-2.4l29.6-17.3c1-0.7,2.9-0.7,4.1,0L639.1,858.4z"/>
						</g>
					</g>
				</g>
			</g>
			<g>
				<g>
					<g>
						<g>
							<path class="st11" d="M578.1,822.9c1.2,0.7,1.2,1.7,0,2.4l-29.6,17.3c-1,0.7-2.9,0.7-4.1,0L493,812.3c-1.2-0.7-1.2-1.7,0-2.4
								l29.6-17.3c1-0.7,2.9-0.7,4.1,0L578.1,822.9z"/>
						</g>
					</g>
				</g>
			</g>
			<g>
				<g>
					<g>
						<g>
							<path class="st11" d="M517.7,786.8c1.2,0.7,1.2,1.7,0,2.4l-29.6,17.3c-1,0.7-2.9,0.7-4.1,0l-49.9-29.4
								c-1.2-0.7-1.2-1.7,0-2.4l28.9-17.5c1.2-0.7,2.9-0.7,4.1,0L517.7,786.8z"/>
						</g>
					</g>
				</g>
			</g>
			<g>
				<g>
					<g>
						<g>
							<path class="st11" d="M457.8,752.1c1.2,0.7,1.2,1.7,0,2.4L428.9,772c-1.2,0.7-2.9,0.7-4.1,0l-51.1-30.1
								c-1.2-0.5-1.2-1.7,0-2.4l28.9-17.8c1.2-0.7,2.9-0.7,4.1,0L457.8,752.1z"/>
						</g>
					</g>
				</g>
			</g>
			<g>
				<g>
					<g>
						<g>
							<path class="st11" d="M342.9,686.2c1.2-0.7,2.9-0.7,4.1,0l50.6,29.9c1.2,0.5,1.2,1.7,0,2.4l-28.9,17.8
								c-1.2,0.7-2.9,0.7-4.1,0l-50.9-29.9c-1.2-0.7-1.2-1.7,0-2.4L342.9,686.2z"/>
						</g>
					</g>
				</g>
			</g>
		</g>
		<g>
			<g>
				<g>
					<g>
						<path class="st11" d="M824.1,1015.5c1.2-0.7,2.9-0.7,4.1,0l107.7,63.6c1.2,0.7,1.2,1.7,0,2.4l-29.9,17.3c-1,0.7-2.9,0.7-4.1,0
							l-107-63.2c-1.2-0.7-1.2-1.7,0-2.4L824.1,1015.5z"/>
					</g>
				</g>
			</g>
			<g>
				<g>
					<g>
						<path class="st11" d="M819.3,1010.4c1.2,0.7,1.2,1.7,0,2.4l-29.1,17.5c-1.2,0.7-2.9,0.7-4.1,0l-51.9-30.7
							c-1.2-0.7-1.2-1.7,0-2.4l29.1-17.5c1.2-0.7,2.9-0.7,4.1,0L819.3,1010.4z"/>
					</g>
				</g>
			</g>
			<g>
				<g>
					<g>
						<path class="st11" d="M758.4,974.4c1.2,0.7,1.2,1.7,0,2.4l-29.1,17.5c-1.2,0.7-2.9,0.7-4.1,0l-47.3-27.9
							c-1.2-0.7-1.2-1.7,0-2.4l29.9-17.3c1-0.7,2.9-0.7,4.1,0L758.4,974.4z"/>
					</g>
				</g>
			</g>
			<g>
				<g>
					<g>
						<path class="st11" d="M651.4,913.2c1-0.7,2.9-0.7,4.1,0l47.3,28c1.2,0.7,1.2,1.7,0,2.4l-29.9,17.3c-1,0.7-2.9,0.7-4.1,0
							l-47.5-28c-1.2-0.7-1.2-1.7,0-2.4L651.4,913.2z"/>
					</g>
				</g>
			</g>
			<g>
				<g>
					<g>
						<path class="st11" d="M646.3,908.1c1.2,0.7,1.2,1.7,0,2.4l-29.9,17.3c-1,0.7-2.9,0.7-4.1,0l-47.3-28c-1.2-0.7-1.2-1.7,0-2.4
							l29.6-17.3c1-0.7,2.9-0.7,4.1,0L646.3,908.1z"/>
					</g>
				</g>
			</g>
			<g>
				<g>
					<g>
						<path class="st11" d="M544.2,848.4c1,0.5,2.1,1.2,2.1,1.2s1,0.5,2.1,1.2l41.2,24.2c1.2,0.7,1.2,1.7,0,2.4l-29.4,17.3
							c-1,0.7-2.9,0.7-4.1,0l-47.3-28c-1.2-0.7-1.2-1.7,0-2.4l29.6-17.3c1-0.7,2.9-0.7,4.1,0L544.2,848.4z"/>
					</g>
				</g>
			</g>
			<g>
				<g>
					<g>
						<path class="st11" d="M533.3,841.6c1.2,0.7,1.2,1.7,0,2.4l-29.6,17.3c-1,0.7-2.9,0.7-4.1,0l-47.3-27.9c-1.2-0.7-1.2-1.7,0-2.4
							l29.6-17.3c1-0.7,2.9-0.7,4.1,0L533.3,841.6z"/>
					</g>
				</g>
			</g>
			<g>
				<g>
					<g>
						<path class="st11" d="M476.7,808.3c1.2,0.7,1.2,1.7,0,2.4L447.1,828c-1,0.7-2.9,0.7-4.1,0l-47.3-28c-1.2-0.7-1.2-1.7,0-2.4
							l29.6-17.3c1-0.7,2.9-0.7,4.1,0L476.7,808.3z"/>
					</g>
				</g>
			</g>
			<g>
				<g>
					<g>
						<path class="st11" d="M420.1,774.9c1.2,0.7,1.2,1.7,0,2.4l-29.6,17.3c-1,0.7-2.9,0.7-4.1,0l-47.3-28c-1.2-0.7-1.2-1.7,0-2.4
							l29.6-17.3c1-0.7,2.9-0.7,4.1,0L420.1,774.9z"/>
					</g>
				</g>
			</g>
			<g>
				<g>
					<g>
						<path class="st11" d="M304.9,709.2c1.2-0.7,2.9-0.7,4.1,0l54.8,32.4c1.2,0.7,1.2,1.7,0,2.4l-29.6,17.2c-1,0.7-2.9,0.7-4.1,0
							l-54-31.8c-1.2-0.7-1.2-1.7,0-2.4L304.9,709.2z"/>
					</g>
				</g>
			</g>
		</g>
		<g>
			<g>
				<g>
					<path class="st11" d="M897.1,1101.9c1.2,0.7,1.2,1.7,0,2.4l-29.9,17.3c-1,0.7-2.9,0.7-4.1,0l-33.1-19.8c-1.2-0.7-1.2-1.7,0-2.4
						l29.9-17.3c1-0.7,2.9-0.7,4.1,0L897.1,1101.9z"/>
				</g>
			</g>
			<g>
				<g>
					<path class="st11" d="M854.7,1076.6c1.2,0.7,1.2,1.7,0,2.4l-29.6,17.3c-1,0.7-2.9,0.7-4.1,0l-38.8-22.8c-1.2-0.7-1.2-1.7,0-2.4
						l29.6-17.3c1-0.7,2.9-0.7,4.1,0L854.7,1076.6z"/>
				</g>
			</g>
			<g>
				<g>
					<path class="st11" d="M807.1,1048.4c1.2,0.7,1.2,1.7,0,2.4l-29.9,17.3c-1,0.7-2.9,0.7-4.1,0l-38.8-22.8c-1.2-0.7-1.2-1.7,0-2.4
						l29.9-17.3c1-0.7,2.9-0.7,4.1,0L807.1,1048.4z"/>
				</g>
			</g>
			<g>
				<g>
					<path class="st11" d="M759.1,1019.9c1.2,0.7,1.2,1.7,0,2.4l-29.9,17.3c-1,0.7-2.9,0.7-4.1,0l-38.8-22.6c-1.2-0.7-1.2-1.7,0-2.4
						l29.9-17.3c1-0.7,2.9-0.7,4.1,0L759.1,1019.9z"/>
				</g>
			</g>
			<g>
				<g>
					<path class="st11" d="M711.2,991.9c1.2,0.7,1.2,1.7,0,2.4l-29.9,17.3c-1,0.7-2.9,0.7-4.1,0L471.1,890.1c-1.2-0.7-1.2-1.7,0-2.4
						l29.9-17.3c1-0.7,2.9-0.7,4.1,0L711.2,991.9z"/>
				</g>
			</g>
			<g>
				<g>
					<path class="st11" d="M496.1,865.1c1.2,0.7,1.2,1.7,0,2.4l-29.9,17.3c-1,0.7-2.9,0.7-4.1,0L423.3,862c-1.2-0.7-1.2-1.7,0-2.4
						l29.9-17.3c1-0.7,2.9-0.7,4.1,0L496.1,865.1z"/>
				</g>
			</g>
			<g>
				<g>
					<path class="st11" d="M448,836.6c1.2,0.7,1.2,1.7,0,2.4l-29.9,17.3c-1,0.7-2.9,0.7-4.1,0l-37.6-21.9c-1.2-0.7-1.2-1.7,0-2.4
						l29.9-17.3c1-0.7,2.9-0.7,4.1,0L448,836.6z"/>
				</g>
			</g>
			<g>
				<g>
					<path class="st11" d="M401.8,809.1c1.2,0.7,1.2,1.7,0,2.4l-29.9,17.3c-1,0.7-2.9,0.7-4.1,0l-37.6-22c-1.2-0.7-1.2-1.7,0-2.4
						l29.9-17.3c1-0.7,2.9-0.7,4.1,0L401.8,809.1z"/>
				</g>
			</g>
			<g>
				<g>
					<path class="st11" d="M313.1,759.7c1-0.7,2.9-0.7,4.1,0l37.6,21.9c1.2,0.7,1.2,1.7,0,2.4l-11.8,7l-41.5-24.7L313.1,759.7z"/>
					<path class="st11" d="M284,777.1l13.3-7.7l41.5,24.7l-13.1,7.5c-1.2,0.7-2.1,1.2-2.1,1.2s-1-0.5-2.1-1.2l-37.5-22
						C282.3,778.8,282.3,777.5,284,777.1z"/>
				</g>
			</g>
			<g>
				<g>
					<path class="st11" d="M267,732.3c1.2-0.7,2.9-0.7,4.1,0l37.1,21.9c1.2,0.7,1.2,1.7,0,2.4l-29.9,17.3c-1,0.7-2.9,0.7-4.1,0
						l-36.5-21.4c-1.2-0.7-1.2-1.7,0-2.4L267,732.3z"/>
				</g>
			</g>
		</g>
	</g>
	<g>
		<g>
			<g>
				<g>
					<line class="st9" x1="830.5" y1="926" x2="825.4" y2="923.2"/>
				</g>
			</g>
		</g>
	</g>
	<g>
		<g>
			<g>
				<g>
					<line class="st9" x1="787.8" y1="900.6" x2="782.8" y2="897.8"/>
				</g>
			</g>
		</g>
	</g>
	<g>
		<g>
			<g>
				<g>
					<line class="st9" x1="702" y1="850.5" x2="697" y2="847.4"/>
				</g>
			</g>
		</g>
		<g>
			<g>
				<g>
					<line class="st9" x1="667.3" y1="869.7" x2="662.4" y2="866.4"/>
				</g>
			</g>
		</g>
	</g>
	<g>
		<g>
			<g>
				<g>
					<path class="st12" d="M430.4,688.8"/>
				</g>
			</g>
		</g>
	</g>
	<g>
		<g>
			<g>
				<g>
					<path class="st12" d="M489.9,654.9"/>
				</g>
			</g>
		</g>
	</g>
	<g>
		<g>
			<g>
				<polygon class="st11" points="546.5,849.4 546.4,849.6 546.1,849.1 				"/>
			</g>
		</g>
	</g>
	<g>
		<g>
			<path class="st12" d="M299.4,718.4"/>
		</g>
	</g>
	<g>
		<g>
			<path class="st12" d="M349.7,689.2"/>
		</g>
	</g>
	<g>
		<line class="st9" x1="766.3" y1="1024.3" x2="761.4" y2="1021.4"/>
	</g>
</g>
<g>
	<path class="st13" d="M262.7,972.2c-1.2,0.7-1.2,1.7,0,2.4l208,120.7c1,0.7,2.9,0.7,4.1,0l151.1-87.5c1.2-0.7,1.2-1.7,0-2.4
		L418.5,884.6c-1-0.7-2.9-0.7-4.1,0L262.7,972.2z"/>
</g>
<polygon class="st14" points="616.7,653.9 610.7,650.4 616.9,646.8 "/>
<polygon class="st15" points="1141.3,984.4 1141.3,991.9 1123.9,1001.6 1123.9,994.3 "/>
</svg>
