<?xml version="1.0" encoding="utf-8"?>
<!-- Generator: Adobe Illustrator 22.0.1, SVG Export Plug-In . SVG Version: 6.00 Build 0)  -->
<svg version="1.1" id="vaguett" xmlns="http://www.w3.org/2000/svg" xmlns:xlink="http://www.w3.org/1999/xlink" x="0px" y="0px"
	 viewBox="0 0 595.3 408.4" style="enable-background:new 0 0 595.3 408.4;" xml:space="preserve">
<style type="text/css">
	.st0{fill:#16BEF9;}
	.st1{opacity:0.35;filter:url(#AI_FlouGaussien_4);}
	.st2{fill:#515151;}
	.st3{fill:#C4C4C4;}
	.st4{fill:#C5C5C5;}
	.st5{fill:#C6C6C6;}
	.st6{fill:#C7C7C7;}
	.st7{fill:#C8C8C8;}
	.st8{fill:#C9C9C9;}
	.st9{fill:#CACACA;}
	.st10{fill:#CBCBCB;}
	.st11{fill:#CCCCCC;}
	.st12{fill:#CDCDCD;}
	.st13{fill:#CECECE;}
	.st14{fill:#CFCFCF;}
	.st15{fill:#D0D0D0;}
	.st16{fill:#D1D1D1;}
	.st17{fill:#D2D2D2;}
	.st18{fill:#D3D3D3;}
	.st19{fill:#D4D4D4;}
	.st20{fill:#D5D5D5;}
	.st21{fill:#D6D6D6;}
	.st22{fill:#D7D7D7;}
	.st23{fill:#D8D8D8;}
	.st24{fill:#D9D9D9;}
	.st25{fill:#DADADA;}
	.st26{fill:#DBDBDB;}
	.st27{fill:#DCDCDC;}
	.st28{fill:#DDDDDD;}
	.st29{fill:#DEDEDE;}
	.st30{fill:#DFDFDF;}
	.st31{fill:#E0E0E0;}
	.st32{fill:#E1E1E1;}
	.st33{fill:#E2E2E2;}
	.st34{fill:#E3E3E3;}
	.st35{fill:#E4E4E4;}
	.st36{fill:#E5E5E5;}
	.st37{fill:#E6E6E6;}
	.st38{fill:#E7E7E7;}
	.st39{fill:#E8E8E8;}
	.st40{fill:#E9E9E9;}
	.st41{fill:#EAEAEA;}
	.st42{fill:#EBEBEB;}
	.st43{fill:#ECECEC;}
	.st44{fill:#EDEDED;}
	.st45{fill:#EEEEEE;}
	.st46{fill:#EFEFEF;}
	.st47{fill:#F0F0F0;}
	.st48{fill:#F1F1F1;}
	.st49{fill:#F2F2F2;}
	.st50{fill:#F3F3F3;}
	.st51{fill:#F4F4F4;}
	.st52{fill:none;stroke:#E5E5E5;stroke-width:2;stroke-miterlimit:10;}
	.st53{fill:#10D2FF;}
	.st54{opacity:0.82;fill:#29FFF9;enable-background:new    ;}
</style>
<filter  id="AI_FlouGaussien_4">
	<feGaussianBlur  stdDeviation="4"></feGaussianBlur>
</filter>
<path class="st0" d="M652,59.9c0,0-202-29-329,70c-118.1,92-141,130-245,160c-86.3,24.9-151,11-151,11l-10,192h738L652,59.9z"/>
<g class="st1">
	<path class="st2" d="M550,267.2c6.6,3.9,6.6,10.2,0,14l-151.8,87.7c-6,3.4-15.7,3.4-21.6,0l-71-41.3c-6.6-3.9-6.6-10.1,0-14
		l152.5-87.7c6-3.4,15.7-3.4,21.6,0.1L550,267.2z"/>
</g>
<g>
	<path class="st3" d="M549.4,216.8c0,3.3-1.6,6.2-4,8c-0.5,0.4-1.1,0.8-1.7,1.2l-154.4,89c-5.6,3.2-14.8,3.2-20.4,0l-71.3-41.5
		c-4.8-1.9-8.2-6.5-8.2-12c0-7.1,3.9-14.2,19.1-12.7c3.2,0.3,142-77.5,142-77.5c5.6-3.2,14.8-3.2,20.4,0.1l63.2,37.1
		c1.5-1,3.4-1.6,5.4-1.6C544.9,206.9,549.4,211.3,549.4,216.8z"/>
	<path class="st4" d="M450.5,171.2c5.6-3.2,14.8-3.2,20.4,0.1l63.2,37.1c1.5-1,3.4-1.5,5.4-1.5c5.4,0,9.8,4.4,9.8,9.8
		c0,3.2-1.6,6.1-4,7.9c-0.5,0.4-1.1,0.8-1.7,1.2l-154.2,89.1c-5.6,3.2-14.8,3.2-20.4,0l-0.9-0.5l-70.4-41c-4.8-1.9-8.1-6.6-8.1-12
		c0.1-6.9,4.3-14.2,19.2-12.7C311.8,248.9,450.5,171.2,450.5,171.2z"/>
	<path class="st5" d="M450.5,171c5.6-3.2,14.8-3.2,20.4,0.1l63.3,37.1c1.5-1,3.5-1.4,5.4-1.4c5.4,0,9.7,4.5,9.7,9.8
		c0,3.2-1.6,6.1-4,7.8c-0.5,0.4-1.1,0.8-1.7,1.2l-154.2,89c-5.6,3.2-14.8,3.2-20.4,0l-0.9-0.5l-70.4-41c-4.9-1.9-8-6.7-7.9-12.1
		c0.2-6.8,4.6-14.2,19.2-12.7C311.9,248.7,450.5,171,450.5,171z"/>
	<path class="st6" d="M450.4,170.8c5.6-3.2,14.8-3.2,20.4,0.1l63.3,37.1c1.5-1,3.5-1.4,5.4-1.3c5.4,0.1,9.6,4.5,9.6,9.8
		c0,3.2-1.6,6-4,7.8c-0.5,0.4-1.1,0.8-1.7,1.2l-154.1,89c-5.6,3.2-14.8,3.2-20.4,0L368,314l-70.4-41c-4.9-2-7.9-6.7-7.7-12.1
		c0.3-6.7,5-14.1,19.3-12.7C312.1,248.5,450.4,170.8,450.4,170.8z"/>
	<path class="st7" d="M450.4,170.6c5.6-3.2,14.9-3.2,20.5,0.1l63.4,37.2c1.4-0.9,3.5-1.3,5.4-1.2c5.3,0.1,9.5,4.5,9.4,9.7
		c0,3.1-1.6,5.9-4,7.7c-0.5,0.4-1.1,0.8-1.7,1.2l-154.1,89c-5.6,3.2-14.8,3.2-20.4,0l-0.9-0.5l-70.4-41c-5-2-7.8-6.8-7.6-12.1
		c0.3-6.5,5.3-14.1,19.3-12.7C312.2,248.2,450.4,170.6,450.4,170.6z"/>
	<path class="st8" d="M450.3,170.4c5.6-3.3,14.9-3.2,20.5,0.1l63.4,37.2c1.4-0.9,3.6-1.2,5.4-1.1c5.3,0.1,9.4,4.5,9.3,9.7
		c0,3.1-1.6,5.9-4,7.6c-0.5,0.4-1.1,0.8-1.7,1.2l-154,89c-5.6,3.2-14.8,3.2-20.4,0l-0.9-0.5l-70.5-41c-5-2.1-7.7-6.9-7.4-12.2
		c0.4-6.4,5.7-14.1,19.4-12.7C312.3,248,450.3,170.4,450.3,170.4z"/>
	<path class="st9" d="M450.3,170.2c5.7-3.3,14.9-3.2,20.5,0.1l63.4,37.2c1.4-0.9,3.6-1.1,5.4-1.1c5.3,0.1,9.3,4.5,9.2,9.7
		c0,3.1-1.6,5.8-4,7.6c-0.5,0.4-1,0.8-1.7,1.2l-154,88.9c-5.6,3.2-14.8,3.2-20.4,0l-0.9-0.5l-70.5-41c-5-2.1-7.6-6.9-7.2-12.2
		c0.5-6.2,6.1-14,19.4-12.7C312.4,247.7,450.3,170.2,450.3,170.2z"/>
	<path class="st10" d="M450.3,170.1c5.7-3.3,14.9-3.2,20.5,0.1l63.5,37.2c1.3-0.9,3.6-1,5.4-1c5.2,0.2,9.2,4.6,9.1,9.6
		c-0.1,3.1-1.6,5.8-4,7.5c-0.5,0.4-1,0.8-1.7,1.2l-153.9,88.9c-5.6,3.2-14.8,3.3-20.4,0l-0.9-0.5l-70.5-41c-5.1-2.1-7.5-7-7-12.3
		c0.5-6.1,6.4-14,19.5-12.7C312.6,247.5,450.3,170.1,450.3,170.1z"/>
	<path class="st11" d="M450.2,169.9c5.7-3.3,14.9-3.2,20.6,0.1l63.5,37.3c1.3-0.9,3.7-0.9,5.3-0.9c5.2,0.2,9.1,4.6,9,9.6
		c-0.1,3-1.6,5.7-4,7.5c-0.5,0.4-1,0.8-1.7,1.1L389,313.5c-5.6,3.2-14.8,3.3-20.4,0.1c-0.1,0-0.9-0.5-0.9-0.5l-70.5-41
		c-5.1-2.2-7.4-7-6.9-12.3c0.6-5.9,6.8-13.9,19.5-12.6C312.7,247.3,450.2,169.9,450.2,169.9z"/>
	<path class="st12" d="M450.2,169.7c5.7-3.3,14.9-3.2,20.6,0.1l63.6,37.3c1.3-0.8,3.7-0.8,5.3-0.8c5.2,0.2,9.1,4.6,8.9,9.6
		c-0.1,3-1.6,5.7-4,7.4c-0.5,0.4-1,0.8-1.6,1.1l-153.8,88.8c-5.6,3.2-14.8,3.3-20.4,0.1c-0.1,0-0.9-0.5-0.9-0.5l-70.5-41
		c-5.1-2.2-7.3-7.1-6.7-12.3c0.7-5.7,7.2-13.9,19.6-12.6C312.8,247,450.2,169.7,450.2,169.7z"/>
	<path class="st13" d="M450.2,169.5c5.7-3.3,15-3.2,20.6,0.1l63.6,37.3c1.2-0.8,3.7-0.7,5.3-0.7c5.1,0.2,9,4.6,8.8,9.6
		c-0.1,3-1.6,5.6-4,7.3c-0.5,0.4-1,0.8-1.6,1.1L389.2,313c-5.6,3.2-14.8,3.3-20.4,0.1c-0.1,0-0.9-0.5-0.9-0.5l-70.5-41
		c-5.2-2.3-7.2-7.1-6.5-12.4c0.7-5.6,7.5-13.9,19.6-12.6C312.9,246.8,450.2,169.5,450.2,169.5z"/>
	<path class="st14" d="M450.1,169.3c5.7-3.3,15-3.2,20.6,0.1l63.6,37.3c1.2-0.8,3.8-0.7,5.3-0.6c5.1,0.3,8.9,4.6,8.7,9.5
		c-0.1,2.9-1.6,5.6-4,7.3c-0.5,0.4-1,0.8-1.6,1.1L389,312.8c-5.6,3.2-14.8,3.3-20.4,0.1c-0.1,0-0.9-0.5-0.9-0.5l-70.5-41
		c-5.2-2.3-7.1-7.2-6.4-12.4c0.8-5.4,7.9-13.8,19.7-12.6C313,246.6,450.1,169.3,450.1,169.3z"/>
	<path class="st15" d="M450.1,169.1c5.7-3.3,15-3.2,20.7,0.1l63.7,37.4c1.2-0.8,3.8-0.6,5.3-0.5c5.1,0.3,8.8,4.7,8.6,9.5
		c-0.1,2.9-1.6,5.5-3.9,7.2c-0.5,0.4-1,0.8-1.6,1.1l-153.7,88.7c-5.6,3.2-14.7,3.3-20.4,0.1c-0.1,0-0.9-0.5-0.9-0.5l-70.5-41
		c-5.3-2.3-7-7.2-6.2-12.5c0.8-5.3,8.2-13.8,19.7-12.6C313.2,246.3,450.1,169.1,450.1,169.1z"/>
	<path class="st16" d="M450,168.9c5.7-3.3,15-3.2,20.7,0.1l63.7,37.4c1.1-0.7,3.9-0.5,5.3-0.4c5.1,0.3,8.7,4.7,8.5,9.5
		c-0.1,2.9-1.6,5.4-3.9,7.1c-0.5,0.4-1,0.8-1.6,1.1l-153.6,88.7c-5.6,3.2-14.7,3.3-20.5,0.1c-0.1,0-0.9-0.5-0.9-0.5l-70.5-41
		c-5.3-2.4-6.9-7.3-6-12.5c0.9-5.1,8.6-13.8,19.8-12.6C313.3,246.1,450,168.9,450,168.9z"/>
	<path class="st17" d="M450,168.8c5.7-3.3,15-3.2,20.7,0.1l63.8,37.4c1.1-0.7,3.9-0.4,5.3-0.3c5,0.3,8.6,4.7,8.4,9.4
		c-0.1,2.8-1.6,5.4-3.9,7.1c-0.5,0.4-1,0.8-1.6,1.1l-153.6,88.7c-5.6,3.2-14.7,3.3-20.5,0.1c-0.1,0-0.8-0.5-0.9-0.5l-70.6-41
		c-5.3-2.4-7.8-7.6-5.9-12.5c0-5.1,9-13.7,19.8-12.6C313.4,245.9,450,168.8,450,168.8z"/>
	<path class="st18" d="M450,168.6c5.7-3.3,15.1-3.3,20.8,0.1l63.8,37.4c1.1-0.7,3.9-0.3,5.3-0.2c5,0.3,8.5,4.7,8.3,9.4
		c-0.1,2.8-1.6,5.3-3.9,7c-0.5,0.4-1,0.7-1.6,1.1L389.1,312c-5.6,3.2-14.7,3.3-20.5,0.1c-0.1-0.1-0.8-0.5-0.9-0.5l-70.6-41
		c-5.4-2.5-7.7-7.6-5.7-12.6c0-4.9,9.3-13.7,19.9-12.6C313.5,245.6,450,168.6,450,168.6z"/>
	<path class="st19" d="M449.9,168.4c5.7-3.3,15.1-3.3,20.8,0.1l63.8,37.4c1-0.7,4-0.2,5.3-0.1c5,0.4,8.4,4.7,8.2,9.4
		c-0.1,2.8-1.6,5.3-3.9,7c-0.5,0.4-1,0.7-1.6,1.1L389,311.9c-5.6,3.2-14.7,3.3-20.5,0.1c-0.1-0.1-0.8-0.5-0.9-0.5L297,270.4
		c-5.4-2.5-7.7-7.7-5.5-12.6c0-4.8,9.7-13.6,19.9-12.6C313.7,245.4,449.9,168.4,449.9,168.4z"/>
	<path class="st20" d="M449.9,168.2c5.7-3.3,15.1-3.3,20.8,0.1l63.9,37.5c1-0.7,4-0.1,5.3,0c5,0.4,8.3,4.8,8.1,9.3
		c-0.1,2.7-1.6,5.2-3.9,6.9c-0.5,0.4-1,0.7-1.6,1.1l-153.4,88.6c-5.6,3.2-14.7,3.3-20.5,0.2c-0.1-0.1-0.8-0.5-0.9-0.5l-70.6-41.1
		c-5.4-2.5-7.7-7.8-5.4-12.7c0-4.6,10-13.6,20-12.6C313.8,245.1,449.9,168.2,449.9,168.2z"/>
	<path class="st21" d="M449.9,168c5.7-3.3,15.1-3.3,20.8,0.1l63.9,37.5c1-0.6,4,0,5.3,0.1c4.9,0.4,8.3,4.8,8,9.3
		c-0.1,2.7-1.6,5.2-3.9,6.8c-0.5,0.4-1,0.7-1.5,1.1l-153.4,88.6c-5.6,3.2-14.7,3.3-20.5,0.2c-0.1-0.1-0.8-0.5-0.9-0.5L297.1,270
		c-5.5-2.6-7.6-7.8-5.2-12.7c0-4.5,10.4-13.6,20-12.6C313.9,244.9,449.9,168,449.9,168z"/>
	<path class="st22" d="M449.8,167.8c5.7-3.3,15.1-3.3,20.9,0.1l64,37.5c0.9-0.6,4.1,0.1,5.3,0.2c4.9,0.4,8.2,4.8,7.9,9.3
		c-0.2,2.7-1.6,5.1-3.9,6.8c-0.5,0.4-1,0.7-1.5,1l-153.3,88.5c-5.6,3.2-14.7,3.3-20.5,0.2c-0.1-0.1-0.8-0.5-0.9-0.5L297,269.8
		c-5.5-2.6-7.6-7.9-5-12.7c0-4.3,10.8-13.5,20.1-12.6C314,244.7,449.8,167.8,449.8,167.8z"/>
	<path class="st23" d="M449.8,167.7c5.8-3.3,15.2-3.3,20.9,0.1l64,37.5c0.9-0.6,4.1,0.1,5.3,0.3c4.9,0.5,8.1,4.8,7.8,9.2
		c-0.2,2.6-1.6,5.1-3.9,6.7c-0.4,0.4-1,0.7-1.5,1L389.1,311c-5.6,3.2-14.7,3.3-20.5,0.2c-0.1-0.1-0.8-0.5-0.9-0.5L297,269.6
		c-5.6-2.7-7.6-8-4.9-12.8c0-4.2,11.1-13.5,20.1-12.6C314.2,244.4,449.8,167.7,449.8,167.7z"/>
	<path class="st24" d="M449.8,167.5c5.8-3.3,15.2-3.3,20.9,0.1l64,37.6c0.9-0.6,4.1,0.2,5.3,0.4c4.8,0.5,8,4.8,7.7,9.2
		c-0.2,2.6-1.6,5-3.9,6.6c-0.4,0.4-1,0.7-1.5,1L389,310.8c-5.6,3.2-14.7,3.3-20.5,0.2c-0.1-0.1-0.8-0.5-0.9-0.5L297,269.4
		c-5.6-2.7-7.5-8.1-4.7-12.8c0-4.1,11.5-13.5,20.2-12.6C314.3,244.2,449.8,167.5,449.8,167.5z"/>
	<path class="st25" d="M449.7,167.3c5.8-3.3,15.2-3.3,20.9,0.1l64.1,37.6c0.9-0.6,4.2,0.3,5.3,0.4c4.8,0.5,7.9,4.9,7.6,9.2
		c-0.2,2.6-1.6,4.9-3.9,6.6c-0.4,0.4-0.9,0.7-1.5,1L389,310.6c-5.6,3.2-14.7,3.3-20.5,0.2c-0.2-0.1-0.8-0.4-0.9-0.5l-70.7-41.1
		c-5.6-2.8-7.5-8.1-4.5-12.9c0-3.9,11.8-13.4,20.2-12.6C314.4,244,449.7,167.3,449.7,167.3z"/>
	<path class="st26" d="M449.7,167.1c5.8-3.3,15.2-3.3,21,0.1l64.1,37.6c0.8-0.5,4.2,0.4,5.2,0.5c4.8,0.5,7.8,4.9,7.5,9.2
		c-0.2,2.6-1.6,4.9-3.8,6.5c-0.4,0.4-0.9,0.7-1.5,1L389,310.4c-5.6,3.2-14.7,3.3-20.5,0.2c-0.2-0.1-0.8-0.4-0.9-0.5L296.9,269
		c-5.7-2.8-7.5-8.2-4.3-12.9c0-3.8,12.2-13.4,20.3-12.6C314.5,243.7,449.7,167.1,449.7,167.1z"/>
	<path class="st27" d="M449.6,166.9c5.8-3.3,15.2-3.3,21,0.1l64.2,37.6c0.8-0.5,4.2,0.5,5.2,0.6c4.8,0.6,7.7,4.9,7.4,9.1
		c-0.2,2.5-1.6,4.8-3.8,6.5c-0.4,0.4-0.9,0.7-1.5,1L389,310.2c-5.6,3.2-14.7,3.3-20.5,0.2c-0.2-0.1-0.8-0.4-1-0.5l-70.7-41.1
		c-5.7-2.8-7.4-8.3-4.2-12.9c0-3.6,12.6-13.3,20.3-12.6C314.7,243.5,449.6,166.9,449.6,166.9z"/>
	<path class="st27" d="M449.6,166.7c5.8-3.3,15.2-3.3,21,0.1l64.2,37.7c0.8-0.5,4.3,0.6,5.2,0.7c4.8,0.6,7.6,4.9,7.3,9.1
		c-0.2,2.5-1.6,4.8-3.8,6.4c-0.4,0.3-0.9,0.7-1.5,1L389,310c-5.6,3.2-14.7,3.3-20.5,0.2c-0.2-0.1-0.8-0.4-1-0.5l-70.7-41.1
		c-5.7-2.9-7.4-8.4-4-13c0-3.5,12.9-13.3,20.4-12.6C314.8,243.3,449.6,166.7,449.6,166.7z"/>
	<path class="st28" d="M449.6,166.5c5.8-3.3,15.3-3.3,21,0.1l64.2,37.7c0.7-0.5,4.3,0.7,5.2,0.8c4.7,0.6,7.5,4.9,7.2,9.1
		c-0.2,2.5-1.6,4.7-3.8,6.3c-0.4,0.3-0.9,0.7-1.5,1l-153,88.3c-5.6,3.3-14.7,3.3-20.5,0.2c-0.2-0.1-0.8-0.4-1-0.5l-70.7-41.1
		c-5.8-2.9-7.4-8.4-3.8-13c0-3.3,13.3-13.3,20.4-12.5C314.9,243,449.6,166.5,449.6,166.5z"/>
	<path class="st29" d="M449.5,166.4c5.8-3.3,15.3-3.3,21.1,0.1l64.3,37.7c0.7-0.5,4.3,0.8,5.2,0.9c4.7,0.6,7.4,5,7.1,9
		c-0.2,2.4-1.6,4.7-3.8,6.3c-0.4,0.3-0.9,0.7-1.4,1l-153,88.2c-5.6,3.3-14.7,3.3-20.5,0.3c-0.2-0.1-0.8-0.4-1-0.5l-70.7-41.1
		c-5.8-3-7.3-8.5-3.7-13.1c0-3.2,13.6-13.2,20.5-12.5C315,242.8,449.5,166.4,449.5,166.4z"/>
	<path class="st30" d="M449.5,166.2c5.8-3.3,15.3-3.3,21.1,0.1l64.3,37.7c0.7-0.4,4.4,0.9,5.2,1c4.7,0.7,7.4,5,7,9
		c-0.2,2.4-1.6,4.6-3.8,6.2c-0.4,0.3-0.9,0.7-1.4,1L389,309.4c-5.6,3.3-14.7,3.3-20.5,0.3c-0.2-0.1-0.8-0.4-1-0.5l-70.7-41.1
		c-5.8-3-7.3-8.6-3.5-13.1c0-3,14-13.2,20.5-12.5C315.2,242.5,449.5,166.2,449.5,166.2z"/>
	<path class="st31" d="M449.5,166c5.8-3.3,15.3-3.3,21.1,0.1l64.4,37.8c0.6-0.4,4.4,1,5.2,1.1c4.7,0.7,7.3,5,6.9,9
		c-0.2,2.4-1.6,4.6-3.8,6.1c-0.4,0.3-0.9,0.7-1.4,1L389,309.2c-5.6,3.3-14.7,3.3-20.5,0.3c-0.2-0.1-0.8-0.4-1-0.5l-70.7-41.1
		c-5.9-3-7.3-8.7-3.3-13.1c0-2.9,14.4-13.2,20.6-12.5C315.3,242.3,449.5,166,449.5,166z"/>
	<path class="st32" d="M449.4,165.8c5.8-3.4,15.3-3.3,21.1,0.1l64.4,37.8c0.6-0.4,4.4,1.1,5.2,1.2c4.6,0.7,7.2,5,6.8,8.9
		c-0.2,2.3-1.6,4.5-3.8,6.1c-0.4,0.3-0.9,0.6-1.4,0.9L388.9,309c-5.6,3.3-14.7,3.3-20.5,0.3c-0.2-0.1-0.8-0.4-1-0.5l-70.7-41.1
		c-5.9-3.1-7.2-8.7-3.2-13.2c0-2.7,14.7-13.1,20.6-12.5C315.4,242.1,449.4,165.8,449.4,165.8z"/>
	<path class="st33" d="M449.4,165.6c5.8-3.4,15.4-3.3,21.2,0.1l64.4,37.8c0.6-0.4,4.5,1.2,5.2,1.3c4.6,0.7,7.1,5,6.6,8.9
		c-0.3,2.3-1.6,4.4-3.8,6c-0.4,0.3-0.9,0.6-1.4,0.9l-152.7,88.2c-5.6,3.3-14.7,3.3-20.5,0.3c-0.2-0.1-0.8-0.4-1-0.5l-70.8-41.2
		c-6-3.1-7.2-8.8-3-13.2c0-2.6,15.1-13.1,20.7-12.5C315.5,241.8,449.4,165.6,449.4,165.6z"/>
	<path class="st34" d="M449.3,165.4c5.8-3.4,15.4-3.3,21.2,0.1l64.5,37.8c0.5-0.4,4.5,1.3,5.2,1.4c4.6,0.8,7,5.1,6.5,8.9
		c-0.3,2.3-1.6,4.4-3.8,6c-0.4,0.3-0.9,0.6-1.4,0.9l-152.7,88.2c-5.6,3.3-14.7,3.3-20.6,0.3c-0.2-0.1-0.8-0.4-1-0.5l-70.8-41.2
		c-6-3.2-7.2-8.9-2.8-13.3c0-2.5,15.5-13,20.7-12.5C315.7,241.6,449.3,165.4,449.3,165.4z"/>
	<path class="st35" d="M449.3,165.2c5.8-3.4,15.4-3.3,21.2,0.1l64.5,37.8c0.5-0.3,4.5,1.4,5.2,1.5c4.6,0.8,6.9,5.1,6.4,8.8
		c-0.3,2.2-1.6,4.3-3.8,5.9c-0.4,0.3-0.9,0.6-1.4,0.9l-152.6,88.1c-5.6,3.3-14.7,3.4-20.6,0.3c-0.2-0.1-0.7-0.4-1-0.5l-70.8-41.2
		c-6-3.2-7.1-9-2.7-13.3c0-2.3,15.8-13,20.8-12.5C315.8,241.4,449.3,165.2,449.3,165.2z"/>
	<path class="st36" d="M449.3,165.1c5.9-3.4,15.4-3.3,21.2,0.1l64.6,37.9c0.5-0.3,4.6,1.5,5.2,1.6c4.6,0.8,6.8,5.1,6.3,8.8
		c-0.3,2.2-1.6,4.3-3.8,5.8c-0.4,0.3-0.9,0.6-1.4,0.9l-152.6,88.1c-5.6,3.3-14.7,3.4-20.6,0.3c-0.2-0.1-0.7-0.4-1-0.5l-70.8-41.2
		c-6.1-3.2-7.1-9-2.5-13.3c0-2.2,16.2-13,20.8-12.5C315.9,241.1,449.3,165.1,449.3,165.1z"/>
	<path class="st37" d="M449.2,164.9c5.9-3.4,15.4-3.3,21.3,0.1l64.6,37.9c0.4-0.3,4.6,1.7,5.2,1.7c4.3,1.6,6.7,5.1,6.2,8.8
		c-0.3,2.2-1.6,4.2-3.7,5.8c-0.4,0.3-0.9,0.6-1.4,0.9L388.9,308c-5.6,3.3-14.7,3.4-20.6,0.3c-0.2-0.1-0.7-0.4-1-0.5l-70.8-41.2
		c-6.1-3.3-7.1-9.1-2.3-13.4c0-2,16.5-12.9,20.9-12.5C316,240.9,449.2,164.9,449.2,164.9z"/>
	<path class="st38" d="M449.2,164.7c5.9-3.4,15.4-3.3,21.3,0.1l64.6,37.9c0.4-0.3,4.6,1.8,5.2,1.8c4.3,1.7,6.6,5.1,6.1,8.7
		c-0.3,2.2-1.6,4.2-3.7,5.7c-0.4,0.3-0.9,0.6-1.3,0.9l-152.5,88c-5.6,3.3-14.7,3.4-20.6,0.4c-0.2-0.1-0.7-0.4-1-0.5l-70.8-41.2
		c-6.1-3.3-7-9.2-2.2-13.4c0-1.9,16.9-12.9,20.9-12.5C316.1,240.7,449.2,164.7,449.2,164.7z"/>
	<path class="st39" d="M449.2,164.5c5.9-3.4,15.5-3.3,21.3,0.1l64.7,37.9c0.4-0.2,4.7,1.9,5.2,1.9c4.3,1.7,6.5,5.1,6,8.7
		c-0.3,2.1-1.6,4.1-3.7,5.6c-0.4,0.3-0.9,0.6-1.3,0.9l-152.4,88c-5.6,3.3-14.7,3.4-20.6,0.4c-0.3-0.1-0.7-0.4-1-0.5l-70.8-41.2
		c-6.2-3.4-7-9.2-2-13.5c0-1.7,17.3-12.9,21-12.5C316.3,240.4,449.2,164.5,449.2,164.5z"/>
	<path class="st40" d="M449.1,164.3c5.9-3.4,15.5-3.3,21.3,0.1l64.7,38c0.3-0.2,4.7,1.9,5.1,1.9c4.2,1.8,6.5,5.2,5.9,8.7
		c-0.3,2.1-1.6,4.1-3.7,5.6c-0.4,0.3-0.8,0.6-1.3,0.9l-152.4,88c-5.6,3.3-14.7,3.4-20.6,0.4c-0.3-0.1-0.7-0.4-1-0.5l-70.8-41.2
		c-6.2-3.4-7-9.3-1.8-13.5c0-1.6,17.6-12.8,21-12.5C316.4,240.2,449.1,164.3,449.1,164.3z"/>
	<path class="st41" d="M449.1,164.1c5.9-3.4,15.5-3.3,21.4,0.1l64.8,38c0.3-0.2,4.7,2,5.1,2c4.2,1.8,6.4,5.2,5.8,8.7
		c-0.3,2.1-1.6,4-3.7,5.5c-0.4,0.3-0.8,0.6-1.3,0.9l-152.3,88c-5.6,3.3-14.7,3.4-20.6,0.4c-0.3-0.1-0.7-0.4-1-0.5L296.5,266
		c-6.3-3.4-6.9-9.4-1.7-13.6c0-1.4,18-12.8,21.1-12.5C316.5,239.9,449.1,164.1,449.1,164.1z"/>
	<path class="st42" d="M449,164c5.9-3.4,15.5-3.3,21.4,0.1l64.8,38c0.3-0.2,4.8,2.1,5.1,2.1c4.2,1.9,6.3,5.2,5.7,8.6
		c-0.3,2-1.6,3.9-3.7,5.4c-0.4,0.3-0.8,0.6-1.3,0.9L388.8,307c-5.6,3.3-14.7,3.4-20.6,0.4c-0.3-0.1-0.7-0.4-1-0.5l-70.9-41.2
		c-6.3-3.5-6.9-9.5-1.5-13.6c0-1.3,18.3-12.7,21.1-12.5C316.6,239.7,449,164,449,164z"/>
	<path class="st43" d="M449,163.8c5.9-3.4,15.5-3.4,21.4,0.1l64.8,38c0.3-0.2,4.8,2.2,5.1,2.2c4.1,1.9,6.2,5.2,5.6,8.6
		c-0.3,2-1.6,3.9-3.7,5.4c-0.4,0.3-0.8,0.6-1.3,0.8l-152.2,87.9c-5.6,3.3-14.7,3.4-20.6,0.4c-0.3-0.1-0.7-0.4-1-0.5l-70.9-41.2
		c-6.3-3.5-6.9-9.5-1.3-13.6c0-1.2,18.7-12.7,21.2-12.5C316.8,239.5,449,163.8,449,163.8z"/>
	<path class="st44" d="M449,163.6c5.9-3.4,15.6-3.4,21.4,0.1l64.9,38.1c0.2-0.1,4.8,2.3,5.1,2.3c4.1,2,6.1,5.2,5.5,8.6
		c-0.3,2-1.6,3.8-3.7,5.3c-0.4,0.3-0.8,0.6-1.3,0.8l-152.2,87.9c-5.6,3.3-14.7,3.4-20.6,0.4c-0.3-0.1-0.7-0.4-1-0.5l-70.9-41.2
		c-6.4-3.6-6.8-9.6-1.1-13.7c0-1,19.1-12.7,21.2-12.5C316.9,239.2,449,163.6,449,163.6z"/>
	<path class="st45" d="M448.9,163.4c5.9-3.4,15.6-3.4,21.5,0.1l64.9,38.1c0.2-0.1,4.9,2.4,5.1,2.4c4.1,2,6,5.3,5.4,8.5
		c-0.4,1.9-1.6,3.8-3.7,5.3c-0.4,0.3-0.8,0.6-1.3,0.8l-152.1,87.8c-5.6,3.3-14.7,3.4-20.6,0.4c-0.3-0.1-0.7-0.4-1-0.5l-70.9-41.2
		c-6.4-3.6-6.8-9.7-1-13.7c0-0.9,19.4-12.6,21.3-12.4C317,239,448.9,163.4,448.9,163.4z"/>
	<path class="st46" d="M448.9,163.2c5.9-3.4,15.6-3.4,21.5,0.1l65,38.1c0.2-0.1,4.9,2.5,5.1,2.5c4,2,5.9,5.3,5.3,8.5
		c-0.4,1.9-1.6,3.7-3.7,5.2c-0.4,0.3-0.8,0.6-1.3,0.8l-152.1,87.8c-5.6,3.3-14.7,3.4-20.6,0.4c-0.3-0.1-0.7-0.4-1-0.5l-70.9-41.2
		c-6.4-3.6-6.8-9.8-0.8-13.8c0-0.7,19.8-12.6,21.3-12.4C317.1,238.8,448.9,163.2,448.9,163.2z"/>
	<path class="st47" d="M448.9,163c5.9-3.4,15.6-3.4,21.5,0.1l65,38.1c0.1-0.1,4.9,2.6,5.1,2.6c4,2.1,5.8,5.3,5.2,8.5
		c-0.4,1.9-1.6,3.7-3.7,5.1c-0.4,0.3-0.8,0.6-1.3,0.8l-152,87.8c-5.6,3.3-14.7,3.4-20.6,0.4c-0.3-0.2-0.7-0.4-1-0.5l-70.9-41.2
		c-6.5-3.7-6.7-9.8-0.6-13.8c0-0.6,20.1-12.6,21.4-12.4C317.3,238.5,448.9,163,448.9,163z"/>
	<path class="st48" d="M448.8,162.8c5.9-3.4,15.6-3.4,21.5,0.1l65,38.2c0.1-0.1,5,2.7,5.1,2.7c4,2.1,5.7,5.3,5.1,8.4
		c-0.4,1.8-1.6,3.6-3.6,5.1c-0.4,0.3-0.8,0.5-1.2,0.8l-152,87.8c-5.6,3.3-14.7,3.4-20.6,0.5c-0.3-0.2-0.7-0.4-1-0.5l-70.9-41.3
		c-6.5-3.7-6.7-9.9-0.5-13.8c0-0.4,20.5-12.5,21.4-12.4C317.4,238.3,448.8,162.8,448.8,162.8z"/>
	<path class="st49" d="M448.8,162.7c5.9-3.4,15.7-3.4,21.6,0.1l65.1,38.2c0.1,0,5,2.8,5.1,2.8c3.9,2.2,5.7,5.3,5,8.4
		c-0.4,1.8-1.6,3.6-3.6,5c-0.4,0.3-0.8,0.5-1.2,0.8l-151.9,87.7c-5.6,3.3-14.7,3.4-20.6,0.5c-0.3-0.2-0.7-0.3-1-0.5l-70.9-41.3
		c-6.6-3.8-6.7-10-0.3-13.9c0-0.3,20.9-12.5,21.5-12.4C317.5,238.1,448.8,162.7,448.8,162.7z"/>
	<path class="st50" d="M448.8,162.5c6-3.4,15.7-3.4,21.6,0.1l65.1,38.2c0,0,5,2.9,5.1,2.9c3.9,2.2,5.6,5.4,4.9,8.4
		c-0.4,1.8-1.6,3.5-3.6,4.9c-0.4,0.3-0.8,0.5-1.2,0.8l-151.8,87.7c-5.6,3.3-14.7,3.4-20.6,0.5c-0.3-0.2-0.7-0.3-1-0.5l-71-41.3
		c-6.6-3.8-6.6-10.1-0.1-13.9c0-0.1,21.2-12.5,21.5-12.4C317.6,237.8,448.8,162.5,448.8,162.5z"/>
	<path class="st51" d="M540.6,203.6c6.6,3.9,6.6,10.2,0,14l-151.8,87.7c-6,3.4-15.7,3.4-21.6,0l-71-41.3c-6.6-3.9-6.6-10.1,0-14
		l152.5-87.7c6-3.4,15.7-3.4,21.6,0.1L540.6,203.6z"/>
</g>
<path class="st52" d="M346.6,269.7c-3.8-2.2-9.9-2.2-13.6,0s-3.7,5.7,0,7.9s9.8,2.2,13.6,0S350.4,271.9,346.6,269.7z"/>
<path class="st53" d="M425.3,86.1C425.4,86.1,425.4,86.1,425.3,86.1C425.4,86.1,425.4,86.1,425.3,86.1
	C425.4,86.2,425.4,86.1,425.3,86.1z"/>
<path class="st54" d="M423.2,87.2L423.2,87.2L423.2,87.2L423.2,87.2z"/>
</svg>
